<svg id="Layer_21_copy" data-name="Layer 21 copy" xmlns="http://www.w3.org/2000/svg" viewBox="0 0 182.33 143.1"><defs><style>.cls-1{fill:#f7f7f7;}.cls-1,.cls-11,.cls-2,.cls-3,.cls-4,.cls-6,.cls-7,.cls-8{stroke:#fff;stroke-miterlimit:22.93;}.cls-1,.cls-2{stroke-width:2.83px;}.cls-2,.cls-4{fill:#ec2527;}.cls-10,.cls-12,.cls-3{fill:#fff;}.cls-11,.cls-3,.cls-4,.cls-6,.cls-7,.cls-8{stroke-width:0.22px;}.cls-5{fill:#ef4242;}.cls-6{fill:#e2e2e2;}.cls-7{fill:#d8d9d8;}.cls-8{fill:#e5e3e3;}.cls-9{fill:#010101;}.cls-11{opacity:0.77;}.cls-12{opacity:0.88;}</style></defs><title>5</title><path class="cls-1" d="M105.17,274c49.43,0,89.75-19.91,89.75-44.31s-40.32-44.31-89.75-44.31-89.75,19.91-89.75,44.31S55.74,274,105.17,274Z" transform="translate(-14 -180.01)"/><path class="cls-2" d="M105.17,270c49.43,0,89.75-19.91,89.75-44.31s-40.32-44.31-89.75-44.31-89.75,19.91-89.75,44.31S55.74,270,105.17,270Z" transform="translate(-14 -180.01)"/><path class="cls-3" d="M105.17,259.81c38,0,69-15.31,69-34.07s-31-34.07-69-34.07-69,15.31-69,34.07S67.16,259.81,105.17,259.81Z" transform="translate(-14 -180.01)"/><path class="cls-4" d="M105.17,257.15c35,0,63.63-14.11,63.63-31.42s-28.58-31.42-63.63-31.42-63.63,14.11-63.63,31.42S70.13,257.15,105.17,257.15Z" transform="translate(-14 -180.01)"/><path class="cls-3" d="M105.17,269.41c-5.85,0-11.56-.28-17.09-0.82v-3.72c0-1.32,2.19-2.4,4.87-2.4h24.44c2.68,0,4.87,1.08,4.87,2.4v3.72c-5.53.53-11.24,0.82-17.09,0.82h0Zm76.61-21.84a63.43,63.43,0,0,1-10,6.9l-6.53-1.86c-2.32-.66-3.12-2.14-1.78-3.28l12.22-10.45c1.34-1.15,4.33-1.54,6.65-.88l6.53,1.86a41,41,0,0,1-7.11,7.72h0Zm0-43.68a41.07,41.07,0,0,1,7.11,7.72l-6.53,1.86c-2.32.66-5.31,0.27-6.65-.88l-12.22-10.44c-1.34-1.15-.54-2.62,1.78-3.28L171.8,197a63.46,63.46,0,0,1,10,6.9h0Zm-76.61-21.84c5.85,0,11.56.28,17.09,0.82v3.72c0,1.32-2.19,2.4-4.87,2.4H92.95c-2.68,0-4.87-1.08-4.87-2.4v-3.72c5.53-.53,11.24-0.82,17.09-0.82h0ZM28.56,203.89a63.44,63.44,0,0,1,10-6.9l6.53,1.86c2.32,0.66,3.12,2.14,1.78,3.28L34.65,212.58c-1.34,1.15-4.33,1.54-6.65.88l-6.53-1.86a41.06,41.06,0,0,1,7.11-7.72h0Zm0,43.68a41.06,41.06,0,0,1-7.11-7.72L28,238c2.32-.66,5.31-0.27,6.65.88l12.21,10.46c1.34,1.15.54,2.62-1.78,3.28l-6.53,1.86a63.43,63.43,0,0,1-10-6.9h0Z" transform="translate(-14 -180.01)"/><path class="cls-5" d="M195.19,228.27c1.74,3.44,0,17.8,0,21.51,0,24.47-40.19,44.31-89.75,44.31s-89.75-19.84-89.75-44.31c0-3.71-1.74-18.06,0-21.51,0,24.47,40.19,44.31,89.75,44.31S195.19,252.75,195.19,228.27Z" transform="translate(-14 -180.01)"/><path class="cls-6" d="M188.89,263.24c-4,5.08-9.82,9.71-17.09,13.69V255.42c7.27-4,13.1-8.61,17.09-13.69v21.51Z" transform="translate(-14 -180.01)"/><path class="cls-7" d="M122.26,290.75V269.24c-5.53.53-11.24,0.81-17.09,0.81s-11.56-.28-17.09-0.81v21.51c5.53,0.53,11.24.81,17.09,0.81S116.73,291.28,122.26,290.75Z" transform="translate(-14 -180.01)"/><path class="cls-8" d="M38.54,255.42v21.51c-7.27-4-13.1-8.61-17.09-13.69V241.73C25.44,246.81,31.27,251.44,38.54,255.42Z" transform="translate(-14 -180.01)"/><path class="cls-9" d="M87.84,227.09l-6.54,1a6.58,6.58,0,0,0-.89-1.65,4.36,4.36,0,0,0-1.31-.93v4.86q5.34,1.36,7.14,2.87a6.5,6.5,0,0,1,2.37,5.16,6.78,6.78,0,0,1-.85,3.36,8.27,8.27,0,0,1-2.18,2.55,8.91,8.91,0,0,1-2.82,1.49,14.45,14.45,0,0,1-3.66.55v3.17H76.53v-3.17a16.87,16.87,0,0,1-4.19-.8,8.57,8.57,0,0,1-2.78-1.6,7.92,7.92,0,0,1-1.8-2.21,10,10,0,0,1-1-2.86l7.1-.79a6.2,6.2,0,0,0,.85,2.4,4.42,4.42,0,0,0,1.77,1.31v-5.93a34.09,34.09,0,0,1-5-1.63A6.58,6.58,0,0,1,68.95,232a6.19,6.19,0,0,1-1.09-3.7,6.5,6.5,0,0,1,2.19-5q2.19-2,6.51-2.23v-1.66h2.57v1.66a11.16,11.16,0,0,1,6,1.78A7.11,7.11,0,0,1,87.84,227.09Zm-11.3-1.68a3.33,3.33,0,0,0-1.56.88,1.85,1.85,0,0,0-.44,1.23,2,2,0,0,0,.45,1.29,3.33,3.33,0,0,0,1.56.92v-4.32h0Zm2.57,16.53a4.15,4.15,0,0,0,2.19-1,2.33,2.33,0,0,0,.69-1.64,2.16,2.16,0,0,0-.59-1.46,5.43,5.43,0,0,0-2.29-1.24v5.39h0Z" transform="translate(-14 -180.01)"/><path class="cls-9" d="M97.15,204.89h28.33V214H106.29l-1,6.15a21.24,21.24,0,0,1,3.94-1.34,17.2,17.2,0,0,1,3.85-.45,14.77,14.77,0,0,1,10.46,3.72,12.24,12.24,0,0,1,4,9.37,15.34,15.34,0,0,1-2.07,7.64,13.71,13.71,0,0,1-5.86,5.6,21.38,21.38,0,0,1-9.71,1.93,30,30,0,0,1-7.28-.77,15.13,15.13,0,0,1-5.16-2.29A14,14,0,0,1,94,240.08a17.63,17.63,0,0,1-2.2-4.81l12-1.26a6.88,6.88,0,0,0,2,4.21,5.56,5.56,0,0,0,3.84,1.44,5.3,5.3,0,0,0,4.12-1.8,7.82,7.82,0,0,0,1.63-5.39q0-3.66-1.64-5.37a5.78,5.78,0,0,0-4.37-1.71,7.34,7.34,0,0,0-3.34.81,9.62,9.62,0,0,0-2.64,2.13l-10.17-1.4Z" transform="translate(-14 -180.01)"/><path class="cls-10" d="M87.84,224.94l-6.54,1a6.3,6.3,0,0,0-.89-1.6,4.35,4.35,0,0,0-1.31-.9v4.7q5.34,1.32,7.14,2.78a6.2,6.2,0,0,1,2.37,5,6.39,6.39,0,0,1-.85,3.25,8.07,8.07,0,0,1-2.18,2.47,9,9,0,0,1-2.82,1.44,14.88,14.88,0,0,1-3.66.53v3.07H76.53v-3.07a17.34,17.34,0,0,1-4.19-.77,8.65,8.65,0,0,1-2.78-1.55,7.71,7.71,0,0,1-1.8-2.14,9.44,9.44,0,0,1-1-2.77l7.1-.76a5.87,5.87,0,0,0,.85,2.32,4.42,4.42,0,0,0,1.77,1.27v-5.74a34.87,34.87,0,0,1-5-1.58,6.53,6.53,0,0,1-2.58-2.14,5.85,5.85,0,0,1-1.11-3.6A6.2,6.2,0,0,1,70,221.32q2.19-1.94,6.51-2.15v-1.61h2.57v1.59a11.42,11.42,0,0,1,6,1.72A6.86,6.86,0,0,1,87.84,224.94Zm-11.3-1.62a3.35,3.35,0,0,0-1.56.85,1.76,1.76,0,0,0-.44,1.19,1.88,1.88,0,0,0,.45,1.25,3.35,3.35,0,0,0,1.56.89v-4.17h0Zm2.57,16a4.2,4.2,0,0,0,2.19-1,2.22,2.22,0,0,0,.69-1.59,2.05,2.05,0,0,0-.59-1.41,5.49,5.49,0,0,0-2.29-1.2v5.21h0Z" transform="translate(-14 -180.01)"/><path class="cls-10" d="M97.15,203.47h28.33v8.79H106.29l-1,6a21.7,21.7,0,0,1,3.94-1.3,17.72,17.72,0,0,1,3.85-.43,15.07,15.07,0,0,1,10.46,3.6,11.66,11.66,0,0,1,4,9.06,14.47,14.47,0,0,1-2.07,7.39,13.52,13.52,0,0,1-5.86,5.41,22,22,0,0,1-9.71,1.87,30.92,30.92,0,0,1-7.28-.74,15.37,15.37,0,0,1-5.16-2.22A13.74,13.74,0,0,1,94,237.56a16.79,16.79,0,0,1-2.2-4.65l12-1.27a6.57,6.57,0,0,0,2,4.07,5.67,5.67,0,0,0,3.84,1.39,5.38,5.38,0,0,0,4.12-1.75,7.4,7.4,0,0,0,1.63-5.21q0-3.54-1.64-5.2a5.88,5.88,0,0,0-4.37-1.65,7.54,7.54,0,0,0-3.34.78,9.57,9.57,0,0,0-2.64,2.06l-10.17-1.35Z" transform="translate(-14 -180.01)"/><rect class="cls-11" x="0.52" y="94.43" width="181.05" height="48.56" rx="12" ry="12"/><path class="cls-12" d="M86.28,305.7l-4.36.69a4.66,4.66,0,0,0-.59-1.15,2.91,2.91,0,0,0-.87-0.65V308a12.7,12.7,0,0,1,4.76,2,4.63,4.63,0,0,1,1.58,3.6,4.91,4.91,0,0,1-.57,2.35,5.71,5.71,0,0,1-1.45,1.78,5.85,5.85,0,0,1-1.88,1,9.22,9.22,0,0,1-2.44.38v2.21H78.75v-2.21a10.79,10.79,0,0,1-2.79-.56,5.66,5.66,0,0,1-1.85-1.12,5.49,5.49,0,0,1-1.2-1.54,7.2,7.2,0,0,1-.63-2l4.73-.55a4.46,4.46,0,0,0,.57,1.68,3,3,0,0,0,1.18.91v-4.14a22,22,0,0,1-3.36-1.14,4.48,4.48,0,0,1-2.44-4.13,4.64,4.64,0,0,1,1.46-3.49,6.57,6.57,0,0,1,4.34-1.55v-1.16h1.71v1.16a7.2,7.2,0,0,1,4,1.24A5,5,0,0,1,86.28,305.7Zm-7.54-1.17a2.2,2.2,0,0,0-1,.61,1.33,1.33,0,0,0-.29.86,1.43,1.43,0,0,0,.3.9,2.2,2.2,0,0,0,1,.64v-3Zm1.71,11.54a2.72,2.72,0,0,0,1.46-.73,1.66,1.66,0,0,0,.46-1.15,1.54,1.54,0,0,0-.39-1,3.58,3.58,0,0,0-1.53-.86v3.76Z" transform="translate(-14 -180.01)"/><path class="cls-12" d="M94.33,279.47h26v8.73H102.71l-0.94,5.91a18.85,18.85,0,0,1,3.61-1.29,15.07,15.07,0,0,1,3.53-.43A13.19,13.19,0,0,1,118.5,296a12,12,0,0,1,3.68,9,15.26,15.26,0,0,1-1.89,7.33,12.84,12.84,0,0,1-5.37,5.37,18.85,18.85,0,0,1-8.9,1.85,26.26,26.26,0,0,1-6.67-.74,13.58,13.58,0,0,1-4.73-2.2,13.13,13.13,0,0,1-3.16-3.32,17.31,17.31,0,0,1-2-4.62l11.06-1.21a6.72,6.72,0,0,0,1.88,4,5,5,0,0,0,3.52,1.38,4.77,4.77,0,0,0,3.77-1.73,7.75,7.75,0,0,0,1.49-5.17q0-3.52-1.5-5.16a5.17,5.17,0,0,0-4-1.64,6.48,6.48,0,0,0-3.06.78,8.89,8.89,0,0,0-2.42,2l-9.32-1.34Z" transform="translate(-14 -180.01)"/></svg>