<svg id="_500" data-name="500" xmlns="http://www.w3.org/2000/svg" viewBox="0 0 182.78 142.36"><defs><style>.cls-1{fill:#3a50a3;stroke-width:2.83px;}.cls-1,.cls-2,.cls-3,.cls-5,.cls-6,.cls-7,.cls-9{stroke:#fff;}.cls-1,.cls-2,.cls-3,.cls-5,.cls-6,.cls-7{stroke-miterlimit:22.93;}.cls-1,.cls-2,.cls-3,.cls-4,.cls-5,.cls-6,.cls-7{fill-rule:evenodd;}.cls-10,.cls-2,.cls-8{fill:#fff;}.cls-2,.cls-3,.cls-5,.cls-6,.cls-7{stroke-width:0.22px;}.cls-3{fill:#31419a;}.cls-4{fill:#2b3385;}.cls-5{fill:#e2e2e2;}.cls-6{fill:#d8d8d8;}.cls-7{fill:#e5e3e3;}.cls-9{stroke-miterlimit:22.93;stroke-width:0.22px;opacity:0.77;}.cls-10{opacity:0.88;}</style></defs><title>500</title><path class="cls-1" d="M405.08,516.8c49.43,0,89.75-19.91,89.75-44.31s-40.32-44.31-89.75-44.31-89.75,19.91-89.75,44.31S355.64,516.8,405.08,516.8Z" transform="translate(-313.91 -426.75)"/><path class="cls-2" d="M405.08,506.56c38,0,69-15.31,69-34.07s-31-34.07-69-34.07-69,15.31-69,34.07S367.07,506.56,405.08,506.56Z" transform="translate(-313.91 -426.75)"/><path class="cls-3" d="M405.08,503.9c35,0,63.63-14.11,63.63-31.42s-28.58-31.42-63.63-31.42-63.63,14.11-63.63,31.42S370,503.9,405.08,503.9Z" transform="translate(-313.91 -426.75)"/><path class="cls-2" d="M405.08,516.16c-5.85,0-11.56-.28-17.09-0.82v-3.72c0-1.32,2.19-2.4,4.87-2.4H417.3c2.68,0,4.87,1.08,4.87,2.4v3.72c-5.53.53-11.24,0.82-17.09,0.82h0Zm76.61-21.84a63.43,63.43,0,0,1-10,6.9l-6.53-1.86c-2.32-.66-3.12-2.14-1.78-3.28l12.22-10.45c1.34-1.15,4.33-1.54,6.65-.88l6.53,1.86a41,41,0,0,1-7.11,7.72h0Zm0-43.68a41.07,41.07,0,0,1,7.11,7.72l-6.53,1.86c-2.32.66-5.31,0.27-6.65-.88L463.4,448.89c-1.34-1.15-.54-2.62,1.78-3.28l6.53-1.86a63.46,63.46,0,0,1,10,6.9h0Zm-76.61-21.84c5.85,0,11.56.28,17.09,0.82v3.72c0,1.32-2.19,2.4-4.87,2.4H392.86c-2.68,0-4.87-1.08-4.87-2.4v-3.72c5.53-.53,11.24-0.82,17.09-0.82h0Zm-76.61,21.84a63.44,63.44,0,0,1,10-6.9l6.53,1.86c2.32,0.66,3.12,2.14,1.78,3.28l-12.22,10.45c-1.34,1.15-4.33,1.54-6.65.88l-6.53-1.86a41.06,41.06,0,0,1,7.11-7.72h0Zm0,43.68a41.06,41.06,0,0,1-7.11-7.72l6.53-1.86c2.32-.66,5.31-0.27,6.65.88l12.22,10.45c1.34,1.15.54,2.62-1.78,3.28l-6.53,1.86A63.43,63.43,0,0,1,328.47,494.32Z" transform="translate(-313.91 -426.75)"/><path class="cls-4" d="M495.09,475c1.74,3.44,0,17.8,0,21.51,0,24.47-40.19,44.31-89.75,44.31S315.58,521,315.58,496.53c0-3.71-1.74-18.06,0-21.51,0,24.47,40.19,44.31,89.75,44.31S495.09,499.49,495.09,475Z" transform="translate(-313.91 -426.75)"/><path class="cls-5" d="M488.8,510c-4,5.08-9.82,9.71-17.09,13.69V502.17c7.27-4,13.1-8.61,17.09-13.69V510Z" transform="translate(-313.91 -426.75)"/><path class="cls-6" d="M422.16,537.5V516c-5.53.53-11.24,0.81-17.09,0.81S393.52,516.52,388,516V537.5c5.53,0.53,11.24.81,17.09,0.81S416.63,538,422.16,537.5Z" transform="translate(-313.91 -426.75)"/><path class="cls-7" d="M338.45,502.17v21.51c-7.27-4-13.1-8.61-17.09-13.69V488.48C325.35,493.56,331.17,498.19,338.45,502.17Z" transform="translate(-313.91 -426.75)"/><path d="M361.74,474.6l-4.19.6a4,4,0,0,0-.57-1,2.8,2.8,0,0,0-.84-0.57v3a12.88,12.88,0,0,1,4.57,1.75,3.88,3.88,0,0,1,1.52,3.14,4,4,0,0,1-.55,2,5.09,5.09,0,0,1-1.4,1.55,5.83,5.83,0,0,1-1.81.9,9.7,9.7,0,0,1-2.34.33v1.93H354.5v-1.93a11.35,11.35,0,0,1-2.69-.49,5.56,5.56,0,0,1-1.78-1,4.85,4.85,0,0,1-1.15-1.34,5.86,5.86,0,0,1-.61-1.74l4.55-.48a3.67,3.67,0,0,0,.55,1.46,2.82,2.82,0,0,0,1.13.8v-3.61a22.59,22.59,0,0,1-3.23-1,4.18,4.18,0,0,1-1.65-1.34,3.64,3.64,0,0,1-.7-2.25,3.87,3.87,0,0,1,1.4-3,6.71,6.71,0,0,1,4.17-1.35v-1h1.64v1A7.42,7.42,0,0,1,360,472,4.31,4.31,0,0,1,361.74,474.6Zm-7.24-1a2.18,2.18,0,0,0-1,.53,1.1,1.1,0,0,0-.28.75,1.17,1.17,0,0,0,.29.79,2.15,2.15,0,0,0,1,.56v-2.63Zm1.64,10.06a2.72,2.72,0,0,0,1.4-.64,1.39,1.39,0,0,0,.45-1,1.28,1.28,0,0,0-.38-0.89,3.53,3.53,0,0,0-1.47-.75v3.28Z" transform="translate(-313.91 -426.75)"/><path d="M368.66,456.09h21.79v6.64H375.69l-0.79,4.5a16.93,16.93,0,0,1,3-1,13.88,13.88,0,0,1,3-.33,11.72,11.72,0,0,1,8,2.72,8.73,8.73,0,0,1,3.09,6.85,10.77,10.77,0,0,1-1.59,5.58,10.32,10.32,0,0,1-4.51,4.09,17.18,17.18,0,0,1-7.47,1.41,24.22,24.22,0,0,1-5.6-.56,12,12,0,0,1-4-1.68,10.48,10.48,0,0,1-2.65-2.52,12.62,12.62,0,0,1-1.69-3.51l9.28-.92a4.93,4.93,0,0,0,1.58,3.08,4.41,4.41,0,0,0,3,1.05,4.18,4.18,0,0,0,3.17-1.32,5.52,5.52,0,0,0,1.25-3.93,5.32,5.32,0,0,0-1.26-3.92,4.57,4.57,0,0,0-3.36-1.25,5.88,5.88,0,0,0-2.57.59,7.36,7.36,0,0,0-2,1.55l-7.82-1Z" transform="translate(-313.91 -426.75)"/><path d="M395.72,470.95q0-8.54,3.39-12t10.33-3.41a16.91,16.91,0,0,1,5.47.75,10.33,10.33,0,0,1,3.49,1.94,10.52,10.52,0,0,1,2.13,2.51,12.35,12.35,0,0,1,1.25,3.08,26.16,26.16,0,0,1,.92,7q0,8.15-3,11.93t-10.48,3.78a16,16,0,0,1-6.74-1.21,10.58,10.58,0,0,1-4.21-3.54,12.58,12.58,0,0,1-1.86-4.53A28.14,28.14,0,0,1,395.72,470.95Zm9.1,0q0,5.72,1.12,7.82a3.51,3.51,0,0,0,3.23,2.09,3.58,3.58,0,0,0,2.42-.89,5.35,5.35,0,0,0,1.51-2.81,26.74,26.74,0,0,0,.48-6q0-6-1.12-8a3.59,3.59,0,0,0-3.34-2.05,3.42,3.42,0,0,0-3.29,2.09Q404.82,465.31,404.82,471Z" transform="translate(-313.91 -426.75)"/><path d="M426.49,470.95q0-8.54,3.39-12t10.33-3.41a16.91,16.91,0,0,1,5.47.75,10.35,10.35,0,0,1,3.49,1.94,10.54,10.54,0,0,1,2.13,2.51,12.38,12.38,0,0,1,1.25,3.08,26.2,26.2,0,0,1,.92,7q0,8.15-3,11.93T440,486.56a16,16,0,0,1-6.74-1.21,10.58,10.58,0,0,1-4.21-3.54,12.58,12.58,0,0,1-1.86-4.53A28.14,28.14,0,0,1,426.49,470.95Zm9.1,0q0,5.72,1.12,7.82a3.5,3.5,0,0,0,3.23,2.09,3.58,3.58,0,0,0,2.42-.89,5.34,5.34,0,0,0,1.51-2.81,26.79,26.79,0,0,0,.48-6q0-6-1.12-8a3.59,3.59,0,0,0-3.35-2.05,3.42,3.42,0,0,0-3.29,2.09Q435.6,465.31,435.6,471Z" transform="translate(-313.91 -426.75)"/><path class="cls-8" d="M360.74,471.6l-4.19.6a4,4,0,0,0-.57-1,2.8,2.8,0,0,0-.84-0.57v3a12.88,12.88,0,0,1,4.57,1.75,3.88,3.88,0,0,1,1.52,3.14,4,4,0,0,1-.55,2,5.09,5.09,0,0,1-1.4,1.55,5.83,5.83,0,0,1-1.81.9,9.7,9.7,0,0,1-2.34.33v1.93H353.5v-1.93a11.35,11.35,0,0,1-2.69-.49,5.56,5.56,0,0,1-1.78-1,4.85,4.85,0,0,1-1.15-1.34,5.86,5.86,0,0,1-.61-1.74l4.55-.48a3.67,3.67,0,0,0,.55,1.46,2.82,2.82,0,0,0,1.13.8v-3.61a22.59,22.59,0,0,1-3.23-1,4.18,4.18,0,0,1-1.65-1.34,3.64,3.64,0,0,1-.7-2.25,3.87,3.87,0,0,1,1.4-3,6.71,6.71,0,0,1,4.17-1.35v-1h1.64v1A7.42,7.42,0,0,1,359,469,4.31,4.31,0,0,1,360.74,471.6Zm-7.24-1a2.18,2.18,0,0,0-1,.53,1.1,1.1,0,0,0-.28.75,1.17,1.17,0,0,0,.29.79,2.15,2.15,0,0,0,1,.56v-2.63Zm1.64,10.06a2.72,2.72,0,0,0,1.4-.64,1.39,1.39,0,0,0,.45-1,1.28,1.28,0,0,0-.38-0.89,3.53,3.53,0,0,0-1.47-.75v3.28Z" transform="translate(-313.91 -426.75)"/><path class="cls-8" d="M367.66,453.09h21.79v6.64H374.69l-0.79,4.5a16.93,16.93,0,0,1,3-1,13.88,13.88,0,0,1,3-.33,11.72,11.72,0,0,1,8,2.72,8.73,8.73,0,0,1,3.09,6.85,10.77,10.77,0,0,1-1.59,5.58,10.32,10.32,0,0,1-4.51,4.09,17.18,17.18,0,0,1-7.47,1.41,24.22,24.22,0,0,1-5.6-.56,12,12,0,0,1-4-1.68,10.48,10.48,0,0,1-2.65-2.52,12.62,12.62,0,0,1-1.69-3.51l9.28-.92a4.93,4.93,0,0,0,1.58,3.08,4.41,4.41,0,0,0,3,1.05,4.18,4.18,0,0,0,3.17-1.32,5.52,5.52,0,0,0,1.25-3.93,5.32,5.32,0,0,0-1.26-3.92,4.57,4.57,0,0,0-3.36-1.25,5.88,5.88,0,0,0-2.57.59,7.36,7.36,0,0,0-2,1.55l-7.82-1Z" transform="translate(-313.91 -426.75)"/><path class="cls-8" d="M394.72,467.95q0-8.54,3.39-12t10.33-3.41a16.91,16.91,0,0,1,5.47.75,10.33,10.33,0,0,1,3.49,1.94,10.52,10.52,0,0,1,2.13,2.51,12.35,12.35,0,0,1,1.25,3.08,26.16,26.16,0,0,1,.92,7q0,8.15-3,11.93t-10.48,3.78a16,16,0,0,1-6.74-1.21,10.58,10.58,0,0,1-4.21-3.54,12.58,12.58,0,0,1-1.86-4.53A28.14,28.14,0,0,1,394.72,467.95Zm9.1,0q0,5.72,1.12,7.82a3.51,3.51,0,0,0,3.23,2.09,3.58,3.58,0,0,0,2.42-.89,5.35,5.35,0,0,0,1.51-2.81,26.74,26.74,0,0,0,.48-6q0-6-1.12-8a3.59,3.59,0,0,0-3.34-2.05,3.42,3.42,0,0,0-3.29,2.09Q403.82,462.31,403.82,468Z" transform="translate(-313.91 -426.75)"/><path class="cls-8" d="M425.49,467.95q0-8.54,3.39-12t10.33-3.41a16.91,16.91,0,0,1,5.47.75,10.35,10.35,0,0,1,3.49,1.94,10.54,10.54,0,0,1,2.13,2.51,12.38,12.38,0,0,1,1.25,3.08,26.2,26.2,0,0,1,.92,7q0,8.15-3,11.93T439,483.56a16,16,0,0,1-6.74-1.21,10.58,10.58,0,0,1-4.21-3.54,12.58,12.58,0,0,1-1.86-4.53A28.14,28.14,0,0,1,425.49,467.95Zm9.1,0q0,5.72,1.12,7.82a3.5,3.5,0,0,0,3.23,2.09,3.58,3.58,0,0,0,2.42-.89,5.34,5.34,0,0,0,1.51-2.81,26.79,26.79,0,0,0,.48-6q0-6-1.12-8a3.59,3.59,0,0,0-3.35-2.05,3.42,3.42,0,0,0-3.29,2.09Q434.6,462.31,434.6,468Z" transform="translate(-313.91 -426.75)"/><rect class="cls-9" x="1.62" y="93.69" width="181.05" height="48.56" rx="12" ry="12"/><path class="cls-10" d="M350.62,551.7l-4.36.69a4.66,4.66,0,0,0-.59-1.15,2.91,2.91,0,0,0-.87-0.65V554a12.69,12.69,0,0,1,4.76,2,4.63,4.63,0,0,1,1.58,3.6,4.91,4.91,0,0,1-.57,2.35,5.71,5.71,0,0,1-1.45,1.78,5.83,5.83,0,0,1-1.88,1,9.22,9.22,0,0,1-2.44.38v2.21h-1.71v-2.21a10.79,10.79,0,0,1-2.79-.56,5.66,5.66,0,0,1-1.85-1.12,5.49,5.49,0,0,1-1.2-1.54,7.2,7.2,0,0,1-.63-2l4.73-.55a4.46,4.46,0,0,0,.57,1.68,3,3,0,0,0,1.18.91v-4.14a22,22,0,0,1-3.36-1.14,4.48,4.48,0,0,1-2.44-4.13,4.64,4.64,0,0,1,1.46-3.49,6.57,6.57,0,0,1,4.34-1.55v-1.16h1.71v1.16a7.2,7.2,0,0,1,4,1.24A5,5,0,0,1,350.62,551.7Zm-7.54-1.17a2.2,2.2,0,0,0-1,.61,1.33,1.33,0,0,0-.29.86,1.43,1.43,0,0,0,.3.9,2.21,2.21,0,0,0,1,.64v-3Zm1.71,11.54a2.72,2.72,0,0,0,1.46-.73,1.67,1.67,0,0,0,.46-1.15,1.55,1.55,0,0,0-.39-1,3.6,3.6,0,0,0-1.53-.86v3.76Z" transform="translate(-313.91 -426.75)"/><path class="cls-10" d="M358.66,525.47h26v8.73H367l-0.94,5.91a18.9,18.9,0,0,1,3.61-1.29,15.12,15.12,0,0,1,3.53-.43,13.18,13.18,0,0,1,9.59,3.57,12,12,0,0,1,3.68,9,15.26,15.26,0,0,1-1.89,7.33,12.84,12.84,0,0,1-5.37,5.37,18.85,18.85,0,0,1-8.9,1.85,26.23,26.23,0,0,1-6.67-.74,13.56,13.56,0,0,1-4.73-2.2,13.13,13.13,0,0,1-3.16-3.32,17.31,17.31,0,0,1-2-4.62l11.06-1.21a6.72,6.72,0,0,0,1.88,4,5,5,0,0,0,3.52,1.38,4.77,4.77,0,0,0,3.77-1.73,7.75,7.75,0,0,0,1.49-5.17q0-3.52-1.5-5.16a5.17,5.17,0,0,0-4-1.64,6.48,6.48,0,0,0-3.06.78,8.89,8.89,0,0,0-2.42,2l-9.32-1.34Z" transform="translate(-313.91 -426.75)"/><path class="cls-10" d="M390.92,545q0-11.23,4-15.71t12.31-4.48a18.43,18.43,0,0,1,6.53,1,12.07,12.07,0,0,1,4.16,2.55,13.58,13.58,0,0,1,2.54,3.3,17.2,17.2,0,0,1,1.49,4,37.72,37.72,0,0,1,1.1,9.18q0,10.72-3.63,15.68t-12.49,5a17.51,17.51,0,0,1-8-1.58,13,13,0,0,1-5-4.65,17.51,17.51,0,0,1-2.22-5.95A40.64,40.64,0,0,1,390.92,545Zm10.85,0q0,7.52,1.33,10.27T407,558a4,4,0,0,0,2.89-1.17,7.24,7.24,0,0,0,1.8-3.69,38.68,38.68,0,0,0,.58-7.87q0-7.84-1.33-10.54a4.26,4.26,0,0,0-4-2.7,4.07,4.07,0,0,0-3.92,2.75Q401.77,537.58,401.77,545Z" transform="translate(-313.91 -426.75)"/><path class="cls-10" d="M427.6,545q0-11.23,4-15.71T444,524.8a18.43,18.43,0,0,1,6.53,1,12.06,12.06,0,0,1,4.16,2.55,13.58,13.58,0,0,1,2.54,3.3,17.2,17.2,0,0,1,1.49,4,37.82,37.82,0,0,1,1.1,9.18q0,10.72-3.62,15.68t-12.49,5a17.51,17.51,0,0,1-8-1.58,13,13,0,0,1-5-4.65,17.51,17.51,0,0,1-2.22-5.95A40.64,40.64,0,0,1,427.6,545Zm10.85,0q0,7.52,1.33,10.27t3.85,2.75a4,4,0,0,0,2.89-1.17,7.24,7.24,0,0,0,1.8-3.69,38.66,38.66,0,0,0,.58-7.87q0-7.84-1.33-10.54a4.26,4.26,0,0,0-4-2.7,4.07,4.07,0,0,0-3.92,2.75Q438.45,537.58,438.45,545Z" transform="translate(-313.91 -426.75)"/></svg>