<svg id="_5K" data-name="5K" xmlns="http://www.w3.org/2000/svg" viewBox="0 0 183.04 143.36"><defs><style>.cls-1,.cls-10,.cls-8{fill:#fff;}.cls-1,.cls-2,.cls-3,.cls-4,.cls-5,.cls-7,.cls-9{stroke:#fff;}.cls-1,.cls-2,.cls-3,.cls-4,.cls-5,.cls-7{stroke-miterlimit:22.93;}.cls-1,.cls-2{stroke-width:2.83px;}.cls-1,.cls-2,.cls-3,.cls-4,.cls-5,.cls-6,.cls-7{fill-rule:evenodd;}.cls-2{fill:#f0ea43;}.cls-3{fill:#050606;}.cls-3,.cls-4,.cls-5,.cls-7{stroke-width:0.22px;}.cls-4{fill:#bb3826;}.cls-5{fill:#262620;}.cls-6{fill:#dbd523;}.cls-7{fill:#121212;}.cls-9{stroke-miterlimit:22.93;stroke-width:0.22px;opacity:0.77;}.cls-10{opacity:0.88;}</style></defs><title>5000</title><path class="cls-1" d="M404.82,678.8c49.43,0,89.75-19.91,89.75-44.31s-40.32-44.31-89.75-44.31-89.75,19.91-89.75,44.31S355.38,678.8,404.82,678.8Z" transform="translate(-313.65 -586.75)"/><path class="cls-2" d="M404.82,676.8c49.43,0,89.75-19.91,89.75-44.31s-40.32-44.31-89.75-44.31-89.75,19.91-89.75,44.31S355.38,676.8,404.82,676.8Z" transform="translate(-313.65 -586.75)"/><path class="cls-3" d="M404.82,666.56c38,0,69-15.31,69-34.07s-31-34.07-69-34.07-69,15.31-69,34.07S366.81,666.56,404.82,666.56Z" transform="translate(-313.65 -586.75)"/><path class="cls-4" d="M404.82,663.9c35,0,63.63-14.11,63.63-31.42s-28.58-31.42-63.63-31.42-63.63,14.11-63.63,31.42S369.77,663.9,404.82,663.9Z" transform="translate(-313.65 -586.75)"/><path class="cls-5" d="M404.82,676.16c-5.85,0-11.56-.28-17.09-0.82v-3.72c0-1.32,2.19-2.4,4.87-2.4H417c2.68,0,4.87,1.08,4.87,2.4v3.72c-5.53.53-11.24,0.82-17.09,0.82h0Zm76.61-21.84a63.43,63.43,0,0,1-10,6.9l-6.53-1.86c-2.32-.66-3.12-2.14-1.78-3.28l12.22-10.45c1.34-1.15,4.33-1.54,6.65-.88l6.53,1.86a41,41,0,0,1-7.11,7.72h0Zm0-43.68a41.07,41.07,0,0,1,7.11,7.72L482,620.22c-2.32.66-5.31,0.27-6.65-.88l-12.22-10.45c-1.34-1.15-.54-2.62,1.78-3.28l6.53-1.86a63.46,63.46,0,0,1,10,6.9h0Zm-76.61-21.84c5.85,0,11.56.28,17.09,0.82v3.72c0,1.32-2.19,2.4-4.87,2.4H392.6c-2.68,0-4.87-1.08-4.87-2.4v-3.72c5.53-.53,11.24-0.82,17.09-0.82h0Zm-76.61,21.84a63.44,63.44,0,0,1,10-6.9l6.53,1.86c2.32,0.66,3.12,2.14,1.78,3.28l-12.22,10.45c-1.34,1.15-4.33,1.54-6.65.88l-6.53-1.86a41.06,41.06,0,0,1,7.11-7.72h0Zm0,43.68a41.06,41.06,0,0,1-7.11-7.72l6.53-1.86c2.32-.66,5.31-0.27,6.65.88l12.22,10.45c1.34,1.15.54,2.62-1.78,3.28l-6.53,1.86A63.43,63.43,0,0,1,328.21,654.32Z" transform="translate(-313.65 -586.75)"/><path class="cls-6" d="M494.83,635c1.74,3.44,0,17.8,0,21.51,0,24.47-40.19,44.31-89.75,44.31S315.32,681,315.32,656.53c0-3.71-1.74-18.06,0-21.51,0,24.47,40.19,44.31,89.75,44.31S494.83,659.49,494.83,635Z" transform="translate(-313.65 -586.75)"/><path class="cls-7" d="M488.54,670c-4,5.08-9.82,9.71-17.09,13.69V662.17c7.27-4,13.1-8.61,17.09-13.69V670Z" transform="translate(-313.65 -586.75)"/><path class="cls-7" d="M421.91,697.5V676c-5.53.53-11.24,0.81-17.09,0.81s-11.56-.28-17.09-0.81V697.5c5.53,0.53,11.24.81,17.09,0.81S416.37,698,421.91,697.5Z" transform="translate(-313.65 -586.75)"/><path class="cls-7" d="M338.19,662.17v21.51c-7.27-4-13.1-8.61-17.09-13.69V648.48C325.09,653.56,330.92,658.19,338.19,662.17Z" transform="translate(-313.65 -586.75)"/><path d="M357.58,635.93l-3.6.6a4.11,4.11,0,0,0-.49-1,2.42,2.42,0,0,0-.72-0.57v3a10.21,10.21,0,0,1,3.93,1.75,4.14,4.14,0,0,1,1.3,3.14,4.48,4.48,0,0,1-.47,2,4.94,4.94,0,0,1-1.2,1.55,4.76,4.76,0,0,1-1.55.9,7.23,7.23,0,0,1-2,.33v1.93h-1.41v-1.93a8.53,8.53,0,0,1-2.31-.49,4.62,4.62,0,0,1-1.53-1,4.75,4.75,0,0,1-1-1.34,6.5,6.5,0,0,1-.52-1.74l3.91-.48a4.06,4.06,0,0,0,.47,1.46,2.47,2.47,0,0,0,1,.8v-3.61a17.39,17.39,0,0,1-2.77-1,3.75,3.75,0,0,1-1.42-1.34,4.06,4.06,0,0,1-.6-2.25,4.16,4.16,0,0,1,1.2-3,5.26,5.26,0,0,1,3.58-1.35v-1h1.41v1a5.72,5.72,0,0,1,3.31,1.08A4.39,4.39,0,0,1,357.58,635.93Zm-6.22-1a1.81,1.81,0,0,0-.86.53,1.2,1.2,0,0,0-.24.75,1.29,1.29,0,0,0,.24.79,1.81,1.81,0,0,0,.86.56v-2.63ZM352.77,645a2.21,2.21,0,0,0,1.21-.64,1.5,1.5,0,0,0,.38-1,1.39,1.39,0,0,0-.32-0.89,2.92,2.92,0,0,0-1.26-.75V645Z" transform="translate(-313.65 -586.75)"/><path d="M363.51,617.43h18.71v6.64H369.55l-0.68,4.5a13.11,13.11,0,0,1,2.6-1,10.3,10.3,0,0,1,2.54-.33,9.22,9.22,0,0,1,6.91,2.72,9.4,9.4,0,0,1,2.65,6.85,12.15,12.15,0,0,1-1.36,5.58,9.53,9.53,0,0,1-3.87,4.09,13,13,0,0,1-6.41,1.41,18,18,0,0,1-4.81-.56,9.58,9.58,0,0,1-3.4-1.68,9.77,9.77,0,0,1-2.27-2.52,13.58,13.58,0,0,1-1.45-3.51l8-.92a5.23,5.23,0,0,0,1.35,3.08,3.48,3.48,0,0,0,2.53,1.05,3.36,3.36,0,0,0,2.72-1.32,6.13,6.13,0,0,0,1.07-3.93,5.9,5.9,0,0,0-1.08-3.92,3.63,3.63,0,0,0-2.88-1.25,4.47,4.47,0,0,0-2.21.59,6.51,6.51,0,0,0-1.74,1.55l-6.71-1Z" transform="translate(-313.65 -586.75)"/><path d="M386.75,632.28q0-8.54,2.91-12t8.87-3.41a12.64,12.64,0,0,1,4.7.75,8.63,8.63,0,0,1,3,1.94,10.33,10.33,0,0,1,1.83,2.51,13.54,13.54,0,0,1,1.07,3.08,30.27,30.27,0,0,1,.79,7q0,8.15-2.61,11.93t-9,3.78a12,12,0,0,1-5.78-1.21,9.59,9.59,0,0,1-3.62-3.54,13.77,13.77,0,0,1-1.6-4.53A32.59,32.59,0,0,1,386.75,632.28Zm7.82,0q0,5.72,1,7.82a3,3,0,0,0,2.78,2.09,2.83,2.83,0,0,0,2.08-.89,5.65,5.65,0,0,0,1.3-2.81,31.13,31.13,0,0,0,.42-6q0-6-1-8a3.07,3.07,0,0,0-2.87-2.05,2.94,2.94,0,0,0-2.82,2.09Q394.56,626.64,394.56,632.3Z" transform="translate(-313.65 -586.75)"/><path d="M413.17,632.28q0-8.54,2.91-12t8.87-3.41a12.63,12.63,0,0,1,4.7.75,8.63,8.63,0,0,1,3,1.94,10.33,10.33,0,0,1,1.83,2.51,13.59,13.59,0,0,1,1.07,3.08,30.27,30.27,0,0,1,.79,7q0,8.15-2.61,11.93t-9,3.78a12,12,0,0,1-5.78-1.21,9.58,9.58,0,0,1-3.62-3.54,13.75,13.75,0,0,1-1.6-4.53A32.59,32.59,0,0,1,413.17,632.28Zm7.82,0q0,5.72,1,7.82a3,3,0,0,0,2.78,2.09,2.83,2.83,0,0,0,2.08-.89,5.65,5.65,0,0,0,1.3-2.81,31.13,31.13,0,0,0,.42-6q0-6-1-8a3.07,3.07,0,0,0-2.87-2.05,2.94,2.94,0,0,0-2.82,2.09Q421,626.64,421,632.3Z" transform="translate(-313.65 -586.75)"/><path d="M439.6,632.28q0-8.54,2.91-12t8.87-3.41a12.63,12.63,0,0,1,4.7.75,8.64,8.64,0,0,1,3,1.94,10.3,10.3,0,0,1,1.83,2.51,13.5,13.5,0,0,1,1.07,3.08,30.22,30.22,0,0,1,.79,7q0,8.15-2.61,11.93t-9,3.78a12,12,0,0,1-5.79-1.21,9.6,9.6,0,0,1-3.62-3.54,13.79,13.79,0,0,1-1.6-4.53A32.59,32.59,0,0,1,439.6,632.28Zm7.81,0q0,5.72,1,7.82a3,3,0,0,0,2.78,2.09,2.83,2.83,0,0,0,2.08-.89,5.64,5.64,0,0,0,1.3-2.81,31,31,0,0,0,.42-6q0-6-1-8a3.07,3.07,0,0,0-2.87-2.05,2.94,2.94,0,0,0-2.82,2.09Q447.41,626.64,447.41,632.3Z" transform="translate(-313.65 -586.75)"/><path class="cls-8" d="M357.11,632.76l-3.5.6a4.23,4.23,0,0,0-.48-1,2.39,2.39,0,0,0-.7-0.57v3a9.83,9.83,0,0,1,3.83,1.75,4.19,4.19,0,0,1,1.27,3.14,4.59,4.59,0,0,1-.46,2,4.93,4.93,0,0,1-1.17,1.55,4.62,4.62,0,0,1-1.51.9,6.89,6.89,0,0,1-2,.33v1.93H351v-1.93a8.13,8.13,0,0,1-2.25-.49,4.5,4.5,0,0,1-1.49-1,4.76,4.76,0,0,1-1-1.34,6.7,6.7,0,0,1-.51-1.74l3.81-.48a4.11,4.11,0,0,0,.46,1.46,2.43,2.43,0,0,0,.95.8v-3.61a16.74,16.74,0,0,1-2.7-1,3.7,3.7,0,0,1-1.38-1.34,4.14,4.14,0,0,1-.58-2.25,4.22,4.22,0,0,1,1.17-3,5,5,0,0,1,3.49-1.35v-1h1.38v1a5.48,5.48,0,0,1,3.23,1.08A4.42,4.42,0,0,1,357.11,632.76Zm-6.06-1a1.75,1.75,0,0,0-.84.53,1.22,1.22,0,0,0-.24.75,1.31,1.31,0,0,0,.24.79,1.76,1.76,0,0,0,.83.56v-2.63Zm1.38,10.06a2.13,2.13,0,0,0,1.17-.64,1.52,1.52,0,0,0,.37-1,1.41,1.41,0,0,0-.31-0.89,2.83,2.83,0,0,0-1.23-.75v3.28Z" transform="translate(-313.65 -586.75)"/><path class="cls-8" d="M362.89,614.26h18.22v6.64H368.77l-0.66,4.5a12.54,12.54,0,0,1,2.53-1,9.79,9.79,0,0,1,2.48-.33,8.86,8.86,0,0,1,6.73,2.72,9.55,9.55,0,0,1,2.58,6.85,12.39,12.39,0,0,1-1.33,5.58,9.42,9.42,0,0,1-3.77,4.09,12.36,12.36,0,0,1-6.25,1.41,17.09,17.09,0,0,1-4.68-.56,9.23,9.23,0,0,1-3.32-1.68,9.72,9.72,0,0,1-2.21-2.52,13.77,13.77,0,0,1-1.41-3.51l7.76-.92a5.3,5.3,0,0,0,1.32,3.08,3.34,3.34,0,0,0,2.47,1.05,3.24,3.24,0,0,0,2.65-1.32,6.24,6.24,0,0,0,1-3.93,6,6,0,0,0-1.05-3.92,3.5,3.5,0,0,0-2.81-1.25,4.26,4.26,0,0,0-2.15.59,6.38,6.38,0,0,0-1.7,1.55l-6.54-1Z" transform="translate(-313.65 -586.75)"/><path class="cls-8" d="M385.52,629.12q0-8.54,2.84-12t8.64-3.41a12,12,0,0,1,4.58.75,8.4,8.4,0,0,1,2.92,1.94,10.31,10.31,0,0,1,1.78,2.51,13.85,13.85,0,0,1,1,3.08,31,31,0,0,1,.77,7q0,8.15-2.54,11.93t-8.76,3.78a11.48,11.48,0,0,1-5.63-1.21,9.45,9.45,0,0,1-3.52-3.54,14,14,0,0,1-1.55-4.53A33.42,33.42,0,0,1,385.52,629.12Zm7.61,0q0,5.72.93,7.82a3,3,0,0,0,2.7,2.09,2.72,2.72,0,0,0,2-.89,5.71,5.71,0,0,0,1.26-2.81,31.81,31.81,0,0,0,.41-6q0-6-.93-8a3,3,0,0,0-2.8-2.05,2.87,2.87,0,0,0-2.75,2.09Q393.13,623.48,393.13,629.14Z" transform="translate(-313.65 -586.75)"/><path class="cls-8" d="M411.26,629.12q0-8.54,2.84-12t8.64-3.41a12,12,0,0,1,4.58.75,8.4,8.4,0,0,1,2.92,1.94,10.33,10.33,0,0,1,1.78,2.51,13.8,13.8,0,0,1,1,3.08,31,31,0,0,1,.77,7q0,8.15-2.54,11.93t-8.76,3.78a11.48,11.48,0,0,1-5.63-1.21,9.46,9.46,0,0,1-3.52-3.54,14,14,0,0,1-1.55-4.53A33.51,33.51,0,0,1,411.26,629.12Zm7.61,0q0,5.72.93,7.82a3,3,0,0,0,2.7,2.09,2.72,2.72,0,0,0,2-.89,5.71,5.71,0,0,0,1.26-2.81,31.91,31.91,0,0,0,.4-6q0-6-.93-8a3,3,0,0,0-2.8-2.05,2.87,2.87,0,0,0-2.75,2.09Q418.87,623.48,418.87,629.14Z" transform="translate(-313.65 -586.75)"/><path class="cls-8" d="M437,629.12q0-8.54,2.84-12t8.64-3.41a12,12,0,0,1,4.58.75,8.4,8.4,0,0,1,2.92,1.94,10.33,10.33,0,0,1,1.78,2.51,13.8,13.8,0,0,1,1,3.08,31,31,0,0,1,.77,7q0,8.15-2.54,11.93t-8.76,3.78a11.48,11.48,0,0,1-5.63-1.21,9.46,9.46,0,0,1-3.52-3.54,14,14,0,0,1-1.55-4.53A33.51,33.51,0,0,1,437,629.12Zm7.61,0q0,5.72.93,7.82a3,3,0,0,0,2.7,2.09,2.72,2.72,0,0,0,2-.89,5.71,5.71,0,0,0,1.26-2.81,31.91,31.91,0,0,0,.4-6q0-6-.93-8a3,3,0,0,0-2.8-2.05,2.87,2.87,0,0,0-2.75,2.09Q444.61,623.48,444.61,629.14Z" transform="translate(-313.65 -586.75)"/><rect class="cls-9" x="1.88" y="94.69" width="181.05" height="48.56" rx="12" ry="12"/><path class="cls-10" d="M340.62,712.7l-4.36.69a4.66,4.66,0,0,0-.59-1.15,2.91,2.91,0,0,0-.87-0.65V715a12.69,12.69,0,0,1,4.76,2,4.63,4.63,0,0,1,1.58,3.6,4.91,4.91,0,0,1-.57,2.35,5.71,5.71,0,0,1-1.45,1.78,5.83,5.83,0,0,1-1.88,1,9.22,9.22,0,0,1-2.44.38v2.21h-1.71v-2.21a10.79,10.79,0,0,1-2.79-.56,5.66,5.66,0,0,1-1.85-1.12,5.49,5.49,0,0,1-1.2-1.54,7.2,7.2,0,0,1-.63-2l4.73-.55a4.46,4.46,0,0,0,.57,1.68,3,3,0,0,0,1.18.91v-4.14a22,22,0,0,1-3.36-1.14,4.48,4.48,0,0,1-2.44-4.13,4.64,4.64,0,0,1,1.46-3.49,6.57,6.57,0,0,1,4.34-1.55v-1.16h1.71v1.16a7.2,7.2,0,0,1,4,1.24A5,5,0,0,1,340.62,712.7Zm-7.54-1.17a2.2,2.2,0,0,0-1,.61,1.33,1.33,0,0,0-.29.86,1.43,1.43,0,0,0,.3.9,2.21,2.21,0,0,0,1,.64v-3Zm1.71,11.54a2.72,2.72,0,0,0,1.46-.73,1.67,1.67,0,0,0,.46-1.15,1.55,1.55,0,0,0-.39-1,3.6,3.6,0,0,0-1.53-.86v3.76Z" transform="translate(-313.65 -586.75)"/><path class="cls-10" d="M348.66,686.47h26v8.73H357l-0.94,5.91a18.9,18.9,0,0,1,3.61-1.29,15.12,15.12,0,0,1,3.53-.43,13.18,13.18,0,0,1,9.59,3.57,12,12,0,0,1,3.68,9,15.26,15.26,0,0,1-1.89,7.33,12.84,12.84,0,0,1-5.37,5.37,18.85,18.85,0,0,1-8.9,1.85,26.23,26.23,0,0,1-6.67-.74,13.56,13.56,0,0,1-4.73-2.2,13.13,13.13,0,0,1-3.16-3.32,17.31,17.31,0,0,1-2-4.62l11.06-1.21a6.72,6.72,0,0,0,1.88,4,5,5,0,0,0,3.52,1.38,4.77,4.77,0,0,0,3.77-1.73,7.75,7.75,0,0,0,1.49-5.17q0-3.52-1.5-5.16a5.17,5.17,0,0,0-4-1.64,6.48,6.48,0,0,0-3.06.78,8.89,8.89,0,0,0-2.42,2l-9.32-1.34Z" transform="translate(-313.65 -586.75)"/><path class="cls-10" d="M380.92,706q0-11.23,4-15.71t12.31-4.48a18.43,18.43,0,0,1,6.53,1,12.07,12.07,0,0,1,4.16,2.55,13.58,13.58,0,0,1,2.54,3.3,17.2,17.2,0,0,1,1.49,4,37.72,37.72,0,0,1,1.1,9.18q0,10.72-3.63,15.68t-12.49,5a17.51,17.51,0,0,1-8-1.58,13,13,0,0,1-5-4.65,17.51,17.51,0,0,1-2.22-5.95A40.64,40.64,0,0,1,380.92,706Zm10.85,0q0,7.52,1.33,10.27T397,719a4,4,0,0,0,2.89-1.17,7.24,7.24,0,0,0,1.8-3.69,38.68,38.68,0,0,0,.58-7.87q0-7.84-1.33-10.54a4.26,4.26,0,0,0-4-2.7,4.07,4.07,0,0,0-3.92,2.75Q391.77,698.58,391.77,706Z" transform="translate(-313.65 -586.75)"/><path class="cls-10" d="M417.6,706q0-11.23,4-15.71T434,685.8a18.43,18.43,0,0,1,6.53,1,12.06,12.06,0,0,1,4.16,2.55,13.58,13.58,0,0,1,2.54,3.3,17.2,17.2,0,0,1,1.49,4,37.82,37.82,0,0,1,1.1,9.18q0,10.72-3.62,15.68t-12.49,5a17.51,17.51,0,0,1-8-1.58,13,13,0,0,1-5-4.65,17.51,17.51,0,0,1-2.22-5.95A40.64,40.64,0,0,1,417.6,706Zm10.85,0q0,7.52,1.33,10.27t3.85,2.75a4,4,0,0,0,2.89-1.17,7.24,7.24,0,0,0,1.8-3.69,38.66,38.66,0,0,0,.58-7.87q0-7.84-1.33-10.54a4.26,4.26,0,0,0-4-2.7,4.07,4.07,0,0,0-3.92,2.75Q428.45,698.58,428.45,706Z" transform="translate(-313.65 -586.75)"/><path class="cls-10" d="M454.29,706q0-11.23,4-15.71t12.31-4.48a18.43,18.43,0,0,1,6.53,1,12.06,12.06,0,0,1,4.16,2.55,13.58,13.58,0,0,1,2.54,3.3,17.24,17.24,0,0,1,1.49,4,37.77,37.77,0,0,1,1.1,9.18q0,10.72-3.63,15.68t-12.49,5a17.51,17.51,0,0,1-8-1.58,13,13,0,0,1-5-4.65,17.51,17.51,0,0,1-2.22-5.95A40.64,40.64,0,0,1,454.29,706Zm10.85,0q0,7.52,1.33,10.27a4.17,4.17,0,0,0,3.85,2.75,4,4,0,0,0,2.89-1.17,7.24,7.24,0,0,0,1.8-3.69,38.66,38.66,0,0,0,.58-7.87q0-7.84-1.33-10.54a4.26,4.26,0,0,0-4-2.7,4.07,4.07,0,0,0-3.92,2.75Q465.13,698.58,465.14,706Z" transform="translate(-313.65 -586.75)"/></svg>