<svg id="big_frame" data-name="big frame" xmlns="http://www.w3.org/2000/svg" xmlns:xlink="http://www.w3.org/1999/xlink" viewBox="0 0 167.09 242.67"><defs><style>.cls-1{fill:#fff;stroke:#000;stroke-width:0.5px;}.cls-2{fill:#df0000;}.cls-3{fill:url(#radial-gradient);}.cls-4{fill:url(#radial-gradient-2);}.cls-5{fill:#e50000;}</style><radialGradient id="radial-gradient" cx="-256.69" cy="551.13" r="8" gradientTransform="matrix(-6.68, 0.03, 0.05, 11.01, -1643.17, -5914.88)" gradientUnits="userSpaceOnUse"><stop offset="0" stop-color="#df0000"/><stop offset="1" stop-color="#df0000" stop-opacity="0.64"/></radialGradient><radialGradient id="radial-gradient-2" cx="1.24" cy="2007.44" r="81.9" gradientTransform="matrix(-0.26, 0.22, 0.13, 0.16, -165.11, -161.42)" gradientUnits="userSpaceOnUse"><stop offset="0" stop-color="#fff" stop-opacity="0.44"/><stop offset="1" stop-opacity="0"/></radialGradient></defs><title>2D</title><g id="Layer_1"><path id="path5" class="cls-1" d="M166.84,235.55a6.89,6.89,0,0,1-6.87,6.87H7.11a6.88,6.88,0,0,1-6.86-6.87V7.12A6.89,6.89,0,0,1,7.11.25H160a6.89,6.89,0,0,1,6.87,6.87V235.55Z"/></g><g id="layer1-2-6"><path id="dl-6" class="cls-2" d="M42.78,105.24A66.69,66.69,0,0,1,35,91.4a66.69,66.69,0,0,1-7.78,13.85,56.71,56.71,0,0,1-11.4,11.33,56.61,56.61,0,0,1,11.4,11.33A66.64,66.64,0,0,1,35,141.74a66.64,66.64,0,0,1,7.78-13.84,56.61,56.61,0,0,1,11.4-11.33A56.71,56.71,0,0,1,42.78,105.24Z"/></g><g id="g3011"><g id="layer1-2"><path id="dl" class="cls-3" d="M120.59,142.77a165.55,165.55,0,0,1-19.3-34.37A165.55,165.55,0,0,1,82,142.77a140.77,140.77,0,0,1-28.31,28.12A140.51,140.51,0,0,1,82,199a165.43,165.43,0,0,1,19.3,34.36A165.43,165.43,0,0,1,120.59,199a140.51,140.51,0,0,1,28.31-28.13A140.77,140.77,0,0,1,120.59,142.77Z"/></g><g id="path3762-6"><path class="cls-4" d="M96.35,127.93s6,24.17-.57,32.62c-7.35,9.49-34.4,8.59-34.4,8.59s16.79-9.29,22.88-16.56C90.1,145.62,96.35,127.93,96.35,127.93Z"/></g></g><path class="cls-5" d="M59.47,69.92V82.67H11.37A33.12,33.12,0,0,1,16.06,69Q20,62.5,31.49,51.81q9.28-8.64,11.38-11.72a15.1,15.1,0,0,0,2.83-8.4q0-4.59-2.47-7.06a9.21,9.21,0,0,0-6.81-2.47,9.14,9.14,0,0,0-6.84,2.59Q27,27.34,26.65,33.35L13,32q1.22-11.33,7.67-16.26t16.11-4.93q10.6,0,16.65,5.71a18.74,18.74,0,0,1,6.05,14.21,24.74,24.74,0,0,1-1.73,9.2,37.43,37.43,0,0,1-5.49,9.16,87.89,87.89,0,0,1-9,9.13q-6.49,6-8.23,7.91a23.67,23.67,0,0,0-2.81,3.81H59.47Z"/></svg>