<svg id="big_frame" data-name="big frame" xmlns="http://www.w3.org/2000/svg" xmlns:xlink="http://www.w3.org/1999/xlink" viewBox="0 0 167.09 242.67"><defs><style>.cls-1{fill:#fff;stroke:#000;stroke-width:0.5px;}.cls-2{fill:#df0000;}.cls-3{fill:url(#radial-gradient);}.cls-4{fill:url(#radial-gradient-2);}.cls-5{fill:#e50000;}</style><radialGradient id="radial-gradient" cx="-256.69" cy="551.13" r="8" gradientTransform="matrix(-6.68, 0.03, 0.05, 11.01, -1643.17, -5914.88)" gradientUnits="userSpaceOnUse"><stop offset="0" stop-color="#df0000"/><stop offset="1" stop-color="#df0000" stop-opacity="0.64"/></radialGradient><radialGradient id="radial-gradient-2" cx="1.24" cy="2007.44" r="81.9" gradientTransform="matrix(-0.26, 0.22, 0.13, 0.16, -165.11, -161.42)" gradientUnits="userSpaceOnUse"><stop offset="0" stop-color="#fff" stop-opacity="0.44"/><stop offset="1" stop-opacity="0"/></radialGradient></defs><title>3D</title><g id="Layer_1"><path id="path5" class="cls-1" d="M166.84,235.55a6.89,6.89,0,0,1-6.87,6.87H7.11a6.88,6.88,0,0,1-6.86-6.87V7.12A6.89,6.89,0,0,1,7.11.25H160a6.89,6.89,0,0,1,6.87,6.87V235.55Z"/></g><g id="layer1-2-6"><path id="dl-6" class="cls-2" d="M42.78,105.24A66.69,66.69,0,0,1,35,91.4a66.69,66.69,0,0,1-7.78,13.85,56.71,56.71,0,0,1-11.4,11.33,56.61,56.61,0,0,1,11.4,11.33A66.64,66.64,0,0,1,35,141.74a66.64,66.64,0,0,1,7.78-13.84,56.61,56.61,0,0,1,11.4-11.33A56.71,56.71,0,0,1,42.78,105.24Z"/></g><g id="g3011"><g id="layer1-2"><path id="dl" class="cls-3" d="M120.59,142.77a165.55,165.55,0,0,1-19.3-34.37A165.55,165.55,0,0,1,82,142.77a140.77,140.77,0,0,1-28.31,28.12A140.51,140.51,0,0,1,82,199a165.43,165.43,0,0,1,19.3,34.36A165.43,165.43,0,0,1,120.59,199a140.51,140.51,0,0,1,28.31-28.13A140.77,140.77,0,0,1,120.59,142.77Z"/></g><g id="path3762-6"><path class="cls-4" d="M96.35,127.93s6,24.17-.57,32.62c-7.35,9.49-34.4,8.59-34.4,8.59s16.79-9.29,22.88-16.56C90.1,145.62,96.35,127.93,96.35,127.93Z"/></g></g><path class="cls-5" d="M12.64,63.67l13.28-1.61a12.57,12.57,0,0,0,3.42,7.76,9.67,9.67,0,0,0,13.89-.54q2.9-3.22,2.91-8.69a11.65,11.65,0,0,0-2.78-8.2,8.87,8.87,0,0,0-6.79-3,23.94,23.94,0,0,0-6.3,1l1.51-11.18q5.57,0.15,8.5-2.42A8.6,8.6,0,0,0,43.21,30a7.4,7.4,0,0,0-7.86-7.91,8.27,8.27,0,0,0-6,2.44,11.47,11.47,0,0,0-3,7.13L13.67,29.49a28.26,28.26,0,0,1,4-10.38A18,18,0,0,1,25.07,13a24.93,24.93,0,0,1,10.67-2.22q10.11,0,16.21,6.45a16.83,16.83,0,0,1,5,11.91q0,9.42-10.3,15a16.67,16.67,0,0,1,9.84,5.91A17.15,17.15,0,0,1,60.2,61.18a21.5,21.5,0,0,1-6.88,16.06,23.71,23.71,0,0,1-17.14,6.64q-9.72,0-16.11-5.59A22,22,0,0,1,12.64,63.67Z"/></svg>