<svg id="big_frame" data-name="big frame" xmlns="http://www.w3.org/2000/svg" xmlns:xlink="http://www.w3.org/1999/xlink" viewBox="0 0 167.09 242.67"><defs><style>.cls-1{fill:#fff;stroke:#000;stroke-width:0.5px;}.cls-2{fill:#df0000;}.cls-3{fill:url(#radial-gradient);}.cls-4{fill:url(#radial-gradient-2);}.cls-5{fill:url(#radial-gradient-3);}.cls-6{fill:#e50000;}</style><radialGradient id="radial-gradient" cx="-256.25" cy="552.98" r="7.02" gradientTransform="matrix(-6.83, 0, 0, 10.99, -1649.13, -5927.08)" gradientUnits="userSpaceOnUse"><stop offset="0" stop-color="#df0000"/><stop offset="1" stop-color="#df0000" stop-opacity="0.67"/></radialGradient><radialGradient id="radial-gradient-2" cx="71.21" cy="-1753.63" r="71.89" gradientTransform="matrix(0.34, -0.2, -0.12, -0.2, -159.39, -203.2)" gradientUnits="userSpaceOnUse"><stop offset="0" stop-color="#fff" stop-opacity="0.31"/><stop offset="1" stop-opacity="0"/></radialGradient><radialGradient id="radial-gradient-3" cx="375.81" cy="-1826.32" r="71.89" gradientTransform="matrix(0.29, -0.12, -0.06, -0.21, -105.27, -200.52)" gradientUnits="userSpaceOnUse"><stop offset="0" stop-color="#fff" stop-opacity="0.29"/><stop offset="1" stop-opacity="0"/></radialGradient></defs><title>3H</title><g id="Layer_1"><path id="path5" class="cls-1" d="M166.84,235.55a6.89,6.89,0,0,1-6.87,6.87H7.11a6.88,6.88,0,0,1-6.86-6.87V7.12A6.89,6.89,0,0,1,7.11.25H160a6.89,6.89,0,0,1,6.87,6.87V235.55Z"/></g><g id="layer1-9-6"><path id="hl-8" class="cls-2" d="M45,95.72c-8.23,0-9.33,8.26-9.33,8.26s-1.1-8.26-9.33-8.26c-5.76,0-11,3.7-11,10.69,0,9.23,16.7,18.52,20.31,32.08C39.12,124.94,56,115.65,56,106.41,56,99.42,50.78,95.72,45,95.72Z"/></g><g id="g3036"><g id="layer1-9"><path id="hl" class="cls-3" d="M123.17,127.81c-19.43,0-22,19.5-22,19.5s-2.59-19.5-22-19.5c-13.6,0-25.91,8.74-25.91,25.23,0,21.79,39.42,43.7,47.93,75.7,8.1-32,47.93-53.91,47.93-75.7C149.07,136.55,136.77,127.81,123.17,127.81Z"/></g><g id="path3762-6-4"><path class="cls-4" d="M54.44,168.39s-2.07-25.22,5.86-32.63c8.92-8.33,35.91-3,35.91-3s-18.35,6.6-25.65,12.9C63.59,151.65,54.44,168.39,54.44,168.39Z"/></g><g id="path3762-6-2-3"><path class="cls-5" d="M100.38,160.87s3.8-23.47,11.55-28.42c8.71-5.57,28.55,5.4,28.55,5.4s-14.68,5.3-21.71,9.38C112.06,151.14,100.38,160.87,100.38,160.87Z"/></g></g><path class="cls-6" d="M12.64,63.67l13.28-1.61a12.57,12.57,0,0,0,3.42,7.76,9.67,9.67,0,0,0,13.89-.54q2.9-3.22,2.91-8.69a11.65,11.65,0,0,0-2.78-8.2,8.87,8.87,0,0,0-6.79-3,23.94,23.94,0,0,0-6.3,1l1.51-11.18q5.57,0.15,8.5-2.42A8.6,8.6,0,0,0,43.21,30a7.4,7.4,0,0,0-7.86-7.91,8.27,8.27,0,0,0-6,2.44,11.47,11.47,0,0,0-3,7.13L13.67,29.49a28.26,28.26,0,0,1,4-10.38A18,18,0,0,1,25.07,13a24.93,24.93,0,0,1,10.67-2.22q10.11,0,16.21,6.45a16.83,16.83,0,0,1,5,11.91q0,9.42-10.3,15a16.67,16.67,0,0,1,9.84,5.91A17.15,17.15,0,0,1,60.2,61.18a21.5,21.5,0,0,1-6.88,16.06,23.71,23.71,0,0,1-17.14,6.64q-9.72,0-16.11-5.59A22,22,0,0,1,12.64,63.67Z"/></svg>