<svg id="big_frame" data-name="big frame" xmlns="http://www.w3.org/2000/svg" xmlns:xlink="http://www.w3.org/1999/xlink" viewBox="0 0 167.09 242.67"><defs><style>.cls-1{fill:#fff;stroke:#000;stroke-width:0.5px;}.cls-2{fill:#df0000;}.cls-3{fill:url(#radial-gradient);}.cls-4{fill:url(#radial-gradient-2);}.cls-5{fill:url(#radial-gradient-3);}.cls-6{fill:#e50000;}</style><radialGradient id="radial-gradient" cx="-256.25" cy="552.98" r="7.02" gradientTransform="matrix(-6.83, 0, 0, 10.99, -1649.13, -5927.08)" gradientUnits="userSpaceOnUse"><stop offset="0" stop-color="#df0000"/><stop offset="1" stop-color="#df0000" stop-opacity="0.67"/></radialGradient><radialGradient id="radial-gradient-2" cx="71.21" cy="-1753.63" r="71.89" gradientTransform="matrix(0.34, -0.2, -0.12, -0.2, -159.39, -203.2)" gradientUnits="userSpaceOnUse"><stop offset="0" stop-color="#fff" stop-opacity="0.31"/><stop offset="1" stop-opacity="0"/></radialGradient><radialGradient id="radial-gradient-3" cx="375.81" cy="-1826.32" r="71.89" gradientTransform="matrix(0.29, -0.12, -0.06, -0.21, -105.27, -200.52)" gradientUnits="userSpaceOnUse"><stop offset="0" stop-color="#fff" stop-opacity="0.29"/><stop offset="1" stop-opacity="0"/></radialGradient></defs><title>6H</title><g id="Layer_1"><path id="path5" class="cls-1" d="M166.84,235.55a6.89,6.89,0,0,1-6.87,6.87H7.11a6.88,6.88,0,0,1-6.86-6.87V7.12A6.89,6.89,0,0,1,7.11.25H160a6.89,6.89,0,0,1,6.87,6.87V235.55Z"/></g><g id="layer1-9-6"><path id="hl-8" class="cls-2" d="M45,95.72c-8.23,0-9.33,8.26-9.33,8.26s-1.1-8.26-9.33-8.26c-5.76,0-11,3.7-11,10.69,0,9.23,16.7,18.52,20.31,32.08C39.12,124.94,56,115.65,56,106.41,56,99.42,50.78,95.72,45,95.72Z"/></g><g id="g3036"><g id="layer1-9"><path id="hl" class="cls-3" d="M123.17,127.81c-19.43,0-22,19.5-22,19.5s-2.59-19.5-22-19.5c-13.6,0-25.91,8.74-25.91,25.23,0,21.79,39.42,43.7,47.93,75.7,8.1-32,47.93-53.91,47.93-75.7C149.07,136.55,136.77,127.81,123.17,127.81Z"/></g><g id="path3762-6-4"><path class="cls-4" d="M54.44,168.39s-2.07-25.22,5.86-32.63c8.92-8.33,35.91-3,35.91-3s-18.35,6.6-25.65,12.9C63.59,151.65,54.44,168.39,54.44,168.39Z"/></g><g id="path3762-6-2-3"><path class="cls-5" d="M100.38,160.87s3.8-23.47,11.55-28.42c8.71-5.57,28.55,5.4,28.55,5.4s-14.68,5.3-21.71,9.38C112.06,151.14,100.38,160.87,100.38,160.87Z"/></g></g><path class="cls-6" d="M59.61,28.61L46.33,30.08Q45.84,26,43.79,24a7.4,7.4,0,0,0-5.32-2A9,9,0,0,0,31.12,26q-3,3.91-3.78,16.26a16,16,0,0,1,12.74-6.05A19.46,19.46,0,0,1,54.8,42.73q6.13,6.54,6.13,16.89,0,11-6.45,17.63T37.93,83.89a22.13,22.13,0,0,1-17.82-8.42q-7-8.42-7-27.61,0-19.68,7.28-28.37a23.49,23.49,0,0,1,18.9-8.69q8.15,0,13.5,4.57T59.61,28.61ZM28.51,58.55q0,6.69,3.08,10.33a9.05,9.05,0,0,0,7,3.64,8,8,0,0,0,6.35-3q2.54-3,2.54-9.77,0-7-2.73-10.23a8.79,8.79,0,0,0-13.53-.15Q28.51,52.49,28.51,58.55Z"/></svg>