<svg id="big_frame" data-name="big frame" xmlns="http://www.w3.org/2000/svg" xmlns:xlink="http://www.w3.org/1999/xlink" viewBox="0 0 167.09 242.67"><defs><style>.cls-1{fill:#fff;stroke:#000;stroke-width:0.5px;}.cls-2{fill:url(#radial-gradient);}.cls-3{fill:url(#radial-gradient-2);}.cls-4{fill:url(#radial-gradient-3);}.cls-5{fill:url(#radial-gradient-4);}.cls-6{fill:#fffeff;}</style><radialGradient id="radial-gradient" cx="-197.79" cy="524.7" r="8.11" gradientTransform="matrix(-9.32, 0.11, 0.16, 13.68, -1826.99, -7007.87)" gradientUnits="userSpaceOnUse"><stop offset="0"/><stop offset="1" stop-opacity="0.66"/></radialGradient><radialGradient id="radial-gradient-2" cx="134.86" cy="-2155.05" r="69.9" gradientTransform="matrix(0.26, -0.17, -0.09, -0.17, -168.23, -163.14)" gradientUnits="userSpaceOnUse"><stop offset="0" stop-color="#fff" stop-opacity="0.53"/><stop offset="1" stop-opacity="0"/></radialGradient><radialGradient id="radial-gradient-3" cx="111.52" cy="-2171.46" r="69.9" gradientTransform="matrix(0.26, -0.17, -0.09, -0.17, -136.36, -208.68)" gradientUnits="userSpaceOnUse"><stop offset="0" stop-color="#fff" stop-opacity="0.52"/><stop offset="1" stop-opacity="0"/></radialGradient><radialGradient id="radial-gradient-4" cx="647.36" cy="-1356.82" r="69.9" gradientTransform="matrix(0.39, -0.02, 0.02, -0.25, -90.44, -154.76)" gradientUnits="userSpaceOnUse"><stop offset="0" stop-color="#fff" stop-opacity="0.7"/><stop offset="1" stop-opacity="0"/></radialGradient></defs><title>8C</title><g id="Layer_1"><path id="path5" class="cls-1" d="M166.84,235.55a6.89,6.89,0,0,1-6.87,6.87H7.11a6.88,6.88,0,0,1-6.86-6.87V7.12A6.89,6.89,0,0,1,7.11.25H160a6.89,6.89,0,0,1,6.87,6.87V235.55Z"/></g><g id="g3804"><g id="layer1-1"><path id="cl" class="cls-2" d="M110.91,172.59S123,162.91,123,149.48c0-7.86-7-20.91-23.11-20.91s-23.11,13.05-23.11,20.91c0,13.43,12.11,23.11,12.11,23.11-13.45-10.47-37.42-3.32-37.42,17.61,0,10.48,8.56,22,22,22,16.13,0,23.11-17.61,23.11-17.61s2,20.07-9.9,30.82h26.41c-12-10.74-9.9-30.82-9.9-30.82s7,17.61,23.11,17.61c13.45,0,22-11.53,22-22C148.32,169.27,124.35,162.12,110.91,172.59Z"/></g><g id="path3762"><path class="cls-3" d="M52.38,198.62s-1.57-20.17,4.46-26.09c6.78-6.66,27.32-2.43,27.32-2.43s-14,5.28-19.51,10.32C59.33,185.23,52.38,198.62,52.38,198.62Z"/></g><g id="path3762-6"><path class="cls-4" d="M79.58,159.75S78,139.58,84,133.65c6.78-6.66,27.32-2.43,27.32-2.43s-14,5.28-19.51,10.32C86.54,146.36,79.58,159.75,79.58,159.75Z"/></g><g id="path3762-7"><path class="cls-5" d="M98.45,196.12s12.44-23.85,22.79-26.74c11.63-3.25,29.82,14.56,29.82,14.56s-18.05-2.87-27.29-.68C114.95,185.36,98.45,196.12,98.45,196.12Z"/></g><path id="rect3015" class="cls-6" d="M41,111.33V240.52H158.43V111.33H41Zm58.81,17.18c16.13,0,23.11,13,23.11,20.91,0,13.43-12.11,23.11-12.11,23.11,13.45-10.47,37.42-3.32,37.42,17.61,0,10.47-8.56,22-22,22-16.13,0-23.11-17.61-23.11-17.61s-2.05,20.08,9.9,30.82H86.66c12-10.74,9.91-30.82,9.91-30.82s-7,17.61-23.11,17.61c-13.45,0-22-11.53-22-22,0-20.93,24-28.09,37.42-17.61,0,0-12.11-9.68-12.11-23.11C76.75,141.56,83.73,128.51,99.86,128.51Z"/></g><path id="cl-9" d="M41.11,116.45s5-4,5-9.6a9.19,9.19,0,0,0-9.54-8.68A9.19,9.19,0,0,0,27,106.85c0,5.58,5,9.6,5,9.6-5.55-4.35-15.44-1.38-15.44,7.31a9.2,9.2,0,0,0,9.08,9.14c6.66,0,9.54-7.31,9.54-7.31s0.85,8.34-4.09,12.8H42c-4.93-4.46-4.09-12.8-4.09-12.8s2.88,7.31,9.54,7.31a9.2,9.2,0,0,0,9.08-9.14C56.55,115.07,46.66,112.1,41.11,116.45Z"/><path d="M24.9,44a16,16,0,0,1-7.74-6.18,16.14,16.14,0,0,1-2.42-8.62A17.33,17.33,0,0,1,20.33,16q5.59-5.22,15.89-5.22T52.07,16a17.26,17.26,0,0,1,5.64,13.23,15.61,15.61,0,0,1-2.59,8.86A16.38,16.38,0,0,1,47.85,44a19.18,19.18,0,0,1,9.06,7A18.48,18.48,0,0,1,60,61.62q0,9.91-6.32,16.11t-16.82,6.2q-9.77,0-16.26-5.13-7.67-6.05-7.67-16.6a20.53,20.53,0,0,1,2.88-10.67A18.55,18.55,0,0,1,24.9,44Zm1.56,16.85q0,5.66,2.91,8.84a9.42,9.42,0,0,0,7.25,3.17,9.11,9.11,0,0,0,7-3.05Q46.43,66.8,46.43,61A11.41,11.41,0,0,0,43.6,53a9.37,9.37,0,0,0-7.18-3.05q-5,0-7.5,3.47A12.71,12.71,0,0,0,26.46,60.89Zm1.27-30.66A8.59,8.59,0,0,0,30,36.62a8.4,8.4,0,0,0,6.18,2.29,8.5,8.5,0,0,0,6.25-2.32,8.63,8.63,0,0,0,2.34-6.42,8,8,0,0,0-8.45-8.5A8.51,8.51,0,0,0,30.07,24,8.38,8.38,0,0,0,27.73,30.23Z"/></svg>