<svg id="big_frame" data-name="big frame" xmlns="http://www.w3.org/2000/svg" xmlns:xlink="http://www.w3.org/1999/xlink" viewBox="0 0 167.09 242.67"><defs><style>.cls-1{fill:#fff;stroke:#000;stroke-width:0.5px;}.cls-2{fill:#df0000;}.cls-3{fill:url(#radial-gradient);}.cls-4{fill:url(#radial-gradient-2);}.cls-5{fill:#e50000;}</style><radialGradient id="radial-gradient" cx="-256.69" cy="551.13" r="8" gradientTransform="matrix(-6.68, 0.03, 0.05, 11.01, -1643.17, -5914.88)" gradientUnits="userSpaceOnUse"><stop offset="0" stop-color="#df0000"/><stop offset="1" stop-color="#df0000" stop-opacity="0.64"/></radialGradient><radialGradient id="radial-gradient-2" cx="1.24" cy="2007.44" r="81.9" gradientTransform="matrix(-0.26, 0.22, 0.13, 0.16, -165.11, -161.42)" gradientUnits="userSpaceOnUse"><stop offset="0" stop-color="#fff" stop-opacity="0.44"/><stop offset="1" stop-opacity="0"/></radialGradient></defs><title>8D</title><g id="Layer_1"><path id="path5" class="cls-1" d="M166.84,235.55a6.89,6.89,0,0,1-6.87,6.87H7.11a6.88,6.88,0,0,1-6.86-6.87V7.12A6.89,6.89,0,0,1,7.11.25H160a6.89,6.89,0,0,1,6.87,6.87V235.55Z"/></g><g id="layer1-2-6"><path id="dl-6" class="cls-2" d="M42.78,105.24A66.69,66.69,0,0,1,35,91.4a66.69,66.69,0,0,1-7.78,13.85,56.71,56.71,0,0,1-11.4,11.33,56.61,56.61,0,0,1,11.4,11.33A66.64,66.64,0,0,1,35,141.74a66.64,66.64,0,0,1,7.78-13.84,56.61,56.61,0,0,1,11.4-11.33A56.71,56.71,0,0,1,42.78,105.24Z"/></g><g id="g3011"><g id="layer1-2"><path id="dl" class="cls-3" d="M120.59,142.77a165.55,165.55,0,0,1-19.3-34.37A165.55,165.55,0,0,1,82,142.77a140.77,140.77,0,0,1-28.31,28.12A140.51,140.51,0,0,1,82,199a165.43,165.43,0,0,1,19.3,34.36A165.43,165.43,0,0,1,120.59,199a140.51,140.51,0,0,1,28.31-28.13A140.77,140.77,0,0,1,120.59,142.77Z"/></g><g id="path3762-6"><path class="cls-4" d="M96.35,127.93s6,24.17-.57,32.62c-7.35,9.49-34.4,8.59-34.4,8.59s16.79-9.29,22.88-16.56C90.1,145.62,96.35,127.93,96.35,127.93Z"/></g></g><path class="cls-5" d="M24.9,44a16,16,0,0,1-7.74-6.18,16.14,16.14,0,0,1-2.42-8.62A17.33,17.33,0,0,1,20.33,16q5.59-5.22,15.89-5.22T52.07,16a17.26,17.26,0,0,1,5.64,13.23,15.61,15.61,0,0,1-2.59,8.86A16.38,16.38,0,0,1,47.85,44a19.18,19.18,0,0,1,9.06,7A18.48,18.48,0,0,1,60,61.62q0,9.91-6.32,16.11t-16.82,6.2q-9.77,0-16.26-5.13-7.67-6.05-7.67-16.6a20.53,20.53,0,0,1,2.88-10.67A18.55,18.55,0,0,1,24.9,44Zm1.56,16.85q0,5.66,2.91,8.84a9.42,9.42,0,0,0,7.25,3.17,9.11,9.11,0,0,0,7-3.05Q46.43,66.8,46.43,61A11.41,11.41,0,0,0,43.6,53a9.37,9.37,0,0,0-7.18-3.05q-5,0-7.5,3.47A12.71,12.71,0,0,0,26.46,60.89Zm1.27-30.66A8.59,8.59,0,0,0,30,36.62a8.4,8.4,0,0,0,6.18,2.29,8.5,8.5,0,0,0,6.25-2.32,8.63,8.63,0,0,0,2.34-6.42,8,8,0,0,0-8.45-8.5A8.51,8.51,0,0,0,30.07,24,8.38,8.38,0,0,0,27.73,30.23Z"/></svg>