<svg id="big_frame" data-name="big frame" xmlns="http://www.w3.org/2000/svg" xmlns:xlink="http://www.w3.org/1999/xlink" viewBox="0 0 167.09 242.67"><defs><style>.cls-1{fill:#fff;stroke:#000;stroke-width:0.5px;}.cls-2{fill:#df0000;}.cls-3{fill:url(#radial-gradient);}.cls-4{fill:url(#radial-gradient-2);}.cls-5{fill:url(#radial-gradient-3);}.cls-6{fill:#e50000;}</style><radialGradient id="radial-gradient" cx="-256.25" cy="552.98" r="7.02" gradientTransform="matrix(-6.83, 0, 0, 10.99, -1649.13, -5927.08)" gradientUnits="userSpaceOnUse"><stop offset="0" stop-color="#df0000"/><stop offset="1" stop-color="#df0000" stop-opacity="0.67"/></radialGradient><radialGradient id="radial-gradient-2" cx="71.21" cy="-1753.63" r="71.89" gradientTransform="matrix(0.34, -0.2, -0.12, -0.2, -159.39, -203.2)" gradientUnits="userSpaceOnUse"><stop offset="0" stop-color="#fff" stop-opacity="0.31"/><stop offset="1" stop-opacity="0"/></radialGradient><radialGradient id="radial-gradient-3" cx="375.81" cy="-1826.32" r="71.89" gradientTransform="matrix(0.29, -0.12, -0.06, -0.21, -105.27, -200.52)" gradientUnits="userSpaceOnUse"><stop offset="0" stop-color="#fff" stop-opacity="0.29"/><stop offset="1" stop-opacity="0"/></radialGradient></defs><title>8H</title><g id="Layer_1"><path id="path5" class="cls-1" d="M166.84,235.55a6.89,6.89,0,0,1-6.87,6.87H7.11a6.88,6.88,0,0,1-6.86-6.87V7.12A6.89,6.89,0,0,1,7.11.25H160a6.89,6.89,0,0,1,6.87,6.87V235.55Z"/></g><g id="layer1-9-6"><path id="hl-8" class="cls-2" d="M45,95.72c-8.23,0-9.33,8.26-9.33,8.26s-1.1-8.26-9.33-8.26c-5.76,0-11,3.7-11,10.69,0,9.23,16.7,18.52,20.31,32.08C39.12,124.94,56,115.65,56,106.41,56,99.42,50.78,95.72,45,95.72Z"/></g><g id="g3036"><g id="layer1-9"><path id="hl" class="cls-3" d="M123.17,127.81c-19.43,0-22,19.5-22,19.5s-2.59-19.5-22-19.5c-13.6,0-25.91,8.74-25.91,25.23,0,21.79,39.42,43.7,47.93,75.7,8.1-32,47.93-53.91,47.93-75.7C149.07,136.55,136.77,127.81,123.17,127.81Z"/></g><g id="path3762-6-4"><path class="cls-4" d="M54.44,168.39s-2.07-25.22,5.86-32.63c8.92-8.33,35.91-3,35.91-3s-18.35,6.6-25.65,12.9C63.59,151.65,54.44,168.39,54.44,168.39Z"/></g><g id="path3762-6-2-3"><path class="cls-5" d="M100.38,160.87s3.8-23.47,11.55-28.42c8.71-5.57,28.55,5.4,28.55,5.4s-14.68,5.3-21.71,9.38C112.06,151.14,100.38,160.87,100.38,160.87Z"/></g></g><path class="cls-6" d="M24.9,44a16,16,0,0,1-7.74-6.18,16.14,16.14,0,0,1-2.42-8.62A17.33,17.33,0,0,1,20.33,16q5.59-5.22,15.89-5.22T52.07,16a17.26,17.26,0,0,1,5.64,13.23,15.61,15.61,0,0,1-2.59,8.86A16.38,16.38,0,0,1,47.85,44a19.18,19.18,0,0,1,9.06,7A18.48,18.48,0,0,1,60,61.62q0,9.91-6.32,16.11t-16.82,6.2q-9.77,0-16.26-5.13-7.67-6.05-7.67-16.6a20.53,20.53,0,0,1,2.88-10.67A18.55,18.55,0,0,1,24.9,44Zm1.56,16.85q0,5.66,2.91,8.84a9.42,9.42,0,0,0,7.25,3.17,9.11,9.11,0,0,0,7-3.05Q46.43,66.8,46.43,61A11.41,11.41,0,0,0,43.6,53a9.37,9.37,0,0,0-7.18-3.05q-5,0-7.5,3.47A12.71,12.71,0,0,0,26.46,60.89Zm1.27-30.66A8.59,8.59,0,0,0,30,36.62a8.4,8.4,0,0,0,6.18,2.29,8.5,8.5,0,0,0,6.25-2.32,8.63,8.63,0,0,0,2.34-6.42,8,8,0,0,0-8.45-8.5A8.51,8.51,0,0,0,30.07,24,8.38,8.38,0,0,0,27.73,30.23Z"/></svg>