<svg id="big_frame" data-name="big frame" xmlns="http://www.w3.org/2000/svg" xmlns:xlink="http://www.w3.org/1999/xlink" viewBox="0 0 167.09 242.67"><defs><style>.cls-1{fill:#fff;stroke:#000;stroke-width:0.5px;}.cls-2{fill:url(#radial-gradient);}.cls-3{fill:url(#radial-gradient-2);}.cls-4{fill:url(#radial-gradient-3);}.cls-5{fill:url(#radial-gradient-4);}.cls-6{fill:#fffeff;}</style><radialGradient id="radial-gradient" cx="-245.33" cy="549.9" r="6.77" gradientTransform="matrix(-9.91, -0.13, -0.19, 14.09, -2226.59, -7627.69)" gradientUnits="userSpaceOnUse"><stop offset="0"/><stop offset="1" stop-opacity="0.65"/></radialGradient><radialGradient id="radial-gradient-2" cx="-449.34" cy="-1270.3" r="69.35" gradientTransform="matrix(0.2, -0.51, -0.25, -0.09, -164.23, -161.14)" gradientUnits="userSpaceOnUse"><stop offset="0" stop-color="#fff" stop-opacity="0.44"/><stop offset="1" stop-opacity="0"/></radialGradient><radialGradient id="radial-gradient-3" cx="-135.06" cy="-961.3" r="69.35" gradientTransform="matrix(0.44, -0.47, -0.28, -0.3, -137.38, -180.44)" gradientUnits="userSpaceOnUse"><stop offset="0" stop-color="#fff" stop-opacity="0.49"/><stop offset="1" stop-opacity="0"/></radialGradient><radialGradient id="radial-gradient-4" cx="-172.36" cy="-1489.23" r="69.35" gradientTransform="matrix(0.39, -0.38, -0.19, -0.19, -124.12, -196.83)" gradientUnits="userSpaceOnUse"><stop offset="0" stop-color="#fff" stop-opacity="0.24"/><stop offset="1" stop-opacity="0"/></radialGradient></defs><title>8S</title><g id="Layer_1"><path id="path5" class="cls-1" d="M166.84,235.55a6.89,6.89,0,0,1-6.87,6.87H7.11a6.88,6.88,0,0,1-6.86-6.87V7.12A6.89,6.89,0,0,1,7.11.25H160a6.89,6.89,0,0,1,6.87,6.87V235.55Z"/></g><g id="g3886"><g id="layer1-7-1"><path id="sl-5" class="cls-2" d="M142.6,188.87c-1.28-19.53-41-56.29-42.31-65.48-1.28,9.19-41,45.95-42.31,65.48-0.9,13.81,9,19.53,18,19.53,9.72-.1,17.75-13.48,20.51-16.08,1.28,3.45-8.49,32.17-11.54,32.17h30.78c-3.05,0-12.82-28.72-11.54-32.17,2.42,2.39,9.52,15.68,20.52,16.08C133.63,208.4,143.5,202.68,142.6,188.87Z"/></g><g id="path3762-6"><path class="cls-3" d="M70,212.63s-18.19-14.69-16-27.54c2.49-14.45,25.15-45.58,25.15-45.58s-3.39,36.81-5.86,48.13A205.27,205.27,0,0,0,70,212.63Z"/></g><g id="path3762-6-0"><path class="cls-4" d="M73.43,202.81s-17.7-30.93-10.11-45c8.53-15.76,48.93-37.22,48.93-37.22s-18,42.25-25.33,54.21C79.89,186.29,73.43,202.81,73.43,202.81Z"/></g><g id="path3762-6-2"><path class="cls-5" d="M84.44,176S74,155.14,81.31,144.33c8.26-12.15,41.83-31.21,41.83-31.21s-18.37,32.14-25.32,41.44A206.21,206.21,0,0,0,84.44,176Z"/></g><path id="rect3865" class="cls-6" d="M41.63,104.29V241H154.57V104.29H41.63Zm58.67,19.1c1.28,9.19,41,46,42.31,65.48,0.9,13.81-9,19.52-17.94,19.53-11-.4-18.1-13.69-20.52-16.08-1.28,3.45,8.49,32.17,11.54,32.17H84.91c3.05,0,12.82-28.72,11.54-32.17-2.77,2.6-10.8,16-20.51,16.08-9,0-18.85-5.72-18-19.53C59.26,169.34,99,132.58,100.29,123.39Z"/></g><g id="layer1-7"><path id="sl" d="M53.14,123.08c-0.54-8.3-17.34-23.92-17.88-27.83-0.54,3.91-17.34,19.53-17.88,27.83-0.38,5.87,3.79,8.3,7.59,8.3,4.11,0,7.5-5.73,8.67-6.84,0.54,1.46-3.59,13.67-4.88,13.67h13c-1.29,0-5.42-12.21-4.88-13.67,1,1,4,6.67,8.67,6.84C49.35,131.38,53.52,128.95,53.14,123.08Z"/></g><path d="M24.9,44a16,16,0,0,1-7.74-6.18,16.14,16.14,0,0,1-2.42-8.62A17.33,17.33,0,0,1,20.33,16q5.59-5.22,15.89-5.22T52.07,16a17.26,17.26,0,0,1,5.64,13.23,15.61,15.61,0,0,1-2.59,8.86A16.38,16.38,0,0,1,47.85,44a19.18,19.18,0,0,1,9.06,7A18.48,18.48,0,0,1,60,61.62q0,9.91-6.32,16.11t-16.82,6.2q-9.77,0-16.26-5.13-7.67-6.05-7.67-16.6a20.53,20.53,0,0,1,2.88-10.67A18.55,18.55,0,0,1,24.9,44Zm1.56,16.85q0,5.66,2.91,8.84a9.42,9.42,0,0,0,7.25,3.17,9.11,9.11,0,0,0,7-3.05Q46.43,66.8,46.43,61A11.41,11.41,0,0,0,43.6,53a9.37,9.37,0,0,0-7.18-3.05q-5,0-7.5,3.47A12.71,12.71,0,0,0,26.46,60.89Zm1.27-30.66A8.59,8.59,0,0,0,30,36.62a8.4,8.4,0,0,0,6.18,2.29,8.5,8.5,0,0,0,6.25-2.32,8.63,8.63,0,0,0,2.34-6.42,8,8,0,0,0-8.45-8.5A8.51,8.51,0,0,0,30.07,24,8.38,8.38,0,0,0,27.73,30.23Z"/></svg>