<svg id="big_frame" data-name="big frame" xmlns="http://www.w3.org/2000/svg" xmlns:xlink="http://www.w3.org/1999/xlink" viewBox="0 0 167.09 242.67"><defs><style>.cls-1{fill:#fff;stroke:#000;stroke-width:0.5px;}.cls-2{fill:#df0000;}.cls-3{fill:url(#radial-gradient);}.cls-4{fill:url(#radial-gradient-2);}.cls-5{fill:#e50000;}</style><radialGradient id="radial-gradient" cx="-256.69" cy="551.13" r="8" gradientTransform="matrix(-6.68, 0.03, 0.05, 11.01, -1643.17, -5914.88)" gradientUnits="userSpaceOnUse"><stop offset="0" stop-color="#df0000"/><stop offset="1" stop-color="#df0000" stop-opacity="0.64"/></radialGradient><radialGradient id="radial-gradient-2" cx="1.24" cy="2007.44" r="81.9" gradientTransform="matrix(-0.26, 0.22, 0.13, 0.16, -165.11, -161.42)" gradientUnits="userSpaceOnUse"><stop offset="0" stop-color="#fff" stop-opacity="0.44"/><stop offset="1" stop-opacity="0"/></radialGradient></defs><title>9D</title><g id="Layer_1"><path id="path5" class="cls-1" d="M166.84,235.55a6.89,6.89,0,0,1-6.87,6.87H7.11a6.88,6.88,0,0,1-6.86-6.87V7.12A6.89,6.89,0,0,1,7.11.25H160a6.89,6.89,0,0,1,6.87,6.87V235.55Z"/></g><g id="layer1-2-6"><path id="dl-6" class="cls-2" d="M42.78,105.24A66.69,66.69,0,0,1,35,91.4a66.69,66.69,0,0,1-7.78,13.85,56.71,56.71,0,0,1-11.4,11.33,56.61,56.61,0,0,1,11.4,11.33A66.64,66.64,0,0,1,35,141.74a66.64,66.64,0,0,1,7.78-13.84,56.61,56.61,0,0,1,11.4-11.33A56.71,56.71,0,0,1,42.78,105.24Z"/></g><g id="g3011"><g id="layer1-2"><path id="dl" class="cls-3" d="M120.59,142.77a165.55,165.55,0,0,1-19.3-34.37A165.55,165.55,0,0,1,82,142.77a140.77,140.77,0,0,1-28.31,28.12A140.51,140.51,0,0,1,82,199a165.43,165.43,0,0,1,19.3,34.36A165.43,165.43,0,0,1,120.59,199a140.51,140.51,0,0,1,28.31-28.13A140.77,140.77,0,0,1,120.59,142.77Z"/></g><g id="path3762-6"><path class="cls-4" d="M96.35,127.93s6,24.17-.57,32.62c-7.35,9.49-34.4,8.59-34.4,8.59s16.79-9.29,22.88-16.56C90.1,145.62,96.35,127.93,96.35,127.93Z"/></g></g><path class="cls-5" d="M13.42,66.11L26.7,64.65a9.61,9.61,0,0,0,2.54,6,7.53,7.53,0,0,0,5.42,2,8.84,8.84,0,0,0,7.23-3.91q3-3.91,3.81-16.21a16.38,16.38,0,0,1-12.94,6A19.34,19.34,0,0,1,18.18,52q-6.13-6.52-6.13-17,0-10.89,6.47-17.55A22,22,0,0,1,35,10.79a22.18,22.18,0,0,1,17.87,8.42q7,8.42,7,27.71,0,19.63-7.28,28.32a23.54,23.54,0,0,1-18.95,8.69q-8.4,0-13.57-4.47T13.42,66.11Zm31.05-30q0-6.64-3.05-10.3a9,9,0,0,0-7.06-3.66,7.91,7.91,0,0,0-6.32,3q-2.52,3-2.51,9.84t2.73,10.18a8.57,8.57,0,0,0,6.84,3.25,8.49,8.49,0,0,0,6.67-3.12Q44.48,42.19,44.48,36.13Z"/></svg>