<svg id="big_frame" data-name="big frame" xmlns="http://www.w3.org/2000/svg" xmlns:xlink="http://www.w3.org/1999/xlink" viewBox="0 0 167.09 242.67"><defs><style>.cls-1{fill:#fff;stroke:#000;stroke-width:0.5px;}.cls-2{fill:#df0000;}.cls-3{fill:url(#radial-gradient);}.cls-4{fill:url(#radial-gradient-2);}.cls-5{fill:url(#radial-gradient-3);}.cls-6{fill:#e50000;}.cls-7{fill:url(#linear-gradient);}.cls-8{fill:url(#linear-gradient-2);}.cls-9{fill:url(#linear-gradient-3);}.cls-10{fill:url(#orange);}.cls-11{fill:url(#yellow);}</style><radialGradient id="radial-gradient" cx="-256.25" cy="552.98" r="7.02" gradientTransform="matrix(-6.83, 0, 0, 10.99, -1649.13, -5927.08)" gradientUnits="userSpaceOnUse"><stop offset="0" stop-color="#df0000"/><stop offset="1" stop-color="#df0000" stop-opacity="0.67"/></radialGradient><radialGradient id="radial-gradient-2" cx="71.21" cy="-1753.63" r="71.89" gradientTransform="matrix(0.34, -0.2, -0.12, -0.2, -159.39, -203.2)" gradientUnits="userSpaceOnUse"><stop offset="0" stop-color="#fff" stop-opacity="0.31"/><stop offset="1" stop-opacity="0"/></radialGradient><radialGradient id="radial-gradient-3" cx="375.81" cy="-1826.32" r="71.89" gradientTransform="matrix(0.29, -0.12, -0.06, -0.21, -105.27, -200.52)" gradientUnits="userSpaceOnUse"><stop offset="0" stop-color="#fff" stop-opacity="0.29"/><stop offset="1" stop-opacity="0"/></radialGradient><linearGradient id="linear-gradient" x1="120.43" y1="18.27" x2="120.43" y2="81.46" gradientUnits="userSpaceOnUse"><stop offset="0" stop-color="#bfbfbf"/><stop offset="0.05" stop-color="#a9a9a9"/><stop offset="0.17" stop-color="#7d7d7d"/><stop offset="0.29" stop-color="#565656"/><stop offset="0.41" stop-color="#373737"/><stop offset="0.54" stop-color="#1f1f1f"/><stop offset="0.67" stop-color="#0d0d0d"/><stop offset="0.82" stop-color="#030303"/><stop offset="1"/></linearGradient><linearGradient id="linear-gradient-2" x1="120.43" y1="18.81" x2="120.43" y2="80.98" gradientUnits="userSpaceOnUse"><stop offset="0" stop-color="#616161"/><stop offset="0.4" stop-color="#303030"/><stop offset="0.4"/><stop offset="0.63" stop-color="#030303"/><stop offset="0.8" stop-color="#0c0c0c"/><stop offset="0.95" stop-color="#1c1c1c"/><stop offset="1" stop-color="#242424"/></linearGradient><linearGradient id="linear-gradient-3" x1="120.43" y1="20.44" x2="120.43" y2="79.54" gradientUnits="userSpaceOnUse"><stop offset="0"/><stop offset="0.39" stop-color="#020202"/><stop offset="0.54" stop-color="#090909"/><stop offset="0.64" stop-color="#141414"/><stop offset="0.72" stop-color="#252525"/><stop offset="0.79" stop-color="#3b3b3b"/><stop offset="0.85" stop-color="#575757"/><stop offset="0.91" stop-color="#777"/><stop offset="0.96" stop-color="#9b9b9b"/><stop offset="1" stop-color="#bfbfbf"/></linearGradient><linearGradient id="orange" x1="94.84" y1="51.82" x2="159.33" y2="51.82" gradientUnits="userSpaceOnUse"><stop offset="0" stop-color="#ffebab"/><stop offset="0.17" stop-color="#f8cc90"/><stop offset="0.4" stop-color="#ee9b66"/><stop offset="0.4" stop-color="#ee9963"/><stop offset="0.4" stop-color="#ed9259"/><stop offset="0.4" stop-color="#eb8748"/><stop offset="0.4" stop-color="#e87830"/><stop offset="0.4" stop-color="#e56411"/><stop offset="0.4" stop-color="#e35900"/><stop offset="0.52" stop-color="#ea6700"/><stop offset="0.75" stop-color="#fe8d00"/><stop offset="0.76" stop-color="#ff8f00"/><stop offset="0.83" stop-color="#ff9300"/><stop offset="0.9" stop-color="#ffa000"/><stop offset="0.97" stop-color="#ffb600"/><stop offset="1" stop-color="#ffc200"/></linearGradient><linearGradient id="yellow" x1="95.93" y1="51.82" x2="157.71" y2="51.82" gradientUnits="userSpaceOnUse"><stop offset="0" stop-color="#fff9c4"/><stop offset="0.14" stop-color="#ffeda5"/><stop offset="0.4" stop-color="#ffd466"/><stop offset="0.4" stop-color="#ffd363"/><stop offset="0.4" stop-color="#ffd059"/><stop offset="0.4" stop-color="#ffcc48"/><stop offset="0.4" stop-color="#ffc530"/><stop offset="0.4" stop-color="#ffbd11"/><stop offset="0.4" stop-color="#ffb800"/><stop offset="0.5" stop-color="#ffbd00"/><stop offset="0.63" stop-color="#fc0"/><stop offset="0.76" stop-color="#ffe300"/><stop offset="0.79" stop-color="#ffe404"/><stop offset="0.83" stop-color="#fde611"/><stop offset="0.87" stop-color="#fce927"/><stop offset="0.91" stop-color="#f9ee45"/><stop offset="0.95" stop-color="#f5f56c"/><stop offset="0.99" stop-color="#f1fd9a"/><stop offset="1" stop-color="#f0ffa8"/></linearGradient></defs><title>AHHH</title><g id="Layer_1"><path id="path5" class="cls-1" d="M166.84,235.55a6.89,6.89,0,0,1-6.87,6.87H7.11a6.88,6.88,0,0,1-6.86-6.87V7.12A6.89,6.89,0,0,1,7.11.25H160a6.89,6.89,0,0,1,6.87,6.87V235.55Z"/></g><g id="layer1-9-6"><path id="hl-8" class="cls-2" d="M45,95.72c-8.23,0-9.33,8.26-9.33,8.26s-1.1-8.26-9.33-8.26c-5.76,0-11,3.7-11,10.69,0,9.23,16.7,18.52,20.31,32.08C39.12,124.94,56,115.65,56,106.41,56,99.42,50.78,95.72,45,95.72Z"/></g><g id="g3036"><g id="layer1-9"><path id="hl" class="cls-3" d="M123.17,127.81c-19.43,0-22,19.5-22,19.5s-2.59-19.5-22-19.5c-13.6,0-25.91,8.74-25.91,25.23,0,21.79,39.42,43.7,47.93,75.7,8.1-32,47.93-53.91,47.93-75.7C149.07,136.55,136.77,127.81,123.17,127.81Z"/></g><g id="path3762-6-4"><path class="cls-4" d="M54.44,168.39s-2.07-25.22,5.86-32.63c8.92-8.33,35.91-3,35.91-3s-18.35,6.6-25.65,12.9C63.59,151.65,54.44,168.39,54.44,168.39Z"/></g><g id="path3762-6-2-3"><path class="cls-5" d="M100.38,160.87s3.8-23.47,11.55-28.42c8.71-5.57,28.55,5.4,28.55,5.4s-14.68,5.3-21.71,9.38C112.06,151.14,100.38,160.87,100.38,160.87Z"/></g></g><path class="cls-6" d="M78.26,82.67H62.54L56.29,66.41H27.68L21.77,82.67H6.44L34.32,11.08H49.6ZM51.65,54.35L41.79,27.78,32.12,54.35H51.65Z"/><path class="cls-7" d="M120.43,94.81a4.88,4.88,0,0,1-1.94-.4C104.15,88.18,83.09,72,83.84,52.86c0.18-4.59,2.55-7.54,4.27-9.69s2.37-3,2.33-4.94a12.36,12.36,0,0,0-4.51-9.47,4.88,4.88,0,0,1-.2-7L97,10.29a4.88,4.88,0,0,1,3.48-1.46h40a4.88,4.88,0,0,1,3.48,1.46l11.25,11.43a4.88,4.88,0,0,1-.2,7,12.36,12.36,0,0,0-4.51,9.47c0,1.9.68,2.88,2.33,4.94s4.09,5.1,4.27,9.69c0.73,18.73-18.17,34.07-34.57,41.51a4.87,4.87,0,0,1-2,.44h0Z"/><path class="cls-8" d="M120.43,94.11a4.18,4.18,0,0,1-1.67-.35c-14.16-6.15-35-22.11-34.23-40.88,0.17-4.36,2.36-7.09,4.12-9.28s2.53-3.26,2.48-5.39a13.17,13.17,0,0,0-4.74-10,4.18,4.18,0,0,1-.17-6L97.47,10.78a4.18,4.18,0,0,1,3-1.25h40a4.18,4.18,0,0,1,3,1.25l11.25,11.43a4.18,4.18,0,0,1-.17,6,13.18,13.18,0,0,0-4.74,10c0,2.13.82,3.31,2.48,5.39s3.95,4.92,4.12,9.28c0.72,18.38-18,33.49-34.16,40.85a4.19,4.19,0,0,1-1.73.37h0Z"/><path class="cls-9" d="M120.43,92a2.08,2.08,0,0,1-.83-0.17C106,85.93,85.93,70.69,86.63,53c0.14-3.67,2-6,3.66-8.06s3-3.76,2.94-6.75A15.14,15.14,0,0,0,87.8,26.69a2.09,2.09,0,0,1-.09-3L99,12.25a2.1,2.1,0,0,1,1.49-.62h40a2.09,2.09,0,0,1,1.49.62l11.25,11.43a2.09,2.09,0,0,1-.09,3,15.15,15.15,0,0,0-5.43,11.47c-0.07,3,1.33,4.73,2.94,6.75s3.52,4.39,3.66,8.06c0.64,16.23-16.08,31.21-32.94,38.86a2.1,2.1,0,0,1-.87.19h0Z"/><path class="cls-10" d="M120.43,91.33a1.4,1.4,0,0,1-.55-0.12A70.17,70.17,0,0,1,97.91,76C90.69,68.41,87,60.47,87.32,53c0.14-3.44,1.93-5.68,3.51-7.65,1.7-2.12,3.17-4,3.1-7.2a16,16,0,0,0-5.66-12,1.39,1.39,0,0,1-.06-2L99.46,12.74a1.4,1.4,0,0,1,1-.42h40a1.4,1.4,0,0,1,1,.42l11.25,11.43a1.39,1.39,0,0,1-.06,2,16,16,0,0,0-5.66,12c-0.07,3.25,1.4,5.08,3.1,7.2,1.58,2,3.37,4.21,3.51,7.65,0.62,15.91-15.89,30.65-32.53,38.2a1.4,1.4,0,0,1-.58.13h0Z"/><path class="cls-11" d="M100.45,13.72L89.21,25.14a17.27,17.27,0,0,1,6.12,13c0.16,7.14-6.36,8.65-6.61,14.94C88.1,68.68,106,83.65,120.43,89.93c15.68-7.12,32.33-21.25,31.71-36.88-0.25-6.29-6.77-7.8-6.61-14.94a17.27,17.27,0,0,1,6.12-13L140.41,13.72h-40Z"/></svg>