<svg id="big_frame" data-name="big frame" xmlns="http://www.w3.org/2000/svg" xmlns:xlink="http://www.w3.org/1999/xlink" viewBox="0 0 167.09 242.67"><defs><style>.cls-1{fill:#fff;stroke:#000;stroke-width:0.5px;}.cls-2{fill:url(#radial-gradient);}.cls-3{fill:url(#radial-gradient-2);}.cls-4{fill:url(#radial-gradient-3);}.cls-5{fill:url(#radial-gradient-4);}.cls-6{fill:#fffeff;}.cls-7{fill:url(#linear-gradient);}.cls-8{fill:url(#linear-gradient-2);}.cls-9{fill:url(#linear-gradient-3);}.cls-10{fill:url(#orange);}.cls-11{fill:url(#yellow);}</style><radialGradient id="radial-gradient" cx="-245.33" cy="549.9" r="6.77" gradientTransform="matrix(-9.91, -0.13, -0.19, 14.09, -2226.59, -7627.69)" gradientUnits="userSpaceOnUse"><stop offset="0"/><stop offset="1" stop-opacity="0.65"/></radialGradient><radialGradient id="radial-gradient-2" cx="-449.34" cy="-1270.3" r="69.35" gradientTransform="matrix(0.2, -0.51, -0.25, -0.09, -164.23, -161.14)" gradientUnits="userSpaceOnUse"><stop offset="0" stop-color="#fff" stop-opacity="0.44"/><stop offset="1" stop-opacity="0"/></radialGradient><radialGradient id="radial-gradient-3" cx="-135.06" cy="-961.3" r="69.35" gradientTransform="matrix(0.44, -0.47, -0.28, -0.3, -137.38, -180.44)" gradientUnits="userSpaceOnUse"><stop offset="0" stop-color="#fff" stop-opacity="0.49"/><stop offset="1" stop-opacity="0"/></radialGradient><radialGradient id="radial-gradient-4" cx="-172.36" cy="-1489.23" r="69.35" gradientTransform="matrix(0.39, -0.38, -0.19, -0.19, -124.12, -196.83)" gradientUnits="userSpaceOnUse"><stop offset="0" stop-color="#fff" stop-opacity="0.24"/><stop offset="1" stop-opacity="0"/></radialGradient><linearGradient id="linear-gradient" x1="120.43" y1="18.27" x2="120.43" y2="81.46" gradientUnits="userSpaceOnUse"><stop offset="0" stop-color="#bfbfbf"/><stop offset="0.05" stop-color="#a9a9a9"/><stop offset="0.17" stop-color="#7d7d7d"/><stop offset="0.29" stop-color="#565656"/><stop offset="0.41" stop-color="#373737"/><stop offset="0.54" stop-color="#1f1f1f"/><stop offset="0.67" stop-color="#0d0d0d"/><stop offset="0.82" stop-color="#030303"/><stop offset="1"/></linearGradient><linearGradient id="linear-gradient-2" x1="120.43" y1="18.81" x2="120.43" y2="80.98" gradientUnits="userSpaceOnUse"><stop offset="0" stop-color="#616161"/><stop offset="0.4" stop-color="#303030"/><stop offset="0.4"/><stop offset="0.63" stop-color="#030303"/><stop offset="0.8" stop-color="#0c0c0c"/><stop offset="0.95" stop-color="#1c1c1c"/><stop offset="1" stop-color="#242424"/></linearGradient><linearGradient id="linear-gradient-3" x1="120.43" y1="20.44" x2="120.43" y2="79.54" gradientUnits="userSpaceOnUse"><stop offset="0"/><stop offset="0.39" stop-color="#020202"/><stop offset="0.54" stop-color="#090909"/><stop offset="0.64" stop-color="#141414"/><stop offset="0.72" stop-color="#252525"/><stop offset="0.79" stop-color="#3b3b3b"/><stop offset="0.85" stop-color="#575757"/><stop offset="0.91" stop-color="#777"/><stop offset="0.96" stop-color="#9b9b9b"/><stop offset="1" stop-color="#bfbfbf"/></linearGradient><linearGradient id="orange" x1="94.84" y1="51.82" x2="159.33" y2="51.82" gradientUnits="userSpaceOnUse"><stop offset="0" stop-color="#ffebab"/><stop offset="0.17" stop-color="#f8cc90"/><stop offset="0.4" stop-color="#ee9b66"/><stop offset="0.4" stop-color="#ee9963"/><stop offset="0.4" stop-color="#ed9259"/><stop offset="0.4" stop-color="#eb8748"/><stop offset="0.4" stop-color="#e87830"/><stop offset="0.4" stop-color="#e56411"/><stop offset="0.4" stop-color="#e35900"/><stop offset="0.52" stop-color="#ea6700"/><stop offset="0.75" stop-color="#fe8d00"/><stop offset="0.76" stop-color="#ff8f00"/><stop offset="0.83" stop-color="#ff9300"/><stop offset="0.9" stop-color="#ffa000"/><stop offset="0.97" stop-color="#ffb600"/><stop offset="1" stop-color="#ffc200"/></linearGradient><linearGradient id="yellow" x1="95.93" y1="51.82" x2="157.71" y2="51.82" gradientUnits="userSpaceOnUse"><stop offset="0" stop-color="#fff9c4"/><stop offset="0.14" stop-color="#ffeda5"/><stop offset="0.4" stop-color="#ffd466"/><stop offset="0.4" stop-color="#ffd363"/><stop offset="0.4" stop-color="#ffd059"/><stop offset="0.4" stop-color="#ffcc48"/><stop offset="0.4" stop-color="#ffc530"/><stop offset="0.4" stop-color="#ffbd11"/><stop offset="0.4" stop-color="#ffb800"/><stop offset="0.5" stop-color="#ffbd00"/><stop offset="0.63" stop-color="#fc0"/><stop offset="0.76" stop-color="#ffe300"/><stop offset="0.79" stop-color="#ffe404"/><stop offset="0.83" stop-color="#fde611"/><stop offset="0.87" stop-color="#fce927"/><stop offset="0.91" stop-color="#f9ee45"/><stop offset="0.95" stop-color="#f5f56c"/><stop offset="0.99" stop-color="#f1fd9a"/><stop offset="1" stop-color="#f0ffa8"/></linearGradient></defs><title>ASSS</title><g id="Layer_1"><path id="path5" class="cls-1" d="M166.84,235.55a6.89,6.89,0,0,1-6.87,6.87H7.11a6.88,6.88,0,0,1-6.86-6.87V7.12A6.89,6.89,0,0,1,7.11.25H160a6.89,6.89,0,0,1,6.87,6.87V235.55Z"/></g><g id="g3886"><g id="layer1-7-1"><path id="sl-5" class="cls-2" d="M142.6,188.87c-1.28-19.53-41-56.29-42.31-65.48-1.28,9.19-41,45.95-42.31,65.48-0.9,13.81,9,19.53,18,19.53,9.72-.1,17.75-13.48,20.51-16.08,1.28,3.45-8.49,32.17-11.54,32.17h30.78c-3.05,0-12.82-28.72-11.54-32.17,2.42,2.39,9.52,15.68,20.52,16.08C133.63,208.4,143.5,202.68,142.6,188.87Z"/></g><g id="path3762-6"><path class="cls-3" d="M70,212.63s-18.19-14.69-16-27.54c2.49-14.45,25.15-45.58,25.15-45.58s-3.39,36.81-5.86,48.13A205.27,205.27,0,0,0,70,212.63Z"/></g><g id="path3762-6-0"><path class="cls-4" d="M73.43,202.81s-17.7-30.93-10.11-45c8.53-15.76,48.93-37.22,48.93-37.22s-18,42.25-25.33,54.21C79.89,186.29,73.43,202.81,73.43,202.81Z"/></g><g id="path3762-6-2"><path class="cls-5" d="M84.44,176S74,155.14,81.31,144.33c8.26-12.15,41.83-31.21,41.83-31.21s-18.37,32.14-25.32,41.44A206.21,206.21,0,0,0,84.44,176Z"/></g><path id="rect3865" class="cls-6" d="M41.63,104.29V241H154.57V104.29H41.63Zm58.67,19.1c1.28,9.19,41,46,42.31,65.48,0.9,13.81-9,19.52-17.94,19.53-11-.4-18.1-13.69-20.52-16.08-1.28,3.45,8.49,32.17,11.54,32.17H84.91c3.05,0,12.82-28.72,11.54-32.17-2.77,2.6-10.8,16-20.51,16.08-9,0-18.85-5.72-18-19.53C59.26,169.34,99,132.58,100.29,123.39Z"/></g><g id="layer1-7"><path id="sl" d="M53.14,123.08c-0.54-8.3-17.34-23.92-17.88-27.83-0.54,3.91-17.34,19.53-17.88,27.83-0.38,5.87,3.79,8.3,7.59,8.3,4.11,0,7.5-5.73,8.67-6.84,0.54,1.46-3.59,13.67-4.88,13.67h13c-1.29,0-5.42-12.21-4.88-13.67,1,1,4,6.67,8.67,6.84C49.35,131.38,53.52,128.95,53.14,123.08Z"/></g><path d="M79.26,82.67H63.54L57.29,66.41H28.68L22.77,82.67H7.44L35.32,11.08H50.6ZM52.65,54.35L42.79,27.78,33.12,54.35H52.65Z"/><path class="cls-7" d="M120.43,94.81a4.88,4.88,0,0,1-1.94-.4C104.15,88.18,83.09,72,83.84,52.86c0.18-4.59,2.55-7.54,4.27-9.69s2.37-3,2.33-4.94a12.36,12.36,0,0,0-4.51-9.47,4.88,4.88,0,0,1-.2-7L97,10.29a4.88,4.88,0,0,1,3.48-1.46h40a4.88,4.88,0,0,1,3.48,1.46l11.25,11.43a4.88,4.88,0,0,1-.2,7,12.36,12.36,0,0,0-4.51,9.47c0,1.9.68,2.88,2.33,4.94s4.09,5.1,4.27,9.69c0.73,18.73-18.17,34.07-34.57,41.51a4.87,4.87,0,0,1-2,.44h0Z"/><path class="cls-8" d="M120.43,94.11a4.18,4.18,0,0,1-1.67-.35c-14.16-6.15-35-22.11-34.23-40.88,0.17-4.36,2.36-7.09,4.12-9.28s2.53-3.26,2.48-5.39a13.17,13.17,0,0,0-4.74-10,4.18,4.18,0,0,1-.17-6L97.47,10.78a4.18,4.18,0,0,1,3-1.25h40a4.18,4.18,0,0,1,3,1.25l11.25,11.43a4.18,4.18,0,0,1-.17,6,13.18,13.18,0,0,0-4.74,10c0,2.13.82,3.31,2.48,5.39s3.95,4.92,4.12,9.28c0.72,18.38-18,33.49-34.16,40.85a4.19,4.19,0,0,1-1.73.37h0Z"/><path class="cls-9" d="M120.43,92a2.08,2.08,0,0,1-.83-0.17C106,85.93,85.93,70.69,86.63,53c0.14-3.67,2-6,3.66-8.06s3-3.76,2.94-6.75A15.14,15.14,0,0,0,87.8,26.69a2.09,2.09,0,0,1-.09-3L99,12.25a2.1,2.1,0,0,1,1.49-.62h40a2.09,2.09,0,0,1,1.49.62l11.25,11.43a2.09,2.09,0,0,1-.09,3,15.15,15.15,0,0,0-5.43,11.47c-0.07,3,1.33,4.73,2.94,6.75s3.52,4.39,3.66,8.06c0.64,16.23-16.08,31.21-32.94,38.86a2.1,2.1,0,0,1-.87.19h0Z"/><path class="cls-10" d="M120.43,91.33a1.4,1.4,0,0,1-.55-0.12A70.17,70.17,0,0,1,97.91,76C90.69,68.41,87,60.47,87.32,53c0.14-3.44,1.93-5.68,3.51-7.65,1.7-2.12,3.17-4,3.1-7.2a16,16,0,0,0-5.66-12,1.39,1.39,0,0,1-.06-2L99.46,12.74a1.4,1.4,0,0,1,1-.42h40a1.4,1.4,0,0,1,1,.42l11.25,11.43a1.39,1.39,0,0,1-.06,2,16,16,0,0,0-5.66,12c-0.07,3.25,1.4,5.08,3.1,7.2,1.58,2,3.37,4.21,3.51,7.65,0.62,15.91-15.89,30.65-32.53,38.2a1.4,1.4,0,0,1-.58.13h0Z"/><path class="cls-11" d="M100.45,13.72L89.21,25.14a17.27,17.27,0,0,1,6.12,13c0.16,7.14-6.36,8.65-6.61,14.94C88.1,68.68,106,83.65,120.43,89.93c15.68-7.12,32.33-21.25,31.71-36.88-0.25-6.29-6.77-7.8-6.61-14.94a17.27,17.27,0,0,1,6.12-13L140.41,13.72h-40Z"/></svg>