<svg id="big_frame" data-name="big frame" xmlns="http://www.w3.org/2000/svg" xmlns:xlink="http://www.w3.org/1999/xlink" viewBox="0 0 167.09 242.67"><defs><style>.cls-1{fill:#fff;stroke:#000;stroke-width:0.5px;}.cls-2{fill:url(#radial-gradient);}.cls-3{fill:url(#radial-gradient-2);}.cls-4{fill:url(#radial-gradient-3);}.cls-5{fill:url(#radial-gradient-4);}.cls-6{fill:#fffeff;}.cls-7{fill:#e2d200;}.cls-8{fill:#1156a1;}.cls-9{fill:#df0000;}</style><radialGradient id="radial-gradient" cx="-197.79" cy="524.7" r="8.11" gradientTransform="matrix(-9.32, 0.11, 0.16, 13.68, -1826.99, -7007.87)" gradientUnits="userSpaceOnUse"><stop offset="0"/><stop offset="1" stop-opacity="0.66"/></radialGradient><radialGradient id="radial-gradient-2" cx="134.86" cy="-2155.05" r="69.9" gradientTransform="matrix(0.26, -0.17, -0.09, -0.17, -168.23, -163.14)" gradientUnits="userSpaceOnUse"><stop offset="0" stop-color="#fff" stop-opacity="0.53"/><stop offset="1" stop-opacity="0"/></radialGradient><radialGradient id="radial-gradient-3" cx="111.52" cy="-2171.46" r="69.9" gradientTransform="matrix(0.26, -0.17, -0.09, -0.17, -136.36, -208.68)" gradientUnits="userSpaceOnUse"><stop offset="0" stop-color="#fff" stop-opacity="0.52"/><stop offset="1" stop-opacity="0"/></radialGradient><radialGradient id="radial-gradient-4" cx="647.36" cy="-1356.82" r="69.9" gradientTransform="matrix(0.39, -0.02, 0.02, -0.25, -90.44, -154.76)" gradientUnits="userSpaceOnUse"><stop offset="0" stop-color="#fff" stop-opacity="0.7"/><stop offset="1" stop-opacity="0"/></radialGradient></defs><title>JCC</title><g id="Layer_1"><path id="path5" class="cls-1" d="M166.84,235.55a6.89,6.89,0,0,1-6.87,6.87H7.11a6.88,6.88,0,0,1-6.86-6.87V7.12A6.89,6.89,0,0,1,7.11.25H160a6.89,6.89,0,0,1,6.87,6.87V235.55Z"/></g><g id="g3804"><g id="layer1-1"><path id="cl" class="cls-2" d="M110.91,172.59S123,162.91,123,149.48c0-7.86-7-20.91-23.11-20.91s-23.11,13.05-23.11,20.91c0,13.43,12.11,23.11,12.11,23.11-13.45-10.47-37.42-3.32-37.42,17.61,0,10.48,8.56,22,22,22,16.13,0,23.11-17.61,23.11-17.61s2,20.07-9.9,30.82h26.41c-12-10.74-9.9-30.82-9.9-30.82s7,17.61,23.11,17.61c13.45,0,22-11.53,22-22C148.32,169.27,124.35,162.12,110.91,172.59Z"/></g><g id="path3762"><path class="cls-3" d="M52.38,198.62s-1.57-20.17,4.46-26.09c6.78-6.66,27.32-2.43,27.32-2.43s-14,5.28-19.51,10.32C59.33,185.23,52.38,198.62,52.38,198.62Z"/></g><g id="path3762-6"><path class="cls-4" d="M79.58,159.75S78,139.58,84,133.65c6.78-6.66,27.32-2.43,27.32-2.43s-14,5.28-19.51,10.32C86.54,146.36,79.58,159.75,79.58,159.75Z"/></g><g id="path3762-7"><path class="cls-5" d="M98.45,196.12s12.44-23.85,22.79-26.74c11.63-3.25,29.82,14.56,29.82,14.56s-18.05-2.87-27.29-.68C114.95,185.36,98.45,196.12,98.45,196.12Z"/></g><path id="rect3015" class="cls-6" d="M41,111.33V240.52H158.43V111.33H41Zm58.81,17.18c16.13,0,23.11,13,23.11,20.91,0,13.43-12.11,23.11-12.11,23.11,13.45-10.47,37.42-3.32,37.42,17.61,0,10.47-8.56,22-22,22-16.13,0-23.11-17.61-23.11-17.61s-2.05,20.08,9.9,30.82H86.66c12-10.74,9.91-30.82,9.91-30.82s-7,17.61-23.11,17.61c-13.45,0-22-11.53-22-22,0-20.93,24-28.09,37.42-17.61,0,0-12.11-9.68-12.11-23.11C76.75,141.56,83.73,128.51,99.86,128.51Z"/></g><path id="cl-9" d="M41.11,116.45s5-4,5-9.6a9.19,9.19,0,0,0-9.54-8.68A9.19,9.19,0,0,0,27,106.85c0,5.58,5,9.6,5,9.6-5.55-4.35-15.44-1.38-15.44,7.31a9.2,9.2,0,0,0,9.08,9.14c6.66,0,9.54-7.31,9.54-7.31s0.85,8.34-4.09,12.8H42c-4.93-4.46-4.09-12.8-4.09-12.8s2.88,7.31,9.54,7.31a9.2,9.2,0,0,0,9.08-9.14C56.55,115.07,46.66,112.1,41.11,116.45Z"/><path d="M42,11.08h14.4V56.4q0,8.89-1.56,13.67a19.36,19.36,0,0,1-7.62,10q-5.52,3.78-14.55,3.78-10.6,0-16.31-5.93T10.59,60.55L24.21,59q0.24,6.15,1.81,8.69a7.78,7.78,0,0,0,7.13,3.86q4.83,0,6.84-2.76t2-11.45V11.08Z"/><g id="g2987"><path id="path2995" class="cls-7" d="M78.67,59.57c1.37-.68,5.34-2.51,6.79-3.13,2.49-1.07,2.82-1.24,2.82-1.41a4.76,4.76,0,0,0-.42-1,6.73,6.73,0,0,1-.42-4,6.47,6.47,0,0,1,2-2.89,5.56,5.56,0,0,1,4-1.08l1.41,0.06,0.28-.91c0.46-1.51,1.91-10.4,2.1-12.89l0.09-1.18-2-3.22c-1.07-1.77-2.19-3.59-2.48-4.05s-1.45-2.4-2.58-4.32l-3-5.11c-0.53-.89-1-1.66-1-1.7s14.88-.08,33.06-0.08,33.06,0,33.06.09a10.06,10.06,0,0,1-.5,1.08c-0.56,1.12-.62,1.52-0.23,1.84a29.81,29.81,0,0,1,2.45,3.59c0.27,0.52.88,2.33,2,5.94q1.32,4.17,2.43,5.34a0.93,0.93,0,0,1-.09,1.62c-0.42.31-.69,0.35-2.66,0.34s-2.28,0-3.31-.48a13.78,13.78,0,0,1-5.71-4.53,4.49,4.49,0,0,0-.9-1.05,13.9,13.9,0,0,0-1.31,2.31,20.27,20.27,0,0,1-1.33,2.42,12.19,12.19,0,0,0-.17,3,13.22,13.22,0,0,0,.39,4.35,47.48,47.48,0,0,0,2.38,6.62c0.41,0.7.45,0.72,1.09,0.64a3,3,0,0,1,3.29,1.89,3.43,3.43,0,0,1-.37,2.86A2.42,2.42,0,0,1,148.5,52a3,3,0,0,1-2.88,0,6.82,6.82,0,0,1-2.41-2.38,2.75,2.75,0,0,0-.51-0.7c-0.52-.43-0.27.39,1,3.4,1.83,4.19,2,4.54,2.22,4.68a4.66,4.66,0,0,0,1.28.14c2.12,0,3,.95,3,3.14a2.63,2.63,0,0,1-1.08,2.53,2.08,2.08,0,0,0-.58.56,9.27,9.27,0,0,0,1.62,1c0.89,0.49,2.82,1.59,4.28,2.44A26.43,26.43,0,0,0,158,68.59m-11,37.89c-0.43-.3-1.06-0.76-1.42-1l-1.63-1.25a3,3,0,0,1-1-1,21.07,21.07,0,0,1,1.32-2.85,12.64,12.64,0,0,0,1.33-3.09c0-.43-0.19-0.7-1-1.5-0.57-.53-1.26-1.14-1.54-1.34a5.13,5.13,0,0,1-1.74-1.83,15.45,15.45,0,0,1,1.66-2.5,19.22,19.22,0,0,0,1.66-2.43c0-.24-1.26-1.78-3.44-4.21a5.44,5.44,0,0,1-.87-1.14,2.71,2.71,0,0,1,.55-0.79c0.3-.34,1.16-1.35,1.91-2.24,1.59-1.9,1.7-2.33.86-3.49a47.63,47.63,0,0,1-2.83-4.39c-0.15-.4,0-0.57,1.95-2.56l2.11-2.13,0.08-.91a2.42,2.42,0,0,0-.45-1.82c-0.69-1.2-1.84-2.19-1.84-1.58a9.23,9.23,0,0,0,.8,1.54c0.93,1.56,1,1.84.92,2.17a20.3,20.3,0,0,1-2.08,2c-1.91,1.7-2,1.76-2.31,1.48A58.79,58.79,0,0,1,136.12,64c0-.34-0.3-0.35-0.73,0a1.1,1.1,0,0,0-.43.58,27,27,0,0,0,2,3.08,18.56,18.56,0,0,1,2,3.22A2.15,2.15,0,0,1,138,72c-0.53.43-1.65,1.42-2.49,2.2L134,75.66v1.86l2.33,2.35a18,18,0,0,1,2.33,2.61c0,0.3-1,1.61-3,3.77A10.75,10.75,0,0,0,134.23,88c-0.14.45,0,.66,2.39,2.63l2.37,2a1.26,1.26,0,0,1,.46.7,17.2,17.2,0,0,1-2,2.77,17.66,17.66,0,0,0-2,2.76c0,0.38.76,1,3.45,3a19.14,19.14,0,0,1,2.27,1.8c0.09,0.21-.83,2.07-2.56,5.23-1,1.89-.82,2.49,1.33,3.63a26.72,26.72,0,0,1,4.23,2.57M142,112.2c-1.39-.8-2.62-1.54-2.72-1.64s0.12-.78.95-2.4l1.44-2.83c0.56-1.1.58-1.1,2.64,0.3,2.25,1.53,3.13,2.2,3.13,2.4s-0.5,1.25-1.11,2.6c-1,2.29-1.46,3-1.7,3C144.56,113.66,143.37,113,142,112.2Zm1.7-2.38a0.59,0.59,0,0,0,.38-0.78,0.9,0.9,0,0,0-.51-0.84,0.69,0.69,0,0,0-.91,0,0.92,0.92,0,0,0-.18,1.56A1,1,0,0,0,143.68,109.81Zm-3-8.37c-0.63-.5-1.44-1.11-1.81-1.36-1.28-.85-2.08-1.56-2.08-1.84a29.18,29.18,0,0,1,3.41-4.46c0.43-.14,4.45,3,4.53,3.56a20.13,20.13,0,0,1-2.65,4.87C141.88,102.32,141.52,102.13,140.67,101.44Zm0.84-3a1.08,1.08,0,0,0-.57-1.73,1.57,1.57,0,0,0-1.16,1A1.06,1.06,0,0,0,141.51,98.45ZM139,91.09c-0.62-.54-1.64-1.46-2.27-2-1.35-1.25-1.39-1,.58-3.4,1.35-1.64,1.9-2.21,2.15-2.21a23.32,23.32,0,0,1,2.06,2.07A8.65,8.65,0,0,1,143.43,88a19,19,0,0,1-3.16,4.12A7.28,7.28,0,0,1,139,91.09Zm1.21-2.74a0.71,0.71,0,0,0-.06-1.21,1,1,0,0,0-1.52.81C138.61,88.77,139.53,89,140.2,88.34Zm-2.93-9.16a16,16,0,0,1-2.11-2.62c0-.28.46-0.87,2.12-2.49A10.52,10.52,0,0,1,139.71,72a3.64,3.64,0,0,1,1,1.05c1.75,2.42,2.56,3.67,2.56,3.93,0,0.48-3.34,4.45-3.75,4.45A19.78,19.78,0,0,1,137.27,79.18ZM140,77.36a1,1,0,0,0-.11-1.47,0.93,0.93,0,0,0-1.38.15c-0.5.5-.5,0.59-0.06,1.15A1.06,1.06,0,0,0,140,77.36Zm2.26,40.12c1-2.38,1.14-2.16-1.43-3.46-2-1-2.15-1-2-.39a0.87,0.87,0,0,0,.79.87,1.85,1.85,0,0,1,.89.59,1.56,1.56,0,0,1,.56,1.37,2.37,2.37,0,0,1-.33,1.28m-0.53-1.55c0-.23,0-0.36-0.2-0.36-0.33,0-.46.23-0.33,0.57S140.18,116.63,140.25,116.19ZM139,106.11a10.69,10.69,0,0,0,.93-2.06,1,1,0,0,0-.46-0.62c-0.25-.16-1-0.73-1.76-1.26a7.34,7.34,0,0,0-1.54-1c-0.16,0-.23.21-0.23,0.66a1,1,0,0,0,.62,1.06c1.19,0.76,1.42,1.14,1.34,2.18a2.86,2.86,0,0,1-.44,1.41,1.42,1.42,0,0,0-.18,1.61l0.18,0.47,0.31-.37A22.76,22.76,0,0,0,139,106.11Zm-1.88-1.64c-0.18-.49-0.68-0.57-0.68-0.11a1.79,1.79,0,0,0,.19.71c0.18,0.33.2,0.34,0.4,0.06A0.69,0.69,0,0,0,137.13,104.47Zm10.12,0.65a1.45,1.45,0,0,0-.89-1.32c-1.16-.48-1.46-1.78-0.7-3,0.46-.74.54-1.25,0.19-1.25a10.56,10.56,0,0,0-1.84,3.52,19.78,19.78,0,0,0,3.1,2.29A0.2,0.2,0,0,0,147.25,105.12Zm-0.69-2.86c-0.07-.57-0.47-0.73-0.47-0.18s0.12,0.62.37,0.62A0.41,0.41,0,0,0,146.56,102.26Zm-9.19-7.91a2.72,2.72,0,0,0,.64-1.19,14.45,14.45,0,0,0-3.49-2.68c-0.39.15-.07,0.9,0.71,1.68a3.64,3.64,0,0,1,.83,1.15,2.12,2.12,0,0,1-.51,1.92,1.18,1.18,0,0,0-.29,1.4C135.38,96.76,136.2,95.88,137.37,94.35Zm7.69,0.1a1.16,1.16,0,0,0-.55-0.55,2.18,2.18,0,0,1-1-2.12,1,1,0,0,0-.07-0.71,3.22,3.22,0,0,0-1,1.5A3.85,3.85,0,0,0,144,94.21C144.76,94.77,145.14,94.86,145.06,94.45Zm-9.77-.79a0.69,0.69,0,0,0-.18-0.52c-0.28-.17-0.53.18-0.41,0.57S135.29,94.16,135.29,93.66Zm9.53-1.25c0-.71-0.3-1-0.54-0.53a0.88,0.88,0,0,0,0,.78C144.49,93.25,144.85,93.08,144.82,92.41Zm-53.71-15c0-.84-0.12-1-1.91-2.9-1.45-1.53-2.08-2.34-2.08-2.71a4.64,4.64,0,0,1,1.19-1.6c2.94-3.07,3-3.1,3-3.85s-0.08-.78-2.16-2.87A23.75,23.75,0,0,1,87,61.08a16.5,16.5,0,0,1,1.68-1.9c0.92-1,1.79-1.92,1.94-2.14,0.25-.37.24-0.41,0-0.62a1.17,1.17,0,0,0-.5-0.23A15.33,15.33,0,0,0,88,58a14.56,14.56,0,0,1-2,1.83,3.26,3.26,0,0,1-.93-0.75A1.82,1.82,0,0,0,84,58.38c-0.58.08-.47,0.59,0.32,1.43a3.22,3.22,0,0,1,.76,1.08,20.31,20.31,0,0,1-2.41,2.76,24.46,24.46,0,0,0-2.41,2.71A24.05,24.05,0,0,0,82.72,69a14.86,14.86,0,0,1,2.41,2.79m1,1.14-2.28-4.26a16.82,16.82,0,0,1-2-2.33,11.55,11.55,0,0,1,1.62-1.93c1.89-2,2.41-2.45,2.73-2.45a29.55,29.55,0,0,1,4.29,4.32A34.12,34.12,0,0,1,86,70.81,17.57,17.57,0,0,1,83.81,68.71Zm2.74-1.51a1.06,1.06,0,0,0,.36-1.33,1,1,0,0,0-1.69-.18,0.77,0.77,0,0,0,.08,1.2A1,1,0,0,0,86.55,67.19Zm57.85,23c0.05-.27,0-0.28-0.21-0.09s-0.36.57-.06,0.47A0.53,0.53,0,0,0,144.41,90.15Zm-8.68-5.43c2-2.33,2-2,.21-3.87a10.11,10.11,0,0,0-1.76-1.57c-0.14,0-.22.22-0.22,0.64a1.22,1.22,0,0,0,.44,1,2.29,2.29,0,0,1,.13,3.42,1.4,1.4,0,0,0-.46,1.62,0.39,0.39,0,0,0,.21.26A14.08,14.08,0,0,0,135.73,84.72ZM144.1,85a1.17,1.17,0,0,0-.5-0.59,2.35,2.35,0,0,1-1-2,1.75,1.75,0,0,1,1-1.69,0.7,0.7,0,0,0,.33-1c-0.12-.12-0.31,0-0.62.41s-0.76.94-1.16,1.39a2.56,2.56,0,0,0-.66,1A16.06,16.06,0,0,0,144,85.26,0.21,0.21,0,0,0,144.1,85Zm-9.72-2.34a0.61,0.61,0,0,0-.21-0.54c-0.14,0-.21.13-0.21,0.54s0.07,0.59.21,0.54A0.61,0.61,0,0,0,134.38,82.68Zm9.68,0.07a1.18,1.18,0,0,0-.12-0.65c-0.14-.22-0.2-0.21-0.45,0a0.5,0.5,0,0,0-.09.72C143.64,83.37,144,83.32,144.06,82.75Zm-53-8.28a1.14,1.14,0,0,0-.5-0.68,3.38,3.38,0,0,1-.85-1c-0.46-.91-0.25-1.65.77-2.6,0.7-.65.91-1.13,0.63-1.41a14,14,0,0,0-3,3,16.6,16.6,0,0,0,2.86,3A0.31,0.31,0,0,0,91.1,74.47Zm53-.54a2.12,2.12,0,0,0-.56-1,2.44,2.44,0,0,1-.61-2.33,2.67,2.67,0,0,1,.71-0.68,4.51,4.51,0,0,0,.75-0.62c0.26-.32.27-0.69,0-0.69A13.06,13.06,0,0,0,141.88,71c-0.1.19,0.16,0.73,0.89,1.87C143.76,74.4,144.1,74.67,144.1,73.93Zm-8.62-1a8.62,8.62,0,0,0,2.31-2.24,40.32,40.32,0,0,0-2.69-4c-0.22-.24-0.63.38-0.63,1a1.24,1.24,0,0,0,.39.84,2,2,0,0,1,.69,2,1.62,1.62,0,0,1-.76,1.41,1.59,1.59,0,0,0-.75,1.63C134.21,73.9,134.36,73.84,135.47,73Zm-44.23-.64a2.45,2.45,0,0,0,0-.79c-0.08-.32-0.15-0.37-0.33-0.23a1,1,0,0,0-.24,1.15C90.8,72.91,91.17,72.83,91.24,72.31Zm53-.73c0-.66-0.14-0.84-0.44-0.59a0.93,0.93,0,0,0-.11,1C144,72.31,144.26,72.1,144.26,71.58Zm-18.61-2.31a39,39,0,0,0,3.56-2.53,1,1,0,0,0-.78-0.19,19.35,19.35,0,0,1-3.87-.47,26.18,26.18,0,0,1-4.59-2l-2.34-1.43c-0.85-.52-2-1.25-2.45-1.62a4.66,4.66,0,0,0-1.07-.67,16.75,16.75,0,0,0-3,3.31c0.05,0.09,1,.89,2.21,1.78,5.35,4.1,8.22,6.2,8.49,6.2A34.71,34.71,0,0,0,125.65,69.27ZM134.92,70a0.44,0.44,0,0,0-.34-0.31c-0.22,0-.29.06-0.29,0.43a1.18,1.18,0,0,0,.12.6C134.58,70.87,135,70.29,134.92,70Zm6-4.58a0.88,0.88,0,0,0-.64-1.57,0.93,0.93,0,0,0-1,.91A1,1,0,0,0,140.9,65.4Zm-10-.31a16.75,16.75,0,0,0,2.29-.92,12.49,12.49,0,0,0,5.11-5.11,27.7,27.7,0,0,0,2.2-6.19,81.36,81.36,0,0,0,1-8.83c0.11-2.31.05-2.4-1.14-2a9.73,9.73,0,0,1-3.82.08,1.81,1.81,0,0,0-.8-0.06c-0.24.15,0.67,1,2,1.84s1.51,1.2.84,1.2a10.36,10.36,0,0,1-3.22-1.83c-0.63-.55-0.81-0.6-0.94-0.27a16.26,16.26,0,0,0,1,4,12.27,12.27,0,0,1,.55,1.95c0.29,1.58,0,2.16-1.75,3.37a21.72,21.72,0,0,0-1.94,1.5,0.84,0.84,0,0,1-.71.4c-0.18-.29.85-1.72,2.06-2.86s1.16-1.14,1.16-1.78a24.72,24.72,0,0,0-1.05-4.86,13.46,13.46,0,0,1-.71-5.27,5.9,5.9,0,0,1,2-4.4,5.44,5.44,0,0,1,5.59-1.55,2.85,2.85,0,0,0,1.28.14,5.71,5.71,0,0,0,.19-2.52c-0.24-.36-5-1-10.57-1.52-3.44-.29-11.55-0.57-11.72-0.4A21.27,21.27,0,0,0,119,34.5a2.22,2.22,0,0,0,1.45-.3c3.16-1.17,4.84-1.49,6.64-1.26s3.53,1.31,3.53,2.25c0,0.41,0,.44-0.62.36a15.46,15.46,0,0,1-1.78-.43,10.93,10.93,0,0,0-6,.14c-2.57.62-3.6,1-3.6,1.5s0.38,0.44,1.06,0a10.17,10.17,0,0,1,6.26-1,5.45,5.45,0,0,1,3.94,2.17l0.38,0.5-0.51.53c-0.58.6-.56,0.54-0.34,1.3s0,0.94-1.51,1.94a13,13,0,0,1-5.11,2.05c-1.49.2-1.85,0.16-1.85-.24a0.82,0.82,0,0,1,.71-0.42c1.14-.27,3-0.81,3.49-1,0.72-.27.53-0.51-0.42-0.51a9.69,9.69,0,0,1-4-1.16,3.22,3.22,0,0,0-1.64-.51c-0.85,0-.83,0-1,1.91a80,80,0,0,1-3,15.2,9.48,9.48,0,0,0-.43,1.53,3.93,3.93,0,0,0,1.37,1.21c5.38,3.64,6.78,4.36,9.68,5A23.09,23.09,0,0,0,130.93,65.09Zm-2.28-3.64a1,1,0,0,1,.33-0.52,1.06,1.06,0,0,0,.33-0.44,2,2,0,0,0-.87-0.39c-1.13-.33-1.36-0.49-1.23-0.82s0.33-.28,2.2.11a4,4,0,0,0,2.2-.18,12.39,12.39,0,0,1,1.69-.35c0.56,0,.38.47-0.33,0.83a1.77,1.77,0,0,0-.66.46,1.28,1.28,0,0,0,.51.41c0.89,0.51.54,0.71-1.12,0.65a4.9,4.9,0,0,0-2.12.21C128.8,61.73,128.65,61.74,128.65,61.45Zm-4.48-3.67c-0.18-.22-0.14-0.37.23-0.93a7.29,7.29,0,0,0,.6-1.08c0.22-.58.57-0.66,1.33-0.32a1.56,1.56,0,0,0,1.39.09,5.62,5.62,0,0,1,2.72.09,2.19,2.19,0,0,0,1.23-.17,3.19,3.19,0,0,1,1.73-.17,3.75,3.75,0,0,0,1.63-.1,1.27,1.27,0,0,1,.69-0.12,7.51,7.51,0,0,1,.34,1.31c0.22,1.06.22,1.25,0,1.45s-0.3.19-.74-0.13a3.47,3.47,0,0,0-3.14-.19,5.53,5.53,0,0,1-3.73.27,6.06,6.06,0,0,0-2.67-.09c-0.53.11-1.06,0.24-1.18,0.28A0.44,0.44,0,0,1,124.17,57.77Zm3.39-5.48a2,2,0,0,1-1.23-2.2,4.24,4.24,0,0,1,.24-1.53,2.58,2.58,0,0,1,1.91-1.27c0.51,0.16.43,0.38-.4,1.16a1.65,1.65,0,0,0-.74,1.18,0.91,0.91,0,0,0,.71,1.05c0.54,0.21.88,0.08,2-.73s1.85-.79,2.42-0.18a0.57,0.57,0,0,1,.15.87,2.34,2.34,0,0,1-1.47.94l-1.83.7A1.93,1.93,0,0,1,127.55,52.3ZM82.28,62.76c1.35-1.36,1.83-2,1.74-2.13a6.87,6.87,0,0,0-.86-0.87c-0.53-.48-0.78-0.6-1-0.49s-0.31.17-.05,1a1.64,1.64,0,0,1-.27,1.65,2.45,2.45,0,0,1-1.1,1.27,0.79,0.79,0,0,0-.62.88,0.71,0.71,0,0,0,.13.57A21.5,21.5,0,0,0,82.28,62.76Zm9,0.56a0.66,0.66,0,0,0-.55-0.74,1.94,1.94,0,0,1,.16-3.42,0.6,0.6,0,0,0,.39-0.74c0-.37-0.08-0.59-0.22-0.59a20,20,0,0,0-2.92,3,14.4,14.4,0,0,0,2.92,2.95C91.18,63.83,91.27,63.62,91.27,63.32Zm47.22-1.53c1-.72,1.14-1.16.52-1.25-0.31,0-.73.36-1.78,1.75C136.89,62.75,137.59,62.47,138.49,61.8Zm-57.33-.27c0.41-.83-0.05-1.74-0.75-1.47-0.21.08-.27,0.33-0.27,1.12,0,1,0,1,.37,1A1,1,0,0,0,81.17,61.53Zm10.07-.66c0-.52,0-0.69-0.19-0.69a1,1,0,0,0-.35,1.19C90.87,61.9,91.18,61.61,91.24,60.87ZM139.76,41c0.51-.43.68-0.9,0.33-0.9a1.1,1.1,0,0,0-.51.42,1.16,1.16,0,0,1-2-.36,0.43,0.43,0,0,0-.36-0.35c-0.4.13-.31,0.48,0.25,1A1.51,1.51,0,0,0,139.76,41Zm-3.22-.08a1,1,0,0,0-.81-1c-0.5,0-1,.39-0.87.65C135.13,41,136.34,41.23,136.54,40.9Zm-11.32-.15a1.3,1.3,0,0,0,.85-1.17c-0.07-.11-0.36.08-0.76,0.52C124.48,41,124.48,41,125.22,40.75Zm2.18,0a0.55,0.55,0,0,0,0-1c-0.24-.15-0.35-0.12-0.54.14s-0.32,1.09-.08,1.09A2.24,2.24,0,0,0,127.4,40.71Zm14-.21c0-.19,0-0.27-0.17-0.22a0.52,0.52,0,0,0-.28.37c0,0.19,0,.27.17,0.22A0.52,0.52,0,0,0,141.41,40.5Zm-17.79-.42c-0.33-.67-0.79-0.9-0.79-0.38a1.58,1.58,0,0,0,.92,1C123.89,40.74,123.85,40.52,123.63,40.08Zm-1.57.21a0.83,0.83,0,0,0-.07-0.5,0.6,0.6,0,0,0-.73-0.37c-0.39,0-.59.08-0.59,0.23C120.67,40.09,121.85,40.64,122.06,40.28Zm-2.22-1.95a13.49,13.49,0,0,1,4.58-1.15,11.92,11.92,0,0,1,2.53.39c1.53,0.4,2.08.36,1.46-.09-0.88-.64-3.65-1-5.68-0.65-2.19.33-4.42,1.29-4.12,1.76C118.75,38.83,119,38.78,119.83,38.34Zm17-.25a8.1,8.1,0,0,1,3.6.09,1.35,1.35,0,0,0,1.09.09c0.47-.47-0.83-1-2.43-1S135,37.87,135,38.3C135,38.46,135.22,38.43,136.79,38.09ZM136,36.85a5.65,5.65,0,0,1,4-.51c1.75,0.47,1.8.47,1.91,0.18,0.39-1-2.54-1.66-4.65-1-0.9.27-2.27,1.24-2.27,1.61C135,37.31,135,37.3,136,36.85Z"/><path id="path2993" class="cls-8" d="M78.67,59.57c1.37-.68,5.34-2.51,6.79-3.13,2.49-1.07,2.82-1.24,2.82-1.41a5.09,5.09,0,0,0-.45-1,4.23,4.23,0,0,1-.46-2.44,4,4,0,0,1,1.36-3.63,5.33,5.33,0,0,1,4.17-1.6,9.31,9.31,0,0,0,1.79-.14c0.39-.24.93-2.93,1.9-9.32,0.28-1.84.55-3.87,0.6-4.52l0.09-1.18-2-3.22c-1.07-1.77-2.19-3.59-2.48-4.05s-1.45-2.4-2.58-4.32l-3-5.11c-0.53-.89-1-1.66-1-1.7s14.88-.08,33.06-0.08,33.06,0,33.06.09a10.06,10.06,0,0,1-.5,1.08c-0.56,1.12-.62,1.52-0.23,1.84a29.81,29.81,0,0,1,2.45,3.59c0.27,0.52.88,2.33,2,5.94q1.32,4.17,2.43,5.34a0.93,0.93,0,0,1-.09,1.62c-0.42.31-.69,0.35-2.66,0.34s-2.28,0-3.31-.48a13.78,13.78,0,0,1-5.71-4.53,4.49,4.49,0,0,0-.9-1.05,13.9,13.9,0,0,0-1.31,2.31,20.27,20.27,0,0,1-1.33,2.42,12.19,12.19,0,0,0-.17,3,13.22,13.22,0,0,0,.39,4.35,47.48,47.48,0,0,0,2.38,6.62c0.41,0.7.45,0.72,1.09,0.64a3,3,0,0,1,3.29,1.89,3.43,3.43,0,0,1-.37,2.86A2.42,2.42,0,0,1,148.5,52a3,3,0,0,1-2.88,0,6.82,6.82,0,0,1-2.41-2.38,2.75,2.75,0,0,0-.51-0.7c-0.52-.43-0.27.39,1,3.4,1.83,4.19,2,4.54,2.22,4.68a4.66,4.66,0,0,0,1.28.14c2.12,0,3,.95,3,3.14a2.63,2.63,0,0,1-1.08,2.53,2.08,2.08,0,0,0-.58.56,9.27,9.27,0,0,0,1.62,1c0.89,0.49,2.82,1.59,4.28,2.44A26.43,26.43,0,0,0,158,68.59m-11,37.89c-0.43-.3-1.06-0.76-1.42-1l-1.63-1.25a3,3,0,0,1-1-1,21.07,21.07,0,0,1,1.32-2.85,12.64,12.64,0,0,0,1.33-3.09c0-.43-0.19-0.7-1-1.5-0.57-.53-1.26-1.14-1.54-1.34a5.13,5.13,0,0,1-1.74-1.83,15.45,15.45,0,0,1,1.66-2.5,19.22,19.22,0,0,0,1.66-2.43c0-.24-1.26-1.78-3.44-4.21a5.44,5.44,0,0,1-.87-1.14,2.71,2.71,0,0,1,.55-0.79c0.3-.34,1.16-1.35,1.91-2.24,1.59-1.9,1.7-2.33.86-3.49a47.63,47.63,0,0,1-2.83-4.39c-0.15-.4,0-0.57,1.95-2.56l2.11-2.13,0.08-.91a2.42,2.42,0,0,0-.45-1.82c-0.69-1.2-1.84-2.19-1.84-1.58a9.23,9.23,0,0,0,.8,1.54c0.93,1.56,1,1.84.92,2.17a20.3,20.3,0,0,1-2.08,2c-1.91,1.7-2,1.76-2.31,1.48A58.79,58.79,0,0,1,136.12,64c0-.34-0.3-0.35-0.73,0a1.1,1.1,0,0,0-.43.58,27,27,0,0,0,2,3.08,18.56,18.56,0,0,1,2,3.22A2.15,2.15,0,0,1,138,72c-0.53.43-1.65,1.42-2.49,2.2L134,75.66v1.86l2.33,2.35a18,18,0,0,1,2.33,2.61c0,0.3-1,1.61-3,3.77A10.75,10.75,0,0,0,134.23,88c-0.14.45,0,.66,2.39,2.63l2.37,2a1.26,1.26,0,0,1,.46.7,17.2,17.2,0,0,1-2,2.77,17.66,17.66,0,0,0-2,2.76c0,0.38.76,1,3.45,3a19.14,19.14,0,0,1,2.27,1.8c0.09,0.21-.83,2.07-2.56,5.23-1,1.89-.82,2.49,1.33,3.63a26.72,26.72,0,0,1,4.23,2.57M142,112.2c-1.39-.8-2.62-1.54-2.72-1.64s0.12-.78.95-2.4l1.44-2.83c0.56-1.1.58-1.1,2.64,0.3,2.25,1.53,3.13,2.2,3.13,2.4s-0.5,1.25-1.11,2.6c-1,2.29-1.46,3-1.7,3C144.56,113.66,143.37,113,142,112.2Zm1.7-2.38a0.59,0.59,0,0,0,.38-0.78,0.9,0.9,0,0,0-.51-0.84,0.69,0.69,0,0,0-.91,0,0.92,0.92,0,0,0-.18,1.56A1,1,0,0,0,143.68,109.81Zm-3-8.37c-0.63-.5-1.44-1.11-1.81-1.36-1.28-.85-2.08-1.56-2.08-1.84a29.18,29.18,0,0,1,3.41-4.46c0.43-.14,4.45,3,4.53,3.56a20.13,20.13,0,0,1-2.65,4.87C141.88,102.32,141.52,102.13,140.67,101.44Zm0.84-3a1.08,1.08,0,0,0-.57-1.73,1.57,1.57,0,0,0-1.16,1A1.06,1.06,0,0,0,141.51,98.45ZM139,91.09c-0.62-.54-1.64-1.46-2.27-2-1.35-1.25-1.39-1,.58-3.4,1.35-1.64,1.9-2.21,2.15-2.21a23.32,23.32,0,0,1,2.06,2.07A8.65,8.65,0,0,1,143.43,88a19,19,0,0,1-3.16,4.12A7.28,7.28,0,0,1,139,91.09Zm1.21-2.74a0.71,0.71,0,0,0-.06-1.21,1,1,0,0,0-1.52.81C138.61,88.77,139.53,89,140.2,88.34Zm-2.93-9.16a16,16,0,0,1-2.11-2.62c0-.28.46-0.87,2.12-2.49A10.52,10.52,0,0,1,139.71,72a3.64,3.64,0,0,1,1,1.05c1.75,2.42,2.56,3.67,2.56,3.93,0,0.48-3.34,4.45-3.75,4.45A19.78,19.78,0,0,1,137.27,79.18ZM140,77.36a1,1,0,0,0-.11-1.47,0.93,0.93,0,0,0-1.38.15c-0.5.5-.5,0.59-0.06,1.15A1.06,1.06,0,0,0,140,77.36ZM139.59,119m-5.25-5.94a22.68,22.68,0,0,0,2.69-1.86,1.28,1.28,0,0,0-.51-1.21m5.76,7.47c1-2.38,1.14-2.16-1.43-3.46-2-1-2.15-1-2-.39a0.87,0.87,0,0,0,.79.87,1.85,1.85,0,0,1,.89.59,1.56,1.56,0,0,1,.56,1.37,2.37,2.37,0,0,1-.33,1.28m-0.53-1.55c0-.23,0-0.36-0.2-0.36-0.33,0-.46.23-0.33,0.57S140.18,116.63,140.25,116.19Zm-7.61-5.11a0.38,0.38,0,0,0-.33.09,0.76,0.76,0,0,0-.33.26,0.38,0.38,0,0,0,.33-0.09A0.76,0.76,0,0,0,132.63,111.08Zm6.38-5a10.69,10.69,0,0,0,.93-2.06,1,1,0,0,0-.46-0.62c-0.25-.16-1-0.73-1.76-1.26a7.34,7.34,0,0,0-1.54-1c-0.16,0-.23.21-0.23,0.66a1,1,0,0,0,.62,1.06c1.19,0.76,1.42,1.14,1.34,2.18a2.86,2.86,0,0,1-.44,1.41,1.42,1.42,0,0,0-.18,1.61l0.18,0.47,0.31-.37A22.76,22.76,0,0,0,139,106.11Zm-1.88-1.64c-0.18-.49-0.68-0.57-0.68-0.11a1.79,1.79,0,0,0,.19.71c0.18,0.33.2,0.34,0.4,0.06A0.69,0.69,0,0,0,137.13,104.47Zm10.12,0.65a1.45,1.45,0,0,0-.89-1.32c-1.16-.48-1.46-1.78-0.7-3,0.46-.74.54-1.25,0.19-1.25a10.56,10.56,0,0,0-1.84,3.52,19.78,19.78,0,0,0,3.1,2.29A0.2,0.2,0,0,0,147.25,105.12Zm-0.69-2.86c-0.07-.57-0.47-0.73-0.47-0.18s0.12,0.62.37,0.62A0.41,0.41,0,0,0,146.56,102.26Zm-9.19-7.91a2.72,2.72,0,0,0,.64-1.19,14.45,14.45,0,0,0-3.49-2.68c-0.39.15-.07,0.9,0.71,1.68a3.64,3.64,0,0,1,.83,1.15,2.12,2.12,0,0,1-.51,1.92,1.18,1.18,0,0,0-.29,1.4C135.38,96.76,136.2,95.88,137.37,94.35Zm7.69,0.1a1.16,1.16,0,0,0-.55-0.55,2.18,2.18,0,0,1-1-2.12,1,1,0,0,0-.07-0.71,3.22,3.22,0,0,0-1,1.5A3.85,3.85,0,0,0,144,94.21C144.76,94.77,145.14,94.86,145.06,94.45Zm-9.77-.79a0.69,0.69,0,0,0-.18-0.52c-0.28-.17-0.53.18-0.41,0.57S135.29,94.16,135.29,93.66Zm9.6-1.1a1.18,1.18,0,0,0-.19-0.72c-0.23-.31-0.24-0.31-0.42,0a0.88,0.88,0,0,0,0,.79C144.46,93.18,144.82,93.12,144.89,92.56ZM91.1,77.36c0-.84-0.12-1-1.91-2.9-1.45-1.53-2.08-2.34-2.08-2.71a4.64,4.64,0,0,1,1.19-1.6c2.94-3.07,3-3.1,3-3.85s-0.08-.78-2.16-2.87A23.75,23.75,0,0,1,87,61.08a16.5,16.5,0,0,1,1.68-1.9c0.92-1,1.79-1.92,1.94-2.14,0.25-.37.24-0.41,0-0.62a1.17,1.17,0,0,0-.5-0.23A15.33,15.33,0,0,0,88,58a14.56,14.56,0,0,1-2,1.83,3.26,3.26,0,0,1-.93-0.75A1.82,1.82,0,0,0,84,58.38c-0.58.08-.47,0.59,0.32,1.43a3.22,3.22,0,0,1,.76,1.08,20.31,20.31,0,0,1-2.41,2.76,24.46,24.46,0,0,0-2.41,2.71A24.05,24.05,0,0,0,82.72,69a14.86,14.86,0,0,1,2.41,2.79m1,1.14-2.28-4.26a16.82,16.82,0,0,1-2-2.33,11.55,11.55,0,0,1,1.62-1.93c1.89-2,2.41-2.45,2.73-2.45a29.55,29.55,0,0,1,4.29,4.32A34.12,34.12,0,0,1,86,70.81,17.57,17.57,0,0,1,83.81,68.71Zm2.74-1.51a1.06,1.06,0,0,0,.36-1.33,1,1,0,0,0-1.69-.18,0.77,0.77,0,0,0,.08,1.2A1,1,0,0,0,86.55,67.19Zm57.85,23c0.05-.27,0-0.28-0.21-0.09s-0.36.57-.06,0.47A0.53,0.53,0,0,0,144.41,90.15Zm4.28-4.42a8.3,8.3,0,0,0,1.59-.87c0.06-.1.68-0.95,1.37-1.88A10.91,10.91,0,0,0,152.9,81a4.06,4.06,0,0,0-1.32-1,4.2,4.2,0,0,1-1.33-1,6.08,6.08,0,0,1,1.16-1.44A4.19,4.19,0,0,0,152.57,76a6.14,6.14,0,0,0-1.08-1.75,9.55,9.55,0,0,1-1.08-1.56,5.55,5.55,0,0,1,1.25-1.1,3.13,3.13,0,0,0,1.25-1.24,8.82,8.82,0,0,0-1-1.95c-0.58-.89-1.22-1.94-1.44-2.32a3.07,3.07,0,0,0-1.51-1.29,7.4,7.4,0,0,0-1.3-.59c-0.35,0-.18.49,0.52,1.57,2.13,3.27,2.34,3.66,2.16,4A8.91,8.91,0,0,1,149,70.85a4.2,4.2,0,0,0-1.21,1.22c0,0.34.69,1.43,1.82,2.68a2.89,2.89,0,0,1,.64.91,10.21,10.21,0,0,1-1.51,1.74,7.2,7.2,0,0,0-1.44,1.74,7.68,7.68,0,0,0,1.47,1.17,4.39,4.39,0,0,1,1.46,1.29A5.15,5.15,0,0,1,149,83.56a15.92,15.92,0,0,0-2,2.76C146.92,86.52,147.22,86.41,148.68,85.73Zm-13-1c2-2.33,2-2,.21-3.87a10.11,10.11,0,0,0-1.76-1.57c-0.14,0-.22.22-0.22,0.64a1.22,1.22,0,0,0,.44,1,2.29,2.29,0,0,1,.13,3.42,1.4,1.4,0,0,0-.46,1.62,0.39,0.39,0,0,0,.21.26A14.08,14.08,0,0,0,135.73,84.72Zm11.87-.63a12.73,12.73,0,0,0,1.56-2.28,4.24,4.24,0,0,0-1.49-1.28,5.75,5.75,0,0,1-1.55-1.3c0-.21.43-0.81,1.45-1.85a8.35,8.35,0,0,0,1.51-1.82,8.12,8.12,0,0,0-1.16-1.8,11,11,0,0,1-1.16-1.69c0-.34.29-0.62,1.43-1.41a3.53,3.53,0,0,0,1.2-1.12,18.46,18.46,0,0,0-2.58-4.16c-0.38-.3-0.5-0.15-0.71.88a1.6,1.6,0,0,0,.32,1.71,4.58,4.58,0,0,1,.51.95,2.58,2.58,0,0,1-.66.73l-0.66.58-0.11,1.86-0.11,1.86,0.69,0.78a4.09,4.09,0,0,1,.69.93,4.27,4.27,0,0,1-.75.95l-0.75.8v3.69l0.66,0.53a2.34,2.34,0,0,1,.66.69,2.79,2.79,0,0,1-.49.77,2.47,2.47,0,0,0-.77,2.24c0.18,1.2.51,1,2.27-1.24h0Zm-25.38,1.39C122.78,85.2,130.66,80,132,79a1.3,1.3,0,0,0,.79-1.55,2.28,2.28,0,0,0-.16-1.07c-0.18-.11-0.93.36-6.57,4.1a38.93,38.93,0,0,1-4.5,2.73,1.13,1.13,0,0,1-1.08-.4c-0.31-.27-4.79-3.64-10-7.5S100.2,67.57,99,66.69A17.14,17.14,0,0,0,96.58,65c-0.28,0-.32,0-0.32.69,0,0.92-.34.62,7.47,6.6l5.56,4.26L113.78,80c1.37,1,3.31,2.55,4.32,3.34C121.57,86.07,121.32,85.95,122.22,85.49ZM144.1,85a1.17,1.17,0,0,0-.5-0.59,2.35,2.35,0,0,1-1-2,1.75,1.75,0,0,1,1-1.69,0.7,0.7,0,0,0,.33-1c-0.12-.12-0.31,0-0.62.41s-0.76.94-1.16,1.39a2.56,2.56,0,0,0-.66,1A16.06,16.06,0,0,0,144,85.26,0.21,0.21,0,0,0,144.1,85Zm-9.72-2.34a0.61,0.61,0,0,0-.21-0.54c-0.14,0-.21.13-0.21,0.54s0.07,0.59.21,0.54A0.61,0.61,0,0,0,134.38,82.68Zm9.68,0.07a1.18,1.18,0,0,0-.12-0.65c-0.14-.22-0.2-0.21-0.45,0a0.5,0.5,0,0,0-.09.72C143.64,83.37,144,83.32,144.06,82.75ZM157.82,81a8,8,0,0,0-.27-2,17.54,17.54,0,0,1-.26-6.61l0.37-2c0.08-.45,0-0.56-0.58-1a1.84,1.84,0,0,0-.87-0.4c-0.33.11-1,2.14-1.17,3.7a24.15,24.15,0,0,0,.19,5.85,11,11,0,0,0,1,3.41A2,2,0,0,0,157.82,81Zm-31.38-2.06c0.66-.23.89-0.76,1.14-2.63a4.29,4.29,0,0,1,.43-1.7c0.32-.2.86-0.18,2.45,0.1,1.31,0.23,1.44.23,1.91-.05s0.52-.39.64-1.53c0.17-1.61.09-2.85-.17-2.94s-0.63.78-.78,1.87c-0.18,1.27-.22,1.29-2.24,1.17-2.83-.17-3.19.09-3.6,2.5a7.28,7.28,0,0,1-.4,1.64,31.92,31.92,0,0,1-4.23.17c-3.51,0-4.12,0-4.32-.24a5.21,5.21,0,0,1-.4-1.73c-0.27-2.35-.66-2.68-3-2.49-1.65.13-2.22,0-2.46-.41a8.32,8.32,0,0,1-.33-1.73c-0.25-2.23-.41-2.35-3.33-2.49-2.11-.1-2.23-0.2-2.4-2-0.13-1.31-.41-2-0.91-2.3a6.57,6.57,0,0,0-3,0c-1.24.27-1.59,0-1.75-1.38-0.17-1.53-.43-2.05-1.15-2.29a2.5,2.5,0,0,0-2.09.25,0.9,0.9,0,0,0-.13.61c0,0.34.15,0.38,0.83,0.38a2,2,0,0,1,1,.17,4.56,4.56,0,0,1,.34,1.38,7.37,7.37,0,0,0,.34,1.53c0.28,0.53,1.25.71,2.82,0.52a4.7,4.7,0,0,1,1.68,0c0.29,0.16.55,1.1,0.72,2.61,0.13,1.16.21,1.34,0.73,1.6a5.63,5.63,0,0,0,2.36.14c1.91-.09,1.92-0.08,2.26.34a3.16,3.16,0,0,1,.45,1.61,7.75,7.75,0,0,0,.33,1.71c0.4,1,.6,1,2.86,1,2,0,2.05,0,2.29.34a5.21,5.21,0,0,1,.33,1.74c0.15,2.43.42,2.6,4,2.46a28,28,0,0,1,3.61.06A8.32,8.32,0,0,0,126.44,78.94Zm1.12-7.06L133.42,68l0.09-.92c0.16-1.55-.06-1.71-1.23-0.86-1,.72-6.67,4.5-8.66,5.76a9,9,0,0,1-1.91,1c-0.29,0-1.47-.86-8.65-6.29l-3.37-2.55-0.78.11c-1.38.19-1.69,0.28-1.69,0.5a9.49,9.49,0,0,0,1.79,1.6c4.86,3.76,6.35,4.9,9.25,7.09,1.73,1.3,3.21,2.37,3.3,2.37S124.34,74,127.56,71.88ZM91.1,74.47a1.14,1.14,0,0,0-.5-0.68,3.38,3.38,0,0,1-.85-1c-0.46-.91-0.25-1.65.77-2.6,0.7-.65.91-1.13,0.63-1.41a14,14,0,0,0-3,3,16.6,16.6,0,0,0,2.86,3A0.31,0.31,0,0,0,91.1,74.47Zm53-.54a2.12,2.12,0,0,0-.56-1,2.44,2.44,0,0,1-.61-2.33,2.67,2.67,0,0,1,.71-0.68,4.51,4.51,0,0,0,.75-0.62c0.26-.32.27-0.69,0-0.69A13.06,13.06,0,0,0,141.88,71c-0.1.19,0.16,0.73,0.89,1.87C143.76,74.4,144.1,74.67,144.1,73.93Zm-8.62-1a8.62,8.62,0,0,0,2.31-2.24,40.32,40.32,0,0,0-2.69-4c-0.22-.24-0.63.38-0.63,1a1.24,1.24,0,0,0,.39.84,2,2,0,0,1,.69,2,1.62,1.62,0,0,1-.76,1.41,1.59,1.59,0,0,0-.75,1.63C134.21,73.9,134.36,73.84,135.47,73Zm-44.23-.64a2.45,2.45,0,0,0,0-.79c-0.08-.32-0.15-0.37-0.33-0.23a1,1,0,0,0-.24,1.15C90.8,72.91,91.17,72.83,91.24,72.31Zm53-.73c0-.66-0.14-0.84-0.44-0.59a0.93,0.93,0,0,0-.11,1C144,72.31,144.26,72.1,144.26,71.58ZM124,70.4c1.83-1.19,3.28-2.17,4.65-3.13,0.65-.45.73-0.89,0.14-0.73a19.45,19.45,0,0,1-4-.4A26,26,0,0,1,120,64.06l-2.34-1.42c-0.85-.52-2-1.25-2.45-1.62a4.66,4.66,0,0,0-1.07-.67,16.75,16.75,0,0,0-3,3.31c0.05,0.09,1,.89,2.21,1.78,5.37,4.12,8.22,6.2,8.49,6.2A11.74,11.74,0,0,0,124,70.4ZM134.92,70a0.44,0.44,0,0,0-.34-0.31c-0.22,0-.29.06-0.29,0.43a1.18,1.18,0,0,0,.12.6C134.58,70.87,135,70.29,134.92,70Zm6-4.58a0.88,0.88,0,0,0-.64-1.57,0.93,0.93,0,0,0-1,.91A1,1,0,0,0,140.9,65.4Zm-10-.31a16.75,16.75,0,0,0,2.29-.92,12.49,12.49,0,0,0,5.11-5.11,27.7,27.7,0,0,0,2.2-6.19,81.36,81.36,0,0,0,1-8.83c0.11-2.31.05-2.4-1.14-2a9.73,9.73,0,0,1-3.82.08,1.81,1.81,0,0,0-.8-0.06c-0.24.15,0.67,1,2,1.84s1.51,1.2.84,1.2a10.36,10.36,0,0,1-3.22-1.83c-0.63-.55-0.81-0.6-0.94-0.27a16.26,16.26,0,0,0,1,4,12.27,12.27,0,0,1,.55,1.95c0.29,1.58,0,2.16-1.75,3.37a21.72,21.72,0,0,0-1.94,1.5,0.84,0.84,0,0,1-.71.4c-0.18-.29.85-1.72,2.06-2.86s1.16-1.14,1.16-1.78a24.72,24.72,0,0,0-1.05-4.86,13.46,13.46,0,0,1-.71-5.27,5.9,5.9,0,0,1,2-4.4,5.44,5.44,0,0,1,5.59-1.55,2.85,2.85,0,0,0,1.28.14,5.71,5.71,0,0,0,.19-2.52c-0.24-.36-5-1-10.57-1.52-3.44-.29-11.55-0.57-11.72-0.4A21.27,21.27,0,0,0,119,34.5a2.22,2.22,0,0,0,1.45-.3c3.16-1.17,4.84-1.49,6.64-1.26s3.53,1.31,3.53,2.25c0,0.41,0,.44-0.62.36a15.46,15.46,0,0,1-1.78-.43,10.93,10.93,0,0,0-6,.14c-2.57.62-3.6,1-3.6,1.5s0.38,0.44,1.06,0a10.17,10.17,0,0,1,6.26-1,5.45,5.45,0,0,1,3.94,2.17l0.38,0.5-0.51.53c-0.58.6-.56,0.54-0.34,1.3s0,0.94-1.51,1.94a13,13,0,0,1-5.11,2.05c-1.49.2-1.85,0.16-1.85-.24a0.82,0.82,0,0,1,.71-0.42c1.14-.27,3-0.81,3.49-1,0.72-.27.53-0.51-0.42-0.51a9.69,9.69,0,0,1-4-1.16,3.22,3.22,0,0,0-1.64-.51c-0.85,0-.83,0-1,1.91a80,80,0,0,1-3,15.2,9.48,9.48,0,0,0-.43,1.53,3.93,3.93,0,0,0,1.37,1.21c5.38,3.64,6.78,4.36,9.68,5A23.09,23.09,0,0,0,130.93,65.09Zm-2.28-3.64a1,1,0,0,1,.33-0.52,1.06,1.06,0,0,0,.33-0.44,2,2,0,0,0-.87-0.39c-1.13-.33-1.36-0.49-1.23-0.82s0.33-.28,2.2.11a4,4,0,0,0,2.2-.18,12.39,12.39,0,0,1,1.69-.35c0.56,0,.38.47-0.33,0.83a1.77,1.77,0,0,0-.66.46,1.28,1.28,0,0,0,.51.41c0.89,0.51.54,0.71-1.12,0.65a4.9,4.9,0,0,0-2.12.21C128.8,61.73,128.65,61.74,128.65,61.45Zm-4.48-3.67c-0.18-.22-0.14-0.37.23-0.93a7.29,7.29,0,0,0,.6-1.08c0.22-.58.57-0.66,1.33-0.32a1.56,1.56,0,0,0,1.39.09,5.62,5.62,0,0,1,2.72.09,2.19,2.19,0,0,0,1.23-.17,3.19,3.19,0,0,1,1.73-.17,3.75,3.75,0,0,0,1.63-.1,1.27,1.27,0,0,1,.69-0.12,7.51,7.51,0,0,1,.34,1.31c0.22,1.06.22,1.25,0,1.45s-0.3.19-.74-0.13a3.47,3.47,0,0,0-3.14-.19,5.53,5.53,0,0,1-3.73.27,6.06,6.06,0,0,0-2.67-.09c-0.53.11-1.06,0.24-1.18,0.28A0.44,0.44,0,0,1,124.17,57.77Zm3.39-5.48a2,2,0,0,1-1.23-2.2,4.24,4.24,0,0,1,.24-1.53,2.58,2.58,0,0,1,1.91-1.27c0.51,0.16.43,0.38-.4,1.16a1.65,1.65,0,0,0-.74,1.18,0.91,0.91,0,0,0,.71,1.05c0.54,0.21.88,0.08,2-.73s1.85-.79,2.42-0.18a0.57,0.57,0,0,1,.15.87,2.34,2.34,0,0,1-1.47.94l-1.83.7A1.93,1.93,0,0,1,127.55,52.3ZM82.28,62.76c1.35-1.36,1.83-2,1.74-2.13a6.87,6.87,0,0,0-.86-0.87c-0.53-.48-0.78-0.6-1-0.49s-0.31.17-.05,1a1.64,1.64,0,0,1-.27,1.65,2.45,2.45,0,0,1-1.1,1.27,0.79,0.79,0,0,0-.62.88,0.71,0.71,0,0,0,.13.57A21.5,21.5,0,0,0,82.28,62.76Zm9,0.56a0.66,0.66,0,0,0-.55-0.74,1.94,1.94,0,0,1,.16-3.42,0.6,0.6,0,0,0,.39-0.74c0-.37-0.08-0.59-0.22-0.59a20,20,0,0,0-2.92,3,14.4,14.4,0,0,0,2.92,2.95C91.18,63.83,91.27,63.62,91.27,63.32Zm18,0a5.87,5.87,0,0,0,2.07-1.36A9.5,9.5,0,0,0,114,58.12a67.06,67.06,0,0,0,2.54-9.7c0.43-2.56,1-7.46,1-8.71a25.38,25.38,0,0,1,.24-2.66c0.13-.94.36-2.71,0.51-3.93s0.33-2.57.41-3c0.17-.89,0-1.18-0.64-1.18s-0.87.22-1,1.59c-0.09.72-.26,2-0.39,2.89-0.32,2.14-.56,4.28-0.67,6a95.28,95.28,0,0,1-1.75,12.46c-0.87,3.85-2.11,6.63-3.75,8.45a3.83,3.83,0,0,1-2.93,1.35c-2.37,0-3.12-2.95-1.19-4.65,1-.9,2-0.88,2.5.07a1.81,1.81,0,0,1-.28,2c-0.46.41-.59,0.2-0.34-0.56s0-1.35-.59-1.35c-0.9,0-1.89,1.68-1.63,2.75A1.86,1.86,0,0,0,107.64,61a3.74,3.74,0,0,0,3.16-2.92,3.25,3.25,0,0,0-1.6-3.31,3.69,3.69,0,0,0-2.73.07,7.54,7.54,0,0,0-2.66,2.78,6.77,6.77,0,0,0,.21,4.14C104.89,63.44,107.1,64.09,109.27,63.3Zm29.23-1.5c1-.72,1.14-1.16.52-1.25-0.31,0-.73.36-1.78,1.75C136.89,62.75,137.59,62.47,138.49,61.8Zm10,0.22a2.13,2.13,0,0,0,.87-1.12,1.56,1.56,0,0,0,.05-1.44,2,2,0,0,0-3-1.12,1.21,1.21,0,0,1-.77.21,27,27,0,0,1-2.27-4.68c-0.69-1.76-1.27-2.88-1.52-2.89s-0.37.79-.39,2.23,0.4,2.79,1.73,5.55C144.76,62,146.61,63.17,148.48,62Zm-67.31-.48c0.41-.83-0.05-1.74-0.75-1.47-0.21.08-.27,0.33-0.27,1.12,0,1,0,1,.37,1A1,1,0,0,0,81.17,61.53Zm10.07-.66c0-.52,0-0.69-0.19-0.69a1,1,0,0,0-.35,1.19C90.87,61.9,91.18,61.61,91.24,60.87Zm11.42-1.32a3.77,3.77,0,0,1,.56-2.51,8,8,0,0,1,3-2.9c0.95-.54.77-0.87-0.42-0.82a4.78,4.78,0,0,0-4.16,3.17c-0.78,2-.74,2.92.15,4C102.54,61.33,102.67,61.19,102.66,59.55Zm40.27,0.74a1.3,1.3,0,0,0-.24-0.55,17.22,17.22,0,0,1-.9-2,5.07,5.07,0,0,0-.9-1.7c-0.29-.06-0.64.7-0.66,1.42a4.78,4.78,0,0,0,.37,1.44,2,2,0,0,0,1,1.25C142.28,60.54,142.93,60.6,142.93,60.3Zm-42.46-1.82a5,5,0,0,1,.5-2.35,7.87,7.87,0,0,1,2.71-3c0.74-.48.87-0.62,0.71-0.82-0.64-.77-2.53-0.23-3.68,1.06a7.41,7.41,0,0,0-1.84,4.13,2.7,2.7,0,0,0,.76,2.16C100.24,60.31,100.41,60.06,100.47,58.48Zm-2.32-.17a13.6,13.6,0,0,0,.14-1.37,7,7,0,0,1,3-5q1.68-1.23-.2-1.24c-0.62,0-1,.2-2,1a6.33,6.33,0,0,0-2,3.55,3,3,0,0,0,.45,2.94C97.85,58.78,98.05,58.8,98.15,58.31Zm-1.9-1.75a6.2,6.2,0,0,1,2.55-5.47,3.07,3.07,0,0,0,.86-0.91c0-.31-1-0.35-1.54-0.06a6.23,6.23,0,0,0-2.68,2.63c-0.93,1.9-1,3.55-.08,4.71C96.08,58.39,96.25,58.23,96.25,56.55Zm-2.15-1.2a6.48,6.48,0,0,1,2.73-5.26,2.82,2.82,0,0,0,.91-0.84c0-.36-0.81-0.43-1.59-0.13a5.43,5.43,0,0,0-3.59,4.26c-0.3,1.8.33,3.76,1.16,3.6C94,56.94,94,56.64,94.11,55.36Zm18.44-.21c0.85-2.32,2-8.77,2.56-14.74,0.27-2.7.5-4.83,0.73-6.56,0.48-3.68.55-4.4,0.46-4.64a1.16,1.16,0,0,0-1.42,0,7,7,0,0,0-.34,1.87c-0.09.9-.27,2.73-0.41,4.05l-0.43,4.07c-0.4,3.8-.89,7.35-1.35,9.72a38.73,38.73,0,0,1-1.5,5.54c-0.22.4,0.62,2.14,1,2.06A3.23,3.23,0,0,0,112.55,55.15Zm-20.73-.88a5.63,5.63,0,0,1,1.43-3.87A8.3,8.3,0,0,1,94.82,49a2.68,2.68,0,0,0,.92-0.79c0-.49-1.47-0.47-2.52,0a4.94,4.94,0,0,0-2.78,4c-0.27,1.72.24,3.61,1,3.61C91.68,55.86,91.73,55.62,91.82,54.27Zm-2.2-1.58c0.17-2.38,1.13-4,2.91-4.81,1.18-.56,1.29-0.87.33-1a4.8,4.8,0,0,0-4,2.22,5.45,5.45,0,0,0-.58,3.56c0.19,0.78.76,1.55,1.07,1.45A3.62,3.62,0,0,0,89.63,52.69Zm20.9,0.47c1-2.34,1.86-7.33,2.51-14.16,0.19-2,.49-4.7.67-6s0.32-2.6.32-2.94a1,1,0,0,0-.82-1.14c-0.61,0-.79.52-1.08,3.16-0.16,1.42-.38,3.32-0.51,4.24s-0.31,2.45-.41,3.41-0.3,2.42-.43,3.24-0.36,2.39-.49,3.49a27.11,27.11,0,0,1-1.19,5.65l-0.41,1.16,0.5,0.45a1.09,1.09,0,0,0,.74.36A2.35,2.35,0,0,0,110.53,53.15Zm-2.08-1.36a29.87,29.87,0,0,0,1.17-5.48c0-.37.19-1.52,0.33-2.57,0.23-1.73.35-2.66,0.91-6.81,0.72-5.3.9-7.29,0.69-7.54a1.18,1.18,0,0,0-1.51.29,17.3,17.3,0,0,0-.32,2.35c-0.1,1.1-.29,2.93-0.43,4.07s-0.32,2.79-.42,3.65a99.15,99.15,0,0,1-2,11.77c-0.26.85-.26,0.9,0,1.12C107.65,53.13,108,52.94,108.44,51.79Zm-2.26-.45A30.23,30.23,0,0,0,107.29,46c0.16-1.1.39-2.7,0.52-3.57,0.27-1.8.85-6.26,1.06-8.22,0.08-.73.17-2.08,0.2-3l0.05-1.66h-0.66c-0.76,0-.76,0-1.08,2.74-0.1.87-.33,2.81-0.51,4.32s-0.48,4.09-.66,5.73a42.73,42.73,0,0,1-1.35,7.95c-0.35.92-.35,1-0.06,1.28A0.8,0.8,0,0,0,106.18,51.34Zm42.5-.84c1.63-1.78.23-4.18-2-3.44a0.76,0.76,0,0,1-.85,0,15.06,15.06,0,0,1-2.08-4.62c-1-3.27-1.28-3.18-1.34.4a9,9,0,0,0,3.17,7.92,2.06,2.06,0,0,0,1.67.43A1.66,1.66,0,0,0,148.68,50.5ZM104,50.42c0.6-1.17,1-3.34,1.51-7.68,0.13-1.14.31-2.56,0.4-3.16s0.25-1.9.36-2.91,0.33-2.83.51-4,0.32-2.39.32-2.6c0-.48-0.32-0.61-1.05-0.4a0.88,0.88,0,0,0-.75.95,18.66,18.66,0,0,0-.27,1.95c-0.05.64-.28,2.88-0.51,5-0.73,6.88-1.14,9.59-1.74,11.55l-0.33,1.08,0.43,0.37C103.39,51,103.67,51,104,50.42Zm-2.13-.71c0.47-.76,1-3.67,1.48-8.38,0.15-1.37.37-3.39,0.51-4.49,0.3-2.5.56-5.06,0.62-6.15l0-.83-0.63,0a1.6,1.6,0,0,0-.8.18,6.83,6.83,0,0,0-.31,1.81c-0.08.9-.23,2.09-0.33,2.64s-0.4,2.68-.66,4.73c-0.89,6.8-1,7.61-1.31,8.71s-0.27,1.36.4,1.73A0.8,0.8,0,0,0,101.82,49.7Zm-2-2.19c0.15-.57.42-2.13,0.61-3.45s0.37-2.56.41-2.74,0.14-1,.23-1.91,0.31-2.7.51-4.07c0.67-4.84.64-5.35-.33-5.12a1.07,1.07,0,0,0-.83,1.27c0,0.36-.11,1.41-0.24,2.34s-0.36,2.54-.49,3.59c-0.52,4-.79,5.63-1.26,8-0.27,1.32-.49,2.49-0.49,2.6a1.2,1.2,0,0,0,.53.53C99.19,49,99.48,48.77,99.81,47.51Zm-2.52-.56c0.49-.83,1.27-5.53,1.79-10.78,0.09-.91.28-2.36,0.43-3.21,0.3-1.8.23-2.35-.31-2.35a0.77,0.77,0,0,0-.84.54c-0.11.31-.44,2.36-0.87,5.43-0.24,1.73-.51,3.42-1,6.16-0.13.78-.37,1.87-0.52,2.41-0.42,1.48-.4,1.93.09,2.18A0.74,0.74,0,0,0,97.29,46.95Zm42.48-6c0.51-.43.68-0.9,0.33-0.9a1.1,1.1,0,0,0-.51.42,1.16,1.16,0,0,1-2-.36,0.43,0.43,0,0,0-.36-0.35c-0.4.13-.31,0.48,0.25,1A1.51,1.51,0,0,0,139.76,41Zm-3.22-.08a1,1,0,0,0-.81-1c-0.5,0-1,.39-0.87.65C135.13,41,136.34,41.23,136.54,40.9Zm-11.32-.15a1.3,1.3,0,0,0,.85-1.17c-0.07-.11-0.36.08-0.76,0.52C124.48,41,124.48,41,125.22,40.75Zm2.18,0a0.55,0.55,0,0,0,0-1c-0.24-.15-0.35-0.12-0.54.14s-0.32,1.09-.08,1.09A2.24,2.24,0,0,0,127.4,40.71Zm14-.21c0-.19,0-0.27-0.17-0.22a0.52,0.52,0,0,0-.28.37c0,0.19,0,.27.17,0.22A0.52,0.52,0,0,0,141.41,40.5Zm-17.79-.42c-0.33-.67-0.79-0.9-0.79-0.38a1.58,1.58,0,0,0,.92,1C123.89,40.74,123.85,40.52,123.63,40.08Zm-1.57.21a0.83,0.83,0,0,0-.07-0.5,0.6,0.6,0,0,0-.73-0.37c-0.39,0-.59.08-0.59,0.23C120.67,40.09,121.85,40.64,122.06,40.28Zm-2.22-1.95a13.49,13.49,0,0,1,4.58-1.15,11.92,11.92,0,0,1,2.53.39c1.53,0.4,2.08.36,1.46-.09-0.88-.64-3.65-1-5.68-0.65-2.19.33-4.42,1.29-4.12,1.76C118.75,38.83,119,38.78,119.83,38.34Zm17-.25a8.1,8.1,0,0,1,3.6.09,1.35,1.35,0,0,0,1.09.09c0.47-.47-0.83-1-2.43-1S135,37.87,135,38.3C135,38.46,135.22,38.43,136.79,38.09ZM136,36.85a5.65,5.65,0,0,1,4-.51c1.75,0.47,1.8.47,1.91,0.18,0.39-1-2.54-1.66-4.65-1-0.9.27-2.27,1.24-2.27,1.61C135,37.31,135,37.3,136,36.85Zm21.32-5.47c0.3-.22.29-0.26-0.2-1a28.2,28.2,0,0,1-2.29-5.75,26.4,26.4,0,0,0-2.25-5.81,6.4,6.4,0,0,0-1.88-2.16,1.1,1.1,0,0,0-.51.53l-0.31.53,0.44,0.35c0.56,0.44.55,0.5-.06,0.75-0.79.33-.62,0.7,0.58,1.29a3.12,3.12,0,0,1,1.08.7,0.8,0.8,0,0,1-.7.13c-1.09-.07-1,0.35.19,1a4.26,4.26,0,0,1,1,.69,0.77,0.77,0,0,1-.53.17c-0.88.09-.78,0.52,0.28,1.16s1.11,0.76.55,0.84-0.53.57,0.27,1.16,0.9,0.73.43,0.85-0.25.52,0.77,1.21c0.78,0.52.88,0.64,0.69,0.86s-0.08.38,0.69,1.07c1,0.89.87,1-.52,0.48a2.91,2.91,0,0,0-1.23-.24c-0.31.08-.4,0-0.63-0.7-0.45-1.31-1-1.74-1.47-1.06-0.32.51-.4,0.41-0.52-0.65s-0.56-2.34-.87-2.34a0.94,0.94,0,0,0-.5.52c-0.21.4-.3,0.47-0.42,0.29a1.73,1.73,0,0,1-.15-0.73c0-.78-0.33-1.74-0.58-1.74a0.83,0.83,0,0,0-.42.58c-0.22.66-.5,0.77-0.5,0.21a1.17,1.17,0,0,0-.39-1.12,1.73,1.73,0,0,0-.6.75l-0.41.75,0.41,0.79a20.74,20.74,0,0,0,4.4,4.45C153.06,31.32,156.48,32,157.3,31.38Z"/><path id="path2991" class="cls-9" d="M91.25,76.29c0-1.23,0-2.39,0-2.57s0-4,.08-8.54c0.06-7.45.09-8.22,0.34-8.36s0.24-.19-0.1-0.55-0.31-.4-0.12-0.4,0.27-.32.36-1.59a5.63,5.63,0,0,1,1.43-3.87A8.3,8.3,0,0,1,94.82,49c1-.64,1.15-0.94.51-1.1-1.39-.35-3.51.84-4.31,2.43s-0.87,4-.13,5.1c0.39,0.6.13,0.49-1.35-.54a3.68,3.68,0,0,1-1.92-2.65,5.25,5.25,0,0,1,3-5.64,6.7,6.7,0,0,1,3.21-.26c1.38,0.31,1.36.36,2.64-7.31,0.27-1.6.57-3.66,0.66-4.4,0-.27.14-1.1,0.24-1.83,0.54-3.88.54-3.74,0.12-4.3-0.21-.28-0.74-1.15-1.18-1.93s-1.07-1.86-1.41-2.41-1-1.74-1.57-2.66S92.23,19.63,92,19.31s-0.76-1.25-1.25-2.08S89.5,15.1,89,14.31a15.45,15.45,0,0,1-.89-1.54c0-.06,14.2-0.11,31.55-0.11h31.55l-0.58,1.12c-0.55,1.06-.62,1.7-0.19,1.7a7.22,7.22,0,0,1,2.09,2.28,21.6,21.6,0,0,1,2.38,5.7c1.19,3.8,2.36,6.47,3.11,7.1l0.44,0.37-0.39.33a4.16,4.16,0,0,1-1.22.58c-1.84.55-5.27-.55-7.42-2.37a17.88,17.88,0,0,1-3.38-4,1,1,0,0,0-.58-0.66,7.4,7.4,0,0,0-1.18,1.88c-1.12,2.17-.94,2.1-4,1.6-6.2-1-18.3-1.8-21.19-1.37-0.55.08-.8,0.16-0.56,0.17,0.9,0,.91.23,0.24,4.34-0.53,3.23-.91,6.61-1.26,11.13-0.1,1.32-.3,3.08-0.43,3.9s-0.31,1.91-.38,2.41c-0.18,1.21-1.06,4.87-1.51,6.31l-0.4,1.33c-0.29,1-1,2.46-.82,1.66a5.3,5.3,0,0,1,.34-0.86,79.21,79.21,0,0,0,2.22-8.9c0.43-2.56,1-7.46,1-8.71a25.38,25.38,0,0,1,.24-2.66c0.13-.94.36-2.71,0.51-3.93s0.33-2.57.41-3c0.17-.89,0-1.18-0.64-1.18s-0.87.22-1,1.59c-0.09.72-.26,2-0.39,2.89-0.32,2.14-.56,4.28-0.67,6a95.28,95.28,0,0,1-1.75,12.46c-0.87,3.85-2.11,6.63-3.75,8.45a3.83,3.83,0,0,1-2.93,1.35c-2.37,0-3.12-2.95-1.19-4.65,1-.9,2-0.88,2.5.07a1.81,1.81,0,0,1-.28,2c-0.46.41-.59,0.2-0.34-0.56s0-1.35-.59-1.35c-0.9,0-1.89,1.68-1.63,2.75A1.86,1.86,0,0,0,107.64,61a3.74,3.74,0,0,0,3.16-2.92,3.25,3.25,0,0,0-1.6-3.31,3.69,3.69,0,0,0-2.73.07,7.54,7.54,0,0,0-2.66,2.78,6.77,6.77,0,0,0,.21,4.14,3.91,3.91,0,0,0,3.53,1.9,6.76,6.76,0,0,0,2.83-.89c0.22-.17.22-0.16,0,0.12s-0.19.36,0.34,0.83C111,64,112,64.81,112.93,65.49l2.59,2a70.61,70.61,0,0,0,5.79,4.22L121.86,72l1.36-.88c0.75-.48,1.62-1.07,1.94-1.31s1.1-.76,1.74-1.15a36.14,36.14,0,0,0,3.89-2.78,9,9,0,0,1,1.68-1l1.06-.5,0.22,0.7a5.79,5.79,0,0,1,.05,2.36,117.83,117.83,0,0,0-.54,13.79c0,3.75.09,7.6,0.19,8.55,0.28,3,.82,7,1.19,8.89,0.19,1,.49,2.57.66,3.49s0.51,2.52.76,3.57a20.79,20.79,0,0,1,.48,2.57,3.3,3.3,0,0,0,.3,1.19,6.27,6.27,0,0,1,.44,1.16c0.42,1.67,1.74,5.92,2.44,7.87M75.46,61.71c0.15-.06.88-0.45,1.61-0.87,1.61-.92,2.71-1.42,2.84-1.29S80,62.14,80,65.19M139.59,119m-5.25-5.94a22.68,22.68,0,0,0,2.69-1.86,1.28,1.28,0,0,0-.51-1.21m-4.16,1.48a4.79,4.79,0,0,0,.78-0.58,2.63,2.63,0,0,0-1.36.68C131.09,112.17,131.43,112.11,132.36,111.49Zm1.69-1.15c0.19-.31-0.2-0.17-0.51.19s-0.31.36,0,.17A1.48,1.48,0,0,0,134,110.34ZM122.22,85.49C122.78,85.2,130.66,80,132,79a1.3,1.3,0,0,0,.79-1.55,2.28,2.28,0,0,0-.16-1.07c-0.18-.11-0.93.36-6.57,4.1a38.93,38.93,0,0,1-4.5,2.73,1.13,1.13,0,0,1-1.08-.4c-0.31-.27-4.79-3.64-10-7.5S100.2,67.57,99,66.69A17.14,17.14,0,0,0,96.58,65c-0.28,0-.32,0-0.32.69,0,0.92-.34.62,7.47,6.6l5.56,4.26L113.78,80c1.37,1,3.31,2.55,4.32,3.34C121.57,86.07,121.32,85.95,122.22,85.49Zm4.22-6.55c0.66-.23.89-0.76,1.14-2.63a4.29,4.29,0,0,1,.43-1.7c0.32-.2.86-0.18,2.45,0.1,1.31,0.23,1.44.23,1.91-.05s0.52-.39.64-1.53c0.17-1.61.09-2.85-.17-2.94s-0.63.78-.78,1.87c-0.18,1.27-.22,1.29-2.24,1.17-2.83-.17-3.19.09-3.6,2.5a7.28,7.28,0,0,1-.4,1.64,31.92,31.92,0,0,1-4.23.17c-3.51,0-4.12,0-4.32-.24a5.21,5.21,0,0,1-.4-1.73c-0.27-2.35-.66-2.68-3-2.49-1.65.13-2.22,0-2.46-.41a8.32,8.32,0,0,1-.33-1.73c-0.25-2.23-.41-2.35-3.33-2.49-2.11-.1-2.23-0.2-2.4-2-0.13-1.31-.41-2-0.91-2.3a6.57,6.57,0,0,0-3,0c-1.24.27-1.59,0-1.75-1.38-0.17-1.53-.43-2.05-1.15-2.29a2.5,2.5,0,0,0-2.09.25,0.9,0.9,0,0,0-.13.61c0,0.34.15,0.38,0.83,0.38a2,2,0,0,1,1,.17,4.56,4.56,0,0,1,.34,1.38,7.37,7.37,0,0,0,.34,1.53c0.28,0.53,1.25.71,2.82,0.52a4.7,4.7,0,0,1,1.68,0c0.29,0.16.55,1.1,0.72,2.61,0.13,1.16.21,1.34,0.73,1.6a5.63,5.63,0,0,0,2.36.14c1.91-.09,1.92-0.08,2.26.34a3.16,3.16,0,0,1,.45,1.61,7.75,7.75,0,0,0,.33,1.71c0.4,1,.6,1,2.86,1,2,0,2.05,0,2.29.34a5.21,5.21,0,0,1,.33,1.74c0.15,2.43.42,2.6,4,2.46a28,28,0,0,1,3.61.06A8.32,8.32,0,0,0,126.44,78.94Zm1.12-7.06L133.42,68l0.09-.92c0.16-1.55-.06-1.71-1.23-0.86-1,.72-6.67,4.5-8.66,5.76a9,9,0,0,1-1.91,1c-0.29,0-1.47-.86-8.65-6.29l-3.37-2.55-0.78.11c-1.38.19-1.69,0.28-1.69,0.5a9.49,9.49,0,0,0,1.79,1.6c4.86,3.76,6.35,4.9,9.25,7.09,1.73,1.3,3.21,2.37,3.3,2.37S124.34,74,127.56,71.88Zm-24.9-12.33a3.77,3.77,0,0,1,.56-2.51,8,8,0,0,1,3-2.9c0.95-.54.77-0.87-0.42-0.82a4.78,4.78,0,0,0-4.16,3.17c-0.78,2-.74,2.92.15,4C102.54,61.33,102.67,61.19,102.66,59.55Zm-2.19-1.08a5,5,0,0,1,.5-2.35,7.87,7.87,0,0,1,2.71-3c0.74-.48.87-0.62,0.71-0.82-0.64-.77-2.53-0.23-3.68,1.06a7.41,7.41,0,0,0-1.84,4.13,2.7,2.7,0,0,0,.76,2.16C100.24,60.31,100.41,60.06,100.47,58.48Zm-2.32-.17a13.6,13.6,0,0,0,.14-1.37,7,7,0,0,1,3-5q1.68-1.23-.2-1.24c-0.62,0-1,.2-2,1a6.33,6.33,0,0,0-2,3.55,3,3,0,0,0,.45,2.94C97.85,58.78,98.05,58.8,98.15,58.31Zm-1.9-1.75a6.2,6.2,0,0,1,2.55-5.47,3.07,3.07,0,0,0,.86-0.91c0-.31-1-0.35-1.54-0.06a6.23,6.23,0,0,0-2.68,2.63c-0.93,1.9-1,3.55-.08,4.71C96.08,58.39,96.25,58.23,96.25,56.55Zm-2.15-1.2a6.48,6.48,0,0,1,2.73-5.26,2.82,2.82,0,0,0,.91-0.84c0-.36-0.81-0.43-1.59-0.13a5.43,5.43,0,0,0-3.59,4.26c-0.3,1.8.33,3.76,1.16,3.6C94,56.94,94,56.64,94.11,55.36Zm18.44-.21c0.85-2.32,2-8.77,2.56-14.74,0.27-2.7.5-4.83,0.73-6.56,0.48-3.68.55-4.4,0.46-4.64a1.16,1.16,0,0,0-1.42,0,7,7,0,0,0-.34,1.87c-0.09.9-.27,2.73-0.41,4.05l-0.43,4.07c-0.4,3.8-.89,7.35-1.35,9.72a38.73,38.73,0,0,1-1.5,5.54c-0.22.4,0.62,2.14,1,2.06A3.23,3.23,0,0,0,112.55,55.15ZM89.63,52.69c0.17-2.38,1.13-4,2.91-4.81,1.18-.56,1.29-0.87.33-1a4.8,4.8,0,0,0-4,2.22,5.45,5.45,0,0,0-.58,3.56c0.19,0.78.76,1.55,1.07,1.45A3.62,3.62,0,0,0,89.63,52.69Zm20.9,0.47c1-2.34,1.86-7.33,2.51-14.16,0.19-2,.49-4.7.67-6s0.32-2.6.32-2.94a1,1,0,0,0-.82-1.14c-0.61,0-.79.52-1.08,3.16-0.16,1.42-.38,3.32-0.51,4.24s-0.31,2.45-.41,3.41-0.3,2.42-.43,3.24-0.36,2.39-.49,3.49a27.11,27.11,0,0,1-1.19,5.65l-0.41,1.16,0.5,0.45a1.09,1.09,0,0,0,.74.36A2.35,2.35,0,0,0,110.53,53.15Zm-2.08-1.36a29.87,29.87,0,0,0,1.17-5.48c0-.37.19-1.52,0.33-2.57,0.23-1.73.35-2.66,0.91-6.81,0.72-5.3.9-7.29,0.69-7.54a1.18,1.18,0,0,0-1.51.29,17.3,17.3,0,0,0-.32,2.35c-0.1,1.1-.29,2.93-0.43,4.07s-0.32,2.79-.42,3.65a99.15,99.15,0,0,1-2,11.77c-0.26.85-.26,0.9,0,1.12C107.65,53.13,108,52.94,108.44,51.79Zm-2.26-.45A30.23,30.23,0,0,0,107.29,46c0.16-1.1.39-2.7,0.52-3.57,0.27-1.8.85-6.26,1.06-8.22,0.08-.73.17-2.08,0.2-3l0.05-1.66h-0.66c-0.76,0-.76,0-1.08,2.74-0.1.87-.33,2.81-0.51,4.32s-0.48,4.09-.66,5.73a42.73,42.73,0,0,1-1.35,7.95c-0.35.92-.35,1-0.06,1.28A0.8,0.8,0,0,0,106.18,51.34ZM104,50.42c0.6-1.17,1-3.34,1.51-7.68,0.13-1.14.31-2.56,0.4-3.16s0.25-1.9.36-2.91,0.33-2.83.51-4,0.32-2.39.32-2.6c0-.48-0.32-0.61-1.05-0.4a0.88,0.88,0,0,0-.75.95,18.66,18.66,0,0,0-.27,1.95c-0.05.64-.28,2.88-0.51,5-0.73,6.88-1.14,9.59-1.74,11.55l-0.33,1.08,0.43,0.37C103.39,51,103.67,51,104,50.42Zm-2.13-.71c0.47-.76,1-3.67,1.48-8.38,0.15-1.37.37-3.39,0.51-4.49,0.3-2.5.56-5.06,0.62-6.15l0-.83-0.63,0a1.6,1.6,0,0,0-.8.18,6.83,6.83,0,0,0-.31,1.81c-0.08.9-.23,2.09-0.33,2.64s-0.4,2.68-.66,4.73c-0.89,6.8-1,7.61-1.31,8.71s-0.27,1.36.4,1.73A0.8,0.8,0,0,0,101.82,49.7Zm-2-2.19c0.15-.57.42-2.13,0.61-3.45s0.37-2.56.41-2.74,0.14-1,.23-1.91,0.31-2.7.51-4.07c0.67-4.84.64-5.35-.33-5.12a1.07,1.07,0,0,0-.83,1.27c0,0.36-.11,1.41-0.24,2.34s-0.36,2.54-.49,3.59c-0.52,4-.79,5.63-1.26,8-0.27,1.32-.49,2.49-0.49,2.6a1.2,1.2,0,0,0,.53.53C99.19,49,99.48,48.77,99.81,47.51Zm-2.52-.56c0.49-.83,1.27-5.53,1.79-10.78,0.09-.91.28-2.36,0.43-3.21,0.3-1.8.23-2.35-.31-2.35a0.77,0.77,0,0,0-.84.54c-0.11.31-.44,2.36-0.87,5.43-0.24,1.73-.51,3.42-1,6.16-0.13.78-.37,1.87-0.52,2.41-0.42,1.48-.4,1.93.09,2.18A0.74,0.74,0,0,0,97.29,46.95Zm60-15.57c0.3-.22.29-0.26-0.2-1a28.2,28.2,0,0,1-2.29-5.75,26.4,26.4,0,0,0-2.25-5.81,6.4,6.4,0,0,0-1.88-2.16,1.1,1.1,0,0,0-.51.53l-0.31.53,0.44,0.35c0.56,0.44.55,0.5-.06,0.75-0.79.33-.62,0.7,0.58,1.29a3.12,3.12,0,0,1,1.08.7,0.8,0.8,0,0,1-.7.13c-1.09-.07-1,0.35.19,1a4.26,4.26,0,0,1,1,.69,0.77,0.77,0,0,1-.53.17c-0.88.09-.78,0.52,0.28,1.16s1.11,0.76.55,0.84-0.53.57,0.27,1.16,0.9,0.73.43,0.85-0.25.52,0.77,1.21c0.78,0.52.88,0.64,0.69,0.86s-0.08.38,0.69,1.07c1,0.89.87,1-.52,0.48a2.91,2.91,0,0,0-1.23-.24c-0.31.08-.4,0-0.63-0.7-0.45-1.31-1-1.74-1.47-1.06-0.32.51-.4,0.41-0.52-0.65s-0.56-2.34-.87-2.34a0.94,0.94,0,0,0-.5.52c-0.21.4-.3,0.47-0.42,0.29a1.73,1.73,0,0,1-.15-0.73c0-.78-0.33-1.74-0.58-1.74a0.83,0.83,0,0,0-.42.58c-0.22.66-.5,0.77-0.5,0.21a1.17,1.17,0,0,0-.39-1.12,1.73,1.73,0,0,0-.6.75l-0.41.75,0.41,0.79a20.74,20.74,0,0,0,4.4,4.45C153.06,31.32,156.48,32,157.3,31.38Zm-9.11,76.47c-0.14-.5-0.32-1.14-0.41-1.41-0.23-.7-0.69-2.63-0.94-3.9a11.33,11.33,0,0,0-.4-1.55,3,3,0,0,1-.19-0.91A4.21,4.21,0,0,0,146,99a5.34,5.34,0,0,1-.25-1.46,3.22,3.22,0,0,0-.19-1.14,3.64,3.64,0,0,1-.24-1.11c0-.42-0.13-1.33-0.22-2s-0.24-1.85-.33-2.59-0.22-1.53-.27-1.77a1.42,1.42,0,0,1,.14-0.9,1,1,0,0,0,.08-0.89,11.37,11.37,0,0,1-.25-2.08c-0.08-1.5-.05-1.74.28-2.39l0.37-.72-0.42-.44c-0.41-.43-0.42-0.48-0.39-2.87s0.06-2.46.4-2.83a1,1,0,0,0,0-1.45c-0.32-.46-0.38-0.91-0.27-2.24,0-.37.07-1.09,0.08-1.61a1.86,1.86,0,0,1,.52-1.52c0.55-.63.62-1,0.25-1.43s-0.06-3.74.44-4.27c0.28-.3.31-0.39,0.11-0.39a1,1,0,0,1-.55-0.33,1,1,0,0,0-.61-0.33,1.13,1.13,0,0,1-.64-0.33,1.1,1.1,0,0,0-.57-0.33,15.54,15.54,0,0,1-3.08-1.39,3.38,3.38,0,0,0-1-.41,2.21,2.21,0,0,1-.78-0.34,5.21,5.21,0,0,1,.48-1.48,32.45,32.45,0,0,0,2.18-8.5c0.1-.83.13-0.88,0.34-0.58a4.92,4.92,0,0,1,.48,1.14,5.84,5.84,0,0,0,.47,1.17,16.31,16.31,0,0,1,.76,1.59c0.29,0.69.75,1.72,1,2.29a6.5,6.5,0,0,1,.49,1.26,1.67,1.67,0,0,0,.36.68c0.34,0.43.41,0.45,1.32,0.35,2.07-.23,3.48,1,3.23,2.93a4.27,4.27,0,0,1-.49,1.44,2.62,2.62,0,0,1-1.64,1.17,0.45,0.45,0,0,0-.38.33,15,15,0,0,0,1.86,1,6.61,6.61,0,0,1,1.93,1.23c0.16,0.35.46,0.55,2.13,1.45a9.22,9.22,0,0,1,1.07.64,1.24,1.24,0,0,0,.66.15,6,6,0,0,1,1.79.67c1.15,0.6,1.29.72,1.29,1.15a0.83,0.83,0,0,1-.17.58c-0.09.06-.17,0-0.17-0.05a3,3,0,0,0-1.51-1c-0.33.11-1,2.14-1.17,3.7a21.76,21.76,0,0,0,.7,8c0.39,1.26.55,1.44,1.05,1.2,0.29-.14.31-0.13,0.08,0.05m-8.19,3.76a8.3,8.3,0,0,0,1.59-.87c0.06-.1.68-0.95,1.37-1.88A10.91,10.91,0,0,0,152.9,81a4.06,4.06,0,0,0-1.32-1,4.2,4.2,0,0,1-1.33-1,6.08,6.08,0,0,1,1.16-1.44A4.19,4.19,0,0,0,152.57,76a6.14,6.14,0,0,0-1.08-1.75,9.55,9.55,0,0,1-1.08-1.56,5.55,5.55,0,0,1,1.25-1.1,3.13,3.13,0,0,0,1.25-1.24,8.82,8.82,0,0,0-1-1.95c-0.58-.89-1.22-1.94-1.44-2.32a3.07,3.07,0,0,0-1.51-1.29,7.4,7.4,0,0,0-1.3-.59c-0.35,0-.18.49,0.52,1.57,2.13,3.27,2.34,3.66,2.16,4A8.91,8.91,0,0,1,149,70.85a4.2,4.2,0,0,0-1.21,1.22c0,0.34.69,1.43,1.82,2.68a2.89,2.89,0,0,1,.64.91,10.21,10.21,0,0,1-1.51,1.74,7.2,7.2,0,0,0-1.44,1.74,7.68,7.68,0,0,0,1.47,1.17,4.39,4.39,0,0,1,1.46,1.29A5.15,5.15,0,0,1,149,83.56a15.92,15.92,0,0,0-2,2.76C146.92,86.52,147.22,86.41,148.68,85.73Zm-1.08-1.64a12.73,12.73,0,0,0,1.56-2.28,4.24,4.24,0,0,0-1.49-1.28,5.75,5.75,0,0,1-1.55-1.3c0-.21.43-0.81,1.45-1.85a8.35,8.35,0,0,0,1.51-1.82,8.12,8.12,0,0,0-1.16-1.8,11,11,0,0,1-1.16-1.69c0-.34.29-0.62,1.43-1.41a3.53,3.53,0,0,0,1.2-1.12,18.46,18.46,0,0,0-2.58-4.16c-0.38-.3-0.5-0.15-0.71.88a1.6,1.6,0,0,0,.32,1.71,4.58,4.58,0,0,1,.51.95,2.58,2.58,0,0,1-.66.73l-0.66.58-0.11,1.86-0.11,1.86,0.69,0.78a4.09,4.09,0,0,1,.69.93,4.27,4.27,0,0,1-.75.95l-0.75.8v3.69l0.66,0.53a2.34,2.34,0,0,1,.66.69,2.79,2.79,0,0,1-.49.77,2.47,2.47,0,0,0-.77,2.24c0.18,1.2.51,1,2.27-1.24h0ZM148.48,62a2.13,2.13,0,0,0,.87-1.12,1.56,1.56,0,0,0,.05-1.44,2,2,0,0,0-3-1.12,1.21,1.21,0,0,1-.77.21,27,27,0,0,1-2.27-4.68c-0.69-1.76-1.27-2.88-1.52-2.89s-0.37.79-.39,2.23,0.4,2.79,1.73,5.55C144.76,62,146.61,63.17,148.48,62Zm-5.55-1.72a1.3,1.3,0,0,0-.24-0.55,17.22,17.22,0,0,1-.9-2,5.07,5.07,0,0,0-.9-1.7c-0.29-.06-0.64.7-0.66,1.42a4.78,4.78,0,0,0,.37,1.44,2,2,0,0,0,1,1.25C142.28,60.54,142.93,60.6,142.93,60.3Zm15.18,20.48c-0.1.1-.27-0.37-0.45-1.27m-0.42-6.87c0-.23,0-0.32.08-0.21m0.22-1.61a0.35,0.35,0,0,1,.16-0.26c0.09-.06.12,0,0.07,0.16S157.55,71.06,157.55,70.82ZM111.37,62a4.63,4.63,0,0,1,.66-0.73,2.89,2.89,0,0,1,.66-0.57,4.63,4.63,0,0,1-.66.73A2.89,2.89,0,0,1,111.37,62Zm2.09-2.69c0.06-.16.16-0.26,0.21-0.2a0.27,0.27,0,0,1-.11.3C113.39,59.55,113.37,59.53,113.46,59.3Zm32.22-7.9a6.84,6.84,0,0,1-2.6-2.85c-1.24-2.06-1.46-3.37-1.22-7.35,0-.43.06-1.35,0.07-2a3.25,3.25,0,0,1,.15-1.24c0.28,0,1.4,2.3,2,4,1.34,4.07,1.49,4.28,3,4.22a2.13,2.13,0,0,1,2.41,1.39,1.48,1.48,0,0,1,.16,1.66,3.91,3.91,0,0,1-1.36,2.12A3.53,3.53,0,0,1,145.67,51.39Zm3-.9c1.63-1.78.23-4.18-2-3.44a0.76,0.76,0,0,1-.85,0,15.06,15.06,0,0,1-2.08-4.62c-1-3.27-1.28-3.18-1.34.4a9,9,0,0,0,3.17,7.92,2.06,2.06,0,0,0,1.67.43A1.66,1.66,0,0,0,148.68,50.5Z"/><path id="path2989" d="M131.53,112c0.29-.15,1-0.59,1.52-1s1.47-1,2-1.38a3,3,0,0,0,1.14-1.07,4.3,4.3,0,0,0-.16-1.42c-0.77-3.08-2.09-10.49-1.9-10.68a12.08,12.08,0,0,1,.44,2l0.68,3.69c0.17,0.91.51,2.52,0.76,3.57a20.79,20.79,0,0,1,.48,2.57,3.3,3.3,0,0,0,.3,1.19,6.27,6.27,0,0,1,.44,1.16c0.42,1.67,1.74,5.92,2.44,7.87M91.25,76.29c0-1.23,0-2.39,0-2.57s0-4,.08-8.54c0.06-7.45.09-8.22,0.34-8.36s0.24-.19-0.1-0.55-0.31-.4-0.12-0.4,0.27-.32.36-1.59a5.63,5.63,0,0,1,1.43-3.87A8.3,8.3,0,0,1,94.82,49c1-.64,1.15-0.94.51-1.1-1.39-.35-3.51.84-4.31,2.43s-0.87,4-.13,5.1c0.39,0.6.13,0.49-1.35-.54a3.68,3.68,0,0,1-1.92-2.65,5.25,5.25,0,0,1,3-5.64,6.7,6.7,0,0,1,3.21-.26c1.38,0.31,1.36.36,2.64-7.31,0.27-1.6.57-3.66,0.66-4.4,0-.27.14-1.1,0.24-1.83,0.54-3.88.54-3.74,0.12-4.3-0.21-.28-0.74-1.15-1.18-1.93s-1.07-1.86-1.41-2.41-1-1.74-1.57-2.66S92.23,19.63,92,19.31s-0.76-1.25-1.25-2.08S89.5,15.1,89,14.31a15.45,15.45,0,0,1-.89-1.54,0.31,0.31,0,0,1,.31-0.11,1.38,1.38,0,0,1,.75.91,18.75,18.75,0,0,0,1.16,2c0.72,1,3.91,6.31,5.32,8.8A35.54,35.54,0,0,0,98,28.06c0.36,0.39.37,0.39,3,0,1.8-.3,6.76-0.83,10.3-1.11,3.78-.3,17.47-0.29,20.27,0,2.15,0.23,7.37.88,9.75,1.22,1.11,0.16,1.41.15,1.63,0s4.13-7.95,6.27-12.62c1.27-2.78,1.3-2.82,1.7-2.82s0.38,0-.19,1.12-0.62,1.7-.19,1.7a7.22,7.22,0,0,1,2.09,2.28,21.6,21.6,0,0,1,2.38,5.7c1.19,3.8,2.36,6.47,3.11,7.1l0.44,0.37-0.39.33a4.16,4.16,0,0,1-1.22.58c-1.84.55-5.27-.55-7.42-2.37a17.88,17.88,0,0,1-3.38-4,1,1,0,0,0-.58-0.66,7.4,7.4,0,0,0-1.18,1.88c-1.12,2.17-.94,2.1-4,1.6-6.2-1-18.3-1.8-21.19-1.37-0.55.08-.8,0.16-0.56,0.17,0.9,0,.91.23,0.24,4.34-0.53,3.23-.91,6.61-1.26,11.13-0.1,1.32-.3,3.08-0.43,3.9s-0.31,1.91-.38,2.41c-0.18,1.21-1.06,4.87-1.51,6.31l-0.4,1.33c-0.29,1-1,2.46-.82,1.66a5.3,5.3,0,0,1,.34-0.86,79.21,79.21,0,0,0,2.22-8.9c0.43-2.56,1-7.46,1-8.71a25.38,25.38,0,0,1,.24-2.66c0.13-.94.36-2.71,0.51-3.93s0.33-2.57.41-3c0.17-.89,0-1.18-0.64-1.18s-0.87.22-1,1.59c-0.09.72-.26,2-0.39,2.89-0.32,2.14-.56,4.28-0.67,6a95.28,95.28,0,0,1-1.75,12.46c-0.87,3.85-2.11,6.63-3.75,8.45a3.83,3.83,0,0,1-2.93,1.35c-2.37,0-3.12-2.95-1.19-4.65,1-.9,2-0.88,2.5.07a1.81,1.81,0,0,1-.28,2c-0.46.41-.59,0.2-0.34-0.56s0-1.35-.59-1.35c-0.9,0-1.89,1.68-1.63,2.75A1.86,1.86,0,0,0,107.64,61a3.74,3.74,0,0,0,3.16-2.92,3.25,3.25,0,0,0-1.6-3.31,3.69,3.69,0,0,0-2.73.07,7.54,7.54,0,0,0-2.66,2.78,6.77,6.77,0,0,0,.21,4.14,3.91,3.91,0,0,0,3.53,1.9,6.76,6.76,0,0,0,2.83-.89c0.22-.17.22-0.16,0,0.12s-0.19.36,0.34,0.83C111,64,112,64.81,112.93,65.49l2.59,2a70.61,70.61,0,0,0,5.79,4.22L121.86,72l1.36-.88c0.75-.48,1.62-1.07,1.94-1.31s1.1-.76,1.74-1.15a36.14,36.14,0,0,0,3.89-2.78,9,9,0,0,1,1.68-1l1.06-.5,0.22,0.7a5.79,5.79,0,0,1,.05,2.36,117.91,117.91,0,0,0-.54,13.79,79.89,79.89,0,0,0,.62,12.38c0.34,2.6.29,3-.1,0.75a79.73,79.73,0,0,1-.81-8.83c0-1.83-.2-1.88-2.16-0.56l-1.33.89a28.81,28.81,0,0,0-4.21,3M75.46,61.71c0.15-.06.88-0.45,1.61-0.87,1.61-.92,2.71-1.42,2.84-1.29S80,62.14,80,65.19M139.59,119m-5.25-5.94a22.68,22.68,0,0,0,2.69-1.86,1.28,1.28,0,0,0-.51-1.21m-31.46-31.4-0.37-.32c-0.85-.72-2.85-2.33-4.36-3.5l-2.6-2c-1-.83-1.27-0.92-1.38-0.58m25.87,13.31C122.78,85.2,130.66,80,132,79a1.3,1.3,0,0,0,.79-1.55,2.28,2.28,0,0,0-.16-1.07c-0.18-.11-0.93.36-6.57,4.1a38.93,38.93,0,0,1-4.5,2.73,1.13,1.13,0,0,1-1.08-.4c-0.31-.27-4.79-3.64-10-7.5S100.2,67.57,99,66.69A17.14,17.14,0,0,0,96.58,65c-0.28,0-.32,0-0.32.69,0,0.92-.34.62,7.47,6.6l5.56,4.26L113.78,80c1.37,1,3.31,2.55,4.32,3.34C121.57,86.07,121.32,85.95,122.22,85.49Zm4.22-6.55c0.66-.23.89-0.76,1.14-2.63a4.29,4.29,0,0,1,.43-1.7c0.32-.2.86-0.18,2.45,0.1,1.31,0.23,1.44.23,1.91-.05s0.52-.39.64-1.53c0.17-1.61.09-2.85-.17-2.94s-0.63.78-.78,1.87c-0.18,1.27-.22,1.29-2.24,1.17-2.83-.17-3.19.09-3.6,2.5a7.28,7.28,0,0,1-.4,1.64,31.92,31.92,0,0,1-4.23.17c-3.51,0-4.12,0-4.32-.24a5.21,5.21,0,0,1-.4-1.73c-0.27-2.35-.66-2.68-3-2.49-1.65.13-2.22,0-2.46-.41a8.32,8.32,0,0,1-.33-1.73c-0.25-2.23-.41-2.35-3.33-2.49-2.11-.1-2.23-0.2-2.4-2-0.13-1.31-.41-2-0.91-2.3a6.57,6.57,0,0,0-3,0c-1.24.27-1.59,0-1.75-1.38-0.17-1.53-.43-2.05-1.15-2.29a2.5,2.5,0,0,0-2.09.25,0.9,0.9,0,0,0-.13.61c0,0.34.15,0.38,0.83,0.38a2,2,0,0,1,1,.17,4.56,4.56,0,0,1,.34,1.38,7.37,7.37,0,0,0,.34,1.53c0.28,0.53,1.25.71,2.82,0.52a4.7,4.7,0,0,1,1.68,0c0.29,0.16.55,1.1,0.72,2.61,0.13,1.16.21,1.34,0.73,1.6a5.63,5.63,0,0,0,2.36.14c1.91-.09,1.92-0.08,2.26.34a3.16,3.16,0,0,1,.45,1.61,7.75,7.75,0,0,0,.33,1.71c0.4,1,.6,1,2.86,1,2,0,2.05,0,2.29.34a5.21,5.21,0,0,1,.33,1.74c0.15,2.43.42,2.6,4,2.46a28,28,0,0,1,3.61.06A8.32,8.32,0,0,0,126.44,78.94Zm1.12-7.06L133.42,68l0.09-.92c0.16-1.55-.06-1.71-1.23-0.86-1,.72-6.67,4.5-8.66,5.76a9,9,0,0,1-1.91,1c-0.29,0-1.47-.86-8.65-6.29l-3.37-2.55-0.78.11c-1.38.19-1.69,0.28-1.69,0.5a9.49,9.49,0,0,0,1.79,1.6c4.86,3.76,6.35,4.9,9.25,7.09,1.73,1.3,3.21,2.37,3.3,2.37S124.34,74,127.56,71.88Zm-24.9-12.33a3.77,3.77,0,0,1,.56-2.51,8,8,0,0,1,3-2.9c0.95-.54.77-0.87-0.42-0.82a4.78,4.78,0,0,0-4.16,3.17c-0.78,2-.74,2.92.15,4C102.54,61.33,102.67,61.19,102.66,59.55Zm-2.19-1.08a5,5,0,0,1,.5-2.35,7.87,7.87,0,0,1,2.71-3c0.74-.48.87-0.62,0.71-0.82-0.64-.77-2.53-0.23-3.68,1.06a7.41,7.41,0,0,0-1.84,4.13,2.7,2.7,0,0,0,.76,2.16C100.24,60.31,100.41,60.06,100.47,58.48Zm-2.32-.17a13.6,13.6,0,0,0,.14-1.37,7,7,0,0,1,3-5q1.68-1.23-.2-1.24c-0.62,0-1,.2-2,1a6.33,6.33,0,0,0-2,3.55,3,3,0,0,0,.45,2.94C97.85,58.78,98.05,58.8,98.15,58.31Zm-1.9-1.75a6.2,6.2,0,0,1,2.55-5.47,3.07,3.07,0,0,0,.86-0.91c0-.31-1-0.35-1.54-0.06a6.23,6.23,0,0,0-2.68,2.63c-0.93,1.9-1,3.55-.08,4.71C96.08,58.39,96.25,58.23,96.25,56.55Zm-2.15-1.2a6.48,6.48,0,0,1,2.73-5.26,2.82,2.82,0,0,0,.91-0.84c0-.36-0.81-0.43-1.59-0.13a5.43,5.43,0,0,0-3.59,4.26c-0.3,1.8.33,3.76,1.16,3.6C94,56.94,94,56.64,94.11,55.36Zm18.44-.21c0.85-2.32,2-8.77,2.56-14.74,0.27-2.7.5-4.83,0.73-6.56,0.48-3.68.55-4.4,0.46-4.64a1.16,1.16,0,0,0-1.42,0,7,7,0,0,0-.34,1.87c-0.09.9-.27,2.73-0.41,4.05l-0.43,4.07c-0.4,3.8-.89,7.35-1.35,9.72a38.73,38.73,0,0,1-1.5,5.54c-0.22.4,0.62,2.14,1,2.06A3.23,3.23,0,0,0,112.55,55.15ZM89.63,52.69c0.17-2.38,1.13-4,2.91-4.81,1.18-.56,1.29-0.87.33-1a4.8,4.8,0,0,0-4,2.22,5.45,5.45,0,0,0-.58,3.56c0.19,0.78.76,1.55,1.07,1.45A3.62,3.62,0,0,0,89.63,52.69Zm20.9,0.47c1-2.34,1.86-7.33,2.51-14.16,0.19-2,.49-4.7.67-6s0.32-2.6.32-2.94a1,1,0,0,0-.82-1.14c-0.61,0-.79.52-1.08,3.16-0.16,1.42-.38,3.32-0.51,4.24s-0.31,2.45-.41,3.41-0.3,2.42-.43,3.24-0.36,2.39-.49,3.49a27.11,27.11,0,0,1-1.19,5.65l-0.41,1.16,0.5,0.45a1.09,1.09,0,0,0,.74.36A2.35,2.35,0,0,0,110.53,53.15Zm-2.08-1.36a29.87,29.87,0,0,0,1.17-5.48c0-.37.19-1.52,0.33-2.57,0.23-1.73.35-2.66,0.91-6.81,0.72-5.3.9-7.29,0.69-7.54a1.18,1.18,0,0,0-1.51.29,17.3,17.3,0,0,0-.32,2.35c-0.1,1.1-.29,2.93-0.43,4.07s-0.32,2.79-.42,3.65a99.15,99.15,0,0,1-2,11.77c-0.26.85-.26,0.9,0,1.12C107.65,53.13,108,52.94,108.44,51.79Zm-2.26-.45A30.23,30.23,0,0,0,107.29,46c0.16-1.1.39-2.7,0.52-3.57,0.27-1.8.85-6.26,1.06-8.22,0.08-.73.17-2.08,0.2-3l0.05-1.66h-0.66c-0.76,0-.76,0-1.08,2.74-0.1.87-.33,2.81-0.51,4.32s-0.48,4.09-.66,5.73a42.73,42.73,0,0,1-1.35,7.95c-0.35.92-.35,1-0.06,1.28A0.8,0.8,0,0,0,106.18,51.34ZM104,50.42c0.6-1.17,1-3.34,1.51-7.68,0.13-1.14.31-2.56,0.4-3.16s0.25-1.9.36-2.91,0.33-2.83.51-4,0.32-2.39.32-2.6c0-.48-0.32-0.61-1.05-0.4a0.88,0.88,0,0,0-.75.95,18.66,18.66,0,0,0-.27,1.95c-0.05.64-.28,2.88-0.51,5-0.73,6.88-1.14,9.59-1.74,11.55l-0.33,1.08,0.43,0.37C103.39,51,103.67,51,104,50.42Zm-2.13-.71c0.47-.76,1-3.67,1.48-8.38,0.15-1.37.37-3.39,0.51-4.49,0.3-2.5.56-5.06,0.62-6.15l0-.83-0.63,0a1.6,1.6,0,0,0-.8.18,6.83,6.83,0,0,0-.31,1.81c-0.08.9-.23,2.09-0.33,2.64s-0.4,2.68-.66,4.73c-0.89,6.8-1,7.61-1.31,8.71s-0.27,1.36.4,1.73A0.8,0.8,0,0,0,101.82,49.7Zm-2-2.19c0.15-.57.42-2.13,0.61-3.45s0.37-2.56.41-2.74,0.14-1,.23-1.91,0.31-2.7.51-4.07c0.67-4.84.64-5.35-.33-5.12a1.07,1.07,0,0,0-.83,1.27c0,0.36-.11,1.41-0.24,2.34s-0.36,2.54-.49,3.59c-0.52,4-.79,5.63-1.26,8-0.27,1.32-.49,2.49-0.49,2.6a1.2,1.2,0,0,0,.53.53C99.19,49,99.48,48.77,99.81,47.51Zm-2.52-.56c0.49-.83,1.27-5.53,1.79-10.78,0.09-.91.28-2.36,0.43-3.21,0.3-1.8.23-2.35-.31-2.35a0.77,0.77,0,0,0-.84.54c-0.11.31-.44,2.36-0.87,5.43-0.24,1.73-.51,3.42-1,6.16-0.13.78-.37,1.87-0.52,2.41-0.42,1.48-.4,1.93.09,2.18A0.74,0.74,0,0,0,97.29,46.95Zm60-15.57c0.3-.22.29-0.26-0.2-1a28.2,28.2,0,0,1-2.29-5.75,26.4,26.4,0,0,0-2.25-5.81,6.4,6.4,0,0,0-1.88-2.16,1.1,1.1,0,0,0-.51.53l-0.31.53,0.44,0.35c0.56,0.44.55,0.5-.06,0.75-0.79.33-.62,0.7,0.58,1.29a3.12,3.12,0,0,1,1.08.7,0.8,0.8,0,0,1-.7.13c-1.09-.07-1,0.35.19,1a4.26,4.26,0,0,1,1,.69,0.77,0.77,0,0,1-.53.17c-0.88.09-.78,0.52,0.28,1.16s1.11,0.76.55,0.84-0.53.57,0.27,1.16,0.9,0.73.43,0.85-0.25.52,0.77,1.21c0.78,0.52.88,0.64,0.69,0.86s-0.08.38,0.69,1.07c1,0.89.87,1-.52,0.48a2.91,2.91,0,0,0-1.23-.24c-0.31.08-.4,0-0.63-0.7-0.45-1.31-1-1.74-1.47-1.06-0.32.51-.4,0.41-0.52-0.65s-0.56-2.34-.87-2.34a0.94,0.94,0,0,0-.5.52c-0.21.4-.3,0.47-0.42,0.29a1.73,1.73,0,0,1-.15-0.73c0-.78-0.33-1.74-0.58-1.74a0.83,0.83,0,0,0-.42.58c-0.22.66-.5,0.77-0.5,0.21a1.17,1.17,0,0,0-.39-1.12,1.73,1.73,0,0,0-.6.75l-0.41.75,0.41,0.79a20.74,20.74,0,0,0,4.4,4.45C153.06,31.32,156.48,32,157.3,31.38Zm-9.11,76.47c-0.14-.5-0.32-1.14-0.41-1.41-0.23-.7-0.69-2.63-0.94-3.9a11.33,11.33,0,0,0-.4-1.55,3,3,0,0,1-.19-0.91A4.21,4.21,0,0,0,146,99a5.34,5.34,0,0,1-.25-1.46,3.22,3.22,0,0,0-.19-1.14,3.64,3.64,0,0,1-.24-1.11c0-.42-0.13-1.33-0.22-2s-0.24-1.85-.33-2.59-0.22-1.53-.27-1.77a1.42,1.42,0,0,1,.14-0.9,1,1,0,0,0,.08-0.89,11.37,11.37,0,0,1-.25-2.08c-0.08-1.5-.05-1.74.28-2.39l0.37-.72-0.42-.44c-0.41-.43-0.42-0.48-0.39-2.87s0.06-2.46.4-2.83a1,1,0,0,0,0-1.45c-0.32-.46-0.38-0.91-0.27-2.24,0-.37.07-1.09,0.08-1.61a1.86,1.86,0,0,1,.52-1.52c0.55-.63.62-1,0.25-1.43s-0.06-3.74.44-4.27c0.28-.3.31-0.39,0.11-0.39a1,1,0,0,1-.55-0.33,1,1,0,0,0-.61-0.33,1.13,1.13,0,0,1-.64-0.33,1.1,1.1,0,0,0-.57-0.33,15.54,15.54,0,0,1-3.08-1.39,3.38,3.38,0,0,0-1-.41,2.21,2.21,0,0,1-.78-0.34,5.21,5.21,0,0,1,.48-1.48,32.45,32.45,0,0,0,2.18-8.5c0.1-.83.13-0.88,0.34-0.58a4.92,4.92,0,0,1,.48,1.14,5.84,5.84,0,0,0,.47,1.17,16.31,16.31,0,0,1,.76,1.59c0.29,0.69.75,1.72,1,2.29a6.5,6.5,0,0,1,.49,1.26,1.67,1.67,0,0,0,.36.68c0.34,0.43.41,0.45,1.32,0.35,2.07-.23,3.48,1,3.23,2.93a4.27,4.27,0,0,1-.49,1.44,2.62,2.62,0,0,1-1.64,1.17,0.45,0.45,0,0,0-.38.33,15,15,0,0,0,1.86,1,6.61,6.61,0,0,1,1.93,1.23c0.16,0.35.46,0.55,2.13,1.45a9.22,9.22,0,0,1,1.07.64,1.24,1.24,0,0,0,.66.15,6,6,0,0,1,1.79.67c1.15,0.6,1.29.72,1.29,1.15a0.83,0.83,0,0,1-.17.58c-0.09.06-.17,0-0.17-0.05a3,3,0,0,0-1.51-1c-0.33.11-1,2.14-1.17,3.7a21.76,21.76,0,0,0,.7,8c0.39,1.26.55,1.44,1.05,1.2,0.29-.14.31-0.13,0.08,0.05M151,86c-4,1.89-5.09,2.47-5.22,2.72a24.81,24.81,0,0,0,.45,5c0.09,0.49.29,1.63,0.45,2.55,0.32,1.84,1.25,6.54,1.63,8.22m-0.56-13.38V89.89M148.69,86a6,6,0,0,0,1.65-1.16c0.16-.24.8-1.13,1.42-2A9.08,9.08,0,0,0,152.9,81a4,4,0,0,0-1.32-1,4.2,4.2,0,0,1-1.33-1,6.08,6.08,0,0,1,1.16-1.44A4.19,4.19,0,0,0,152.57,76a6.14,6.14,0,0,0-1.08-1.75,9.55,9.55,0,0,1-1.08-1.56,5.55,5.55,0,0,1,1.25-1.1,3.13,3.13,0,0,0,1.25-1.24,8.82,8.82,0,0,0-1-1.95c-0.58-.89-1.22-1.94-1.44-2.32a3.07,3.07,0,0,0-1.51-1.29,7.4,7.4,0,0,0-1.3-.59c-0.35,0-.18.49,0.52,1.57,2.13,3.27,2.34,3.66,2.16,4A8.91,8.91,0,0,1,149,70.85a4.2,4.2,0,0,0-1.21,1.22c0,0.34.69,1.43,1.82,2.68a2.89,2.89,0,0,1,.64.91,10.21,10.21,0,0,1-1.51,1.74,7.2,7.2,0,0,0-1.44,1.74,7.68,7.68,0,0,0,1.47,1.17,4.39,4.39,0,0,1,1.46,1.29A5.15,5.15,0,0,1,149,83.56c-1.6,2-2.22,2.87-2.1,3.06S147.15,86.77,148.69,86Zm-1.09-1.86a12.73,12.73,0,0,0,1.56-2.28,4.24,4.24,0,0,0-1.49-1.28,5.75,5.75,0,0,1-1.55-1.3c0-.21.43-0.81,1.45-1.85a8.35,8.35,0,0,0,1.51-1.82,8.12,8.12,0,0,0-1.16-1.8,11,11,0,0,1-1.16-1.69c0-.34.29-0.62,1.43-1.41a3.53,3.53,0,0,0,1.2-1.12,18.46,18.46,0,0,0-2.58-4.16c-0.38-.3-0.5-0.15-0.71.88a1.6,1.6,0,0,0,.32,1.71,4.58,4.58,0,0,1,.51.95,2.58,2.58,0,0,1-.66.73l-0.66.58-0.11,1.86-0.11,1.86,0.69,0.78a4.09,4.09,0,0,1,.69.93,4.27,4.27,0,0,1-.75.95l-0.75.8v3.69l0.66,0.53a2.34,2.34,0,0,1,.66.69,2.79,2.79,0,0,1-.49.77,2.47,2.47,0,0,0-.77,2.24c0.18,1.2.51,1,2.27-1.24h0ZM148.48,62a2.13,2.13,0,0,0,.87-1.12,1.56,1.56,0,0,0,.05-1.44,2,2,0,0,0-3-1.12,1.21,1.21,0,0,1-.77.21,27,27,0,0,1-2.27-4.68c-0.69-1.76-1.27-2.88-1.52-2.89s-0.37.79-.39,2.23,0.4,2.79,1.73,5.55C144.76,62,146.61,63.17,148.48,62Zm-5.55-1.72a1.3,1.3,0,0,0-.24-0.55,17.22,17.22,0,0,1-.9-2,5.07,5.07,0,0,0-.9-1.7c-0.29-.06-0.64.7-0.66,1.42a4.78,4.78,0,0,0,.37,1.44,2,2,0,0,0,1,1.25C142.28,60.54,142.93,60.6,142.93,60.3Zm15.18,20.48c-0.1.1-.27-0.37-0.45-1.27m-0.42-6.87c0-.23,0-0.32.08-0.21m0.22-1.61a0.35,0.35,0,0,1,.16-0.26c0.09-.06.12,0,0.07,0.16S157.55,71.06,157.55,70.82ZM111.37,62a4.63,4.63,0,0,1,.66-0.73,2.89,2.89,0,0,1,.66-0.57,4.63,4.63,0,0,1-.66.73A2.89,2.89,0,0,1,111.37,62Zm2.09-2.69c0.06-.16.16-0.26,0.21-0.2a0.27,0.27,0,0,1-.11.3C113.39,59.55,113.37,59.53,113.46,59.3Zm32.22-7.9a6.84,6.84,0,0,1-2.6-2.85c-1.24-2.06-1.46-3.37-1.22-7.35,0-.43.06-1.35,0.07-2a3.25,3.25,0,0,1,.15-1.24c0.28,0,1.4,2.3,2,4,1.34,4.07,1.49,4.28,3,4.22a2.13,2.13,0,0,1,2.41,1.39,1.48,1.48,0,0,1,.16,1.66,3.91,3.91,0,0,1-1.36,2.12A3.53,3.53,0,0,1,145.67,51.39Zm3-.9c1.63-1.78.23-4.18-2-3.44a0.76,0.76,0,0,1-.85,0,15.06,15.06,0,0,1-2.08-4.62c-1-3.27-1.28-3.18-1.34.4a9,9,0,0,0,3.17,7.92,2.06,2.06,0,0,0,1.67.43A1.66,1.66,0,0,0,148.68,50.5ZM97.12,22.92c-2.19-3.91-2.69-4.78-3.76-6.6-0.57-1-1.27-2.17-1.57-2.7l-0.54-1h2.43L94.36,14c0.37,0.71,1.2,2.22,1.85,3.36l2,3.65c0.48,0.87,1.06,1.83,1.29,2.14L100,23.67l1.35-.11a16,16,0,0,0,1.93-.26,15.65,15.65,0,0,1,2-.25,7.23,7.23,0,0,0,1.65-.24c0.32-.2.1-1.33-1.07-5.31-0.52-1.78-1-3.59-1.17-4l-0.22-.79h2.08L106.85,14l1,3.95c1.22,4.64,1.47,5.67,1.39,5.88a12.55,12.55,0,0,1-3.89.61c-0.41,0-2,.19-3.57.41s-2.95.41-3.1,0.41S98,24.5,97.12,22.92ZM140.28,25c-0.78-.12-2.79-0.39-4.49-0.59a18.83,18.83,0,0,1-3.29-.56c-0.23-.21.07-2.56,0.78-6.15,0.18-.91.37-2.07,0.43-2.57s0.18-1.27.27-1.7l0.17-.79h0.9a1.7,1.7,0,0,1,.89.12c0,0.22-.61,3.52-1.09,6a29.29,29.29,0,0,0-.47,3.14c0,0.68,0,.75.49,0.86s5.45,0.81,5.94.81,0.74-.75,2-3.9l1.78-4.32,1-2.37c0.13-.32.27-0.37,1.06-0.37a2.27,2.27,0,0,1,.92.1c0,0.11-.81,2-1.5,3.56-0.59,1.29-1.6,3.62-2.56,5.9s-1.39,3.08-1.63,3.05Zm-28.15-1.56c-0.12-.43-0.89-3.71-1-4.32-0.06-.32-0.4-1.63-0.74-2.91s-0.67-2.61-.74-2.95l-0.11-.62h1c0.88,0,1,0,1,.32s0.37,1.84.81,3.7,0.91,3.81,1,4.34a3,3,0,0,0,.37,1.06c0.26,0.16,13.75.11,13.91,0a40.39,40.39,0,0,0,.83-6c0.1-1.05.21-2.23,0.26-2.62l0.09-.71h2.08l-0.45,3.28c-0.25,1.8-.54,4.13-0.66,5.16a12.73,12.73,0,0,1-.4,2.24l-0.18.36h-8.51C113.21,23.72,112.19,23.69,112.13,23.47Z"/></g></svg>