<svg id="big_frame" data-name="big frame" xmlns="http://www.w3.org/2000/svg" xmlns:xlink="http://www.w3.org/1999/xlink" viewBox="0 0 167.09 242.67"><defs><style>.cls-1{fill:#fff;stroke:#000;stroke-width:0.5px;}.cls-2{fill:url(#radial-gradient);}.cls-3{fill:url(#radial-gradient-2);}.cls-4{fill:url(#radial-gradient-3);}.cls-5{fill:url(#radial-gradient-4);}.cls-6{fill:#fffeff;}.cls-7{fill:#e2d200;}.cls-8{fill:#6194bb;}.cls-9{fill:#1156a1;}.cls-10{fill:#66901c;}.cls-11{fill:#df0000;}.cls-12{fill:#1a5b22;}</style><radialGradient id="radial-gradient" cx="-245.33" cy="549.9" r="6.77" gradientTransform="matrix(-9.91, -0.13, -0.19, 14.09, -2226.59, -7627.69)" gradientUnits="userSpaceOnUse"><stop offset="0"/><stop offset="1" stop-opacity="0.65"/></radialGradient><radialGradient id="radial-gradient-2" cx="-449.34" cy="-1270.3" r="69.35" gradientTransform="matrix(0.2, -0.51, -0.25, -0.09, -164.23, -161.14)" gradientUnits="userSpaceOnUse"><stop offset="0" stop-color="#fff" stop-opacity="0.44"/><stop offset="1" stop-opacity="0"/></radialGradient><radialGradient id="radial-gradient-3" cx="-135.06" cy="-961.3" r="69.35" gradientTransform="matrix(0.44, -0.47, -0.28, -0.3, -137.38, -180.44)" gradientUnits="userSpaceOnUse"><stop offset="0" stop-color="#fff" stop-opacity="0.49"/><stop offset="1" stop-opacity="0"/></radialGradient><radialGradient id="radial-gradient-4" cx="-172.36" cy="-1489.23" r="69.35" gradientTransform="matrix(0.39, -0.38, -0.19, -0.19, -124.12, -196.83)" gradientUnits="userSpaceOnUse"><stop offset="0" stop-color="#fff" stop-opacity="0.24"/><stop offset="1" stop-opacity="0"/></radialGradient></defs><title>KSS</title><g id="Layer_1"><path id="path5" class="cls-1" d="M166.84,235.55a6.89,6.89,0,0,1-6.87,6.87H7.11a6.88,6.88,0,0,1-6.86-6.87V7.12A6.89,6.89,0,0,1,7.11.25H160a6.89,6.89,0,0,1,6.87,6.87V235.55Z"/></g><g id="g3886"><g id="layer1-7-1"><path id="sl-5" class="cls-2" d="M142.6,188.87c-1.28-19.53-41-56.29-42.31-65.48-1.28,9.19-41,45.95-42.31,65.48-0.9,13.81,9,19.53,18,19.53,9.72-.1,17.75-13.48,20.51-16.08,1.28,3.45-8.49,32.17-11.54,32.17h30.78c-3.05,0-12.82-28.72-11.54-32.17,2.42,2.39,9.52,15.68,20.52,16.08C133.63,208.4,143.5,202.68,142.6,188.87Z"/></g><g id="path3762-6"><path class="cls-3" d="M70,212.63s-18.19-14.69-16-27.54c2.49-14.45,25.15-45.58,25.15-45.58s-3.39,36.81-5.86,48.13A205.27,205.27,0,0,0,70,212.63Z"/></g><g id="path3762-6-0"><path class="cls-4" d="M73.43,202.81s-17.7-30.93-10.11-45c8.53-15.76,48.93-37.22,48.93-37.22s-18,42.25-25.33,54.21C79.89,186.29,73.43,202.81,73.43,202.81Z"/></g><g id="path3762-6-2"><path class="cls-5" d="M84.44,176S74,155.14,81.31,144.33c8.26-12.15,41.83-31.21,41.83-31.21s-18.37,32.14-25.32,41.44A206.21,206.21,0,0,0,84.44,176Z"/></g><path id="rect3865" class="cls-6" d="M41.63,104.29V241H154.57V104.29H41.63Zm58.67,19.1c1.28,9.19,41,46,42.31,65.48,0.9,13.81-9,19.52-17.94,19.53-11-.4-18.1-13.69-20.52-16.08-1.28,3.45,8.49,32.17,11.54,32.17H84.91c3.05,0,12.82-28.72,11.54-32.17-2.77,2.6-10.8,16-20.51,16.08-9,0-18.85-5.72-18-19.53C59.26,169.34,99,132.58,100.29,123.39Z"/></g><g id="layer1-7"><path id="sl" d="M53.14,123.08c-0.54-8.3-17.34-23.92-17.88-27.83-0.54,3.91-17.34,19.53-17.88,27.83-0.38,5.87,3.79,8.3,7.59,8.3,4.11,0,7.5-5.73,8.67-6.84,0.54,1.46-3.59,13.67-4.88,13.67h13c-1.29,0-5.42-12.21-4.88-13.67,1,1,4,6.67,8.67,6.84C49.35,131.38,53.52,128.95,53.14,123.08Z"/></g><path d="M8.13,82.67V11.08H21.45V42.87L48.36,11.08H66.27L41.43,39l26.19,43.7H50.38L32.25,49.07,21.45,61V82.67H8.13Z"/><path id="path3781" class="cls-7" d="M78.31,87.41a1.35,1.35,0,0,0-.53-1.18m-0.2-10.88c1-.6,2.5-1.48,3.38-2,2.23-1.21,2.19-1.16,2.2-2.65a4.81,4.81,0,0,1,4.85-5c1.12,0,2,.43,3.07,1.66l1,1.06,0.75-.51c2.49-1.7,3.47-3.62,2.8-5.5a1.36,1.36,0,0,1,.12-1.26c0.31-.69.31-0.7-0.09-1.12s-0.4-.53-0.3-1.82c0.13-1.62.21-1.5-1.76-2.46-2.23-1.08-2.73-1.83-2.27-3.39A6.68,6.68,0,0,1,91.8,51a82.44,82.44,0,0,0,3.55-9c0.28-1.06.15-2.26-.46-4.39a15.27,15.27,0,0,1-.41-2.89A6.32,6.32,0,0,0,94,32.23a4.35,4.35,0,0,1-.38-1,2.82,2.82,0,0,0-.81-0.94,3.69,3.69,0,0,1-1.5-3.21c0-1.15,0-1.21-2.65-6.27-1.46-2.81-3.25-6.22-4-7.57l-1.33-2.45,19.09,0c10.5,0,27.68,0,38.19,0l19.11,0-0.42.79c-0.81,1.52-4,7.12-5.63,9.9l-2,3.42c-0.2.34-.6,1-0.89,1.58s-0.83,1.48-1.19,2.1l-1.5,2.59-0.83,1.45,0.27,0.79a2.28,2.28,0,0,1-.1,2.27,4.32,4.32,0,0,0-.4,2c0,1.51-.24,1.86-1.41,2.45a1.22,1.22,0,0,0-.67.59,52.81,52.81,0,0,0,1.76,6l1.5,4.3c0.44,1.25,1.21,3.27,1.71,4.47s1,2.59,1.17,3.07c1.26,4.3,1.29,7.77.07,9.8-0.27.45-.3,0.63-0.14,0.73s1.86,0.14,8.74,0M89.57,95.78a62.44,62.44,0,0,0-3.64-9,67.2,67.2,0,0,0-4.26-7.26c-0.5-.77-1.13-1.77-1.39-2.21-0.51-.87-0.84-1.09-1.33-0.89a3.79,3.79,0,0,0-1.46,1,8.86,8.86,0,0,0,.84,1.41c1.42,2.1,3,4.82,5.93,9.9,0.58,1,2.48,5.16,3.12,6.78m58.5-10.61a144,144,0,0,1,9.73-12.42c1-1.11,1.26-1.51,1.11-1.67s-34.1-.35-35-0.09c-0.47.14-.75,0.49-1.64,2a30.08,30.08,0,0,1-1.78,2.69,33,33,0,0,1-6.55,5.84,26.29,26.29,0,0,1-6.59,3.39c-1.67.59-1.75,0.7-1.44,1.86,0.2,0.72.22,0.73,0.82,0.64A6.35,6.35,0,0,0,106,86.6c0.41-.19,1.18-0.52,1.72-0.74a10.08,10.08,0,0,0,1.45-.72,2.18,2.18,0,0,1,.6-0.32A31.94,31.94,0,0,0,114,82.16,27.39,27.39,0,0,0,121.53,74l0.92-1.59,14.9,0c11.47,0,15,0,15.2.2s0.23,0.3-.37,1.08c-0.37.48-1.16,1.42-1.75,2.11-1.81,2.08-3,3.54-4.06,5a38.22,38.22,0,0,0-2.44,3.58,1,1,0,0,1-.25.38,81.32,81.32,0,0,0-4.61,9M99.61,88.13c-0.87-3.34-2.95-9.53-3.33-9.91a4.13,4.13,0,0,0-2.71-.41c-0.38.31-.35,0.47,0.53,2.42a102,102,0,0,1,3.54,10.2c0.45,1.69,1.67,7.5,2.14,10.19M97,102.88a6.26,6.26,0,0,0,.58-1.49c0-.44-2.15-2.19-2.71-2.19a10.56,10.56,0,0,0-1.37,2.87,1,1,0,0,0,.45.58l1.2,0.89m0.25-8.09a7.33,7.33,0,0,0,.55-1.54,11.37,11.37,0,0,0-1.46-1.19c-1.53-1.13-1.75-1.14-2-.13A6.11,6.11,0,0,1,92,93.8c-0.58,1.12-.47,1.4.87,2.3a4.44,4.44,0,0,0,1.54.77C94.68,96.85,95,96.43,95.38,95.45ZM92.83,89c0.08-.43.25-1.29,0.38-1.92a4.93,4.93,0,0,0,.16-1.31,10.47,10.47,0,0,0-3.22-1.51,0.33,0.33,0,0,0-.4.34,15.61,15.61,0,0,1-.37,1.87c-0.31,1.3-.33,1.57-0.12,1.77a12.06,12.06,0,0,0,3.15,1.59A1,1,0,0,0,92.83,89Zm-3.41-7.36a14.58,14.58,0,0,0,.46-3.37,5.16,5.16,0,0,0-1.67-.82c-2.52-.91-2.23-1-2.68,1.24a8,8,0,0,0-.25,2.12A20.43,20.43,0,0,0,89,82.32,0.84,0.84,0,0,0,89.42,81.67Zm8.68-5.38a8.84,8.84,0,0,0,3.5-2.45,31.25,31.25,0,0,0,4.26-6.05c1-1.92,1.31-2.35,1.75-2.18s0.32,0.66-.56,2.32a38.8,38.8,0,0,1-5,7,8.7,8.7,0,0,0-1,1.19,0.42,0.42,0,0,0,.38.11,4.59,4.59,0,0,0,2.62-1.8c0.38-.5,1.11-1.43,1.61-2.05a30.9,30.9,0,0,0,4.13-7c0.31-.8.79-1.13,1.05-0.73s0.06,0.9-.91,2.92a34,34,0,0,1-3.69,6,7.11,7.11,0,0,0-1,1.58c0.14,0.14,1-.45,2-1.43a27.94,27.94,0,0,0,5-7.51c0.51-1.22.94-1.67,1.31-1.37,0.21,0.17.22,0.32,0,1a32.57,32.57,0,0,1-2.52,4.87,3,3,0,0,0-.51,1.12c0.15,0.15,1.63-1.13,3.12-2.67,1.23-1.28,1.29-1.38,1.18-2-0.34-1.95-.32-2.93.08-3.85a4.89,4.89,0,0,1,3.77-2.75,2.86,2.86,0,0,1,2,.42c0.65,0.3,1.21.55,1.25,0.55a5.66,5.66,0,0,0-.11-2.19c-0.1-.39-0.37-1.57-0.61-2.63s-1-3.47-1.66-5.35-1.41-4-1.63-4.82-0.5-1.76-.63-2.19c-0.56-1.87-1.74-6.51-2-8a8,8,0,0,0-.5-1.82,28.13,28.13,0,0,0-5.92-1.34,39.84,39.84,0,0,0-9.78-.32c-3.11.33-3.42,0.47-3.49,1.57a22.58,22.58,0,0,0,.87,4.94,9.07,9.07,0,0,1,.21,1.93c0,1.31-.32,2.39-1.64,5.35-1.72,3.86-2.33,5.46-2.28,6s0.19,0.63,1.09,1.1a7.49,7.49,0,0,1,1.7,1.23,2.37,2.37,0,0,1,.78,1.9,9.06,9.06,0,0,0,.17,1.26,6.72,6.72,0,0,0,.94.25,16,16,0,0,1,3.31,1.07c1,0.42,1.27.47,1.67,0.33,0.64-.24,1,0.06,1.39,1.28,0.57,1.66.08,2.43-.88,1.37-0.54-.6-1.06-0.8-2.83-1.07a4.74,4.74,0,0,0-3,.25c-0.29.21-.3,0.33-0.11,1.28a2.72,2.72,0,0,1-.06,1.8,12.87,12.87,0,0,1-4,4.74c-0.73.5-1.42,1.93-.92,1.93a7,7,0,0,0,1.24-.62,13.29,13.29,0,0,0,3.66-3.27c1-1.51,1.79-2.08,2.12-1.55s-1.28,2.71-2.91,4.18a14,14,0,0,1-6.35,3.33,5.55,5.55,0,0,1-3.22-1,2.77,2.77,0,0,1-.12-4.55A3.35,3.35,0,0,1,89,67.81a2.57,2.57,0,0,1,.71,3.41c-0.46.57-.31,0.81,0.22,0.35a2.64,2.64,0,0,0,.87-2.08c0-1.41-1.41-2.55-3.16-2.55s-3.61,2.38-3.2,4.27A4.16,4.16,0,0,0,86.82,74a4.39,4.39,0,0,0,2.4.38,6.36,6.36,0,0,0,3.3-.65,17.89,17.89,0,0,0,6.86-5.25l1.53-2a1.37,1.37,0,0,1,.89-0.71c0.72,0.15-.13,1.7-2.27,4.13a18.13,18.13,0,0,1-5.26,4.32,19.25,19.25,0,0,1-4.38,1.5,1.46,1.46,0,0,0-.64.16c-0.42.26,0.38,0.54,1.54,0.54a9.54,9.54,0,0,0,4.65-1.16c1.52-.73,1.9-1,3.84-2.94a20.11,20.11,0,0,0,4.07-5.25c0.38-.73,1.1-1.39,1.35-1.24s0.14,1-.52,2.23a22.79,22.79,0,0,1-6,6.92,8.29,8.29,0,0,0-1.85,1.51C96.32,76.69,97.31,76.58,98.09,76.29ZM105.56,60A10.17,10.17,0,0,1,103,59a15.32,15.32,0,0,0-2.82-.85,9.63,9.63,0,0,1-1.91-.5,1.84,1.84,0,0,1,.11-1.79c0.31-.34.31-0.36-0.37-0.63a9.94,9.94,0,0,1-1.46-.81A1.93,1.93,0,0,0,95.43,54c-0.83.21-1.22-.84-0.64-1.71s1.37-.61,3,0.52c1.5,1,2.15,1.19,2.65.64a1.16,1.16,0,0,0-.26-1.72c-0.6-.61-0.6-1.12,0-1.12A1.92,1.92,0,0,1,102,52.77,2.56,2.56,0,0,1,100.68,55c-0.68.42-.61,0.69,0.2,0.7a8.56,8.56,0,0,1,3.21,1.51c1.77,1.2,2.85,1.36,3.62.55s0.26-2-1-2.42c-1.08-.37-0.95-1.22.19-1.22a2,2,0,0,1,2,1.14,3,3,0,0,1-.26,3.8A3.13,3.13,0,0,1,105.56,60Zm-2.44-10.49a9.6,9.6,0,0,1-1.7-1.14,5.43,5.43,0,0,0-1.46-.91c-1-.32-1.14-0.69-0.7-1.48s0.86-1.09,1.53-.71,1.1,0.4.95-.09A3.15,3.15,0,0,0,101,43.8a2.87,2.87,0,0,0-.69.55c-0.8.76-1.13,0.6-1.13-.58a4.13,4.13,0,0,0-.34-1.63c-0.86-1.78-.57-2.25.82-1.34a4.48,4.48,0,0,0,1,.55l2.41,0.06a8.07,8.07,0,0,1,5.23,1.48l2.25,1.3c1.19,0.67,1.34.9,1,1.46-0.27.41-.38,0.44-1,0.35-2.44-.34-2.46-0.34-4.39.3a20.57,20.57,0,0,1-2.79.74,1.71,1.71,0,0,0-.93.28,3.68,3.68,0,0,0,.93.83c1.15,0.84,1.45,1.18,1.31,1.52S104.17,50,103.12,49.49Zm1.48-5.31c0.1-.51.08-0.58-0.21-0.52a2.41,2.41,0,0,0-.83,1.79C103.72,45.71,104.48,44.79,104.6,44.18ZM106.24,45c0.65-.22.73-0.61,0.17-0.78a0.59,0.59,0,0,0-.71.27C105.13,45.2,105.28,45.34,106.24,45Zm4-1.77c-3.15-2-5-2.53-7.9-2.37-1.81.1-2.14,0-2.14-.6s0.65-.69,2.74-0.7a6,6,0,0,1,3.32.56c3.25,1.4,6.2,3.16,6.2,3.7S111.78,44.19,110.27,43.24Zm1.42-2a25,25,0,0,0-5.22-2.47c-1.38-.47-2.38-0.52-7.19-0.35-0.95,0-1.08,0-1.4-.43-0.58-.76-0.31-1.31.9-1.87,3.14-1.44,8.79,0,13,3.4,1.32,1.06,1.6,1.4,1.6,2S112.72,42,111.69,41.23ZM84.38,74.1a0.6,0.6,0,0,0-.89-0.35c-0.18.18-.17,0.25,0,0.39C83.91,74.37,84.46,74.35,84.38,74.1Zm4.29-3.41c0.72-.9.3-1.72-0.88-1.72a1,1,0,0,0-1.24,1.15A1.17,1.17,0,0,0,88.67,70.69Zm49.93-1.55c0.77-.39,1.69-2.19,2-3.84,0.39-2.3,0-4.55-1.38-8.61-2.79-8.07-3.89-11.43-4.75-14.48-0.45-1.62-.89-2.12-1.6-1.85-0.18.07-.2,0.25-0.08,0.76l0.61,2.69c0.25,1.11,1,3.55,1.63,5.43s1.23,3.66,1.31,3.94,0.47,1.39.87,2.45,1,3,1.36,4.38a11.09,11.09,0,0,1,.54,4.38,6.34,6.34,0,0,1-.73,3.31,12.64,12.64,0,0,0-.65,1.53C137.72,69.47,138,69.43,138.59,69.14Zm3.29-.64c1.1-1.3,1.25-1.8,1.23-4.28,0-3.08-.56-5.35-2.48-10.49-1.83-4.88-3.08-8.51-3.65-10.66-0.47-1.76-.64-2.15-1-2.31a0.67,0.67,0,0,0-.52-0.08c-0.29.28,2.82,10.58,4.46,14.76a29.27,29.27,0,0,1,1.77,5.93A9.89,9.89,0,0,1,141,67.9a4.31,4.31,0,0,0-.36,1.36C140.8,69.47,141.34,69.13,141.88,68.5ZM125,68.78a5.82,5.82,0,0,0,2-2.8c0.89-2.58.4-5.72-2.08-13.32-0.63-1.93-1.36-4.3-1.63-5.26s-0.6-2.06-.74-2.43c-0.25-.67-0.81-2.67-1.87-6.69a15.63,15.63,0,0,0-.73-2.32,1.09,1.09,0,0,0-1-.15c0,0.08,1.13,4.78,1.5,6.24,0.59,2.35,1.1,4,2.28,7.54,0.69,2.07,1.4,4.28,1.57,4.91s0.39,1.35.49,1.61A34.74,34.74,0,0,1,126,63.52a6.15,6.15,0,0,1-1.71,4.59,6.78,6.78,0,0,0-.78,1C123.5,69.38,124.37,69.18,125,68.78ZM127.6,69c1.13-.58,2.16-2.59,2.38-4.64,0.2-1.86-.18-3.54-2.49-10.86-0.14-.43-0.4-1.3-0.59-1.93-1.32-4.38-1.76-5.83-2.45-8.15A45.62,45.62,0,0,1,123,37.5a1,1,0,0,0-1-.81l-0.51-.13,0.12,0.68a154.47,154.47,0,0,0,4.45,15.94c2,5.77,2.78,10,2.38,12.14a10.46,10.46,0,0,1-1.69,3.5c-0.26.36-.26,0.39,0,0.39A2.44,2.44,0,0,0,127.6,69Zm16.51-.08c1.48-1,2.13-3.82,1.57-6.74-0.48-2.5-1.29-5-3.57-11.14-0.86-2.31-1.93-5.52-2.66-8-0.59-2-.61-2-1.2-2-0.39,0-.54.08-0.53,0.31A31.65,31.65,0,0,0,139,45.82c1.67,4.51,4.52,12.79,4.89,14.16a20.86,20.86,0,0,1,.6,5.19,5.91,5.91,0,0,1-.71,2.51C142.94,69.3,143,69.62,144.12,68.87ZM146.49,69a5,5,0,0,0,2-3.27,20,20,0,0,0-.49-5c-0.34-1.27-1.3-4.06-2.42-7.09-0.5-1.35-1.3-3.56-1.78-4.91s-1-2.93-1.25-3.51-0.55-1.71-.77-2.52c-0.39-1.5-.7-1.92-1.27-1.71-0.26.1-.29,0.25-0.2,0.86,0.13,0.82,3.17,9.88,4,12,2.85,7,3.4,11,1.95,13.95C145.63,69.19,145.67,69.39,146.49,69Zm3-.29c1-1,1.27-1.88,1.35-4a9.92,9.92,0,0,0-.56-4.22c-0.75-2.67-1.37-4.58-2.51-7.71-1.48-4.08-3.09-8.89-3.49-10.46s-0.61-1.83-1.25-1.63c-0.3.09-.33,0.22-0.22,1.1a42.54,42.54,0,0,0,2.13,6.78c0.36,1,1,2.7,1.41,3.86l1.33,3.68c1.68,4.62,2,6.11,2,8.33a5.14,5.14,0,0,1-.67,3.22c-0.37.76-.67,1.41-0.67,1.45C148.37,69.41,149.1,69.14,149.48,68.74Zm-28,0a6.31,6.31,0,0,0,2.89-2.64c0.47-.87.55-4,0.17-6a74.32,74.32,0,0,0-2.31-8.58c-0.35-1-1.16-3.61-1.81-5.87s-1.45-4.95-1.78-6a22.82,22.82,0,0,1-.78-3.05c-0.2-1.42-.38-1.68-1.1-1.68h-0.53l0.11,0.83c0.15,1.14,1.82,7.64,2.23,8.72,0.18,0.48.71,2.06,1.17,3.51s1.22,3.81,1.7,5.26c1.7,5.16,2.25,8,2.07,10.59A4.34,4.34,0,0,1,122.14,67c-2.3,2.1-5.44,1-5.43-1.93,0-2.36,3.47-3.16,4.57-1.06a1,1,0,0,1,.08,1.06c-0.3.7-.83,0.67-1-0.06a1.12,1.12,0,0,0-1.52-.82,1.22,1.22,0,0,0-.65,2.08,2.1,2.1,0,0,0,3.3,0,1.63,1.63,0,0,0,.52-1.48c0-2.79-3.53-3.72-5.43-1.44a3.33,3.33,0,0,0-.44,3,4.53,4.53,0,0,0,.59,1.29,7.38,7.38,0,0,0,1.82,1.35A5.39,5.39,0,0,0,121.43,68.69Zm9.38,0c1.23-1,2.1-4.1,1.74-6.32a43.9,43.9,0,0,0-1.44-5.79c-0.2-.53-0.58-1.71-0.86-2.63s-1.15-3.56-2-5.87-1.76-5.47-2.14-7c-0.53-2.15-.78-2.88-1.08-3.12a0.53,0.53,0,0,0-.54-0.17c-0.42.41,2.41,10.59,5.37,19.32a31.71,31.71,0,0,1,1.41,6.36,9.82,9.82,0,0,1-1.16,4.39,11.25,11.25,0,0,0-.62,1.1C129.54,69.19,130.44,69,130.81,68.71Zm2.85,0a7.43,7.43,0,0,0,1.73-3.35c0.18-.86.14-1.27-0.34-3.64a36,36,0,0,0-.9-3.67c-0.2-.55-0.47-1.4-0.6-1.88-0.27-1-2.31-7.23-2.68-8.15A65.63,65.63,0,0,1,129,41.62c-0.31-1.25-.59-2.37-0.64-2.49a2.14,2.14,0,0,0-1.4-.55c-0.18.18,1.07,4.93,2.41,9.16,1.17,3.71,2.43,7.56,3,9,1.88,5.28,2,8.62.36,11.71-0.29.55-.29,0.56,0.13,0.56A1.7,1.7,0,0,0,133.66,68.71Zm2.82-.31c2.09-2.35,2-6.31-.41-12.76-1.82-4.95-3.13-9-4.13-12.7-0.8-3-1-3.34-1.83-3.34-0.4,0-.42,0-0.3.57,0.07,0.31.19,0.89,0.26,1.27a110.14,110.14,0,0,0,3.46,11.31,71.32,71.32,0,0,1,3,10.61,8.88,8.88,0,0,1-.81,4.27c-0.29.71-.53,1.32-0.53,1.36a0.47,0.47,0,0,0,.34.07A1.91,1.91,0,0,0,136.48,68.4Z"/><path id="path3779" class="cls-8" d="M78.31,87.41a1.35,1.35,0,0,0-.53-1.18m-0.2-10.88c1-.6,2.5-1.48,3.38-2,2.23-1.21,2.19-1.16,2.2-2.65a4.81,4.81,0,0,1,4.85-5c1.12,0,2,.43,3.07,1.66l1,1.06,0.75-.51c2.49-1.7,3.47-3.62,2.8-5.5a1.36,1.36,0,0,1,.12-1.26c0.31-.69.31-0.7-0.09-1.12s-0.4-.53-0.3-1.82c0.13-1.62.21-1.5-1.76-2.46-2.23-1.08-2.73-1.83-2.27-3.39A6.68,6.68,0,0,1,91.8,51a82.44,82.44,0,0,0,3.55-9c0.28-1.06.15-2.26-.46-4.39a15.27,15.27,0,0,1-.41-2.89A6.32,6.32,0,0,0,94,32.23a4.35,4.35,0,0,1-.38-1,2.82,2.82,0,0,0-.81-0.94,3.69,3.69,0,0,1-1.5-3.21c0-1.15,0-1.21-2.69-6.36-1.48-2.86-2.74-5.28-2.81-5.38s-0.66-1.18-1.32-2.41l-1.19-2.24h1.28a2.51,2.51,0,0,1,1.16.12A29.81,29.81,0,0,0,87.92,15a4.1,4.1,0,0,0,1.09.09c1.51,0,2.18.59,2.76,2.41,0.08,0.25.31,0.31,1.19,0.31a2.12,2.12,0,0,1,2.36,1.38,2.06,2.06,0,0,1-.81,2.56c-0.64.54-.7,0.66-0.48,0.86,0.71,0.66,3.67.68,4.93,0,0.63-.32.75-0.63,0.24-0.63a2.77,2.77,0,0,1-1.1-.67,1.79,1.79,0,0,1-.84-1.71c-0.12-1.69.42-2.46,1.88-2.7l0.65-.1-0.06-1a2.44,2.44,0,0,1,1.17-2.51,2.82,2.82,0,0,1,4.26,3.1c-0.12.44-.08,0.49,0.62,0.68,1.64,0.44,2.32,1.48,1.92,2.93a2.39,2.39,0,0,1-2.23,1.61c-1.55,0,.11,1.12,2.62,1.76,1.4,0.36,4.43,0,4.12-.55a2.36,2.36,0,0,0-.67-0.42,2.33,2.33,0,0,1-.93-3.15c0.32-.75.82-1,2.06-1.14,0.95-.09,1-0.11.92-0.59a2.81,2.81,0,0,1,2.13-2.76,4.14,4.14,0,0,1,2.59.47,2.38,2.38,0,0,1,.73,3.21c-0.41.67-.42,0.65,0.72,1.27a1.91,1.91,0,0,1,.9,1.93,1.46,1.46,0,0,1-.64,1.31,3.09,3.09,0,0,1-1.16.7c-0.76.15-.76,0.32,0,0.88A7.2,7.2,0,0,0,122.11,26c0.86,0.08,2.46-.18,2.45-0.39a1.72,1.72,0,0,0-.56-0.47A2.34,2.34,0,0,1,122.73,23c0-1.52.9-2.58,2.15-2.55,0.76,0,.93-0.15.93-1,0-1.23,1.1-2.22,2.69-2.43a3.32,3.32,0,0,1,2.91,1.47A3.05,3.05,0,0,1,131,22c-0.27.36-.26,0.39,0.2,0.61a2.17,2.17,0,0,1,1.23,2.13,2.34,2.34,0,0,1-1.63,2.35,1.2,1.2,0,0,0-.72.49c0.1,0.37,2.46,1.38,3.39,1.45s3-.24,3-0.51a1,1,0,0,0-.58-0.41c-1.53-.63-2.18-1.64-1.93-3a2.18,2.18,0,0,1,2.44-1.94l0.6,0.11V22.47a2.87,2.87,0,0,1,3.11-3,2.94,2.94,0,0,1,2.1,4.17c-0.23.44-.24,0.57-0.05,0.63a2.58,2.58,0,0,1,1.25,1.58A2.38,2.38,0,0,1,141.67,29a1.38,1.38,0,0,0-.75.23c0,0.23,1.5.73,2.5,0.83a3,3,0,0,0,2-.38,6.58,6.58,0,0,0,1-.53,5.6,5.6,0,0,0-.62-0.67,1.57,1.57,0,0,1-.62-1.46,2,2,0,0,1,2.29-2.31c0.6,0.05.63,0,.85-0.74a3.26,3.26,0,0,1,2.06-2.29c1-.26,1.06-0.32,2-2.06,0.46-.83,1.38-2.45,2-3.58s1.21-2.11,1.21-2.15a15.24,15.24,0,0,1,.72-1.35,7.61,7.61,0,0,0,.75-1.57c0-.27.21-0.31,1.31-0.31h1.29l-0.18.48a9.55,9.55,0,0,1-.68,1.27c-0.27.43-1,1.77-1.71,3-1,1.82-2.43,4.29-5.46,9.47-0.2.34-.6,1-0.89,1.58s-0.83,1.48-1.19,2.1l-1.5,2.59-0.83,1.45,0.27,0.79a2.28,2.28,0,0,1-.1,2.27,4.32,4.32,0,0,0-.4,2c0,1.51-.24,1.86-1.41,2.45a1.22,1.22,0,0,0-.67.59,52.81,52.81,0,0,0,1.76,6l1.5,4.3c0.44,1.25,1.21,3.27,1.71,4.47s1,2.59,1.17,3.07c1.26,4.3,1.29,7.77.07,9.8-0.27.45-.3,0.63-0.14,0.73s1.86,0.14,8.74,0M87.74,99.46a84.51,84.51,0,0,0-10.2-19.85c-0.83-1.23-1-1.45-1.46-1.45a2,2,0,0,0-1.42.87c0,0.08.8,1.33,1.78,2.79s1.78,2.71,1.78,2.79a3,3,0,0,0,.42.75M89.57,95.78a62.44,62.44,0,0,0-3.64-9,67.2,67.2,0,0,0-4.26-7.26c-0.5-.77-1.13-1.77-1.39-2.21-0.51-.87-0.84-1.09-1.33-0.89a3.79,3.79,0,0,0-1.46,1,8.86,8.86,0,0,0,.84,1.41c1.42,2.1,3,4.82,5.93,9.9,0.58,1,2.48,5.16,3.12,6.78m58.5-10.61a144,144,0,0,1,9.73-12.42c1-1.11,1.26-1.51,1.11-1.67s-34.1-.35-35-0.09c-0.47.14-.75,0.49-1.64,2a30.08,30.08,0,0,1-1.78,2.69,33,33,0,0,1-6.55,5.84,26.29,26.29,0,0,1-6.59,3.39c-1.67.59-1.75,0.7-1.44,1.86,0.2,0.72.22,0.73,0.82,0.64A6.35,6.35,0,0,0,106,86.6c0.41-.19,1.18-0.52,1.72-0.74a10.08,10.08,0,0,0,1.45-.72,2.18,2.18,0,0,1,.6-0.32A31.94,31.94,0,0,0,114,82.16,27.39,27.39,0,0,0,121.53,74l0.92-1.59,14.9,0c11.47,0,15,0,15.2.2s0.23,0.3-.37,1.08c-0.37.48-1.16,1.42-1.75,2.11-1.81,2.08-3,3.54-4.06,5a38.22,38.22,0,0,0-2.44,3.58,1,1,0,0,1-.25.38,81.32,81.32,0,0,0-4.61,9M160.7,72c1.57-1.36,1.56-1.6-.05-1.45a10.76,10.76,0,0,0-1.47.2c-0.33.13-5.42,5.52-6.61,7-2,2.53-5,6.5-5.74,7.62M99.61,88.13c-0.87-3.34-2.95-9.53-3.33-9.91a4.13,4.13,0,0,0-2.71-.41c-0.38.31-.35,0.47,0.53,2.42a102,102,0,0,1,3.54,10.2c0.45,1.69,1.67,7.5,2.14,10.19m3.72-9.92c-0.15-.67-0.41-2-0.6-3a56,56,0,0,0-2.61-9.07c-0.45-1-.46-1-1.22-1-1.45,0-1.56.2-1,1.78,0.72,2,2.52,7.94,3,10m33.12,15.8c0-.51,0-0.53-1-0.64a12.52,12.52,0,0,0-3.71,0c-0.2.12-.1,0.35,0.44,1.09m-33-2.83a6.26,6.26,0,0,0,.58-1.49c0-.44-2.15-2.19-2.71-2.19a10.56,10.56,0,0,0-1.37,2.87,1,1,0,0,0,.45.58l1.2,0.89m39.08-.45a0.81,0.81,0,0,0,.76-0.67c0.33-.77.35-1.29,0-1.29a4.33,4.33,0,0,0-1.13.6c-1.39.93-1.57,0.91-2.83-.27s-1.33-1.51.59-2.62a2.84,2.84,0,0,0,.93-0.7A1.88,1.88,0,0,0,131.5,98c-1.24,0-1.2,0-2.13,2.57-0.7,2-.68,2.39.17,2.51A46.06,46.06,0,0,0,134.2,103.09Zm1.65-3.8a2.72,2.72,0,0,0,.17-1.14c-0.17-.26-2.58-0.23-2.58,0a8.63,8.63,0,0,0,2,2.07A2.37,2.37,0,0,0,135.86,99.29ZM95.38,95.45a7.33,7.33,0,0,0,.55-1.54,11.37,11.37,0,0,0-1.46-1.19c-1.53-1.13-1.75-1.14-2-.13A6.11,6.11,0,0,1,92,93.8c-0.58,1.12-.47,1.4.87,2.3a4.44,4.44,0,0,0,1.54.77C94.68,96.85,95,96.43,95.38,95.45Zm41.45,0.85a2.75,2.75,0,0,0,.17-0.8c0-.32-0.12-0.29-1.35.36-0.74.39-1.38,0.72-1.43,0.72a9,9,0,0,1-1.05-.9c-1.31-1.22-1.28-1.5.19-2.35a4.43,4.43,0,0,0,1.15-.81c0-.25-1.72-0.17-1.93.09A24.92,24.92,0,0,0,131,96.51c0,0.19.59,0.23,2.85,0.23h2.85Zm-29.84-2a67.18,67.18,0,0,0,7.82-3.87,46.25,46.25,0,0,0,10.59-9l1.15-1.36,5.78,0,5.78,0,1.25-1.93c1.72-2.65,2.45-3.95,2.33-4.14s-4-.16-9.3-0.16h-9.2l-0.36.39a8.79,8.79,0,0,0-.82,1.19,27.1,27.1,0,0,1-6.86,7.33,46.26,46.26,0,0,1-8.1,4.66c-2.64,1.07-2.75,1.13-2.75,1.41a47.52,47.52,0,0,0,1.11,5.83C105.64,94.87,105.42,94.91,107,94.31Zm-0.59-1.59c-1.45-.82-1.5-0.9-1.07-2l0.59-1.49c0.28-.73.57-0.71,1.78,0.09,1,0.64,1,.68,1,1.56,0.07,1.19-.4,2.24-1,2.28A3.24,3.24,0,0,1,106.39,92.73Zm4.5-2.27-0.8-.31,0-1.36a9,9,0,0,1,.24-2c0.2-.61.22-0.62,0.94-0.51a7.54,7.54,0,0,1,1.51.46l0.79,0.34-0.09,1.53a10.87,10.87,0,0,1-.22,1.84C113.12,90.88,112,90.87,110.89,90.46Zm5-3.11c-1.22-.38-1.29-0.5-1-1.84,0.43-2,.82-2.4,2.14-2,1.13,0.33,1.34.55,1.34,1.36a6.46,6.46,0,0,1-.58,2.55C117.55,87.69,116.89,87.67,115.87,87.35Zm4.62-3.77c-1.2-.23-1.3-0.41-1.28-2.27a5.56,5.56,0,0,1,.22-1.85c0.48-.56,2.75-0.1,3.13.64a7.17,7.17,0,0,1,0,3.34C122.41,83.81,121.85,83.84,120.49,83.58Zm4.28-4.4a4.26,4.26,0,0,1-1.44-1.09,9.84,9.84,0,0,1,.33-3.26c0.25-.49,1-0.37,2.11.36,1.41,0.89,1.56,1.24,1.28,3s-0.32,1.77-.68,1.76A7.54,7.54,0,0,1,124.78,79.18Zm4.67-.69c-1.23-1.15-1.25-1.51-.15-2.79l1.06-1.26a0.82,0.82,0,0,1,.41-0.31,9.24,9.24,0,0,1,2.33,2.94,4.45,4.45,0,0,1-2.26,2.32A3,3,0,0,1,129.44,78.49Zm6.65,0.68a5.51,5.51,0,0,1-1.57-2.27c0-.75,1.76-2.77,2.42-2.77a2,2,0,0,1,1.08.77c0.9,1,1.19,1.57,1.06,2.07a10.08,10.08,0,0,1-2.59,2.42A1,1,0,0,1,136.09,79.17Zm1.78,14.44a10.81,10.81,0,0,0,.38-1.14,4.57,4.57,0,0,0-1.42-.11,5.93,5.93,0,0,0-1.42.09,7.88,7.88,0,0,0,.89,1,5,5,0,0,1,.89,1.05,0.16,0.16,0,0,0,.15.16A2.62,2.62,0,0,0,137.87,93.62ZM140,89a9.76,9.76,0,0,0,1-2.28c-0.16-.25-2.57-0.22-2.57,0a2.29,2.29,0,0,0,.44.78,5.21,5.21,0,0,1,.63,1c0.16,0.42.11,0.53-.41,1a7.86,7.86,0,0,1-1.43,1l-0.83.43-0.65-.69a5.33,5.33,0,0,1-1.3-1.95,4,4,0,0,1,1.16-.92,2.48,2.48,0,0,0,1.06-.91,1.8,1.8,0,0,0-1.48,0,20.24,20.24,0,0,0-2.16,4.26c0,0.3.19,0.33,2.71,0.32h2.71ZM92.83,89c0.08-.43.25-1.29,0.38-1.92a4.93,4.93,0,0,0,.16-1.31,10.47,10.47,0,0,0-3.22-1.51,0.33,0.33,0,0,0-.4.34,15.61,15.61,0,0,1-.37,1.87c-0.31,1.3-.33,1.57-0.12,1.77a12.06,12.06,0,0,0,3.15,1.59A1,1,0,0,0,92.83,89Zm46.52-3.78c0.26-.08.22-0.2-0.3-0.87a5.59,5.59,0,0,1-.72-1.16c-0.13-.4-0.07-0.47,1.13-1.37l0.47-.36-0.79,0-0.79,0-0.94,1.57c-1,1.64-1.09,1.94-.72,2.07A10.86,10.86,0,0,0,139.35,85.25Zm3.7-1.69a7.31,7.31,0,0,0,1-1.88c-0.06-.32-2.11-0.38-2.22-0.07a1.29,1.29,0,0,0,.38.73,1,1,0,0,1-.19,1.74c-1.55,1.19-1.49,1.09-.74,1.1S142,85.12,143,83.55Zm-38.62,0c0.58-.24.63-0.31,0.55-0.83a38.24,38.24,0,0,0-1.6-5.18,0.76,0.76,0,0,0-.73-0.12c-1,.21-1.17.28-1.17,0.68a54.24,54.24,0,0,0,1.69,5.49C103.26,83.84,103.65,83.83,104.43,83.51Zm2.91-1.11,0.4-.32L106.8,79.4a12.62,12.62,0,0,0-1.19-2.77c-0.42-.16-1.16.27-1,0.6,0.06,0.16.28,0.88,0.48,1.62a23.65,23.65,0,0,0,1.07,3.57C106.33,82.81,106.84,82.81,107.34,82.4Zm-17.93-.73a14.58,14.58,0,0,0,.46-3.37,5.16,5.16,0,0,0-1.67-.82c-2.52-.91-2.23-1-2.68,1.24a8,8,0,0,0-.25,2.12A20.43,20.43,0,0,0,89,82.32,0.84,0.84,0,0,0,89.42,81.67Zm56.08-1.88a9.19,9.19,0,0,0,1-1.3c0.37-.54,1.34-1.75,2.15-2.68a7.48,7.48,0,0,0,1.37-1.86,15.32,15.32,0,0,0-3.2-.17c-2.89,0-3.12,0-3.46.36a44,44,0,0,0-3.72,5.66c0,0.26.31,0.29,2.73,0.29S145.19,80,145.5,79.78Zm-3-1.15a0.56,0.56,0,0,1-.39-0.57,16,16,0,0,1,2.36-3.46c0.43-.26,2.65,0,2.78.36s-0.55,1.59-1.67,2.82c-0.94,1-1,1.08-1.81,1.08A3.48,3.48,0,0,1,142.51,78.63ZM98.09,76.29a8.84,8.84,0,0,0,3.5-2.45,31.25,31.25,0,0,0,4.26-6.05c1-1.92,1.31-2.35,1.75-2.18s0.32,0.66-.56,2.32a38.8,38.8,0,0,1-5,7,8.7,8.7,0,0,0-1,1.19,0.42,0.42,0,0,0,.38.11,4.59,4.59,0,0,0,2.62-1.8c0.38-.5,1.11-1.43,1.61-2.05a30.9,30.9,0,0,0,4.13-7c0.31-.8.79-1.13,1.05-0.73s0.06,0.9-.91,2.92a34,34,0,0,1-3.69,6,7.11,7.11,0,0,0-1,1.58c0.14,0.14,1-.45,2-1.43a27.94,27.94,0,0,0,5-7.51c0.51-1.22.94-1.67,1.31-1.37,0.21,0.17.22,0.32,0,1a32.57,32.57,0,0,1-2.52,4.87,3,3,0,0,0-.51,1.12c0.15,0.15,1.63-1.13,3.12-2.67,1.23-1.28,1.29-1.38,1.18-2-0.34-1.95-.32-2.93.08-3.85a4.89,4.89,0,0,1,3.77-2.75,2.86,2.86,0,0,1,2,.42c0.65,0.3,1.21.55,1.25,0.55a5.66,5.66,0,0,0-.11-2.19c-0.1-.39-0.37-1.57-0.61-2.63s-1-3.47-1.66-5.35-1.41-4-1.63-4.82-0.5-1.76-.63-2.19c-0.56-1.87-1.74-6.51-2-8a8,8,0,0,0-.5-1.82,28.13,28.13,0,0,0-5.92-1.34,39.84,39.84,0,0,0-9.78-.32c-3.11.33-3.42,0.47-3.49,1.57a22.58,22.58,0,0,0,.87,4.94,9.07,9.07,0,0,1,.21,1.93c0,1.31-.32,2.39-1.64,5.35-1.72,3.86-2.33,5.46-2.28,6s0.19,0.63,1.09,1.1a7.49,7.49,0,0,1,1.7,1.23,2.37,2.37,0,0,1,.78,1.9,9.06,9.06,0,0,0,.17,1.26,6.72,6.72,0,0,0,.94.25,16,16,0,0,1,3.31,1.07c1,0.42,1.27.47,1.67,0.33,0.64-.24,1,0.06,1.39,1.28,0.57,1.66.08,2.43-.88,1.37-0.54-.6-1.06-0.8-2.83-1.07a4.74,4.74,0,0,0-3,.25c-0.29.21-.3,0.33-0.11,1.28a2.72,2.72,0,0,1-.06,1.8,12.87,12.87,0,0,1-4,4.74c-0.73.5-1.42,1.93-.92,1.93a7,7,0,0,0,1.24-.62,13.29,13.29,0,0,0,3.66-3.27c1-1.51,1.79-2.08,2.12-1.55s-1.28,2.71-2.91,4.18a14,14,0,0,1-6.35,3.33,5.55,5.55,0,0,1-3.22-1,2.77,2.77,0,0,1-.12-4.55A3.35,3.35,0,0,1,89,67.81a2.57,2.57,0,0,1,.71,3.41c-0.46.57-.31,0.81,0.22,0.35a2.64,2.64,0,0,0,.87-2.08c0-1.41-1.41-2.55-3.16-2.55s-3.61,2.38-3.2,4.27A4.16,4.16,0,0,0,86.82,74a4.39,4.39,0,0,0,2.4.38,6.36,6.36,0,0,0,3.3-.65,17.89,17.89,0,0,0,6.86-5.25l1.53-2a1.37,1.37,0,0,1,.89-0.71c0.72,0.15-.13,1.7-2.27,4.13a18.13,18.13,0,0,1-5.26,4.32,19.25,19.25,0,0,1-4.38,1.5,1.46,1.46,0,0,0-.64.16c-0.42.26,0.38,0.54,1.54,0.54a9.54,9.54,0,0,0,4.65-1.16c1.52-.73,1.9-1,3.84-2.94a20.11,20.11,0,0,0,4.07-5.25c0.38-.73,1.1-1.39,1.35-1.24s0.14,1-.52,2.23a22.79,22.79,0,0,1-6,6.92,8.29,8.29,0,0,0-1.85,1.51C96.32,76.69,97.31,76.58,98.09,76.29ZM105.56,60A10.17,10.17,0,0,1,103,59a15.32,15.32,0,0,0-2.82-.85,9.63,9.63,0,0,1-1.91-.5,1.84,1.84,0,0,1,.11-1.79c0.31-.34.31-0.36-0.37-0.63a9.94,9.94,0,0,1-1.46-.81A1.93,1.93,0,0,0,95.43,54c-0.83.21-1.22-.84-0.64-1.71s1.37-.61,3,0.52c1.5,1,2.15,1.19,2.65.64a1.16,1.16,0,0,0-.26-1.72c-0.6-.61-0.6-1.12,0-1.12A1.92,1.92,0,0,1,102,52.77,2.56,2.56,0,0,1,100.68,55c-0.68.42-.61,0.69,0.2,0.7a8.56,8.56,0,0,1,3.21,1.51c1.77,1.2,2.85,1.36,3.62.55s0.26-2-1-2.42c-1.08-.37-0.95-1.22.19-1.22a2,2,0,0,1,2,1.14,3,3,0,0,1-.26,3.8A3.13,3.13,0,0,1,105.56,60Zm-2.44-10.49a9.6,9.6,0,0,1-1.7-1.14,5.43,5.43,0,0,0-1.46-.91c-1-.32-1.14-0.69-0.7-1.48s0.86-1.09,1.53-.71,1.1,0.4.95-.09A3.15,3.15,0,0,0,101,43.8a2.87,2.87,0,0,0-.69.55c-0.8.76-1.13,0.6-1.13-.58a4.13,4.13,0,0,0-.34-1.63c-0.86-1.78-.57-2.25.82-1.34a4.48,4.48,0,0,0,1,.55l2.41,0.06a8.07,8.07,0,0,1,5.23,1.48l2.25,1.3c1.19,0.67,1.34.9,1,1.46-0.27.41-.38,0.44-1,0.35-2.44-.34-2.46-0.34-4.39.3a20.57,20.57,0,0,1-2.79.74,1.71,1.71,0,0,0-.93.28,3.68,3.68,0,0,0,.93.83c1.15,0.84,1.45,1.18,1.31,1.52S104.17,50,103.12,49.49Zm1.48-5.31c0.1-.51.08-0.58-0.21-0.52a2.41,2.41,0,0,0-.83,1.79C103.72,45.71,104.48,44.79,104.6,44.18ZM106.24,45c0.65-.22.73-0.61,0.17-0.78a0.59,0.59,0,0,0-.71.27C105.13,45.2,105.28,45.34,106.24,45Zm4-1.77c-3.15-2-5-2.53-7.9-2.37-1.81.1-2.14,0-2.14-.6s0.65-.69,2.74-0.7a6,6,0,0,1,3.32.56c3.25,1.4,6.2,3.16,6.2,3.7S111.78,44.19,110.27,43.24Zm1.42-2a25,25,0,0,0-5.22-2.47c-1.38-.47-2.38-0.52-7.19-0.35-0.95,0-1.08,0-1.4-.43-0.58-.76-0.31-1.31.9-1.87,3.14-1.44,8.79,0,13,3.4,1.32,1.06,1.6,1.4,1.6,2S112.72,42,111.69,41.23ZM84.38,74.1a0.6,0.6,0,0,0-.89-0.35c-0.18.18-.17,0.25,0,0.39C83.91,74.37,84.46,74.35,84.38,74.1Zm4.29-3.41c0.72-.9.3-1.72-0.88-1.72a1,1,0,0,0-1.24,1.15A1.17,1.17,0,0,0,88.67,70.69Zm49.93-1.55c0.77-.39,1.69-2.19,2-3.84,0.39-2.3,0-4.55-1.38-8.61-2.79-8.07-3.89-11.43-4.75-14.48-0.45-1.62-.89-2.12-1.6-1.85-0.18.07-.2,0.25-0.08,0.76l0.61,2.69c0.25,1.11,1,3.55,1.63,5.43s1.23,3.66,1.31,3.94,0.47,1.39.87,2.45,1,3,1.36,4.38a11.09,11.09,0,0,1,.54,4.38,6.34,6.34,0,0,1-.73,3.31,12.64,12.64,0,0,0-.65,1.53C137.72,69.47,138,69.43,138.59,69.14Zm3.29-.64c1.1-1.3,1.25-1.8,1.23-4.28,0-3.08-.56-5.35-2.48-10.49-1.83-4.88-3.08-8.51-3.65-10.66-0.47-1.76-.64-2.15-1-2.31a0.67,0.67,0,0,0-.52-0.08c-0.29.28,2.82,10.58,4.46,14.76a29.27,29.27,0,0,1,1.77,5.93A9.89,9.89,0,0,1,141,67.9a4.31,4.31,0,0,0-.36,1.36C140.8,69.47,141.34,69.13,141.88,68.5ZM125,68.78a5.82,5.82,0,0,0,2-2.8c0.89-2.58.4-5.72-2.08-13.32-0.63-1.93-1.36-4.3-1.63-5.26s-0.6-2.06-.74-2.43c-0.25-.67-0.81-2.67-1.87-6.69a15.63,15.63,0,0,0-.73-2.32,1.09,1.09,0,0,0-1-.15c0,0.08,1.13,4.78,1.5,6.24,0.59,2.35,1.1,4,2.28,7.54,0.69,2.07,1.4,4.28,1.57,4.91s0.39,1.35.49,1.61A34.74,34.74,0,0,1,126,63.52a6.15,6.15,0,0,1-1.71,4.59,6.78,6.78,0,0,0-.78,1C123.5,69.38,124.37,69.18,125,68.78ZM127.6,69c1.13-.58,2.16-2.59,2.38-4.64,0.2-1.86-.18-3.54-2.49-10.86-0.14-.43-0.4-1.3-0.59-1.93-1.32-4.38-1.76-5.83-2.45-8.15A45.62,45.62,0,0,1,123,37.5a1,1,0,0,0-1-.81l-0.51-.13,0.12,0.68a154.47,154.47,0,0,0,4.45,15.94c2,5.77,2.78,10,2.38,12.14a10.46,10.46,0,0,1-1.69,3.5c-0.26.36-.26,0.39,0,0.39A2.44,2.44,0,0,0,127.6,69Zm16.51-.08c1.48-1,2.13-3.82,1.57-6.74-0.48-2.5-1.29-5-3.57-11.14-0.86-2.31-1.93-5.52-2.66-8-0.59-2-.61-2-1.2-2-0.39,0-.54.08-0.53,0.31A31.65,31.65,0,0,0,139,45.82c1.67,4.51,4.52,12.79,4.89,14.16a20.86,20.86,0,0,1,.6,5.19,5.91,5.91,0,0,1-.71,2.51C142.94,69.3,143,69.62,144.12,68.87ZM146.49,69a5,5,0,0,0,2-3.27,20,20,0,0,0-.49-5c-0.34-1.27-1.3-4.06-2.42-7.09-0.5-1.35-1.3-3.56-1.78-4.91s-1-2.93-1.25-3.51-0.55-1.71-.77-2.52c-0.39-1.5-.7-1.92-1.27-1.71-0.26.1-.29,0.25-0.2,0.86,0.13,0.82,3.17,9.88,4,12,2.85,7,3.4,11,1.95,13.95C145.63,69.19,145.67,69.39,146.49,69Zm3-.29c1-1,1.27-1.88,1.35-4a9.92,9.92,0,0,0-.56-4.22c-0.75-2.67-1.37-4.58-2.51-7.71-1.48-4.08-3.09-8.89-3.49-10.46s-0.61-1.83-1.25-1.63c-0.3.09-.33,0.22-0.22,1.1a42.54,42.54,0,0,0,2.13,6.78c0.36,1,1,2.7,1.41,3.86l1.33,3.68c1.68,4.62,2,6.11,2,8.33a5.14,5.14,0,0,1-.67,3.22c-0.37.76-.67,1.41-0.67,1.45C148.37,69.41,149.1,69.14,149.48,68.74Zm-28,0a6.31,6.31,0,0,0,2.89-2.64c0.47-.87.55-4,0.17-6a74.32,74.32,0,0,0-2.31-8.58c-0.35-1-1.16-3.61-1.81-5.87s-1.45-4.95-1.78-6a22.82,22.82,0,0,1-.78-3.05c-0.2-1.42-.38-1.68-1.1-1.68h-0.53l0.11,0.83c0.15,1.14,1.82,7.64,2.23,8.72,0.18,0.48.71,2.06,1.17,3.51s1.22,3.81,1.7,5.26c1.7,5.16,2.25,8,2.07,10.59A4.34,4.34,0,0,1,122.14,67c-2.3,2.1-5.44,1-5.43-1.93,0-2.36,3.47-3.16,4.57-1.06a1,1,0,0,1,.08,1.06c-0.3.7-.83,0.67-1-0.06a1.12,1.12,0,0,0-1.52-.82,1.22,1.22,0,0,0-.65,2.08,2.1,2.1,0,0,0,3.3,0,1.63,1.63,0,0,0,.52-1.48c0-2.79-3.53-3.72-5.43-1.44a3.33,3.33,0,0,0-.44,3,4.53,4.53,0,0,0,.59,1.29,7.38,7.38,0,0,0,1.82,1.35A5.39,5.39,0,0,0,121.43,68.69Zm9.38,0c1.23-1,2.1-4.1,1.74-6.32a43.9,43.9,0,0,0-1.44-5.79c-0.2-.53-0.58-1.71-0.86-2.63s-1.15-3.56-2-5.87-1.76-5.47-2.14-7c-0.53-2.15-.78-2.88-1.08-3.12a0.53,0.53,0,0,0-.54-0.17c-0.42.41,2.41,10.59,5.37,19.32a31.71,31.71,0,0,1,1.41,6.36,9.82,9.82,0,0,1-1.16,4.39,11.25,11.25,0,0,0-.62,1.1C129.54,69.19,130.44,69,130.81,68.71Zm2.85,0a7.43,7.43,0,0,0,1.73-3.35c0.18-.86.14-1.27-0.34-3.64a36,36,0,0,0-.9-3.67c-0.2-.55-0.47-1.4-0.6-1.88-0.27-1-2.31-7.23-2.68-8.15A65.63,65.63,0,0,1,129,41.62c-0.31-1.25-.59-2.37-0.64-2.49a2.14,2.14,0,0,0-1.4-.55c-0.18.18,1.07,4.93,2.41,9.16,1.17,3.71,2.43,7.56,3,9,1.88,5.28,2,8.62.36,11.71-0.29.55-.29,0.56,0.13,0.56A1.7,1.7,0,0,0,133.66,68.71Zm2.82-.31c2.09-2.35,2-6.31-.41-12.76-1.82-4.95-3.13-9-4.13-12.7-0.8-3-1-3.34-1.83-3.34-0.4,0-.42,0-0.3.57,0.07,0.31.19,0.89,0.26,1.27a110.14,110.14,0,0,0,3.46,11.31,71.32,71.32,0,0,1,3,10.61,8.88,8.88,0,0,1-.81,4.27c-0.29.71-.53,1.32-0.53,1.36a0.47,0.47,0,0,0,.34.07A1.91,1.91,0,0,0,136.48,68.4ZM139,32c-0.8-.68-1.24-0.73-2.39-0.27-1.5.6-1.08,0.78,2,.85l1.07,0Zm5.68,0.1c0.71-.16,1.55-0.9,1.17-1a2.77,2.77,0,0,0-1,.24c-2.21.83-6.13-.83-6.13-2.61a4.11,4.11,0,0,1,1-2.53c0.79-.73.49-1.61-0.55-1.61-0.8,0-1,.35-0.88,1.33a6.28,6.28,0,0,1-.49,3,2.48,2.48,0,0,1-.92.79c-0.61.32-1,.38-2.77,0.38-2,0-2.08,0-3.41-.66-1.75-.86-3.28-2.21-3.44-3a3.07,3.07,0,0,1,1-2.7c0.78-.75.82-0.89,0.42-1.29a1.8,1.8,0,0,0-1.79-.06,4.62,4.62,0,0,0-.16,1.36,3.44,3.44,0,0,1-2.66,3.49,7.72,7.72,0,0,1-3.74-.09,9.9,9.9,0,0,1-3.78-3.09,2.09,2.09,0,0,1-.52-1.82,3,3,0,0,1,.46-1.46,1.9,1.9,0,0,0,.38-0.78c0-.61-1.52-0.86-2-0.34-0.3.29-.29,0.44,0.1,1.39a1.65,1.65,0,0,1-.57,2,7.87,7.87,0,0,1-6.17,1.78c-1.82-.31-4.36-1.77-4.91-2.81a4.42,4.42,0,0,1,0-3.07c0.3-.63.3-0.64-0.11-1a1,1,0,0,0-1.47,0c-0.39.31-.4,0.37-0.18,0.92,0.13,0.32.32,0.88,0.42,1.25,0.38,1.36-.63,2.79-2.76,3.9-1.57.82-4.59,0.74-5.86-.16l-0.79-.56c-0.36-.26-0.4-0.26-0.4,0a2.14,2.14,0,0,0,.54.88c0.73,0.82,2.42,1.24,4.58,1.13a7.22,7.22,0,0,0,4.25-1.47,4,4,0,0,1,1.05-.59,4.88,4.88,0,0,1,1.16.62A11.73,11.73,0,0,0,108,25.34a9.12,9.12,0,0,0,6.1-.89l0.67-.29L116,25.38c1.82,1.81,2.76,2.22,5.59,2.46a7.73,7.73,0,0,0,2.84-.11c2.07-.51,1.75-0.61,3,0.87a7.27,7.27,0,0,0,5.86,2.57,8.52,8.52,0,0,0,4-1c0.74-.31.77-0.31,1.15,0a7.19,7.19,0,0,0,1.2.76l1.28,0.65A6.34,6.34,0,0,0,144.73,32.06Zm-18-2.73a1.37,1.37,0,0,0-.84-0.6c-0.64,0-1.2.21-1.13,0.41a5.68,5.68,0,0,0,2.3.87A1,1,0,0,0,126.77,29.33Zm-11.19-3.25c-0.53-.58-0.91-0.72-1.33-0.5-0.7.37-.09,0.79,1.24,0.85C115.91,26.45,115.91,26.44,115.58,26.08Zm-11.8-1a1.31,1.31,0,0,0-1.33-.63c-0.6.15-.57,0.59,0,0.68C103.42,25.23,103.78,25.22,103.78,25ZM91.16,19.57c-0.8-.64-0.94,0-0.22,1.14l0.49,0.74,0.06-.79A1,1,0,0,0,91.16,19.57Zm57.44-8.83a0.36,0.36,0,0,1,.34,0c0.14,0.06.1,0.1-.11,0.11S148.54,10.8,148.6,10.74Z"/><path id="path3777" class="cls-9" d="M78.5,86.66a0.93,0.93,0,0,0-.62-0.61m0.46-10.79c1.44-.87,3-1.78,3.47-2a6.83,6.83,0,0,0,1.29-.82c0.39-.36.42-0.48,0.31-1.37a3.55,3.55,0,0,1,.39-2.21,4.05,4.05,0,0,1,2.8-2.66c2-.61,2.91-0.24,4.79,1.94a2,2,0,0,0,.65.57,13.68,13.68,0,0,0,2.71-2,7.54,7.54,0,0,0,.95-1.44c0.48-1,.51-1.53.17-3.13a1.13,1.13,0,0,1,.16-1c0.39-.54.36-0.73-0.17-1.35s-0.45-.57-0.26-1.6a4.45,4.45,0,0,0,.09-1.4,3.21,3.21,0,0,0-1.3-.9c-2.67-1.27-3.29-2-2.89-3.36a7.27,7.27,0,0,1,.58-1.35,20.5,20.5,0,0,0,1-2.1c0.32-.82.82-2,1.1-2.72a35.4,35.4,0,0,0,1.64-4.7A15.19,15.19,0,0,0,95,36.88a9.65,9.65,0,0,1-.28-2.42,4.42,4.42,0,0,0-.36-2.23,3.15,3.15,0,0,1-.36-1,0.83,0.83,0,0,0-.3-0.58c-1.63-1.25-2.25-2.39-2.07-3.84,0.09-.77,0-1-2.34-5.52-1.34-2.59-2.7-5.19-3-5.76l-1.42-2.63A18.2,18.2,0,0,0,83.74,11c-0.25-.29-0.2-0.31.94-0.31a2.2,2.2,0,0,1,1.09.12A29.81,29.81,0,0,0,87.92,15a4.1,4.1,0,0,0,1.09.09c1.51,0,2.18.59,2.76,2.41,0.08,0.25.31,0.31,1.19,0.31a2.12,2.12,0,0,1,2.36,1.38,2.06,2.06,0,0,1-.81,2.56c-0.64.54-.7,0.66-0.48,0.86,0.71,0.66,3.67.68,4.93,0,0.63-.32.75-0.63,0.24-0.63a2.77,2.77,0,0,1-1.1-.67,1.79,1.79,0,0,1-.84-1.71c-0.12-1.69.42-2.46,1.88-2.7l0.65-.1-0.06-1a2.44,2.44,0,0,1,1.17-2.51,2.82,2.82,0,0,1,4.26,3.1c-0.12.44-.08,0.49,0.62,0.68,1.64,0.44,2.32,1.48,1.92,2.93a2.39,2.39,0,0,1-2.23,1.61c-1.55,0,.11,1.12,2.62,1.76,1.4,0.36,4.43,0,4.12-.55a2.36,2.36,0,0,0-.67-0.42,2.33,2.33,0,0,1-.93-3.15c0.32-.75.82-1,2.06-1.14,0.95-.09,1-0.11.92-0.59a2.81,2.81,0,0,1,2.13-2.76,4.14,4.14,0,0,1,2.59.47,2.38,2.38,0,0,1,.73,3.21c-0.41.67-.42,0.65,0.72,1.27a1.91,1.91,0,0,1,.9,1.93,1.46,1.46,0,0,1-.64,1.31,3.09,3.09,0,0,1-1.16.7c-0.76.15-.76,0.32,0,0.88A7.2,7.2,0,0,0,122.11,26c0.86,0.08,2.46-.18,2.45-0.39a1.72,1.72,0,0,0-.56-0.47A2.34,2.34,0,0,1,122.73,23c0-1.52.9-2.58,2.15-2.55,0.76,0,.93-0.15.93-1,0-1.23,1.1-2.22,2.69-2.43a3.32,3.32,0,0,1,2.91,1.47A3.05,3.05,0,0,1,131,22c-0.27.36-.26,0.39,0.2,0.61a2.17,2.17,0,0,1,1.23,2.13,2.34,2.34,0,0,1-1.63,2.35,1.2,1.2,0,0,0-.72.49c0.1,0.37,2.46,1.38,3.39,1.45s3-.24,3-0.51a1,1,0,0,0-.58-0.41c-1.53-.63-2.18-1.64-1.93-3a2.18,2.18,0,0,1,2.44-1.94l0.6,0.11V22.47a2.87,2.87,0,0,1,3.11-3,2.94,2.94,0,0,1,2.1,4.17c-0.23.44-.24,0.57-0.05,0.63a2.58,2.58,0,0,1,1.25,1.58A2.38,2.38,0,0,1,141.67,29a1.38,1.38,0,0,0-.75.23c0,0.23,1.5.73,2.5,0.83a3,3,0,0,0,2-.38,6.58,6.58,0,0,0,1-.53,5.6,5.6,0,0,0-.62-0.67,1.57,1.57,0,0,1-.62-1.46,2,2,0,0,1,2.29-2.31c0.6,0.05.63,0,.85-0.74a3.26,3.26,0,0,1,2.06-2.29c1-.26,1.06-0.32,2-2.06,0.46-.83,1.38-2.45,2-3.58s1.21-2.11,1.21-2.15a15.24,15.24,0,0,1,.72-1.35,7.61,7.61,0,0,0,.75-1.57c0-.26.2-0.31,1.22-0.31h1.19l-1.2,2.06c-0.66,1.13-1.5,2.61-1.87,3.29-0.66,1.21-1.88,3.34-5.38,9.38-1,1.69-2.08,3.62-2.45,4.3s-0.87,1.53-1.11,1.91a1.57,1.57,0,0,0-.32,1.31c0.32,1.77.31,2.12,0,2.71a3.43,3.43,0,0,0-.36,1.83,5.23,5.23,0,0,1-.2,1.59,3.88,3.88,0,0,1-1.08.88,3.57,3.57,0,0,0-.89.65c0,0.06.24,1,.52,2.06,0.47,1.75.84,2.88,2.58,7.91,0.27,0.77.83,2.27,1.25,3.33a46.73,46.73,0,0,1,2.18,6,13.16,13.16,0,0,1,.47,4.32v2.64L151.08,68c-0.41.79-.53,1.17-0.39,1.3s6.23,0.16,11.36,0M90.52,97.62c-2.89-8.41-4.4-11.75-7.39-16.44l-1.89-3c-1.24-2-1.4-2.14-2-2.14a4.41,4.41,0,0,0-2.14,1.18,9.43,9.43,0,0,0,.79,1.36c0.43,0.67,1.17,1.85,1.63,2.63s1,1.64,1.22,1.93a92.5,92.5,0,0,1,5.46,10.26m1.49,6a84.51,84.51,0,0,0-10.2-19.85c-0.83-1.23-1-1.45-1.46-1.45a2,2,0,0,0-1.42.87c0,0.08.8,1.33,1.78,2.79s1.78,2.71,1.78,2.79a3,3,0,0,0,.42.75m77.52-13.09c1.16-1.3,1.33-1.7.8-1.9-0.17-.07-8.18-0.11-17.8-0.1-14.42,0-17.55.06-17.85,0.25a13.39,13.39,0,0,0-1.61,2.32,18.61,18.61,0,0,1-3.46,4.33A23.29,23.29,0,0,1,111.51,81a27.15,27.15,0,0,1-6.75,3.4,2.55,2.55,0,0,0-1.48.78,4.32,4.32,0,0,0,.23,1.27c0.35,1.19.54,1.22,2.62,0.35,7.57-3.16,12.77-7.51,16.24-13.58l0.35-.61,14.74,0c8.11,0,14.8.11,14.87,0.17a6.44,6.44,0,0,1-1.24,1.71,68.64,68.64,0,0,0-7.74,10.33,72.07,72.07,0,0,0-4.17,7.89c-0.19.48-.63,1.55-1,2.38s-0.71,1.77-.8,2.1-0.43,1.39-.74,2.36M160.7,72c1.57-1.36,1.56-1.6-.05-1.45a10.76,10.76,0,0,0-1.47.2c-0.33.13-5.42,5.52-6.61,7-2,2.53-5,6.5-5.74,7.62m-48.5-2.53c-1.5-4.53-1.64-4.84-2.37-5.1a4.78,4.78,0,0,0-2.8,0c-0.28.28-.27,0.58,0,1.25a79.29,79.29,0,0,1,5,15.1c0.15,0.77.47,2.35,0.71,3.51,0.46,2.26,1.06,5.79,1,6.22,0,0.14,6,.34,6.1,1.4M103.49,90.7c-0.15-.67-0.41-2-0.6-3a56,56,0,0,0-2.61-9.07c-0.45-1-.46-1-1.22-1-1.45,0-1.56.2-1,1.78,0.72,2,2.52,7.94,3,10m33.12,15.8c0-.51,0-0.53-1-0.64a12.52,12.52,0,0,0-3.71,0c-0.2.12-.1,0.35,0.44,1.09m-32.94-2.3a15,15,0,0,0,.7-1.62,0.81,0.81,0,0,0-.21-1.12,13.62,13.62,0,0,0-2.64-1.82c-0.42,0-1.79,2.57-1.79,3.34a1.8,1.8,0,0,0,.93.95m40.15-.05a0.81,0.81,0,0,0,.76-0.67c0.33-.77.35-1.29,0-1.29a4.33,4.33,0,0,0-1.13.6c-1.39.93-1.57,0.91-2.83-.27s-1.33-1.51.59-2.62a2.84,2.84,0,0,0,.93-0.7A1.88,1.88,0,0,0,131.5,98c-1.24,0-1.2,0-2.13,2.57-0.7,2-.68,2.39.17,2.51A46.06,46.06,0,0,0,134.2,103.09Zm1.65-3.8a2.72,2.72,0,0,0,.17-1.14c-0.17-.26-2.58-0.23-2.58,0a8.63,8.63,0,0,0,2,2.07A2.37,2.37,0,0,0,135.86,99.29ZM95.65,95.61a5.77,5.77,0,0,0,.57-1.84,7.75,7.75,0,0,0-1.51-1.29c-1.87-1.35-2-1.32-2.71.49-0.81,2.19-.8,2.26.76,3.37C94.61,97.66,94.79,97.61,95.65,95.61Zm41.18,0.68a2.75,2.75,0,0,0,.17-0.8c0-.32-0.12-0.29-1.35.36-0.74.39-1.38,0.72-1.43,0.72a9,9,0,0,1-1.05-.9c-1.31-1.22-1.28-1.5.19-2.35a4.43,4.43,0,0,0,1.15-.81c0-.25-1.72-0.17-1.93.09A24.92,24.92,0,0,0,131,96.51c0,0.19.59,0.23,2.85,0.23h2.85Zm-29.84-2a67.18,67.18,0,0,0,7.82-3.87,46.25,46.25,0,0,0,10.59-9l1.15-1.36,5.78,0,5.78,0,1.25-1.93c1.72-2.65,2.45-3.95,2.33-4.14s-4-.16-9.3-0.16h-9.2l-0.36.39a8.79,8.79,0,0,0-.82,1.19,27.1,27.1,0,0,1-6.86,7.33,46.26,46.26,0,0,1-8.1,4.66c-2.64,1.07-2.75,1.13-2.75,1.41a47.52,47.52,0,0,0,1.11,5.83C105.64,94.87,105.42,94.91,107,94.31Zm-0.59-1.59c-1.45-.82-1.5-0.9-1.07-2l0.59-1.49c0.28-.73.57-0.71,1.78,0.09,1,0.64,1,.68,1,1.56,0.07,1.19-.4,2.24-1,2.28A3.24,3.24,0,0,1,106.39,92.73Zm4.5-2.27-0.8-.31,0-1.36a9,9,0,0,1,.24-2c0.2-.61.22-0.62,0.94-0.51a7.54,7.54,0,0,1,1.51.46l0.79,0.34-0.09,1.53a10.87,10.87,0,0,1-.22,1.84C113.12,90.88,112,90.87,110.89,90.46Zm5-3.11c-1.22-.38-1.29-0.5-1-1.84,0.43-2,.82-2.4,2.14-2,1.13,0.33,1.34.55,1.34,1.36a6.46,6.46,0,0,1-.58,2.55C117.55,87.69,116.89,87.67,115.87,87.35Zm4.62-3.77c-1.2-.23-1.3-0.41-1.28-2.27a5.56,5.56,0,0,1,.22-1.85c0.48-.56,2.75-0.1,3.13.64a7.17,7.17,0,0,1,0,3.34C122.41,83.81,121.85,83.84,120.49,83.58Zm4.28-4.4a4.26,4.26,0,0,1-1.44-1.09,9.84,9.84,0,0,1,.33-3.26c0.25-.49,1-0.37,2.11.36,1.41,0.89,1.56,1.24,1.28,3s-0.32,1.77-.68,1.76A7.54,7.54,0,0,1,124.78,79.18Zm4.67-.69c-1.23-1.15-1.25-1.51-.15-2.79l1.06-1.26a0.82,0.82,0,0,1,.41-0.31,9.24,9.24,0,0,1,2.33,2.94,4.45,4.45,0,0,1-2.26,2.32A3,3,0,0,1,129.44,78.49Zm6.65,0.68a5.51,5.51,0,0,1-1.57-2.27c0-.75,1.76-2.77,2.42-2.77a2,2,0,0,1,1.08.77c0.9,1,1.19,1.57,1.06,2.07a10.08,10.08,0,0,1-2.59,2.42A1,1,0,0,1,136.09,79.17Zm1.78,14.44a10.81,10.81,0,0,0,.38-1.14,4.57,4.57,0,0,0-1.42-.11,5.93,5.93,0,0,0-1.42.09,7.88,7.88,0,0,0,.89,1,5,5,0,0,1,.89,1.05,0.16,0.16,0,0,0,.15.16A2.62,2.62,0,0,0,137.87,93.62ZM140,89a9.76,9.76,0,0,0,1-2.28c-0.16-.25-2.57-0.22-2.57,0a2.29,2.29,0,0,0,.44.78,5.21,5.21,0,0,1,.63,1c0.16,0.42.11,0.53-.41,1a7.86,7.86,0,0,1-1.43,1l-0.83.43-0.65-.69a5.33,5.33,0,0,1-1.3-1.95,4,4,0,0,1,1.16-.92,2.48,2.48,0,0,0,1.06-.91,1.8,1.8,0,0,0-1.48,0,20.24,20.24,0,0,0-2.16,4.26c0,0.3.19,0.33,2.71,0.32h2.71Zm-46.9.1c0.13-.58.35-1.56,0.49-2.18,0.31-1.35.37-1.27-1.62-2.27s-2.56-.95-2.56.26A12,12,0,0,1,89,86.78c-0.31,1.19-.33,1.46-0.13,1.64a17.08,17.08,0,0,0,3.7,1.79A1.52,1.52,0,0,0,93.09,89.12Zm46.26-3.87c0.26-.08.22-0.2-0.3-0.87a5.59,5.59,0,0,1-.72-1.16c-0.13-.4-0.07-0.47,1.13-1.37l0.47-.36-0.79,0-0.79,0-0.94,1.57c-1,1.64-1.09,1.94-.72,2.07A10.86,10.86,0,0,0,139.35,85.25Zm3.7-1.69a7.31,7.31,0,0,0,1-1.88c-0.06-.32-2.11-0.38-2.22-0.07a1.29,1.29,0,0,0,.38.73,1,1,0,0,1-.19,1.74c-1.55,1.19-1.49,1.09-.74,1.1S142,85.12,143,83.55Zm-38.62,0c0.58-.24.63-0.31,0.55-0.83a38.24,38.24,0,0,0-1.6-5.18,0.76,0.76,0,0,0-.73-0.12c-1,.21-1.17.28-1.17,0.68a54.24,54.24,0,0,0,1.69,5.49C103.26,83.84,103.65,83.83,104.43,83.51ZM89.56,82.33a21,21,0,0,0,.65-4.25,1.5,1.5,0,0,0-.77-0.44c-0.37-.12-1.3-0.45-2.05-0.74-1.07-.41-1.43-0.48-1.62-0.32a4.17,4.17,0,0,0-.45,1.58c-0.11.76-.28,1.63-0.37,1.93a1.68,1.68,0,0,0-.07.79,5,5,0,0,0,1.55.8c0.8,0.31,1.65.67,1.9,0.8C89,82.82,89.38,82.77,89.56,82.33Zm17.78,0.07,0.4-.32L106.8,79.4a12.62,12.62,0,0,0-1.19-2.77c-0.42-.16-1.16.27-1,0.6,0.06,0.16.28,0.88,0.48,1.62a23.65,23.65,0,0,0,1.07,3.57C106.33,82.81,106.84,82.81,107.34,82.4Zm38.15-2.61a9.19,9.19,0,0,0,1-1.3c0.37-.54,1.34-1.75,2.15-2.68a7.48,7.48,0,0,0,1.37-1.86,15.32,15.32,0,0,0-3.2-.17c-2.89,0-3.12,0-3.46.36a44,44,0,0,0-3.72,5.66c0,0.26.31,0.29,2.73,0.29S145.19,80,145.5,79.78Zm-3-1.15a0.56,0.56,0,0,1-.39-0.57,16,16,0,0,1,2.36-3.46c0.43-.26,2.65,0,2.78.36s-0.55,1.59-1.67,2.82c-0.94,1-1,1.08-1.81,1.08A3.48,3.48,0,0,1,142.51,78.63Zm-44.4-2.08A9.14,9.14,0,0,0,101.83,74a30.28,30.28,0,0,0,4.33-6.16c0.91-1.79,1.35-2.36,1.35-1.74,0,1-3.66,6.53-5.81,8.75a4.35,4.35,0,0,0-1.07,1.4c0.14,0.42,1.18.35,2-.12s3.29-3.28,4.85-5.59a45.19,45.19,0,0,0,2.63-5,1.71,1.71,0,0,1,.46-0.75c0.77,0-2.09,5.37-4.69,8.81-1.14,1.51-1.29,2-.59,1.81,1.82-.45,4.8-4.08,7-8.48,0.93-1.89,1.44-2.52,1.2-1.49-0.09.4-2.46,4.94-3.12,6a0.78,0.78,0,0,0-.09.61c0.1,0.26.16,0.27,0.61,0a25.06,25.06,0,0,0,4.41-4.39,2.06,2.06,0,0,0-.08-1,6.77,6.77,0,0,1,.05-3.38,4.94,4.94,0,0,1,2.13-2.1,3.62,3.62,0,0,1,3.85.23c1.1,0.73,1.3.58,1.14-.85a43.21,43.21,0,0,0-2-8.26,102.77,102.77,0,0,1-3.64-11.89c-0.52-2-1-3.93-1.06-4.38-0.24-1.69-.38-1.92-1.4-2.2s-2.52-.6-5.27-1.1a34.38,34.38,0,0,0-6.13-.31c-4.76,0-6.62.2-7.22,0.8s-0.43,1.44.13,3.95c0.8,3.58.86,4.16,0.54,5.41a13.18,13.18,0,0,1-.64,1.9,6.56,6.56,0,0,0-.37.89,11.22,11.22,0,0,1-.51,1.19,48.8,48.8,0,0,0-2.15,5.19c-0.29,1.08-.12,1.57.67,1.89a6.36,6.36,0,0,1,2.53,1.91,2.81,2.81,0,0,1,.35,1.52,2,2,0,0,0,.22,1.15,4.47,4.47,0,0,0,1.26.37,15.1,15.1,0,0,1,2.53.82,4.78,4.78,0,0,0,2.23.57l0.74-.06,0.43,1.12c0.53,1.4.34,1.76-.52,0.94-1.3-1.24-6-1.57-6.43-.45A4.4,4.4,0,0,0,96.7,63a2.32,2.32,0,0,1-.27,2.08,16,16,0,0,1-3.75,4.14,2,2,0,0,0-1,1.29c-0.4,1.39,0,1.48,1.8.42a13.27,13.27,0,0,0,4-3.74c0.57-1,1.14-1.33,1.14-.76s-2.57,3.51-4.38,4.76c-2.67,1.84-4.95,2.3-6.87,1.38a2.65,2.65,0,0,1-1.69-2.39,1.47,1.47,0,0,1,.52-1.56,2,2,0,0,1,3.44.5,1.66,1.66,0,0,1,.09,1.42,1.83,1.83,0,0,1-.55.85c-0.46.29-.44,0.83,0,0.83,1,0,1.94-1.38,1.94-2.73a2.93,2.93,0,0,0-2.57-2.72,3.21,3.21,0,0,0-3.2.91c-2.17,2-1.57,5.18,1.21,6.53a4.7,4.7,0,0,0,2.61.46,6.77,6.77,0,0,0,3.41-.7,11.72,11.72,0,0,0,3.66-2.08c0.17-.17.69-0.61,1.17-1a32.76,32.76,0,0,0,3.86-4.36c0.74-.95.56-0.29-0.23,0.88a23.8,23.8,0,0,1-6.5,6.32,21.49,21.49,0,0,1-5.09,1.76c-1.08.14-1.18,0.5-.27,0.95,1.51,0.74,4.69.11,7.42-1.47A28.86,28.86,0,0,0,102,69.84a17.3,17.3,0,0,0,1.28-2c0.48-.94,1.16-1.72,1.34-1.54a14,14,0,0,1-1.85,3.53c-0.26.31-.82,1-1.23,1.54a18.56,18.56,0,0,1-3.59,3.43c-1.67,1.23-2.2,1.73-2.06,1.95S96.83,77,98.11,76.56Zm6.74-17.07a13.79,13.79,0,0,1-1.69-.68,15.4,15.4,0,0,0-2.73-.84c-2-.42-2.28-0.64-2.09-1.39s0.74-.82,1.9-0.66a7.85,7.85,0,0,1,3.53,1.49,5.23,5.23,0,0,0,3.22,1.2,2.09,2.09,0,0,0,1-.62c0.84-1,.43-2.21-0.94-2.79-1-.4-0.92-0.79.06-0.72a2.24,2.24,0,0,1,1.9,1.89,2,2,0,0,1,0,1.55C108.44,59.56,107,60.13,104.85,59.49ZM98.24,55a8.4,8.4,0,0,1-1.58-.86,1.58,1.58,0,0,0-1.13-.45c-0.88.22-1-1.19-.15-1.52C96,52,96,52,97.59,53a4,4,0,0,0,2.17,1,1.31,1.31,0,0,0,.82-2.38C99.93,51,99.93,51,100.54,51a1.74,1.74,0,0,1,1.21,2,3.17,3.17,0,0,1-1.85,2.12C99.17,55.42,99.27,55.43,98.24,55Zm4.66-6a9.89,9.89,0,0,1-1.6-1.12,3.48,3.48,0,0,0-1.24-.74c-0.74-.18-0.9-0.69-0.41-1.35a0.72,0.72,0,0,1,1.2-.18,0.93,0.93,0,0,0,1.28,0,2.79,2.79,0,0,0-.35-1.23c-0.53-1.14-1-1.26-1.57-.44s-0.77.58-.71-0.37A3,3,0,0,0,99.08,42a4.49,4.49,0,0,1-.45-1.1c0-.32.44-0.29,0.72,0,0.51,0.61,1.21.8,2.62,0.72a10.52,10.52,0,0,1,5.06.9c3.19,1.75,4.3,2.47,4.3,2.78s-0.12.32-.8,0.28c-2.78-.15-3.08-0.12-5,0.54a11.48,11.48,0,0,1-2.61.64c-1.37,0-1.26.65,0.28,1.73S104.63,50,102.89,49Zm1.71-3.94a2.46,2.46,0,0,0,.31-1.09c0-.61,0-0.65-0.5-0.65s-0.56.1-.94,1.05-0.39,1.07-.12,1.26S104.19,45.73,104.61,45.1Zm2.13,0.09c0.52-.19.55-0.7,0.08-1.13s-1.06-.24-1.55.45C104.57,45.51,105.17,45.78,106.73,45.2Zm2.93-2.62c-2.8-1.66-3.9-2-6.83-2-1.92,0-2.34-.06-2.34-0.27a0.55,0.55,0,0,1,.44-0.38A14.37,14.37,0,0,1,105,40a30,30,0,0,1,5.43,2.56C113,44.18,112.45,44.22,109.67,42.57Zm1.92-1.76a26.3,26.3,0,0,0-6.16-2.63,13.63,13.63,0,0,0-5-.08c-1.87.3-2.29,0.2-2.48-.55-0.25-1,1.27-1.64,3.83-1.64,2.32,0,4,.47,6.94,2a13,13,0,0,1,3.34,2.29C113.73,41.67,113.44,42,111.59,40.81ZM84.87,74.47a1.78,1.78,0,0,0-1.18-1.21,0.66,0.66,0,0,0-.63.79C83.25,74.54,84.63,74.86,84.87,74.47Zm3.63-3.23a1.57,1.57,0,0,0,.72-0.9,0.9,0.9,0,0,0-.14-1.1,1.28,1.28,0,0,0-1.14-.52A1.36,1.36,0,0,0,86.27,70a1,1,0,0,0,.34,1.1A1.48,1.48,0,0,0,88.5,71.24Zm50.46-2a6.34,6.34,0,0,0,1.89-3.8,8.39,8.39,0,0,0,.07-3.23,27.47,27.47,0,0,0-2-7.28c-1.5-4.08-2.21-6.18-3.06-9-1.54-5.2-1.66-5.54-2.15-5.76-1-.45-1.61-0.1-1.33.77,0.09,0.28.41,1.61,0.72,3s1,3.59,1.44,5,1,2.95,1.16,3.43c0.22,0.73.84,2.44,1.85,5.17a43.3,43.3,0,0,1,1.32,5.61,10.06,10.06,0,0,1-.88,4.71,8.53,8.53,0,0,0-.62,1.52C137.36,69.82,138.18,69.78,139,69.23Zm2.62,0a4.45,4.45,0,0,0,1.32-1.71c0.56-1.12.58-1.25,0.57-3.19,0-3.21-.83-6.28-3.54-13.33-1.08-2.81-2.12-5.91-2.67-8a13.07,13.07,0,0,0-.71-2.12,0.9,0.9,0,0,0-1.24-.35c-0.26.19-.24,0.36,0.18,2l0.65,2.45c0.1,0.39.37,1.25,0.59,1.93s0.59,1.82.8,2.54c0.63,2.12,1.15,3.63,2,6,1.62,4.29,1.84,5.12,2,7.8a6.4,6.4,0,0,1-.44,3.51c-0.3.87-.65,1.84-0.78,2.16-0.2.49-.19,0.6,0,0.74S140.76,69.81,141.58,69.21ZM125,69.07c1.65-1.18,2.4-2.72,2.51-5.19,0.14-2.86-.5-5.74-2.8-12.55-0.18-.53-0.62-2-1-3.24s-0.85-2.87-1.08-3.59c-0.61-1.93-1.61-5.51-2-7s-0.84-2.12-1.56-2.12-0.67.33-.38,1.43c0.14,0.51.61,2.43,1.05,4.26s0.92,3.69,1.06,4.12l1.49,4.56c2,6.17,2.57,8.2,3.14,11.82,0.46,2.91,0,4.71-1.53,6.34-0.86.9-1.06,1.37-.64,1.54A1.66,1.66,0,0,0,125,69.07Zm2.48,0.27a4.53,4.53,0,0,0,1.94-2.19c0.95-1.84,1.09-3.56.52-6.27-0.24-1.12-.59-2.52-0.78-3.12-0.91-2.77-3.47-11.1-4.77-15.54-0.48-1.65-.92-3.4-1.2-4.78a2,2,0,0,0-1.55-1.18c-0.24,0-.31.15-0.31,0.66a68.55,68.55,0,0,0,2.05,8.72c0.35,1.16.8,2.66,1,3.33,0.48,1.67,1.35,4.37,1.76,5.43A53.85,53.85,0,0,1,128,61.67c0.49,2.95.18,4.56-1.26,6.54a2.25,2.25,0,0,0-.54,1.12A1,1,0,0,0,127.51,69.35Zm16.4,0a4.3,4.3,0,0,0,1.9-2.51,9.31,9.31,0,0,0,.19-3.37,13.67,13.67,0,0,0-.89-4.82c-0.83-2.61-1.49-4.46-3-8.41-0.94-2.5-2.52-7.39-2.75-8.5-0.18-.86-0.39-1.05-1.16-1.05-0.5,0-.7.08-0.78,0.32a28.56,28.56,0,0,0,1.42,5.59c0.51,1.19,4,11.32,4.46,12.85A29.93,29.93,0,0,1,144,63a6.51,6.51,0,0,1,0,3.13,9.74,9.74,0,0,1-.79,1.95,1.3,1.3,0,0,0-.34,1.21C143.1,69.64,143.27,69.65,143.92,69.32Zm5.85-.4c1.47-1.72,1.83-4.44,1-7.59-0.26-1-.64-2.35-0.84-3s-0.43-1.38-.51-1.67-0.63-1.87-1.23-3.51c-1.61-4.42-3.49-10.06-3.75-11.24a5.12,5.12,0,0,0-.4-1.25,1.42,1.42,0,0,0-1.53,0c-0.31.36,0,2.16,0.85,4.52s1.58,4.47,1.79,5c0.64,1.5,3.26,9,3.76,10.78a11,11,0,0,1,.42,3.51c0,2,0,2-.67,3.3a7.46,7.46,0,0,0-.67,1.56C148,69.81,149.27,69.5,149.77,68.92Zm-28.61.19a6.77,6.77,0,0,0,3.45-3c0.36-.73.4-1,0.39-3.18a16.09,16.09,0,0,0-.48-4.3,69.69,69.69,0,0,0-2.08-7.34c-0.4-1.14-.88-2.64-1.08-3.33-0.69-2.46-2.1-7.24-2.63-9a20.65,20.65,0,0,1-.66-2.77c-0.14-1.17-.37-1.46-1.26-1.63-1.13-.21-1.16.24-0.22,3.87,0.3,1.16.65,2.59,0.78,3.19s0.48,1.78.76,2.63,0.8,2.41,1.15,3.47c1.67,5.15,2.8,8.67,3,9.48a22.25,22.25,0,0,1,.81,5.8,4.64,4.64,0,0,1-.45,2.7,3.79,3.79,0,0,1-2.71,2,2.12,2.12,0,0,1-1.61-.29,2.63,2.63,0,0,1-1.4-2.2A2.26,2.26,0,0,1,119.59,63a2.36,2.36,0,0,1,1.57,1.69c-0.06.42-.5,0.64-0.5,0.25a1.66,1.66,0,0,0-.37-0.72,1.55,1.55,0,0,0-2.31.05,1.37,1.37,0,0,0-.05,2.08c1,1.28,2.47,1.3,3.72,0a1.69,1.69,0,0,0,.68-1.52c0-3.59-5-4.4-6.38-1A4,4,0,0,0,118.18,69,3.58,3.58,0,0,0,121.16,69.11Zm9.88-.25a6.18,6.18,0,0,0,1.72-3.67c0.45-2.88-.16-5.45-3.69-15.69-1.17-3.38-2.31-7.1-2.72-8.85-0.6-2.58-.7-2.82-1.3-3.07-1-.44-1.1-0.14-0.47,2.64,0.31,1.34.76,3.11,1,3.93s0.51,1.73.59,2c0.76,2.74,1.68,5.74,2.38,7.8,1.57,4.57,2.41,7.88,2.4,9.44a8.79,8.79,0,0,1-1.12,4.41c-0.82,1.37-.83,1.58,0,1.58A1.8,1.8,0,0,0,131,68.86Zm2.53,0.31c1-.55,2-2.63,2.14-4.32a26.63,26.63,0,0,0-1.38-7.29l-1.77-5.43c-0.69-2.12-1.33-4-1.41-4.21-0.27-.58-1.34-4.25-1.86-6.4-0.27-1.11-.53-2.16-0.58-2.34a2.48,2.48,0,0,0-1.92-.88c-0.22.08-.27,0.23-0.18,0.57s0.27,1.13.44,1.95,0.74,2.83,1.24,4.47,1,3.26,1.09,3.59,0.52,1.64.93,2.89c2.75,8.25,3.16,9.72,3.26,11.52a6.81,6.81,0,0,1-.39,3.07,9.85,9.85,0,0,1-.84,2,1.08,1.08,0,0,0-.26.75A1.27,1.27,0,0,0,133.57,69.17Zm3-.37A7.39,7.39,0,0,0,138.23,65a7.21,7.21,0,0,0,.1-1.49c0-.11-0.15-0.85-0.25-1.65a31.17,31.17,0,0,0-2-7.06c-1.65-4.44-3.21-9.29-4.11-12.78-0.59-2.26-.63-2.36-1.18-2.59a1.26,1.26,0,0,0-1.39-.05c-0.32.5,1.68,7.3,5.25,17.87a33.3,33.3,0,0,1,1.54,6.18,8.34,8.34,0,0,1-.48,3.38,4.77,4.77,0,0,0-.35.88,3.38,3.38,0,0,1-.38.87,0.82,0.82,0,0,0-.16.48c0,0.24.14,0.32,0.6,0.32A1.34,1.34,0,0,0,136.61,68.8ZM147.08,69a5.8,5.8,0,0,0,1-1.36A4.64,4.64,0,0,0,148.7,65a16.54,16.54,0,0,0-.14-2.89,80.68,80.68,0,0,0-2.94-9c-0.45-1.21-1.09-3-1.42-3.94s-0.89-2.54-1.25-3.51-0.79-2.36-1-3.1a11.82,11.82,0,0,0-.44-1.53,1.56,1.56,0,0,0-.9-0.18c-0.7,0-.79,0-0.79.4,0,0.91,1.62,5.89,4,12.4a65.61,65.61,0,0,1,2.45,7.32,9.8,9.8,0,0,1-.43,7,3.39,3.39,0,0,0-.38,1.1C145.53,69.55,146.43,69.52,147.08,69Zm-8-37c-0.8-.68-1.24-0.73-2.39-0.27-1.5.6-1.08,0.78,2,.85l1.07,0Zm5.68,0.1c0.71-.16,1.55-0.9,1.17-1a2.77,2.77,0,0,0-1,.24c-2.21.83-6.13-.83-6.13-2.61a4.11,4.11,0,0,1,1-2.53c0.79-.73.49-1.61-0.55-1.61-0.8,0-1,.35-0.88,1.33a6.28,6.28,0,0,1-.49,3,2.48,2.48,0,0,1-.92.79c-0.61.32-1,.38-2.77,0.38-2,0-2.08,0-3.41-.66-1.75-.86-3.28-2.21-3.44-3a3.07,3.07,0,0,1,1-2.7c0.78-.75.82-0.89,0.42-1.29a1.8,1.8,0,0,0-1.79-.06,4.62,4.62,0,0,0-.16,1.36,3.44,3.44,0,0,1-2.66,3.49,7.72,7.72,0,0,1-3.74-.09,9.9,9.9,0,0,1-3.78-3.09,2.09,2.09,0,0,1-.52-1.82,3,3,0,0,1,.46-1.46,1.9,1.9,0,0,0,.38-0.78c0-.61-1.52-0.86-2-0.34-0.3.29-.29,0.44,0.1,1.39a1.65,1.65,0,0,1-.57,2,7.87,7.87,0,0,1-6.17,1.78c-1.82-.31-4.36-1.77-4.91-2.81a4.42,4.42,0,0,1,0-3.07c0.3-.63.3-0.64-0.11-1a1,1,0,0,0-1.47,0c-0.39.31-.4,0.37-0.18,0.92,0.13,0.32.32,0.88,0.42,1.25,0.38,1.36-.63,2.79-2.76,3.9-1.57.82-4.59,0.74-5.86-.16l-0.79-.56c-0.36-.26-0.4-0.26-0.4,0a2.14,2.14,0,0,0,.54.88c0.73,0.82,2.42,1.24,4.58,1.13a7.22,7.22,0,0,0,4.25-1.47,4,4,0,0,1,1.05-.59,4.88,4.88,0,0,1,1.16.62A11.73,11.73,0,0,0,108,25.34a9.12,9.12,0,0,0,6.1-.89l0.67-.29L116,25.38c1.82,1.81,2.76,2.22,5.59,2.46a7.73,7.73,0,0,0,2.84-.11c2.07-.51,1.75-0.61,3,0.87a7.27,7.27,0,0,0,5.86,2.57,8.52,8.52,0,0,0,4-1c0.74-.31.77-0.31,1.15,0a7.19,7.19,0,0,0,1.2.76l1.28,0.65A6.34,6.34,0,0,0,144.73,32.06Zm-18-2.73a1.37,1.37,0,0,0-.84-0.6c-0.64,0-1.2.21-1.13,0.41a5.68,5.68,0,0,0,2.3.87A1,1,0,0,0,126.77,29.33Zm-11.19-3.25c-0.53-.58-0.91-0.72-1.33-0.5-0.7.37-.09,0.79,1.24,0.85C115.91,26.45,115.91,26.44,115.58,26.08Zm-11.8-1a1.31,1.31,0,0,0-1.33-.63c-0.6.15-.57,0.59,0,0.68C103.42,25.23,103.78,25.22,103.78,25ZM91.16,19.57c-0.8-.64-0.94,0-0.22,1.14l0.49,0.74,0.06-.79A1,1,0,0,0,91.16,19.57Zm57.44-8.83a0.36,0.36,0,0,1,.34,0c0.14,0.06.1,0.1-.11,0.11S148.54,10.8,148.6,10.74Z"/><path id="path3775" class="cls-10" d="M79.27,88.6A5.4,5.4,0,0,0,78.11,87m-5.57-6.93a5.07,5.07,0,0,1,1.26-.55A5.21,5.21,0,0,0,75.06,79a4.85,4.85,0,0,1,1.33-.53c0.4,0,.86.48,1.68,1.75L79.87,83a91,91,0,0,1,8,15.87l0.65,1.93m-0.79-.35a84.51,84.51,0,0,0-10.2-19.85c-0.83-1.23-1-1.45-1.46-1.45a2,2,0,0,0-1.42.87c0,0.08.8,1.33,1.78,2.79s1.78,2.71,1.78,2.79a3,3,0,0,0,.42.75m23,10.26L101,93.29c-0.14-.76-0.38-1.87-0.54-2.45s-0.36-1.47-.45-1.95c-0.16-.81-2.08-6.89-2.85-9a8.27,8.27,0,0,1-.34-1.06,1.89,1.89,0,0,1,.76-0.48,4.78,4.78,0,0,1,2.32-.31,10.22,10.22,0,0,0,3.29-.42c0.94-.25,2-0.49,2.23-0.54a2.94,2.94,0,0,0,1.15-.67,11.62,11.62,0,0,1,3-1.8,3.49,3.49,0,0,0,1.07-.77,3.34,3.34,0,0,1,.92-0.73A19.1,19.1,0,0,0,114,71a13.76,13.76,0,0,1,2.1-1.83,1.07,1.07,0,0,1,.55.36,5.38,5.38,0,0,0,3,1.17c1.46,0.14,1.53.31,0.71,1.83A27.3,27.3,0,0,1,114,80.2a32.3,32.3,0,0,1-9.36,5.26,4,4,0,0,0-1.46.65,8,8,0,0,0,.55,2.71c0.14,0.13,1.23-.21,3.4-1.06a33.58,33.58,0,0,0,6.35-3.45l1.6-1.11a11.26,11.26,0,0,0,1.31-1.06,7.56,7.56,0,0,1,.8-0.71,24.77,24.77,0,0,0,3-3.29c0.24-.35.66-1,0.94-1.36s0.73-1.08,1-1.52a2,2,0,0,1,1.06-1c0.4-.13,3.49-0.16,9.8-0.11l13.13,0.09c4,0,5.25.12,5.36,0.46a16.56,16.56,0,0,1-1.95,2.54A66.63,66.63,0,0,0,145.14,83l-0.84,1.19a4.61,4.61,0,0,0-.54.87,3.47,3.47,0,0,1-.42.74,60.11,60.11,0,0,0-4,7.47,3.65,3.65,0,0,1-.36.88,46.06,46.06,0,0,0-2.79,7.88M103.49,91.7c-0.15-.67-0.41-2-0.6-3a56,56,0,0,0-2.61-9.07c-0.45-1-.46-1-1.22-1-1.45,0-1.56.2-1,1.78,0.72,2,2.52,7.94,3,10m33.12,15.8c0-.51,0-0.53-1-0.64a12.52,12.52,0,0,0-3.71,0c-0.2.12-.1,0.35,0.44,1.09m4.2-2.62a0.81,0.81,0,0,0,.76-0.67c0.33-.77.35-1.29,0-1.29a4.33,4.33,0,0,0-1.13.6c-1.39.93-1.57,0.91-2.83-.27s-1.33-1.51.59-2.62a2.84,2.84,0,0,0,.93-0.7A1.88,1.88,0,0,0,131.5,99c-1.24,0-1.2,0-2.13,2.57-0.7,2-.68,2.39.17,2.51A46.06,46.06,0,0,0,134.2,104.09Zm1.65-3.8a2.72,2.72,0,0,0,.17-1.14c-0.17-.26-2.58-0.23-2.58,0a8.63,8.63,0,0,0,2,2.07A2.37,2.37,0,0,0,135.86,100.29Zm1-3a2.75,2.75,0,0,0,.17-0.8c0-.32-0.12-0.29-1.35.36-0.74.39-1.38,0.72-1.43,0.72a9,9,0,0,1-1.05-.9c-1.31-1.22-1.28-1.5.19-2.35a4.43,4.43,0,0,0,1.15-.81c0-.25-1.72-0.17-1.93.09A24.92,24.92,0,0,0,131,97.51c0,0.19.59,0.23,2.85,0.23h2.85Zm-29.84-2a67.18,67.18,0,0,0,7.82-3.87,46.25,46.25,0,0,0,10.59-9l1.15-1.36,5.78,0,5.78,0,1.25-1.93c1.72-2.65,2.45-3.95,2.33-4.14s-4-.16-9.3-0.16h-9.2l-0.36.39a8.79,8.79,0,0,0-.82,1.19,27.1,27.1,0,0,1-6.86,7.33,46.26,46.26,0,0,1-8.1,4.66c-2.64,1.07-2.75,1.13-2.75,1.41a47.52,47.52,0,0,0,1.11,5.83C105.64,95.87,105.42,95.91,107,95.31Zm-0.59-1.59c-1.45-.82-1.5-0.9-1.07-2l0.59-1.49c0.28-.73.57-0.71,1.78,0.09,1,0.64,1,.68,1,1.56,0.07,1.19-.4,2.24-1,2.28A3.24,3.24,0,0,1,106.39,93.73Zm4.5-2.27-0.8-.31,0-1.36a9,9,0,0,1,.24-2c0.2-.61.22-0.62,0.94-0.51a7.54,7.54,0,0,1,1.51.46l0.79,0.34-0.09,1.53a10.87,10.87,0,0,1-.22,1.84C113.12,91.88,112,91.87,110.89,91.46Zm5-3.11c-1.22-.38-1.29-0.5-1-1.84,0.43-2,.82-2.4,2.14-2,1.13,0.33,1.34.55,1.34,1.36a6.46,6.46,0,0,1-.58,2.55C117.55,88.69,116.89,88.67,115.87,88.35Zm4.62-3.77c-1.2-.23-1.3-0.41-1.28-2.27a5.56,5.56,0,0,1,.22-1.85c0.48-.56,2.75-0.1,3.13.64a7.17,7.17,0,0,1,0,3.34C122.41,84.81,121.85,84.84,120.49,84.58Zm4.28-4.4a4.26,4.26,0,0,1-1.44-1.09,9.84,9.84,0,0,1,.33-3.26c0.25-.49,1-0.37,2.11.36,1.41,0.89,1.56,1.24,1.28,3s-0.32,1.77-.68,1.76A7.54,7.54,0,0,1,124.78,80.18Zm4.67-.69c-1.23-1.15-1.25-1.51-.15-2.79l1.06-1.26a0.82,0.82,0,0,1,.41-0.31,9.24,9.24,0,0,1,2.33,2.94,4.45,4.45,0,0,1-2.26,2.32A3,3,0,0,1,129.44,79.49Zm6.65,0.68a5.51,5.51,0,0,1-1.57-2.27c0-.75,1.76-2.77,2.42-2.77a2,2,0,0,1,1.08.77c0.9,1,1.19,1.57,1.06,2.07a10.08,10.08,0,0,1-2.59,2.42A1,1,0,0,1,136.09,80.17Zm1.78,14.44a10.81,10.81,0,0,0,.38-1.14,4.57,4.57,0,0,0-1.42-.11,5.93,5.93,0,0,0-1.42.09,7.88,7.88,0,0,0,.89,1,5,5,0,0,1,.89,1.05,0.16,0.16,0,0,0,.15.16A2.62,2.62,0,0,0,137.87,94.62ZM140,90a9.76,9.76,0,0,0,1-2.28c-0.16-.25-2.57-0.22-2.57,0a2.29,2.29,0,0,0,.44.78,5.21,5.21,0,0,1,.63,1c0.16,0.42.11,0.53-.41,1a7.86,7.86,0,0,1-1.43,1l-0.83.43-0.65-.69a5.33,5.33,0,0,1-1.3-1.95,4,4,0,0,1,1.16-.92,2.48,2.48,0,0,0,1.06-.91,1.8,1.8,0,0,0-1.48,0,20.24,20.24,0,0,0-2.16,4.26c0,0.3.19,0.33,2.71,0.32h2.71Zm-0.64-3.77c0.26-.08.22-0.2-0.3-0.87a5.59,5.59,0,0,1-.72-1.16c-0.13-.4-0.07-0.47,1.13-1.37l0.47-.36-0.79,0-0.79,0-0.94,1.57c-1,1.64-1.09,1.94-.72,2.07A10.86,10.86,0,0,0,139.35,86.25Zm3.7-1.69a7.31,7.31,0,0,0,1-1.88c-0.06-.32-2.11-0.38-2.22-0.07a1.29,1.29,0,0,0,.38.73,1,1,0,0,1-.19,1.74c-1.55,1.19-1.49,1.09-.74,1.1S142,86.12,143,84.55Zm-38.62,0c0.58-.24.63-0.31,0.55-0.83a38.24,38.24,0,0,0-1.6-5.18,0.76,0.76,0,0,0-.73-0.12c-1,.21-1.17.28-1.17,0.68a54.24,54.24,0,0,0,1.69,5.49C103.26,84.84,103.65,84.83,104.43,84.51Zm2.91-1.11,0.4-.32L106.8,80.4a12.62,12.62,0,0,0-1.19-2.77c-0.42-.16-1.16.27-1,0.6,0.06,0.16.28,0.88,0.48,1.62a23.65,23.65,0,0,0,1.07,3.57C106.33,83.81,106.84,83.81,107.34,83.4Zm38.15-2.61a9.19,9.19,0,0,0,1-1.3c0.37-.54,1.34-1.75,2.15-2.68a7.48,7.48,0,0,0,1.37-1.86,15.32,15.32,0,0,0-3.2-.17c-2.89,0-3.12,0-3.46.36a44,44,0,0,0-3.72,5.66c0,0.26.31,0.29,2.73,0.29S145.19,81,145.5,80.78Zm-3-1.15a0.56,0.56,0,0,1-.39-0.57,16,16,0,0,1,2.36-3.46c0.43-.26,2.65,0,2.78.36s-0.55,1.59-1.67,2.82c-0.94,1-1,1.08-1.81,1.08A3.48,3.48,0,0,1,142.51,79.63Zm1.16,10.74a12.75,12.75,0,0,0,.79-1.31c0-.2,3.14-4.81,4.33-6.35l1.62-2.11c0.58-.77,3.54-4.28,4.19-5l1.76-1.93c0.64-.7,1.54-1.63,2-2.06l0.85-.78,2.57,0M160.7,73c1.57-1.36,1.56-1.6-.05-1.45a10.76,10.76,0,0,0-1.47.2c-0.33.13-5.42,5.52-6.61,7-2,2.53-5,6.5-5.74,7.62m-9.59-45.09a1.62,1.62,0,0,0-.74,0,14.19,14.19,0,0,1-3.71-.64,11,11,0,0,0-1.72-.33,2.88,2.88,0,0,1-.84-0.15c-0.22-.08-0.89-0.29-1.47-0.47-1.12-.33-5.36-1.91-7-2.62a56.91,56.91,0,0,0-15.88-3.57,81.58,81.58,0,0,0-9.47.25c-1,.12-1.13.09-1.55-0.33a1.44,1.44,0,0,1-.46-1.24,1.39,1.39,0,0,0-.79-1.43c-1-.78-1.07-1.08-0.81-2.18L93,27.67,91.3,24.53c-0.92-1.72-2-3.8-2.44-4.62-1.32-2.56-2.95-5.65-3.62-6.87a12.4,12.4,0,0,1-.65-1.27,1.2,1.2,0,0,1,.65-0.1c0.36,0,.6.05,0.53,0.12A29.81,29.81,0,0,0,87.92,16a4.1,4.1,0,0,0,1.09.09c1.51,0,2.18.59,2.76,2.41,0.08,0.25.31,0.31,1.19,0.31a2.12,2.12,0,0,1,2.36,1.38,2.06,2.06,0,0,1-.81,2.56c-0.64.54-.7,0.66-0.48,0.86,0.71,0.66,3.67.68,4.93,0,0.63-.32.75-0.63,0.24-0.63a2.77,2.77,0,0,1-1.1-.67,1.79,1.79,0,0,1-.84-1.71c-0.12-1.69.42-2.46,1.88-2.7l0.65-.1-0.06-1a2.44,2.44,0,0,1,1.17-2.51,2.82,2.82,0,0,1,4.26,3.1c-0.12.44-.08,0.49,0.62,0.68,1.64,0.44,2.32,1.48,1.92,2.93a2.39,2.39,0,0,1-2.23,1.61c-1.55,0,.11,1.12,2.62,1.76,1.4,0.36,4.43,0,4.12-.55a2.36,2.36,0,0,0-.67-0.42,2.33,2.33,0,0,1-.93-3.15c0.32-.75.82-1,2.06-1.14,0.95-.09,1-0.11.92-0.59a2.81,2.81,0,0,1,2.13-2.76,4.14,4.14,0,0,1,2.59.47,2.38,2.38,0,0,1,.73,3.21c-0.41.67-.42,0.65,0.72,1.27a1.91,1.91,0,0,1,.9,1.93,1.46,1.46,0,0,1-.64,1.31,3.09,3.09,0,0,1-1.16.7c-0.76.15-.76,0.32,0,0.88A7.2,7.2,0,0,0,122.11,27c0.86,0.08,2.46-.18,2.45-0.39a1.72,1.72,0,0,0-.56-0.47A2.34,2.34,0,0,1,122.73,24c0-1.52.9-2.58,2.15-2.55,0.76,0,.93-0.15.93-1,0-1.23,1.1-2.22,2.69-2.43a3.32,3.32,0,0,1,2.91,1.47A3.05,3.05,0,0,1,131,23c-0.27.36-.26,0.39,0.2,0.61a2.17,2.17,0,0,1,1.23,2.13,2.34,2.34,0,0,1-1.63,2.35,1.2,1.2,0,0,0-.72.49c0.1,0.37,2.46,1.38,3.39,1.45s3-.24,3-0.51a1,1,0,0,0-.58-0.41c-1.53-.63-2.18-1.64-1.93-3a2.18,2.18,0,0,1,2.44-1.94l0.6,0.11V23.47a2.87,2.87,0,0,1,3.11-3,2.94,2.94,0,0,1,2.1,4.17c-0.23.44-.24,0.57-0.05,0.63a2.58,2.58,0,0,1,1.25,1.58A2.38,2.38,0,0,1,141.67,30a1.38,1.38,0,0,0-.75.23c0,0.23,1.5.73,2.5,0.83a3,3,0,0,0,2-.38,6.58,6.58,0,0,0,1-.53,5.6,5.6,0,0,0-.62-0.67,1.57,1.57,0,0,1-.62-1.46,2,2,0,0,1,2.29-2.31c0.6,0.05.63,0,.85-0.74a3.26,3.26,0,0,1,2.06-2.29c1-.26,1.06-0.32,2-2.06,0.46-.83,1.38-2.45,2-3.58s1.21-2.11,1.21-2.15a15.24,15.24,0,0,1,.72-1.35,7.61,7.61,0,0,0,.75-1.57c0-.25.19-0.31,0.87-0.31h0.85l-0.55.92-0.7,1.18c-0.09.14-.63,1.13-1.21,2.19l-1.49,2.72-1,1.75c-0.29.53-.7,1.24-0.9,1.58a6.31,6.31,0,0,0-.56,1.34,12.34,12.34,0,0,1-2.15,3.77,7.58,7.58,0,0,0-1,1.33,7.64,7.64,0,0,1-.55.92,2.5,2.5,0,0,0-.34.7,2.39,2.39,0,0,1-.35.7,5.29,5.29,0,0,0-.53,1,7.71,7.71,0,0,1-.83,1.48c-0.5.67-.51,0.71-0.22,1.13a2.24,2.24,0,0,1,0,2.26c-0.3.33-.3,0.39,0,0.89a2.39,2.39,0,0,1-.87,3.13,5.64,5.64,0,0,1-2.62.57A26.37,26.37,0,0,1,137.24,41.25ZM139,33c-0.8-.68-1.24-0.73-2.39-0.27-1.5.6-1.08,0.78,2,.85l1.07,0Zm5.68,0.1c0.71-.16,1.55-0.9,1.17-1a2.77,2.77,0,0,0-1,.24c-2.21.83-6.13-.83-6.13-2.61a4.11,4.11,0,0,1,1-2.53c0.79-.73.49-1.61-0.55-1.61-0.8,0-1,.35-0.88,1.33a6.28,6.28,0,0,1-.49,3,2.48,2.48,0,0,1-.92.79c-0.61.32-1,.38-2.77,0.38-2,0-2.08,0-3.41-.66-1.75-.86-3.28-2.21-3.44-3a3.07,3.07,0,0,1,1-2.7c0.78-.75.82-0.89,0.42-1.29a1.8,1.8,0,0,0-1.79-.06,4.62,4.62,0,0,0-.16,1.36,3.44,3.44,0,0,1-2.66,3.49,7.72,7.72,0,0,1-3.74-.09,9.9,9.9,0,0,1-3.78-3.09,2.09,2.09,0,0,1-.52-1.82,3,3,0,0,1,.46-1.46,1.9,1.9,0,0,0,.38-0.78c0-.61-1.52-0.86-2-0.34-0.3.29-.29,0.44,0.1,1.39a1.65,1.65,0,0,1-.57,2,7.87,7.87,0,0,1-6.17,1.78c-1.82-.31-4.36-1.77-4.91-2.81a4.42,4.42,0,0,1,0-3.07c0.3-.63.3-0.64-0.11-1a1,1,0,0,0-1.47,0c-0.39.31-.4,0.37-0.18,0.92,0.13,0.32.32,0.88,0.42,1.25,0.38,1.36-.63,2.79-2.76,3.9-1.57.82-4.59,0.74-5.86-.16l-0.79-.56c-0.36-.26-0.4-0.26-0.4,0a2.14,2.14,0,0,0,.54.88c0.73,0.82,2.42,1.24,4.58,1.13a7.22,7.22,0,0,0,4.25-1.47,4,4,0,0,1,1.05-.59,4.88,4.88,0,0,1,1.16.62A11.73,11.73,0,0,0,108,26.34a9.12,9.12,0,0,0,6.1-.89l0.67-.29L116,26.38c1.82,1.81,2.76,2.22,5.59,2.46a7.73,7.73,0,0,0,2.84-.11c2.07-.51,1.75-0.61,3,0.87a7.27,7.27,0,0,0,5.86,2.57,8.52,8.52,0,0,0,4-1c0.74-.31.77-0.31,1.15,0a7.19,7.19,0,0,0,1.2.76l1.28,0.65A6.34,6.34,0,0,0,144.73,33.06Zm-18-2.73a1.37,1.37,0,0,0-.84-0.6c-0.64,0-1.2.21-1.13,0.41a5.68,5.68,0,0,0,2.3.87A1,1,0,0,0,126.77,30.33Zm-11.19-3.25c-0.53-.58-0.91-0.72-1.33-0.5-0.7.37-.09,0.79,1.24,0.85C115.91,27.45,115.91,27.44,115.58,27.08Zm-11.8-1a1.31,1.31,0,0,0-1.33-.63c-0.6.15-.57,0.59,0,0.68C103.42,26.23,103.78,26.22,103.78,26ZM91.16,20.57c-0.8-.64-0.94,0-0.22,1.14l0.49,0.74,0.06-.79A1,1,0,0,0,91.16,20.57Zm57.44-8.83a0.36,0.36,0,0,1,.34,0c0.14,0.06.1,0.1-.11,0.11S148.54,11.8,148.6,11.74Z"/><path id="path3773" class="cls-11" d="M79.27,87.6A4.45,4.45,0,0,0,78,86m-5.49-6.91a5.07,5.07,0,0,1,1.26-.55A5.21,5.21,0,0,0,75.06,78a4.85,4.85,0,0,1,1.33-.53c0.4,0,.86.48,1.68,1.75L79.87,82a91,91,0,0,1,8,15.87l0.65,1.93m0.09,1.49c-0.15-.53-0.52-1.63-0.82-2.45l-1-2.67a96.1,96.1,0,0,0-4.58-9.51c-1.72-3-1.72-3-2.94-4.91-1.82-2.88-2.65-3.94-3.06-3.94a3.27,3.27,0,0,0-1.83,1A12.24,12.24,0,0,0,76,81.65c1.47,2.22,4,6.3,4,6.45s0.34,0.63.76,1.33m20.9,6.19L101,92.29c-0.14-.76-0.38-1.87-0.54-2.45s-0.36-1.47-.45-1.95c-0.16-.81-2.08-6.89-2.85-9a8.27,8.27,0,0,1-.34-1.06,1.89,1.89,0,0,1,.76-0.48,4.78,4.78,0,0,1,2.32-.31,10.22,10.22,0,0,0,3.29-.42c0.94-.25,2-0.49,2.23-0.54a2.94,2.94,0,0,0,1.15-.67,11.62,11.62,0,0,1,3-1.8,3.49,3.49,0,0,0,1.07-.77,3.34,3.34,0,0,1,.92-0.73A19.1,19.1,0,0,0,114,70a13.76,13.76,0,0,1,2.1-1.83,1.07,1.07,0,0,1,.55.36,5.38,5.38,0,0,0,3,1.17c1.46,0.14,1.53.31,0.71,1.83A27.3,27.3,0,0,1,114,79.2a32.24,32.24,0,0,1-9.45,5.28,3.69,3.69,0,0,0-1.37.63,8.06,8.06,0,0,0,.55,2.71c0.14,0.13,1.23-.21,3.4-1.06a33.58,33.58,0,0,0,6.35-3.45l1.6-1.11a11.26,11.26,0,0,0,1.31-1.06,7.56,7.56,0,0,1,.8-0.71,24.77,24.77,0,0,0,3-3.29c0.24-.35.66-1,0.94-1.36s0.73-1.08,1-1.52a2,2,0,0,1,1.06-1c0.4-.13,3.49-0.16,9.8-0.11l13.13,0.09c4,0,5.25.12,5.36,0.46a16.56,16.56,0,0,1-1.95,2.54A66.63,66.63,0,0,0,145.14,82l-0.84,1.19a4.61,4.61,0,0,0-.54.87,3.47,3.47,0,0,1-.42.74,60.11,60.11,0,0,0-4,7.47,3.65,3.65,0,0,1-.36.88,46.06,46.06,0,0,0-2.79,7.88m-30.95.44c-0.13-1.3-.26-2.64-0.29-3-0.05-.57-0.14-1.25-0.62-4.73-0.66-4.79-2.75-13.13-3.87-15.43l-0.47-1h-1a1.91,1.91,0,0,0-1.32.3c-0.32.31-.33,0.27,1.37,5.39a85.66,85.66,0,0,1,3.54,15.34m32.05,6.32c-0.1-.26-1.75-0.44-3.94-0.45-1.14,0-1.49.06-1.57,0.26s0.82,1.57,2.49,3.6m3.27-5a6.86,6.86,0,0,0,.91-2.34c0.59-2.16.66-2.7,0.38-2.87a22.55,22.55,0,0,0-2.85-.16c-2.26,0-2.74,0-3,.23a17.47,17.47,0,0,0-1.77,4.68c0,0.64.49,0.75,3.4,0.76C134.11,103.41,134.53,103.36,134.83,103.1Zm-3.65-1.85a5,5,0,0,1-.93-1.1,7.84,7.84,0,0,1,2.24-1.53l0.55-.28,1,1a5.54,5.54,0,0,1,1,1.18,7.89,7.89,0,0,1-2.64,1.65A3.65,3.65,0,0,1,131.18,101.25Zm5.61-4.38a22.11,22.11,0,0,0,1-2.3c0.64-1.63.78-2.14,0.62-2.33s-0.78-.24-3-0.2l-2.77,0-0.39.57a16.09,16.09,0,0,0-1,2.24c-0.53,1.35-.62,1.72-0.44,1.93S136.51,97.22,136.79,96.88Zm-3.61-1.55-0.88-.89,0.48-.38a15.52,15.52,0,0,1,1.31-.89c0.75-.46.87-0.49,1.23-0.26a4.71,4.71,0,0,1,1.62,1.9,12.34,12.34,0,0,1-2.68,1.42A4.36,4.36,0,0,1,133.18,95.33Zm-26.71-.54c0.87-.28,6.46-2.91,7.52-3.53a44.43,44.43,0,0,0,6.49-4.61,56,56,0,0,0,5.58-5.55l0.5-.66h5.65c5.62,0,5.66,0,6.09-.39a51.42,51.42,0,0,0,3.54-5.49c0.56-1.08.89-1-9.28-1.08l-9.24,0-0.63.54a2.06,2.06,0,0,0-.63.75,16,16,0,0,1-2.52,3.56A31,31,0,0,1,111.15,85,32.84,32.84,0,0,1,105,87.9a1.17,1.17,0,0,0-.93,1c0,0.11.15,0.75,0.26,1.43a37.34,37.34,0,0,0,.82,4.48C105.26,95,105.73,95,106.47,94.8Zm0-2.32a2.72,2.72,0,0,1-1-.85,2.64,2.64,0,0,1,.29-1,9,9,0,0,0,.46-1.24,0.69,0.69,0,0,1,.25-0.48,7.22,7.22,0,0,1,1.11.66c0.86,0.57,1,.73,1,1.3,0.06,0.75-.54,2.25-0.89,2.22A5.89,5.89,0,0,1,106.45,92.47Zm4.75-2.16c-1-.34-1.11-0.57-0.84-2.25s0.36-1.73,1.78-1.25l1.15,0.38-0.06,1.4a13.38,13.38,0,0,1-.15,1.71Q112.92,90.88,111.2,90.31Zm5.05-3.11a3.79,3.79,0,0,1-1.13-.41c-0.25-.25.19-2.42,0.59-2.91s0.36-.35,1.16-0.14c1.32,0.35,1.41.5,1.15,1.9-0.22,1.2-.47,1.83-0.69,1.8Zm4.44-3.85a3.83,3.83,0,0,1-1.13-.41,4.27,4.27,0,0,1-.12-1.69c0.07-1.73.21-1.91,1.31-1.75,1.33,0.2,1.58.41,1.73,1.45a6.8,6.8,0,0,1,0,1.75c-0.16.95-.32,1-1.79,0.65h0ZM124.92,79l-1.33-.75,0.05-1.35q0.08-2.22.61-2.22a6.79,6.79,0,0,1,1.45.81l1.22,0.81-0.12,1.52a5.11,5.11,0,0,1-.33,1.72C126.3,79.67,126,79.55,124.92,79Zm4.66-.7c-1.15-1.09-1.15-1.18.12-2.63a4.27,4.27,0,0,0,.73-1c0-.45.56,0,1.49,1.06,0.73,0.87,1,1.32.92,1.56a6.79,6.79,0,0,1-2.06,1.95A5.1,5.1,0,0,1,129.58,78.27Zm5.85-.22a1.85,1.85,0,0,1-.63-1.36,8.42,8.42,0,0,1,2-2.34c0.48-.18,2.27,2.1,2.07,2.63A9.27,9.27,0,0,1,136.42,79,3.11,3.11,0,0,1,135.43,78Zm3.43,13.33a16.54,16.54,0,0,0,2.37-4.68c0-.33-0.19-0.38-1.12-0.43-1.22-.06-2.22.08-2.22,0.32a5.13,5.13,0,0,0,.71,1.09,3.78,3.78,0,0,1,.71,1.23,4.52,4.52,0,0,1-2.09,1.64,0.85,0.85,0,0,1-.7-0.13,5.51,5.51,0,0,1-1.3-1.84,4,4,0,0,1,1.24-1,5.42,5.42,0,0,0,1.24-1c0-.28-1.35-0.57-1.89-0.4s-0.69.51-1.44,1.91c-1.18,2.21-1.45,3-1.1,3.25A29.59,29.59,0,0,0,138.87,91.38Zm3.37-6.12a6.14,6.14,0,0,0,.65-0.91c0.22-.36.67-1.07,1-1.56,0.92-1.35.8-1.54-1-1.6-1.34,0-1.46,0-1.46.28a2.37,2.37,0,0,0,.53,1c0.43,0.53.49,0.72,0.34,1A7,7,0,0,1,140,85a4.76,4.76,0,0,1-1.44-1.91,2.24,2.24,0,0,1,.89-0.88,2,2,0,0,0,.83-0.79,1.4,1.4,0,0,0-.87-0.24c-1.06-.07-1.47.3-2.54,2.29s-1.16,2.06,2.34,2C141.33,85.5,142,85.44,142.23,85.25ZM104.8,83.67c0.68-.27.71-0.49,0.24-1.93-0.18-.57-0.52-1.67-0.74-2.44-0.65-2.29-.62-2.25-1.74-2.13s-1.35.28-1.3,1.11a24.42,24.42,0,0,0,1.94,5.63C103.5,84.13,103.77,84.09,104.8,83.67Zm2.43-.89a1.74,1.74,0,0,0,.71-0.51,39.5,39.5,0,0,0-1.86-5.52c-0.34-.63-1.77-0.36-1.77.34A37.93,37.93,0,0,0,106,82.83C106.36,83.14,106.48,83.13,107.23,82.78Zm38.37-2.67a14.09,14.09,0,0,0,1.24-1.57,35.85,35.85,0,0,1,2.31-2.81c1.31-1.43,1.54-1.81,1.2-2a40.66,40.66,0,0,0-6.76-.1c-0.59.31-4.27,5.81-4.27,6.37a0.43,0.43,0,0,0,.22.37,25.58,25.58,0,0,0,3,.05C144.55,80.36,145.39,80.28,145.6,80.11Zm-3.2-1.87a10.4,10.4,0,0,1,2.27-3.42,4.49,4.49,0,0,1,2.39.21c0.14,0.23-.35,1-1.42,2.3l-1,1.18h-1.07C142.77,78.51,142.47,78.45,142.4,78.24Zm1.28,11.13a12.75,12.75,0,0,0,.79-1.31c0-.2,3.14-4.81,4.33-6.35l1.62-2.11c0.58-.77,3.54-4.28,4.19-5l1.76-1.93c0.64-.7,1.54-1.63,2-2.06l0.85-.78,2.57,0m-1.09,2.5c1.71-1.65,1.77-1.73,1.44-2a2.32,2.32,0,0,0-1.6-.14,7.28,7.28,0,0,0-1.53.26,101.09,101.09,0,0,0-7.49,8.15A82.59,82.59,0,0,0,144,89.38m-6.75-49.13a1.62,1.62,0,0,0-.74,0,14.19,14.19,0,0,1-3.71-.64,11,11,0,0,0-1.72-.33,2.88,2.88,0,0,1-.84-0.15c-0.22-.08-0.89-0.29-1.47-0.47-1.12-.33-5.36-1.91-7-2.62a56.91,56.91,0,0,0-15.88-3.57,81.58,81.58,0,0,0-9.47.25c-1,.12-1.13.09-1.55-0.33a1.44,1.44,0,0,1-.46-1.24,1.39,1.39,0,0,0-.79-1.43c-1-.78-1.07-1.08-0.81-2.18L93,26.67,91.3,23.53c-0.92-1.72-2-3.8-2.44-4.62-1.32-2.56-2.95-5.65-3.62-6.87a12.4,12.4,0,0,1-.65-1.27,0.49,0.49,0,0,1,.4-0.08c0.33,0,.59.4,1.55,2.32l1.15,2.31,1.15,0.09c1.64,0.13,2.06.47,2.58,2.1l0.19,0.61,1-.06A2.24,2.24,0,0,1,95,19.11a2.08,2.08,0,0,1-1.13,2.79c-0.76.29-.34,1,0.83,1.36a7.57,7.57,0,0,0,1.82.2A4.84,4.84,0,0,0,98.9,23c1.17-.52,1.55-1.06.75-1.06a2.7,2.7,0,0,1-2.26-2.51c0-1.28.59-1.91,2-2.14l0.69-.11-0.11-1a2.42,2.42,0,0,1,.94-2.52A2.55,2.55,0,0,1,105,15.48a2.41,2.41,0,0,1-.09,1.08c-0.24.46-.09,0.77,0.37,0.77a3.43,3.43,0,0,1,2.07,1,2.26,2.26,0,0,1-2.2,3.16c-0.41,0-.64.08-0.64,0.23,0,1,3.71,2.35,5.68,2.12,1.09-.13,2.49-0.66,2.49-0.94a1.67,1.67,0,0,0-.78-0.56,2.16,2.16,0,0,1-1.36-1.71,3.91,3.91,0,0,1,.29-1.08A1.9,1.9,0,0,1,113,18.42l0.84,0.05,0-.61a2.42,2.42,0,0,1,.92-2.2,2.08,2.08,0,0,1,1.76-.51c1.58,0,2.44.68,2.66,2a1.52,1.52,0,0,1-.36,1.25,3.05,3.05,0,0,0-.46.84,1.76,1.76,0,0,0,.81.53c2,0.87,1.53,3.34-.69,3.78-0.72.14-.76,0.37-0.19,1a6.86,6.86,0,0,0,5.84,1.52c0.85-.28,1-0.78.37-0.95a2.67,2.67,0,0,1-1-.74,1.6,1.6,0,0,1-.48-1.65c0.1-1.35.64-2,1.81-2s1.17-.15,1.17-0.95a2.54,2.54,0,0,1,2.82-2.45,2.65,2.65,0,0,1,2.46,3.77c-0.79,1.41-.77,1.35-0.4,1.56a5.52,5.52,0,0,1,.84.66,1.41,1.41,0,0,1,.5,1.29,2.2,2.2,0,0,1-1.62,2.31c-1.05.37-1.07,0.63-.07,1.3a6.42,6.42,0,0,0,4.14,1c1.55-.1,2.21-0.35,2.13-0.79a1,1,0,0,0-.67-0.46,3.88,3.88,0,0,1-1.31-.86,1.45,1.45,0,0,1-.61-1.65,1.67,1.67,0,0,1,.69-1.49,1.47,1.47,0,0,1,1.53-.43c1,0.1,1.19,0,.89-0.71-0.42-.92.69-2.68,1.89-3a2.4,2.4,0,0,1,2.69,1.2,2.58,2.58,0,0,1,.1,2.48c-0.4.76-.36,1,0.25,1.2,0.85,0.32,1.26,2.13.72,3.16a2.05,2.05,0,0,1-1.86,1c-1.16.14-1.07,0.38,0.36,0.94a4.86,4.86,0,0,0,2.68.54,5.26,5.26,0,0,0,2.61-1.25,0.75,0.75,0,0,0-.48-0.53,2.18,2.18,0,0,1-.21-3.27,2.54,2.54,0,0,1,1.92-.22c0.21,0.2.59-.29,0.59-0.75a5.58,5.58,0,0,1,1.11-2.12l1-.32,1-.32,2.9-5.15c1.6-2.83,2.9-5.29,2.9-5.46s0.15-.31.71-0.31h0.71l-0.55.92-0.7,1.18c-0.09.14-.63,1.13-1.21,2.19l-1.49,2.72-1,1.75c-0.29.53-.7,1.24-0.9,1.58a6.31,6.31,0,0,0-.56,1.34,12.34,12.34,0,0,1-2.15,3.77,7.58,7.58,0,0,0-1,1.33,7.64,7.64,0,0,1-.55.92,2.5,2.5,0,0,0-.34.7,2.39,2.39,0,0,1-.35.7,5.29,5.29,0,0,0-.53,1,7.71,7.71,0,0,1-.83,1.48c-0.5.67-.51,0.71-0.22,1.13a2.24,2.24,0,0,1,0,2.26c-0.3.33-.3,0.39,0,0.89a2.39,2.39,0,0,1-.87,3.13,5.64,5.64,0,0,1-2.62.57A26.37,26.37,0,0,1,137.24,40.25Zm2.51-7.43a0.42,0.42,0,0,0,.28-0.32,3.9,3.9,0,0,0-2-1.37c-0.69,0-2.76.76-2.76,1s0.32,0.48,1.94.61C139.45,32.94,139.44,32.94,139.74,32.83Zm5.92-.88a2,2,0,0,0,.61-0.73c0.21-.56-0.23-0.68-1.1-0.29-1.85.82-5.12-.11-6-1.7a2.73,2.73,0,0,1,.75-2.87c1-.94.7-1.86-0.6-2.11a0.92,0.92,0,0,0-1,.34,1,1,0,0,0-.29,1.39,4,4,0,0,1-.84,3.13,6.32,6.32,0,0,1-4.09.76c-2.1-.22-5.34-2.28-5.6-3.57a3,3,0,0,1,1-2.55c1-.76.73-1.71-0.55-1.94a1.35,1.35,0,0,0-1,.16c-0.38.25-.43,0.4-0.41,1.38a3.51,3.51,0,0,1-1.4,3.06c-0.6.45-.8,0.5-2.47,0.55a5,5,0,0,1-2.59-.29c-1.62-.72-3.88-3.15-3.88-4.17a4.25,4.25,0,0,1,.75-2,0.9,0.9,0,0,0,.21-0.75,1.78,1.78,0,0,0-1.77-.74,0.89,0.89,0,0,0-.89,1.19c0.38,1.82.36,1.94-.48,2.7-1.22,1.11-2.51,1.53-4.75,1.54-1.7,0-1.95,0-2.81-.48-3-1.54-3.84-3-2.87-4.87,0.45-.88.33-1.32-0.47-1.64a1.22,1.22,0,0,0-1.85,1,0.9,0.9,0,0,1-.4.75c-0.37.25-.38,0.28-0.07,0.4a0.37,0.37,0,0,0,.47-0.1c0.21-.33.53,0.36,0.53,1.13,0,1.15-.6,1.92-2.26,2.87a6,6,0,0,1-4.5.63c-2-.48-3.5-2-3.24-3.28a1.28,1.28,0,0,0-1.46-1.65c-0.41.16-.32,0.63,0.36,1.78,0.34,0.58.85,1.53,1.13,2.11a5.45,5.45,0,0,0,1.06,1.52,6.83,6.83,0,0,0,3.93.91,7.15,7.15,0,0,0,4.53-1.32l1.3-.86,0.8,0.53A11.81,11.81,0,0,0,108,25.59c2.12,0.43,3,.34,5.36-0.58l1.36-.52,1.15,1.16c1.68,1.69,2.94,2.23,5.67,2.42a8.41,8.41,0,0,0,4.26-.47,1,1,0,0,1,.89.54c1.61,1.78,2.23,2.26,3.63,2.79a6.45,6.45,0,0,0,3,.51,6.64,6.64,0,0,0,3.08-.6c1.2-.47,1.54-0.55,1.78-0.38a6.14,6.14,0,0,0,.74.42c0.24,0.12.82,0.44,1.27,0.71a6,6,0,0,0,3.67.76A3.13,3.13,0,0,0,145.66,31.95ZM127.5,30.31a2.21,2.21,0,0,0-.87-1.57c-0.44-.41-0.51-0.42-1.3-0.21-1.57.41-1.48,0.65,0.51,1.42C127.34,30.53,127.35,30.54,127.5,30.31Zm-11.28-3.72a2.85,2.85,0,0,0-1.45-1.37,1.27,1.27,0,0,0-1.22.72c0,0.22.22,0.37,0.76,0.51l0.93,0.26A0.85,0.85,0,0,0,116.22,26.59Zm-11.9-1.43A3.19,3.19,0,0,0,102.66,24a1.64,1.64,0,0,0-1.13.94C101.67,25.36,104.32,25.58,104.32,25.16Z"/><path id="path3771" class="cls-12" d="M79.27,87.6A4.45,4.45,0,0,0,78,86m3,5.49-8.49-12.4a5.07,5.07,0,0,1,1.26-.55A5.21,5.21,0,0,0,75.06,78a4.85,4.85,0,0,1,1.33-.53c0.4,0,.86.48,1.68,1.75L79.87,82a91,91,0,0,1,8,15.87l0.65,1.93m0.09,1.49c-0.15-.53-0.52-1.63-0.82-2.45l-1-2.67a96.1,96.1,0,0,0-4.58-9.51c-1.72-3-1.72-3-2.94-4.91-1.82-2.88-2.65-3.94-3.06-3.94a3.27,3.27,0,0,0-1.83,1A12.24,12.24,0,0,0,76,81.65c1.47,2.22,4,6.3,4,6.45s0.34,0.63.76,1.33m20.9,6.19L101,92.29c-0.14-.76-0.38-1.87-0.54-2.45s-0.36-1.47-.45-1.95c-0.16-.81-2.08-6.89-2.85-9a8.27,8.27,0,0,1-.34-1.06,1.89,1.89,0,0,1,.76-0.48,4.78,4.78,0,0,1,2.32-.31,10.22,10.22,0,0,0,3.29-.42c0.94-.25,2-0.49,2.23-0.54a2.94,2.94,0,0,0,1.15-.67,11.62,11.62,0,0,1,3-1.8,3.49,3.49,0,0,0,1.07-.77,3.34,3.34,0,0,1,.92-0.73A19.1,19.1,0,0,0,114,70a13.76,13.76,0,0,1,2.1-1.83,1.07,1.07,0,0,1,.55.36,5.38,5.38,0,0,0,3,1.17c1.46,0.14,1.53.31,0.71,1.83A27.3,27.3,0,0,1,114,79.2a32.24,32.24,0,0,1-9.45,5.28,3.69,3.69,0,0,0-1.37.63,8.06,8.06,0,0,0,.55,2.71c0.14,0.13,1.23-.21,3.4-1.06a33.58,33.58,0,0,0,6.35-3.45l1.6-1.11a11.26,11.26,0,0,0,1.31-1.06,7.56,7.56,0,0,1,.8-0.71,24.77,24.77,0,0,0,3-3.29c0.24-.35.66-1,0.94-1.36s0.73-1.08,1-1.52a2,2,0,0,1,1.06-1c0.4-.13,3.49-0.16,9.8-0.11l13.13,0.09c4,0,5.25.12,5.36,0.46a16.56,16.56,0,0,1-1.95,2.54A66.63,66.63,0,0,0,145.14,82l-0.84,1.19a4.61,4.61,0,0,0-.54.87,3.47,3.47,0,0,1-.42.74,60.11,60.11,0,0,0-4,7.47,3.65,3.65,0,0,1-.36.88,46.06,46.06,0,0,0-2.79,7.88m-29.25,2.13c-0.13-1.3-.26-2.64-0.29-3-0.05-.57-0.14-1.25-0.62-4.73-0.66-4.79-2.75-13.13-3.87-15.43l-0.47-1h-1a1.91,1.91,0,0,0-1.32.3c-0.32.31-.33,0.27,1.37,5.39a85.66,85.66,0,0,1,3.54,15.34m30.35,4.63c-0.1-.26-1.75-0.44-3.94-0.45-1.14,0-1.49.06-1.57,0.26s0.82,1.57,2.49,3.6m3.27-5a6.86,6.86,0,0,0,.91-2.34c0.59-2.16.66-2.7,0.38-2.87a22.55,22.55,0,0,0-2.85-.16c-2.26,0-2.74,0-3,.23a17.47,17.47,0,0,0-1.77,4.68c0,0.64.49,0.75,3.4,0.76C134.11,103.41,134.53,103.36,134.83,103.1Zm-3.65-1.85a5,5,0,0,1-.93-1.1,7.84,7.84,0,0,1,2.24-1.53l0.55-.28,1,1a5.54,5.54,0,0,1,1,1.18,7.89,7.89,0,0,1-2.64,1.65A3.65,3.65,0,0,1,131.18,101.25Zm-3.71,1.57a10.26,10.26,0,0,0,.92-2.46c0.36-1.24.89-2.81,1.19-3.51s0.68-1.66.86-2.15a12.06,12.06,0,0,1,.5-1.23c0.1-.18.76-1.55,1.46-3,1.22-2.59,3.11-6.16,4-7.59a2.08,2.08,0,0,0,.37-1.05c-0.05-.38-0.07-0.38-5-0.43l-4.94,0L126.3,82c-0.3.36-1.64,1.71-3,3a48.36,48.36,0,0,1-7.21,5.85,85.42,85.42,0,0,1-8.88,4.53,7.12,7.12,0,0,0-1.56.76,27.06,27.06,0,0,0,.74,6.66C106.68,103.07,127.08,103.12,127.47,102.83Zm9.32-6a22.11,22.11,0,0,0,1-2.3c0.64-1.63.78-2.14,0.62-2.33s-0.78-.24-3-0.2l-2.77,0-0.39.57a16.09,16.09,0,0,0-1,2.24c-0.53,1.35-.62,1.72-0.44,1.93S136.51,97.22,136.79,96.88Zm-3.61-1.55-0.88-.89,0.48-.38a15.52,15.52,0,0,1,1.31-.89c0.75-.46.87-0.49,1.23-0.26a4.71,4.71,0,0,1,1.62,1.9,12.34,12.34,0,0,1-2.68,1.42A4.36,4.36,0,0,1,133.18,95.33Zm-26.71-.54c0.87-.28,6.46-2.91,7.52-3.53a44.43,44.43,0,0,0,6.49-4.61,56,56,0,0,0,5.58-5.55l0.5-.66h5.65c5.62,0,5.66,0,6.09-.39a51.42,51.42,0,0,0,3.54-5.49c0.56-1.08.89-1-9.28-1.08l-9.24,0-0.63.54a2.06,2.06,0,0,0-.63.75,16,16,0,0,1-2.52,3.56A31,31,0,0,1,111.15,85,32.84,32.84,0,0,1,105,87.9a1.17,1.17,0,0,0-.93,1c0,0.11.15,0.75,0.26,1.43a37.34,37.34,0,0,0,.82,4.48C105.26,95,105.73,95,106.47,94.8Zm0-2.32a2.72,2.72,0,0,1-1-.85,2.64,2.64,0,0,1,.29-1,9,9,0,0,0,.46-1.24,0.69,0.69,0,0,1,.25-0.48,7.22,7.22,0,0,1,1.11.66c0.86,0.57,1,.73,1,1.3,0.06,0.75-.54,2.25-0.89,2.22A5.89,5.89,0,0,1,106.45,92.47Zm4.75-2.16c-1-.34-1.11-0.57-0.84-2.25s0.36-1.73,1.78-1.25l1.15,0.38-0.06,1.4a13.38,13.38,0,0,1-.15,1.71Q112.92,90.88,111.2,90.31Zm5.05-3.11a3.79,3.79,0,0,1-1.13-.41c-0.25-.25.19-2.42,0.59-2.91s0.36-.35,1.16-0.14c1.32,0.35,1.41.5,1.15,1.9-0.22,1.2-.47,1.83-0.69,1.8Zm4.44-3.85a3.83,3.83,0,0,1-1.13-.41,4.27,4.27,0,0,1-.12-1.69c0.07-1.73.21-1.91,1.31-1.75,1.33,0.2,1.58.41,1.73,1.45a6.8,6.8,0,0,1,0,1.75c-0.16.95-.32,1-1.79,0.65h0ZM124.92,79l-1.33-.75,0.05-1.35q0.08-2.22.61-2.22a6.79,6.79,0,0,1,1.45.81l1.22,0.81-0.12,1.52a5.11,5.11,0,0,1-.33,1.72C126.3,79.67,126,79.55,124.92,79Zm4.66-.7c-1.15-1.09-1.15-1.18.12-2.63a4.27,4.27,0,0,0,.73-1c0-.45.56,0,1.49,1.06,0.73,0.87,1,1.32.92,1.56a6.79,6.79,0,0,1-2.06,1.95A5.1,5.1,0,0,1,129.58,78.27Zm5.85-.22a1.85,1.85,0,0,1-.63-1.36,8.42,8.42,0,0,1,2-2.34c0.48-.18,2.27,2.1,2.07,2.63A9.27,9.27,0,0,1,136.42,79,3.11,3.11,0,0,1,135.43,78Zm3.43,13.33a16.54,16.54,0,0,0,2.37-4.68c0-.33-0.19-0.38-1.12-0.43-1.22-.06-2.22.08-2.22,0.32a5.13,5.13,0,0,0,.71,1.09,3.78,3.78,0,0,1,.71,1.23,4.52,4.52,0,0,1-2.09,1.64,0.85,0.85,0,0,1-.7-0.13,5.51,5.51,0,0,1-1.3-1.84,4,4,0,0,1,1.24-1,5.42,5.42,0,0,0,1.24-1c0-.28-1.35-0.57-1.89-0.4s-0.69.51-1.44,1.91c-1.18,2.21-1.45,3-1.1,3.25A29.59,29.59,0,0,0,138.87,91.38Zm3.37-6.12a6.14,6.14,0,0,0,.65-0.91c0.22-.36.67-1.07,1-1.56,0.92-1.35.8-1.54-1-1.6-1.34,0-1.46,0-1.46.28a2.37,2.37,0,0,0,.53,1c0.43,0.53.49,0.72,0.34,1A7,7,0,0,1,140,85a4.76,4.76,0,0,1-1.44-1.91,2.24,2.24,0,0,1,.89-0.88,2,2,0,0,0,.83-0.79,1.4,1.4,0,0,0-.87-0.24c-1.06-.07-1.47.3-2.54,2.29s-1.16,2.06,2.34,2C141.33,85.5,142,85.44,142.23,85.25ZM104.8,83.67c0.68-.27.71-0.49,0.24-1.93-0.18-.57-0.52-1.67-0.74-2.44-0.65-2.29-.62-2.25-1.74-2.13s-1.35.28-1.3,1.11a24.42,24.42,0,0,0,1.94,5.63C103.5,84.13,103.77,84.09,104.8,83.67Zm2.43-.89a1.74,1.74,0,0,0,.71-0.51,39.5,39.5,0,0,0-1.86-5.52c-0.34-.63-1.77-0.36-1.77.34A37.93,37.93,0,0,0,106,82.83C106.36,83.14,106.48,83.13,107.23,82.78Zm4-2.45A28,28,0,0,0,119,72.51c1-1.51,1-2,.08-2.24a13.6,13.6,0,0,1-1.78-.8,6.27,6.27,0,0,0-1.36-.59,4.22,4.22,0,0,0-1.19,1,31.28,31.28,0,0,1-6.2,4.72,3.72,3.72,0,0,0-1.71,1.25,4.2,4.2,0,0,0,.34,1.58c0.24,0.65.62,1.74,0.84,2.42,0.45,1.39.79,1.86,1.22,1.72A22.3,22.3,0,0,0,111.26,80.33Zm34.34-.22a14.09,14.09,0,0,0,1.24-1.57,35.85,35.85,0,0,1,2.31-2.81c1.31-1.43,1.54-1.81,1.2-2a40.66,40.66,0,0,0-6.76-.1c-0.59.31-4.27,5.81-4.27,6.37a0.43,0.43,0,0,0,.22.37,25.58,25.58,0,0,0,3,.05C144.55,80.36,145.39,80.28,145.6,80.11Zm-3.2-1.87a10.4,10.4,0,0,1,2.27-3.42,4.49,4.49,0,0,1,2.39.21c0.14,0.23-.35,1-1.42,2.3l-1,1.18h-1.07C142.77,78.51,142.47,78.45,142.4,78.24Zm1.28,11.13a12.75,12.75,0,0,0,.79-1.31c0-.2,3.14-4.81,4.33-6.35l1.62-2.11c0.58-.77,3.54-4.28,4.19-5l1.76-1.93c0.64-.7,1.54-1.63,2-2.06h0l3.43-.81m-1.09,2.5c1.71-1.65,1.77-1.73,1.44-2a2.32,2.32,0,0,0-1.6-.14,7.28,7.28,0,0,0-1.53.26,101.09,101.09,0,0,0-7.49,8.15A82.59,82.59,0,0,0,144,89.38m-6.75-49.13a1.62,1.62,0,0,0-.74,0,14.19,14.19,0,0,1-3.71-.64,11,11,0,0,0-1.72-.33,2.88,2.88,0,0,1-.84-0.15c-0.22-.08-0.89-0.29-1.47-0.47-1.12-.33-5.36-1.91-7-2.62a56.91,56.91,0,0,0-15.88-3.57,81.58,81.58,0,0,0-9.47.25c-1,.12-1.13.09-1.55-0.33a1.44,1.44,0,0,1-.46-1.24,1.39,1.39,0,0,0-.79-1.43c-1-.78-1.07-1.08-0.81-2.18L93,26.67,91.3,23.53c-0.92-1.72-2-3.8-2.44-4.62-1.32-2.56-2.95-5.65-3.62-6.87a12.4,12.4,0,0,1-.65-1.27,0.49,0.49,0,0,1,.4-0.08c0.33,0,.59.4,1.55,2.32l1.15,2.31,1.15,0.09c1.64,0.13,2.06.47,2.58,2.1l0.19,0.61,1-.06A2.24,2.24,0,0,1,95,19.11a2.08,2.08,0,0,1-1.13,2.79c-0.76.29-.34,1,0.83,1.36a7.57,7.57,0,0,0,1.82.2A4.84,4.84,0,0,0,98.9,23c1.17-.52,1.55-1.06.75-1.06a2.7,2.7,0,0,1-2.26-2.51c0-1.28.59-1.91,2-2.14l0.69-.11-0.11-1a2.42,2.42,0,0,1,.94-2.52A2.55,2.55,0,0,1,105,15.48a2.41,2.41,0,0,1-.09,1.08c-0.24.46-.09,0.77,0.37,0.77a3.43,3.43,0,0,1,2.07,1,2.26,2.26,0,0,1-2.2,3.16c-0.41,0-.64.08-0.64,0.23,0,1,3.71,2.35,5.68,2.12,1.09-.13,2.49-0.66,2.49-0.94a1.67,1.67,0,0,0-.78-0.56,2.16,2.16,0,0,1-1.36-1.71,3.91,3.91,0,0,1,.29-1.08A1.9,1.9,0,0,1,113,18.42l0.84,0.05,0-.61a2.42,2.42,0,0,1,.92-2.2,2.08,2.08,0,0,1,1.76-.51c1.58,0,2.44.68,2.66,2a1.52,1.52,0,0,1-.36,1.25,3.05,3.05,0,0,0-.46.84,1.76,1.76,0,0,0,.81.53c2,0.87,1.53,3.34-.69,3.78-0.72.14-.76,0.37-0.19,1a6.86,6.86,0,0,0,5.84,1.52c0.85-.28,1-0.78.37-0.95a2.67,2.67,0,0,1-1-.74,1.6,1.6,0,0,1-.48-1.65c0.1-1.35.64-2,1.81-2s1.17-.15,1.17-0.95a2.54,2.54,0,0,1,2.82-2.45,2.65,2.65,0,0,1,2.46,3.77c-0.79,1.41-.77,1.35-0.4,1.56a5.52,5.52,0,0,1,.84.66,1.41,1.41,0,0,1,.5,1.29,2.2,2.2,0,0,1-1.62,2.31c-1.05.37-1.07,0.63-.07,1.3a6.42,6.42,0,0,0,4.14,1c1.55-.1,2.21-0.35,2.13-0.79a1,1,0,0,0-.67-0.46,3.88,3.88,0,0,1-1.31-.86,1.45,1.45,0,0,1-.61-1.65,1.67,1.67,0,0,1,.69-1.49,1.47,1.47,0,0,1,1.53-.43c1,0.1,1.19,0,.89-0.71-0.42-.92.69-2.68,1.89-3a2.4,2.4,0,0,1,2.69,1.2,2.58,2.58,0,0,1,.1,2.48c-0.4.76-.36,1,0.25,1.2,0.85,0.32,1.26,2.13.72,3.16a2.05,2.05,0,0,1-1.86,1c-1.16.14-1.07,0.38,0.36,0.94a4.86,4.86,0,0,0,2.68.54,5.26,5.26,0,0,0,2.61-1.25,0.75,0.75,0,0,0-.48-0.53,2.18,2.18,0,0,1-.21-3.27,2.54,2.54,0,0,1,1.92-.22c0.21,0.2.59-.29,0.59-0.75a5.58,5.58,0,0,1,1.11-2.12l1-.32,1-.32,2.9-5.15c1.6-2.83,2.9-5.29,2.9-5.46s0.15-.31.71-0.31h0.71l-0.55.92-0.7,1.18c-0.09.14-.63,1.13-1.21,2.19l-1.49,2.72-1,1.75c-0.29.53-.7,1.24-0.9,1.58a6.31,6.31,0,0,0-.56,1.34,12.34,12.34,0,0,1-2.15,3.77,7.58,7.58,0,0,0-1,1.33,7.64,7.64,0,0,1-.55.92,2.5,2.5,0,0,0-.34.7,2.39,2.39,0,0,1-.35.7,5.29,5.29,0,0,0-.53,1,7.71,7.71,0,0,1-.83,1.48c-0.5.67-.51,0.71-0.22,1.13a2.24,2.24,0,0,1,0,2.26c-0.3.33-.3,0.39,0,0.89a2.39,2.39,0,0,1-.87,3.13,5.64,5.64,0,0,1-2.62.57A26.37,26.37,0,0,1,137.24,40.25Zm7-.74c1.21-.26,1.78-0.71,1.78-1.43s-0.38-.83-2.08-0.52a28.41,28.41,0,0,1-4.74.28,24.45,24.45,0,0,1-5.6-.45,40.09,40.09,0,0,1-7.83-2.19c-3.88-1.47-5.46-2-8.44-2.86a60.75,60.75,0,0,0-6.66-1.43A44.18,44.18,0,0,0,100,30c-3.54,0-4.29.11-4.66,0.35a0.84,0.84,0,0,0-.13,1.38c0.28,0.25.58,0.26,2.62,0.1a61.43,61.43,0,0,1,15.36.91,76.78,76.78,0,0,1,9.51,3,48.31,48.31,0,0,0,12.79,3.77A42.28,42.28,0,0,0,144.28,39.52Zm-1.41-3.45c2.54-.35,3-0.59,3-1.55,0-.45-0.3-0.46-1.81-0.08a19.57,19.57,0,0,1-4.23.31,20.47,20.47,0,0,1-5.6-.48,60.34,60.34,0,0,1-6.13-1.73l-4.44-1.48c-0.44-.14-1.41-0.49-2.17-0.77a10.7,10.7,0,0,0-1.61-.51,10.93,10.93,0,0,1-1.56-.45c-2.15-.73-3.27-0.95-8.78-1.74a70.63,70.63,0,0,0-9.21-.63A43,43,0,0,0,94,27c-0.43.23-.44,0.71,0,1.22s0.07,0.43,4.92.25a37.78,37.78,0,0,1,5.68.1c1.17,0.13,2.49.24,2.93,0.25a15.45,15.45,0,0,1,1.69.16l3.1,0.49c1.22,0.19,2.27.38,2.34,0.42a12.34,12.34,0,0,0,1.43.32,55.64,55.64,0,0,1,8,2.63,55.32,55.32,0,0,0,7.68,2.66,32.22,32.22,0,0,0,3.64.73A44.28,44.28,0,0,0,142.87,36.07Zm-3.12-3.24a0.42,0.42,0,0,0,.28-0.32,3.9,3.9,0,0,0-2-1.37c-0.69,0-2.76.76-2.76,1s0.32,0.48,1.94.61C139.45,32.94,139.44,32.94,139.74,32.83Zm5.92-.88a2,2,0,0,0,.61-0.73c0.21-.56-0.23-0.68-1.1-0.29-1.85.82-5.12-.11-6-1.7a2.73,2.73,0,0,1,.75-2.87c1-.94.7-1.86-0.6-2.11a0.92,0.92,0,0,0-1,.34,1,1,0,0,0-.29,1.39,4,4,0,0,1-.84,3.13,6.32,6.32,0,0,1-4.09.76c-2.1-.22-5.34-2.28-5.6-3.57a3,3,0,0,1,1-2.55c1-.76.73-1.71-0.55-1.94a1.35,1.35,0,0,0-1,.16c-0.38.25-.43,0.4-0.41,1.38a3.51,3.51,0,0,1-1.4,3.06c-0.6.45-.8,0.5-2.47,0.55a5,5,0,0,1-2.59-.29c-1.62-.72-3.88-3.15-3.88-4.17a4.25,4.25,0,0,1,.75-2,0.9,0.9,0,0,0,.21-0.75,1.78,1.78,0,0,0-1.77-.74,0.89,0.89,0,0,0-.89,1.19c0.38,1.82.36,1.94-.48,2.7-1.22,1.11-2.51,1.53-4.75,1.54-1.7,0-1.95,0-2.81-.48-3-1.54-3.84-3-2.87-4.87,0.45-.88.33-1.32-0.47-1.64a1.22,1.22,0,0,0-1.85,1,0.9,0.9,0,0,1-.4.75c-0.37.25-.38,0.28-0.07,0.4a0.37,0.37,0,0,0,.47-0.1c0.21-.33.53,0.36,0.53,1.13,0,1.15-.6,1.92-2.26,2.87a6,6,0,0,1-4.5.63c-2-.48-3.5-2-3.24-3.28a1.28,1.28,0,0,0-1.46-1.65c-0.41.16-.32,0.63,0.36,1.78,0.34,0.58.85,1.53,1.13,2.11a5.45,5.45,0,0,0,1.06,1.52,6.83,6.83,0,0,0,3.93.91,7.15,7.15,0,0,0,4.53-1.32l1.3-.86,0.8,0.53A11.81,11.81,0,0,0,108,25.59c2.12,0.43,3,.34,5.36-0.58l1.36-.52,1.15,1.16c1.68,1.69,2.94,2.23,5.67,2.42a8.41,8.41,0,0,0,4.26-.47,1,1,0,0,1,.89.54c1.61,1.78,2.23,2.26,3.63,2.79a6.45,6.45,0,0,0,3,.51,6.64,6.64,0,0,0,3.08-.6c1.2-.47,1.54-0.55,1.78-0.38a6.14,6.14,0,0,0,.74.42c0.24,0.12.82,0.44,1.27,0.71a6,6,0,0,0,3.67.76A3.13,3.13,0,0,0,145.66,31.95ZM127.5,30.31a2.21,2.21,0,0,0-.87-1.57c-0.44-.41-0.51-0.42-1.3-0.21-1.57.41-1.48,0.65,0.51,1.42C127.34,30.53,127.35,30.54,127.5,30.31Zm-11.28-3.72a2.85,2.85,0,0,0-1.45-1.37,1.27,1.27,0,0,0-1.22.72c0,0.22.22,0.37,0.76,0.51l0.93,0.26A0.85,0.85,0,0,0,116.22,26.59Zm-11.9-1.43A3.19,3.19,0,0,0,102.66,24a1.64,1.64,0,0,0-1.13.94C101.67,25.36,104.32,25.58,104.32,25.16Z"/><path id="path3769" d="M80,90.82a1.08,1.08,0,0,1,.92-0.62M81,91.47m25,13.69c0-.43-0.15-1.26-0.27-1.84a72.93,72.93,0,0,1-.79-7.38c0.09-.24.73-0.55,2.63-1.3,0.78-.31,1.78-0.75,2.22-1s1.32-.67,2-1a45.82,45.82,0,0,0,14.08-11l0.85-1,5.46,0c3,0,5.6,0,5.76.13s0.2,0.32-.57,1.61c-2.56,4.29-6.47,12.29-6.95,14.2a6.64,6.64,0,0,1-.46,1.23,30,30,0,0,0-1.59,4.67,1.76,1.76,0,0,0,.17,1.17,4.23,4.23,0,0,1,.37.94,4.29,4.29,0,0,0,.77,1.25c0.37,0.45,1.27,1.58,2,2.52m-4.21-5.57a10.26,10.26,0,0,0,.92-2.46c0.36-1.24.89-2.81,1.19-3.51s0.68-1.66.86-2.15a12.06,12.06,0,0,1,.5-1.23c0.1-.18.76-1.55,1.46-3,1.22-2.59,3.11-6.16,4-7.59a2.08,2.08,0,0,0,.37-1.05c-0.05-.38-0.07-0.38-5-0.43l-4.94,0L126.3,82c-0.3.36-1.64,1.71-3,3a48.36,48.36,0,0,1-7.21,5.85,85.42,85.42,0,0,1-8.88,4.53,7.12,7.12,0,0,0-1.56.76,27.06,27.06,0,0,0,.74,6.66C106.68,103.07,127.08,103.12,127.47,102.83Zm3.77-1.64-1-1,0.47-.37a12.4,12.4,0,0,1,1.45-.89l1-.52L134,99.33a4.15,4.15,0,0,1,.88,1.16,8.24,8.24,0,0,1-2.45,1.69A6.62,6.62,0,0,1,131.24,101.18ZM73.54,78.86c0.38,0,.64.25,1.2,1.15,0.2,0.32,1,1.47,1.71,2.56,1.4,2.05,1.75,2.64,1.75,2.91a1,1,0,0,1-.58.35M132,97.33a1,1,0,0,1,.53,0c0.17,0,.07.08-0.22,0.09S131.86,97.38,132,97.33Zm2.31,0a1,1,0,0,1,.53,0c0.17,0,.07.08-0.22,0.09S134.17,97.38,134.29,97.33Zm-0.9-1.88a3,3,0,0,1-.83-1,1.53,1.53,0,0,1,.76-0.68c0.42-.23,1-0.56,1.25-0.74l0.49-.32,0.89,0.87a4.26,4.26,0,0,1,.89,1.07,11.32,11.32,0,0,1-2.53,1.61A7.65,7.65,0,0,1,133.39,95.45Zm-26.89-3a2.87,2.87,0,0,1-1-.69,1.8,1.8,0,0,1,.25-0.95,6.85,6.85,0,0,0,.46-1.22,0.74,0.74,0,0,1,.26-0.52,5.16,5.16,0,0,1,1,.57,1.35,1.35,0,0,1,.92,1.39c0.06,0.88-.34,1.91-0.72,1.87A6.79,6.79,0,0,1,106.5,92.4Zm27.61-.69a6.72,6.72,0,0,1,1.24,0c0.37,0,.11.07-0.57,0.07s-1,0-.67-0.07h0ZM112,90.42c-1.39-.26-1.69-0.45-1.69-1.08a12.08,12.08,0,0,1,.43-2.72,4.82,4.82,0,0,1,2.23.63c0.32,0.27.33,0.39,0.16,1.69a6.3,6.3,0,0,1-.31,1.51A1.83,1.83,0,0,1,112,90.42Zm23.92-.8a6.33,6.33,0,0,1-.74-1.13,3.17,3.17,0,0,1,.93-0.68l1.26-.76c0.28-.19.42-0.11,1,0.58a2.8,2.8,0,0,1,.7,1.17,3.89,3.89,0,0,1-2.27,1.81A4.07,4.07,0,0,1,136,89.62ZM115.77,87c-0.58-.18-0.71-0.3-0.69-0.64a6.38,6.38,0,0,1,.6-2.35,1.66,1.66,0,0,1,1.79,0c0.47,0.24.52,0.35,0.51,1.1a5.36,5.36,0,0,1-.24,1.44C117.49,87.29,117,87.4,115.77,87Zm23.77-2.6a8,8,0,0,1-.68-0.89c-0.32-.49-0.32-0.5.2-0.93a5.62,5.62,0,0,1,1.1-.69,1.07,1.07,0,0,0,.58-0.43c0-.39.36-0.13,1,0.7a5.14,5.14,0,0,1,.64,1A5.37,5.37,0,0,1,140,84.82,1.36,1.36,0,0,1,139.55,84.43Zm-19-1.18c-0.95-.23-1-0.37-0.94-2.59l0-1.1h0.67c1.11,0,2,.32,2.09.75a9.46,9.46,0,0,1,0,1.7l-0.05,1.31-0.62,0A5.2,5.2,0,0,1,120.51,83.25Zm-12.11-.93a2,2,0,0,0-.23-0.66c-0.13-.24-0.62-1.56-1.1-2.93-0.74-2.12-.84-2.56-0.66-2.93a6.43,6.43,0,0,1,2-1.48,27.31,27.31,0,0,0,2.68-1.72,52.26,52.26,0,0,0,4.09-3.7,1.78,1.78,0,0,1,.75-0.57,3.56,3.56,0,0,1,1,.53,5.86,5.86,0,0,0,3.17,1c0.76-.11.77,0.2,0.06,1.52a26.06,26.06,0,0,1-8.67,9.44L109.75,82C108.82,82.58,108.4,82.68,108.4,82.33Zm2.86-2A28,28,0,0,0,119,72.51c1-1.51,1-2,.08-2.24a13.6,13.6,0,0,1-1.78-.8,6.27,6.27,0,0,0-1.36-.59,4.22,4.22,0,0,0-1.19,1,31.28,31.28,0,0,1-6.2,4.72,3.72,3.72,0,0,0-1.71,1.25,4.2,4.2,0,0,0,.34,1.58c0.24,0.65.62,1.74,0.84,2.42,0.45,1.39.79,1.86,1.22,1.72A22.3,22.3,0,0,0,111.26,80.33Zm13.62-1.44a3.94,3.94,0,0,1-1.3-.94,2.21,2.21,0,0,1,.09-1,5.94,5.94,0,0,0,.19-1.33c0-.92.35-1,1.53-0.28s1.56,1.16,1.41,2.21c-0.23,1.64-.32,2-0.52,2A9,9,0,0,1,124.88,78.89Zm4.8-.66a2.84,2.84,0,0,1-.84-1.13,4,4,0,0,1,.92-1.35l1-1.09a7.54,7.54,0,0,1,2,2.36,4.64,4.64,0,0,1-2,2A3.5,3.5,0,0,1,129.68,78.24Zm5.91-.09a3.33,3.33,0,0,1-.71-1.27,2.54,2.54,0,0,1,.67-1.11l0.9-1c0.38-.46.8-0.3,1.51,0.57,1.09,1.33,1.07,1.5-.25,2.68a9.31,9.31,0,0,1-1.27,1A4,4,0,0,1,135.59,78.15Zm7.24,0.25c-0.49-.13-0.38-0.42.73-2l1-1.47h1.11a3.3,3.3,0,0,1,1.19.13c0.15,0.23-.64,1.53-1.44,2.37a5.18,5.18,0,0,0-.8,1A3.86,3.86,0,0,1,142.82,78.39Zm-5.2-38.2a24,24,0,0,1-5.12-.76,3.19,3.19,0,0,0-.94-0.19,36.67,36.67,0,0,1-7.1-2.27,74.23,74.23,0,0,0-7.36-2.63c-0.34-.08-1.22-0.3-2-0.49-5.86-1.56-10.94-1.94-18.24-1.37l-1.81.14L94.73,32a1.47,1.47,0,0,1-.27-1.12c0.09-.47,0-0.62-0.83-1.34l-0.93-.81,0.23-1.34c0.22-1.31.22-1.36-.23-2.15-0.56-1-.58-1.29-0.05-0.8s1.68,0.93,3.49,1A7.61,7.61,0,0,0,101.78,24c0.8-.54,1-0.59,1.22-0.38a12.38,12.38,0,0,0,4.69,2,8.54,8.54,0,0,0,5.46-.39c1.46-.57,2-0.65,2-0.28,0,0.16-.12.21-0.33,0.16a1.26,1.26,0,0,0-1.41.87c0,0.31.28,0.44,1.21,0.68,1.43,0.38,1.78.39,1.78,0.05s0.22-.33.77,0.09a7.85,7.85,0,0,0,4.37,1.38,6.7,6.7,0,0,0,3.3-.18l1.27-.37,1.23,1.26c2.74,2.8,6,3.4,9.73,1.75,0.75-.33.9-0.35,1.15-0.13a16,16,0,0,0,1.67,1,6.39,6.39,0,0,0,2.83.87c1.84,0.19,3,0,3.52-.71,0.36-.45.89-0.66,0.89-0.34a2.81,2.81,0,0,1-.44.74,1.25,1.25,0,0,0-.18,1.68,1.74,1.74,0,0,1,0,1.87c-0.26.29-.27,0.43-0.09,1.11,0.4,1.46.13,2.38-.83,2.92a9.93,9.93,0,0,1-3,.64c-0.2,0-.83,0-1.42.07A32.36,32.36,0,0,1,137.63,40.2Zm6.65-.68c1.21-.26,1.78-0.71,1.78-1.43s-0.38-.83-2.08-0.52a28.41,28.41,0,0,1-4.74.28,24.45,24.45,0,0,1-5.6-.45,40.09,40.09,0,0,1-7.83-2.19c-3.88-1.47-5.46-2-8.44-2.86a60.75,60.75,0,0,0-6.66-1.43A44.18,44.18,0,0,0,100,30c-3.54,0-4.29.11-4.66,0.35a0.84,0.84,0,0,0-.13,1.38c0.28,0.25.58,0.26,2.62,0.1a61.43,61.43,0,0,1,15.36.91,76.78,76.78,0,0,1,9.51,3,48.31,48.31,0,0,0,12.79,3.77A42.28,42.28,0,0,0,144.28,39.52Zm-1.41-3.45c2.54-.35,3-0.59,3-1.55,0-.45-0.3-0.46-1.81-0.08a19.57,19.57,0,0,1-4.23.31,20.47,20.47,0,0,1-5.6-.48,60.34,60.34,0,0,1-6.13-1.73l-4.44-1.48c-0.44-.14-1.41-0.49-2.17-0.77a10.7,10.7,0,0,0-1.61-.51,10.93,10.93,0,0,1-1.56-.45c-2.15-.73-3.27-0.95-8.78-1.74a70.63,70.63,0,0,0-9.21-.63A43,43,0,0,0,94,27c-0.43.23-.44,0.71,0,1.22s0.07,0.43,4.92.25a37.78,37.78,0,0,1,5.68.1c1.17,0.13,2.49.24,2.93,0.25a15.45,15.45,0,0,1,1.69.16l3.1,0.49c1.22,0.19,2.27.38,2.34,0.42a12.34,12.34,0,0,0,1.43.32,55.64,55.64,0,0,1,8,2.63,55.32,55.32,0,0,0,7.68,2.66,32.22,32.22,0,0,0,3.64.73A44.28,44.28,0,0,0,142.87,36.07Zm-2.7-3.5c0.06-.33-1.68-1.57-2.21-1.57a8.07,8.07,0,0,0-1.59.44l-1.27.44c-0.15,0,0,.53.18,0.65a11.35,11.35,0,0,0,3.51.34C139.83,32.85,140.12,32.79,140.16,32.57Zm-12.43-2.3a4.3,4.3,0,0,0-1.55-1.92c-0.43-.16-2.06.41-2.06,0.72a9.73,9.73,0,0,0,3.38,1.51A0.42,0.42,0,0,0,127.73,30.27Zm-23.27-5.08a1.83,1.83,0,0,0-.89-0.89c-0.79-.48-0.86-0.49-1.35-0.24-0.72.37-1,.77-0.79,1a4.89,4.89,0,0,0,2.31.47C104.44,25.57,104.51,25.53,104.46,25.19Zm37.41,5.73c-1.63-.51-2.74-1.45-2.74-2.32a3,3,0,0,1,.82-2.1,1.88,1.88,0,0,0,.68-1.68,2.11,2.11,0,0,0-1.84-.66,1.37,1.37,0,0,0-.91,1.57,2.83,2.83,0,0,1,0,2.1c-0.27,1.18-.92,1.65-2.63,1.93a8.11,8.11,0,0,1-6.89-2.51c-1.09-1.17-1-2.19.36-3.45,0.77-.72.82-1,0.3-1.62a1.2,1.2,0,0,0-1.22-.46c-1.13,0-1.52.4-1.35,1.37a3.43,3.43,0,0,1-2.3,3.71,8.42,8.42,0,0,1-4.09-.22,12.57,12.57,0,0,1-3.14-2.79,1.93,1.93,0,0,1-.43-1.7,2.26,2.26,0,0,1,.46-1.33,1,1,0,0,0,.23-1.26,2,2,0,0,0-2.53-.25,1,1,0,0,0-.09,1.4,2.21,2.21,0,0,1,.26.91c0,1.62-4,3.31-6.67,2.77a8.17,8.17,0,0,1-2.86-1.25c-0.43-.36-0.11-0.36.59,0a8.25,8.25,0,0,0,6.24.46c0.95-.38,1-0.8.1-1.12A2,2,0,0,1,111,19.56c0.3-.71.84-1,2.07-1l1,0v-1a1.4,1.4,0,0,1,.53-1.46,2.72,2.72,0,0,1,2.5-.76c1.67,0.31,2.57,2,1.66,3.17-0.57.72-.45,1.09,0.49,1.58a1.71,1.71,0,0,1,1.07,2.15,3.2,3.2,0,0,1-2,1.45,1.22,1.22,0,0,0-.6.29c-0.19.31,0.88,1.21,2.17,1.82a4.67,4.67,0,0,0,2.63.6c1.58,0,2.66-.35,2.56-0.83a0.52,0.52,0,0,0-.43-0.36,2.5,2.5,0,0,1-1-.67,1.49,1.49,0,0,1-.57-1.5c0.06-1.44.76-2.15,2-2.1a0.8,0.8,0,0,0,.94-1.06c-0.24-1,1.33-2.41,2.64-2.41a2.87,2.87,0,0,1,2.42,1.47c0.56,1.15.45,1.83-.57,3.33-0.18.27-.17,0.36,0.11,0.53a2.37,2.37,0,0,1,1.45,1.78,1.67,1.67,0,0,1-.27,1.4A2.35,2.35,0,0,1,130.08,27c-0.49,0-.65.46-0.29,0.86a7.64,7.64,0,0,0,3.28,1.44,5.34,5.34,0,0,0,2.36,0c1.84-.34,2.11-1,0.63-1.49a3.4,3.4,0,0,1-1.73-1.35,2.41,2.41,0,0,1,.58-2.27,1.59,1.59,0,0,1,1.75-.53c0.75,0.27.88,0.11,0.77-1a1.8,1.8,0,0,1,.44-1.73,2.24,2.24,0,0,1,3.84,0,2.72,2.72,0,0,1,.18,2.64,0.68,0.68,0,0,0,.22,1.18,2,2,0,0,1,.84,1.07,1.59,1.59,0,0,1,.09,1.57,2,2,0,0,1-1.91,1.45c-0.53-.13-1.1,0-1.1.33s2.16,1.17,3.33,1.28a3.56,3.56,0,0,0,2-.31c1.29-.53,1.73-0.93,1.42-1.3a0.76,0.76,0,0,0-.47-0.27c-0.84,0-1-2.28-.27-3a1.61,1.61,0,0,1,1.45-.35c0.88,0,1.06,0,1.06-.26a3.84,3.84,0,0,1,.85-2.1c0.63-.74,2.31-1.22,2.75-0.78,0.24,0.23.2,0.4-.37,1.51-1,2-1.21,2.21-1.93,2.21-1.27,0-2,.77-1.51,1.56,0.23,0.36-.05,1.14-0.7,1.92a5.09,5.09,0,0,1-2,1.32A4.76,4.76,0,0,1,141.88,30.92Zm-47.06-7a4,4,0,0,1-2-1.15,2.53,2.53,0,0,1-.86-1.85,2.55,2.55,0,0,0-.09-1c-0.21-.75-0.72-1-1.73-0.95-0.63,0-.64,0-1.49-1.5a6.68,6.68,0,0,1-.77-1.68,2.27,2.27,0,0,1,.91-0.25c1.39-.19,1.89.26,2.74,2.46,0.13,0.35.24,0.37,1.19,0.29,1.27-.11,1.7.08,2.16,1a1.79,1.79,0,0,1-1.1,2.63c-0.77.29-.63,0.79,0.34,1.26a7.14,7.14,0,0,0,5-.1,4.23,4.23,0,0,0,1.12-.66c0.2-.32-0.19-0.66-0.75-0.66a2.62,2.62,0,0,1-1.91-1.64,2.7,2.7,0,0,1,.48-2.27,2.2,2.2,0,0,1,1.22-.46l0.85-.1V14.49l0.71-.6a1.76,1.76,0,0,1,1.76-.54,1.7,1.7,0,0,1,1.63.72,2.07,2.07,0,0,1,.51,2.4c-0.35.66-.13,1,0.6,1a2.17,2.17,0,0,1,2.07,1.46,2.11,2.11,0,0,1-2.24,2.44c-0.77,0-1.07.34-.69,0.8a0.35,0.35,0,0,1,.11.37c-0.16.16-.63-0.27-0.93-0.84s-0.34-2.36-.06-2.53a1.15,1.15,0,0,0,.33-0.49c0.38-1-1.06-1.89-2.18-1.31a1,1,0,0,0-.65,1,0.49,0.49,0,0,1-.36.55,0.47,0.47,0,0,0-.36.48c0,0.35.07,0.38,0.61,0.29s0.81,0.06.81,0.86c0,1-.89,2-2.57,2.87a4.7,4.7,0,0,1-2.4.63A6.51,6.51,0,0,1,94.81,23.94Z"/></svg>