<svg id="big_frame" data-name="big frame" xmlns="http://www.w3.org/2000/svg" xmlns:xlink="http://www.w3.org/1999/xlink" viewBox="0 0 167.09 242.67"><defs><style>.cls-1{fill:#fff;stroke:#000;stroke-width:0.5px;}.cls-2{fill:#df0000;}.cls-3{fill:url(#radial-gradient);}.cls-4{fill:url(#radial-gradient-2);}.cls-5{fill:url(#radial-gradient-3);}.cls-6{fill:#e50000;}.cls-7{fill:#e2d200;}.cls-8{fill:#1156a1;}</style><radialGradient id="radial-gradient" cx="-256.25" cy="552.98" r="7.02" gradientTransform="matrix(-6.83, 0, 0, 10.99, -1649.13, -5927.08)" gradientUnits="userSpaceOnUse"><stop offset="0" stop-color="#df0000"/><stop offset="1" stop-color="#df0000" stop-opacity="0.67"/></radialGradient><radialGradient id="radial-gradient-2" cx="71.21" cy="-1753.63" r="71.89" gradientTransform="matrix(0.34, -0.2, -0.12, -0.2, -159.39, -203.2)" gradientUnits="userSpaceOnUse"><stop offset="0" stop-color="#fff" stop-opacity="0.31"/><stop offset="1" stop-opacity="0"/></radialGradient><radialGradient id="radial-gradient-3" cx="375.81" cy="-1826.32" r="71.89" gradientTransform="matrix(0.29, -0.12, -0.06, -0.21, -105.27, -200.52)" gradientUnits="userSpaceOnUse"><stop offset="0" stop-color="#fff" stop-opacity="0.29"/><stop offset="1" stop-opacity="0"/></radialGradient></defs><title>QHH</title><g id="Layer_1"><path id="path5" class="cls-1" d="M166.84,235.55a6.89,6.89,0,0,1-6.87,6.87H7.11a6.88,6.88,0,0,1-6.86-6.87V7.12A6.89,6.89,0,0,1,7.11.25H160a6.89,6.89,0,0,1,6.87,6.87V235.55Z"/></g><g id="layer1-9-6"><path id="hl-8" class="cls-2" d="M45,95.72c-8.23,0-9.33,8.26-9.33,8.26s-1.1-8.26-9.33-8.26c-5.76,0-11,3.7-11,10.69,0,9.23,16.7,18.52,20.31,32.08C39.12,124.94,56,115.65,56,106.41,56,99.42,50.78,95.72,45,95.72Z"/></g><g id="g3036"><g id="layer1-9"><path id="hl" class="cls-3" d="M123.17,127.81c-19.43,0-22,19.5-22,19.5s-2.59-19.5-22-19.5c-13.6,0-25.91,8.74-25.91,25.23,0,21.79,39.42,43.7,47.93,75.7,8.1-32,47.93-53.91,47.93-75.7C149.07,136.55,136.77,127.81,123.17,127.81Z"/></g><g id="path3762-6-4"><path class="cls-4" d="M54.44,168.39s-2.07-25.22,5.86-32.63c8.92-8.33,35.91-3,35.91-3s-18.35,6.6-25.65,12.9C63.59,151.65,54.44,168.39,54.44,168.39Z"/></g><g id="path3762-6-2-3"><path class="cls-5" d="M100.38,160.87s3.8-23.47,11.55-28.42c8.71-5.57,28.55,5.4,28.55,5.4s-14.68,5.3-21.71,9.38C112.06,151.14,100.38,160.87,100.38,160.87Z"/></g></g><path class="cls-6" d="M55.9,73.58a37.33,37.33,0,0,0,9.59,6.05L61.08,89.84a25,25,0,0,1-5.3-2.69q-0.57-.34-8-6.35A27.21,27.21,0,0,1,34.9,83.89q-13.68,0-21.42-9.72T5.73,46.88q0-17.53,7.77-27.27T34.58,9.86q13.19,0,20.92,9.74t7.73,27.27a56,56,0,0,1-2.14,16.31A35.92,35.92,0,0,1,55.9,73.58Zm-9.63-8.15a23.37,23.37,0,0,0,3.46-7.91,44.33,44.33,0,0,0,1.15-10.64q0-12.4-4.53-18.53A14.08,14.08,0,0,0,34.5,22.22a14.11,14.11,0,0,0-11.87,6.15q-4.55,6.15-4.55,18.51,0,12.55,4.55,18.77t11.51,6.23a11.92,11.92,0,0,0,4.9-1,32.78,32.78,0,0,0-7.4-4.49L35,58.11A39.05,39.05,0,0,1,46.27,65.43Z"/><g id="g2987"><path id="path2995" class="cls-7" d="M73.76,84.69c0.49-.42,1.72-1.59,2.75-2.61s-1.73,0-.78-0.88L71,78.34V74.06a57,57,0,0,1,1.26-13.28A63.8,63.8,0,0,1,82.18,37.9a54.24,54.24,0,0,1,4.35-5.66c1.6-1.77,1.61-1.79,1.66-4,0.07-2.71.15-6.91,0.21-10a26.72,26.72,0,0,1,.14-2.85,0.7,0.7,0,0,1,.61-0.24h0.51v1.23a2.88,2.88,0,0,0,.13,1.22,6.86,6.86,0,0,0,1-1.18c0.74-1,1-1.18,1.46-1.23s0.57,0,.57.14a15.26,15.26,0,0,1-2.33,3.44c-0.85,1-1,1.36-1,1.88a0.71,0.71,0,0,0,.19.64c0.4,0,2.88-3,3.84-4.72a10,10,0,0,1,.73-1.11c0.29-.34,1.45-0.43,1.45-0.11,0,0.58-3.34,5-5.24,6.94-0.85.87-1.14,1.29-1.14,1.65,0,1,.57.81,2.37-0.95,2.21-2.16,4.71-5.59,5.24-7.18,0.2-.6.27-0.66,0.87-0.65s0.7,0.08,2.06,2a24.51,24.51,0,0,0,7.67,7.4A30.52,30.52,0,0,0,116,28.52c1.29,0.35,2,.44,2,0.25a3.17,3.17,0,0,0-.44-0.67,3.13,3.13,0,0,0-1.64-1,38.15,38.15,0,0,1-4.84-1.95,4.65,4.65,0,0,0-.77-0.41,34.35,34.35,0,0,1-4.83-3.31c-1.89-1.65-5.23-5.54-5.23-6.09a0.6,0.6,0,0,1,.58-0.18c0.51,0,.69.16,1.64,1.42a28.33,28.33,0,0,0,8.42,7.13c2,1.07,4.66,2.16,4.85,2s-0.71-1.34-1.36-1.59a40.65,40.65,0,0,1-5.24-2.69A25.32,25.32,0,0,1,104.35,17c-1.26-1.54-1.37-1.81-.69-1.81,0.41,0,.68.21,1.4,1.1a16.39,16.39,0,0,0,3.86,3.52c2.17,1.61,4.15,2.73,4.15,2.35a6.51,6.51,0,0,0-2-2,40,40,0,0,1-4.45-3.66c-1.12-1.18-1.17-1.28-.56-1.28,0.39,0,1,.38,2.36,1.58,1.71,1.45,2.12,1.74,2.12,1.48a4,4,0,0,0-.5-0.75c-0.28-.36-0.76-1-1.07-1.44l-0.57-.79,23.27,0c12.8,0,23.29,0,23.32,0s-0.08,1-.23,2.06a59.89,59.89,0,0,0,.09,12.62A51.14,51.14,0,0,0,159,45.31a7,7,0,0,1,.34.82s0.36,0.83.8,1.76a17.31,17.31,0,0,1,.8,1.83c0,0.38-.65.55-3.38,0.89-3.88.49-9.24,1.56-9.63,1.92-0.15.14,0.35,0.8,4,5.28,1.12,1.39,2.2,2.74,2.39,3s1.59,2,3.1,3.9-1.05,1.71-.81,2l1.46,1.9,1,1.31V98.69M81,91.73a7.34,7.34,0,0,0-1.35-.44M154.75,79.5c0-.19-0.82-1.37-3.51-5.09-1.32-1.82-2.25-3-2.3-2.79a36,36,0,0,0,2.18,5.47,3.52,3.52,0,0,0,2.22,2.18C154.42,79.77,154.75,79.82,154.75,79.5ZM150,77.34c0-.06-0.47-1.26-1-2.67s-1.25-3.39-1.52-4.4a7,7,0,0,0-1.32-2.93c-1.29-1.73-1.35-1.57-.55,1.57a52.66,52.66,0,0,0,2.12,6.81A3.23,3.23,0,0,0,148.77,77C149.48,77.41,150,77.56,150,77.34ZM146.23,75c0-.07-0.36-1.32-0.8-2.76-0.86-2.84-1.46-5.11-2-7.42-0.33-1.53-1.3-3.36-1.77-3.36-0.32,0-.32,0,0.09,1.85l0.55,2.53c0.11,0.53.51,2,.88,3.33s0.73,2.64.8,3a4.74,4.74,0,0,0,1.44,2.7C146,75.18,146.24,75.22,146.23,75ZM143,72.46s-0.32-1.28-.71-2.76a43.3,43.3,0,0,1-1.71-8.32c-0.1-1.67-.15-1.83-0.75-2.69a2.2,2.2,0,0,0-.82-0.86c-0.32.11,0.13,4.78,0.62,6.46,0.1,0.34.27,1.09,0.37,1.67,0.35,1.89,1.73,5.75,2.22,6.18S143,72.65,143,72.46Zm-3-2.84a41.48,41.48,0,0,1-2.13-11.29,14.23,14.23,0,0,0-.15-2.06c-0.17-.85-0.87-2-1.24-2-0.21,0-.23.47-0.14,2.85a38.38,38.38,0,0,0,1.18,8.5c0.65,2.65.85,3.13,1.65,4s1.11,0.74.82,0h0Zm-27.13-3.49A56.59,56.59,0,0,0,122,64.56c3.5-.9,8.82-2.83,8.82-3.21a1.38,1.38,0,0,0-.83-0.92,29.77,29.77,0,0,0-2.87.89,65.88,65.88,0,0,1-12.8,3.23,16.58,16.58,0,0,0-4.15,1c-1.56.59-1.85,0.75-1.51,0.84a3.19,3.19,0,0,0,1,0Zm23.77,0.21a3.29,3.29,0,0,0-.17-0.75,61.48,61.48,0,0,1-1.14-10.35c0-3,0-3-.5-3.59-0.75-.94-0.91-0.57-1,2.32-0.11,3.36.57,9.38,1.22,10.83C135.6,66,136.66,67,136.66,66.33ZM104.39,66a22.4,22.4,0,0,0,9.47-3.81c4.66-3.07,8.87-7.4,10.5-10.78L125,50.11l-0.44-1.46a48.37,48.37,0,0,1-1.79-6.72,46.9,46.9,0,0,1-.78-6.15l-0.13-2.11L121,32.54c-1.26-1.75-1.43-1.86-3.78-2.44a30.77,30.77,0,0,1-16.12-9.51,9.19,9.19,0,0,0-1.35-1.36,5.87,5.87,0,0,0-1,1.25,38,38,0,0,1-7.72,8l-1.55,1.14V30.9a3.26,3.26,0,0,0,.18,1.4,2.5,2.5,0,0,0,1.11-.21,7.44,7.44,0,0,1,2.43-.31,4.68,4.68,0,0,1,2.52.49,5.16,5.16,0,0,1,2.56,2.65c1.5,3.25,1.24,6.59-.92,11.6-0.71,1.66-.75,2.09-0.22,2.64s1,0.54,1,.07a1.58,1.58,0,0,1,1.4-1.06,7.05,7.05,0,0,1,2,.88c1.63,0.95,1.89,1,2.65.62,0.95-.48.8-1.74-0.26-2.3-0.64-.34-0.81-0.88-0.33-1.06,0.77-.29,1.75.93,2,2.45a2.24,2.24,0,0,1-1.35,2.46,2.77,2.77,0,0,1-2.64-.15c-1.13-.52-2-0.58-2-0.14a2.55,2.55,0,0,0,.46,1c0.71,1,.09,1.49-0.72.54a9.65,9.65,0,0,0-1.92-1.32A12.27,12.27,0,0,1,95.7,50a3.19,3.19,0,0,1,.12-2.58A10.26,10.26,0,0,0,97,44.27a2.22,2.22,0,0,0-1.08.47c-0.9.56-1.45,0.64-1.44,0.2a4.12,4.12,0,0,1,1-1,3.57,3.57,0,0,0,1-1.1c0-.32-0.13-0.31-1,0A8.35,8.35,0,0,1,91,43a3.62,3.62,0,0,0-1.27-.2c-0.31.12-.35,5-0.06,7.29a55.91,55.91,0,0,0,1,6c1.05,3.91,4.3,8,7.26,9.09A10.12,10.12,0,0,0,104.39,66Zm-5-6c-2.05-.72-2.11-1.85-0.06-1.24a6.19,6.19,0,0,0,3.8-.09c1-.43,1.27-0.44,1.27,0C104.38,59.87,101.33,60.7,99.37,60ZM95,58.24a1,1,0,0,1,0-1,16.93,16.93,0,0,0,.34-1.71l0.14-1,0.72,0.05a2.48,2.48,0,0,0,1.5-.39A2.56,2.56,0,0,1,100,54a0.84,0.84,0,0,0,1-.09c0.67-.39.95-0.38,2.6,0.14s2,0.55,2.59,0,0.84-.43,1.14,1.43c0.35,2.15.06,2.54-1.42,1.93a4.68,4.68,0,0,0-3.27.1l-1.32.37-1.74-.39c-2-.45-2.44-0.39-3.32.45C95.57,58.56,95.31,58.63,95,58.24Zm14-12.6a13.93,13.93,0,0,1-3.63-3.22A9.14,9.14,0,0,0,104,41a1.47,1.47,0,0,1-.37-1.32,4.7,4.7,0,0,0-.51-1.71,3.31,3.31,0,0,1-.43-1.37,1.08,1.08,0,0,1,.86-0.08c0.65,0.1,1,0,2.36-.68,2.56-1.25,3.64-1.56,5.1-1.45A8.48,8.48,0,0,1,115.48,36c1.39,1,3.61,3.33,3.61,3.83s-0.62.93-2.24,1.26c-0.86.18-2.21,0.52-3,.76a12,12,0,0,1-5.5.65,3.9,3.9,0,0,0-1.26-.12,16.87,16.87,0,0,0,2.65,2.88C110.61,46.06,110,46.33,109,45.64Zm3.15-4.55c0.64-.63.95-1.44,0.65-1.72-0.13-.12-0.32.09-0.61,0.67-0.54,1.08-1.51,1.64-2.21,1.27a1.89,1.89,0,0,1-.94-1.56c-0.12-.69-0.62-0.93-0.8-0.38a2.77,2.77,0,0,0,.85,2,3,3,0,0,0,1.42.26A1.69,1.69,0,0,0,112.1,41.08ZM107.75,41a5.6,5.6,0,0,0-.31-0.88c-0.26-.63-0.38-0.75-0.75-0.7-0.71.08-.68,0.83,0,1.32S107.75,41.26,107.75,41Zm7.32-.51c0.59-.3.5-0.51-0.26-0.68a0.79,0.79,0,0,0-1,.84C113.78,41,114.11,41,115.07,40.5Zm0.57-3.32A7.72,7.72,0,0,0,107.55,36c-1.94.87-1.72,1.18,0.46,0.65a11.15,11.15,0,0,1,6.82.62C116.17,38,116.5,37.93,115.64,37.18Zm3.37-.71A19.14,19.14,0,0,0,113.69,34a11.14,11.14,0,0,0-8,.5c-1.75.74-2.22,0.76-2.56,0.13-0.46-.85,1-2.44,2.9-3.15a7.39,7.39,0,0,1,3.24-.41,10.81,10.81,0,0,1,4.08.59,12.79,12.79,0,0,1,5.35,2.85c1.62,1.33,2.19,2,2.19,2.45S120.35,37.35,119,36.48ZM95,65.08c0-.27-1.59-1-3.31-1.58-1.88-.61-3-0.74-3-0.35,0,0.22,1.74.84,4.17,1.49C94.94,65.19,95,65.2,95,65.08Zm20.58-1.67a0.36,0.36,0,0,0-.12-0.7,1.78,1.78,0,0,0-1.13.72A1.24,1.24,0,0,0,115.55,63.41Zm2.29-.52c0.23-.14.22-0.24,0-0.79a1.28,1.28,0,0,0-.47-0.62,0.77,0.77,0,0,0-.6.84C117,63,117.34,63.21,117.85,62.89Zm15.63-1.13a56.32,56.32,0,0,1-.38-10.08c0.22-2.2.17-2.46-.5-3.07-0.29-.26-0.38-0.28-0.45-0.09l-0.31.94c-0.51,1.53-.18,10.56.43,11.75a5.49,5.49,0,0,0,1.32,1.6A3.49,3.49,0,0,0,133.48,61.76Zm-41,.58a2.43,2.43,0,0,0-.61-0.8c-0.55-.54-0.66-0.58-1-0.39a1.07,1.07,0,0,0-.67.72,5.4,5.4,0,0,0,2,.65A0.26,0.26,0,0,0,92.49,62.34Zm28-.08a3,3,0,0,0-.46-1.09c-0.58-1-1.06-1.31-1.46-.84-0.18.22-.14,0.45,0.24,1.26s0.48,1,1,.88A2.19,2.19,0,0,0,120.5,62.26Zm2.11-.81A9.66,9.66,0,0,0,120.93,58a1.17,1.17,0,0,0-.59.35c-0.41.41-.34,0.68,0.64,2.42,0.55,1,.68,1.1,1.1,1.05A0.57,0.57,0,0,0,122.61,61.45Zm1.9-.35c0.54-.24.57-0.08-0.59-2.86-0.95-2.27-1.25-2.57-1.72-1.67-0.27.52-.26,0.59,0.44,2.24s1.16,2.5,1.33,2.5A3.34,3.34,0,0,0,124.51,61.1Zm2.25-.89c0.25-.2.23-0.33-0.26-1.36-0.3-.63-0.88-1.89-1.28-2.81-0.56-1.27-.82-1.67-1.08-1.67-0.55,0-.5.64,0.2,2.49,0.9,2.38,1.54,3.56,1.93,3.56A1,1,0,0,0,126.76,60.21Zm2.45-1.06c0-.27-3.27-6.91-3.55-7.2s-0.76.72-.66,1.16c0,0.22.51,1.3,1,2.41s1.1,2.41,1.3,2.89c0.48,1.15.72,1.34,1.38,1.11A0.77,0.77,0,0,0,129.21,59.16Zm1.49-2.23a22,22,0,0,1,.22-6.87c0.49-3,.49-3.33,0-3.9a0.77,0.77,0,0,0-.62-0.39c-0.53.33-1.17,5.37-1.08,8.53,0.06,2.17.07,2.2,0.75,3.39a2.2,2.2,0,0,0,.83,1.05A5.62,5.62,0,0,0,130.69,56.92Zm-2.37-4.26a44.63,44.63,0,0,1,.78-6.32c0.14-.59.28-1.28,0.31-1.53,0.06-.58-0.38-1.41-0.71-1.34s-1.09,2.67-1.39,5.57L127,51.75l0.46,1a1.51,1.51,0,0,0,.64.91A1.91,1.91,0,0,0,128.32,52.66Zm-2-3.76a27.63,27.63,0,0,1,1-5l0.55-1.54a1.66,1.66,0,0,0-.81-1.22c-0.33,0-1.78,4.27-1.78,5.26a6.55,6.55,0,0,0,.9,2.63A0.15,0.15,0,0,0,126.37,48.9Zm-0.85-6.68a15.44,15.44,0,0,0,.67-2.25,2,2,0,0,0-.89-1.27,10.89,10.89,0,0,0-1.06,3.53,3.57,3.57,0,0,0,.5,1.9A9.53,9.53,0,0,0,125.53,42.22Zm-31-.78c0.87-.65,1.33-2.23.57-1.94a1.47,1.47,0,0,0-.44.78A1.54,1.54,0,0,1,93,41.49a1.33,1.33,0,0,1-1.47-1.13c-0.27-.79-0.57-1-0.74-0.46a2.15,2.15,0,0,0,.95,1.86A2.89,2.89,0,0,0,94.51,41.44Zm-4,.05a1.55,1.55,0,0,0-.82-1c-0.36,0-.31.82,0.06,1S90.54,41.72,90.54,41.49ZM97.18,41c0.89-.38,1-0.6.46-0.88a1,1,0,0,0-1.4.46C95.84,41.42,96,41.49,97.18,41Zm27-2.36c0.29-1.13.25-1.42-.24-2l-0.44-.49v1.34C123.53,39.5,123.86,40,124.22,38.61Zm-32.79-1.8A4.94,4.94,0,0,1,94,36.48a10.68,10.68,0,0,1,2.22.48,13.15,13.15,0,0,0,1.45.45l0.44,0.08-0.44-.36a9.1,9.1,0,0,0-7.09-1c-0.85.29-1,.4-1,0.84s0,0.49.27,0.38Zm5.85-1.06a9.22,9.22,0,0,0-2.09-1.44,7.44,7.44,0,0,0-3.52-.51c-1.39.25-2.19,0.67-2.19,1.15s0.33,0.53,1.42.15a7.66,7.66,0,0,1,4.52.17,10.08,10.08,0,0,1,1.3.53C96.86,35.93,97.28,35.9,97.28,35.75Zm-6.47-8.53a31.9,31.9,0,0,0,6.66-7.17c1.25-1.86,1.34-2.12,1-2.68s-0.55-.54-0.92.05A34,34,0,0,1,90.14,26a1.61,1.61,0,0,0-.84,1.33C89.3,28.36,89.4,28.35,90.81,27.23Z"/><path id="path2993" class="cls-8" d="M73.76,84.69c0.49-.42,1.72-1.59,2.75-2.61s-1.73,0-.78-0.88L71,78.34V74.06a57,57,0,0,1,1.26-13.28A63.8,63.8,0,0,1,82.18,37.9a54.24,54.24,0,0,1,4.35-5.66c1.6-1.77,1.61-1.79,1.66-4,0.07-2.71.15-6.91,0.21-10a26.72,26.72,0,0,1,.14-2.85,0.7,0.7,0,0,1,.61-0.24h0.51v1.23a2.88,2.88,0,0,0,.13,1.22,6.86,6.86,0,0,0,1-1.18c0.74-1,1-1.18,1.46-1.23s0.57,0,.57.14a15.26,15.26,0,0,1-2.33,3.44c-0.85,1-1,1.36-1,1.88a0.71,0.71,0,0,0,.19.64c0.4,0,2.88-3,3.84-4.72a10,10,0,0,1,.73-1.11c0.29-.34,1.45-0.43,1.45-0.11,0,0.58-3.34,5-5.24,6.94-0.85.87-1.14,1.29-1.14,1.65,0,1,.57.81,2.37-0.95,2.21-2.16,4.71-5.59,5.24-7.18,0.2-.6.27-0.66,0.87-0.65s0.7,0.08,2.06,2a24.51,24.51,0,0,0,7.67,7.4A30.52,30.52,0,0,0,116,28.52c1.29,0.35,2,.44,2,0.25a3.17,3.17,0,0,0-.44-0.67,3.13,3.13,0,0,0-1.64-1,38.15,38.15,0,0,1-4.84-1.95,4.65,4.65,0,0,0-.77-0.41,34.35,34.35,0,0,1-4.83-3.31c-1.89-1.65-5.23-5.54-5.23-6.09a0.6,0.6,0,0,1,.58-0.18c0.51,0,.69.16,1.64,1.42a28.33,28.33,0,0,0,8.42,7.13c2,1.07,4.66,2.16,4.85,2s-0.71-1.34-1.36-1.59a40.65,40.65,0,0,1-5.24-2.69A25.32,25.32,0,0,1,104.35,17c-1.26-1.54-1.37-1.81-.69-1.81,0.41,0,.68.21,1.4,1.1a16.39,16.39,0,0,0,3.86,3.52c2.17,1.61,4.15,2.73,4.15,2.35a6.51,6.51,0,0,0-2-2,40,40,0,0,1-4.45-3.66c-1.12-1.18-1.17-1.28-.56-1.28,0.39,0,1,.38,2.36,1.58,1.71,1.45,2.12,1.74,2.12,1.48a4,4,0,0,0-.5-0.75c-0.28-.36-0.76-1-1.07-1.44l-0.57-.79,7,0,7,0,0.53,0.59c0.29,0.32,1.09,1.32,1.77,2.21s2.17,2.79,3.3,4.22,3.3,4.2,4.82,6.16,3,3.77,3.24,4l0.47,0.44-0.13-.53a18,18,0,0,0-.64-1.75,10,10,0,0,1-.62-2.28c-0.15-1.41-.26-1.58-1.44-2.14A19.71,19.71,0,0,1,129,22.46a15.6,15.6,0,0,1-2.93-5.3c-0.53-1.68-.56-2-0.19-2a0.31,0.31,0,0,1,.27.33A18.24,18.24,0,0,0,128,20.32a12.34,12.34,0,0,0,5.81,5.11c0.91,0.34,1.14.5,1.18,0.83s0.25,1.18.49,2.13a14.24,14.24,0,0,0,4.14,7.1,16.48,16.48,0,0,0,4.26,2.59c1.64,0.57,1.57.51,1.79,1.6,0.11,0.56.32,1.45,0.47,2,1,3.41,4.32,7.89,5.93,7.89a0.91,0.91,0,0,0,.58-0.14,5.26,5.26,0,0,0-1.16-1.36,13.69,13.69,0,0,1-3.15-4.24A11.52,11.52,0,0,1,147.12,39a1.19,1.19,0,0,0-1.19-1.48,15.91,15.91,0,0,1-4.88-2.5,13.11,13.11,0,0,1-4.49-8.42l-0.12-.91-1.89-.91a9.93,9.93,0,0,1-3.5-2.51,9.42,9.42,0,0,1-2.34-3.09,19.14,19.14,0,0,1-1.07-2.76l-0.34-1.27h3.61L131.46,16a1.67,1.67,0,0,1,.46,1.45,7.74,7.74,0,0,0,.92,3.67,6.46,6.46,0,0,0,2.52,2.29c0.84,0.35.91,0.19,0.26-.54a2.78,2.78,0,0,1,.1-4,1.59,1.59,0,0,1,1.48-.66,2.28,2.28,0,0,1,1.67.63l0.84,0.63,0.43-.55a3.3,3.3,0,0,1,4-.89,2.93,2.93,0,0,1,1.47,2.82,2.15,2.15,0,0,1-.55,1.85,4.7,4.7,0,0,1-1.06,1,0.65,0.65,0,0,0-.46.71c0.3,2.28-.42,3.65-2.09,3.93a2.56,2.56,0,0,1-2.76-1.78l-0.18-.85a0.46,0.46,0,0,0-.44-0.44c-0.91,0,0,2.54,1.39,4.06a4.63,4.63,0,0,0,1.18,1c0.36,0,.74.56,1.07,1.58a13.88,13.88,0,0,0,.65,1.63c0.64,1.26,2.35,2.58,3.36,2.58,0.48,0,.41-0.32-0.11-0.56a3.44,3.44,0,0,1-1.5-2.47c0-1.9,1.84-3.38,3.42-2.74a4.34,4.34,0,0,1,1.21.91l0.64,0.68,0.58-.32,1-.54a3.23,3.23,0,0,1,1.24-.22H153l-0.12-1.36a74.16,74.16,0,0,1-.13-10c0.11-1.88.25-3.6,0.31-3.81s0.23-.39,1.08-0.39,1,0,.87.48a54.9,54.9,0,0,0-.14,14.25A51.06,51.06,0,0,0,159,45.31a7,7,0,0,1,.34.82s0.36,0.83.8,1.76a17.31,17.31,0,0,1,.8,1.83c0,0.38-.65.55-3.38,0.89-3.88.49-9.24,1.56-9.63,1.92-0.15.14,0.35,0.8,4,5.28,1.12,1.39,2.2,2.74,2.39,3s1.59,2,3.1,3.9-1.05,1.71-.81,2l1.46,1.9,1,1.31V90.52m-55.81,2-6.7-.29c0-.41-0.57-0.54-1.5-0.32M81,91.73a7.34,7.34,0,0,0-1.35-.44m33.11-.09a103.77,103.77,0,0,0,11.38-1.66c0.29-.09,1.17-0.29,2-0.45,1.53-.31,5.85-1.57,8.16-2.38,5.18-1.81,12.77-5.5,15.25-7.43,0.35-.27.35-0.28-0.18-0.72-0.84-.7-1.27-0.73-2.38-0.16-0.54.28-1.38,0.77-1.85,1.1a12.75,12.75,0,0,1-1.51.88,9.47,9.47,0,0,0-1.08.58,81.06,81.06,0,0,1-10.2,4.26,83,83,0,0,1-17.41,3.52,79.72,79.72,0,0,1-30.48-2.92,57.73,57.73,0,0,1-12.35-5.18,4.87,4.87,0,0,0-1.27-.59c-0.15,0,5.87,1.57,5.52,2-0.78.85-.75,0.92,0.94,1.86,6.06,3.38,8.41,5,16.74,6.41a64.65,64.65,0,0,0,10.73,1A67.35,67.35,0,0,0,112.77,91.2Zm1.61-3.28c0.31-.16.33-0.32,0.21-2.39a18.84,18.84,0,0,0-.2-2.29,22.89,22.89,0,0,0-4.42.17,11.53,11.53,0,0,1-1.24.21l-0.53,0-0.05,2c-0.07,2.87-.25,2.73,3.12,2.58A19,19,0,0,0,114.38,87.92Zm-12.66-.41a10.68,10.68,0,0,0,.17-2.27V83.42l-1-.11c-0.56-.06-1.8-0.22-2.76-0.35-1.92-.27-2.21-0.23-2.33.32a15.57,15.57,0,0,0-.32,3.81,32.62,32.62,0,0,0,5.33.84C101.45,88,101.57,87.9,101.72,87.51Zm3.85-.25a1,1,0,0,0,.58-1.23c-0.13-.9-1.85-1.25-2.39-0.49a1.36,1.36,0,0,0,.08,1.71A1.28,1.28,0,0,0,105.57,87.26Zm19.82-1a12.46,12.46,0,0,0,2.19-.64c0.28-.22.17-1.43-0.23-2.55a9.69,9.69,0,0,1-.37-1.49c-0.16-1-.42-1.11-2.35-0.58l-2.74.73a2.8,2.8,0,0,0-1.29.56,2.48,2.48,0,0,0,.06,1c0.09,0.4.26,1.25,0.38,1.87,0.33,1.75.39,1.81,1.47,1.68C123,86.77,124.32,86.51,125.39,86.26Zm-6.94.12a1.84,1.84,0,0,0,.74-0.61,0.8,0.8,0,0,0,.09-0.95,1.6,1.6,0,0,0-1.41-.9,1.42,1.42,0,0,0-1.26,1.32,1.07,1.07,0,0,0,.47,1A1.1,1.1,0,0,0,118.46,86.39Zm-25.1-.58a1.17,1.17,0,0,0-.16-2c-1.12-.57-2.11-0.12-2.11,1A1.36,1.36,0,0,0,93.35,85.8Zm-4.22-.65a18.47,18.47,0,0,0,.67-3.42c0-.21-0.45-0.4-1.39-0.63-0.73-.18-1.95-0.55-2.71-0.81A2.63,2.63,0,0,0,84.05,80a7.22,7.22,0,0,0-.88,2c-0.47,1.44-.56,1.88-0.39,2a12.34,12.34,0,0,0,2.08.77l2.31,0.72a3.93,3.93,0,0,0,1.14.11C88.89,85.6,89,85.52,89.13,85.15Zm41.74-1.43a1.24,1.24,0,0,0,.07-2.24,2.1,2.1,0,0,0-1.87.45,1.33,1.33,0,0,0,.75,1.82A1,1,0,0,0,130.87,83.73Zm5.95-1.22a19.27,19.27,0,0,0,2.71-1.21l0.39-.31-0.46-1.12c-0.25-.61-0.64-1.57-0.85-2.11a2.61,2.61,0,0,0-.66-1.1,6.9,6.9,0,0,0-2.07.75c-1,.47-2.1,1-2.47,1.07a1.47,1.47,0,0,0-.78.47c-0.19.48,1,4.17,1.42,4.33S134.44,83.42,136.82,82.51Zm-28.89.54c0.21-.13.28-0.67,0.33-2.57,0.06-2.15,0-2.43-.26-2.64a19.67,19.67,0,0,0-5.46-.09,21.3,21.3,0,0,0-.29,2.39c-0.14,1.62-.14,2.3,0,2.44a8.52,8.52,0,0,0,2.18.39C107.09,83.24,107.61,83.25,107.92,83.05ZM118,82.23a10.53,10.53,0,0,0,2.25-.48c0.23-.17.23-0.4,0-1.77-0.32-2.07-.61-3.19-0.9-3.42a1.15,1.15,0,0,0-1,0,18.53,18.53,0,0,1-2.4.34,10.78,10.78,0,0,0-1.81.25,5.16,5.16,0,0,0-.09,2c0.11,2.37.2,2.95,0.5,3.25S114.93,82.66,118,82.23ZM81,82a1.15,1.15,0,0,0-.16-1.7,1.41,1.41,0,0,0-2,.08,1.13,1.13,0,0,0,0,1.63A1.45,1.45,0,0,0,81,82Zm15.51-2.42c0.29-1.81.34-2.41,0.18-2.57a6.23,6.23,0,0,0-1.63-.5c-0.78-.16-1.84-0.42-2.35-0.58-1.23-.37-1.3-0.29-1.88,2.2-0.63,2.68-.62,2.79.2,3a25.37,25.37,0,0,0,4.48.84l0.62,0Zm-19.43.39a9,9,0,0,0,.75-2.06c0-.48-0.08-0.57-1.34-1.21s-1.38-.67-1.77-0.41a16.61,16.61,0,0,0-3.13,3.11,12.54,12.54,0,0,0,3.16,1.75C76.18,81.71,76.28,81.66,77.09,79.94Zm35,1.15a1.37,1.37,0,0,0,0-2,1.64,1.64,0,0,0-2,.16,1,1,0,0,0,0,1.66A1.29,1.29,0,0,0,112.12,81.09Zm-11.69-.43a1,1,0,0,0,0-1.56A1.3,1.3,0,0,0,98.56,79,1.25,1.25,0,0,0,99,81.09,1.17,1.17,0,0,0,100.43,80.66Zm28.85-1.28c2.86-.92,2.76-0.87,2.77-1.3,0-1.1-1.48-4.54-2-4.64a18.66,18.66,0,0,0-4.87,1.5,26.48,26.48,0,0,0,1.22,4.82C126.62,80.19,126.85,80.16,129.28,79.38Zm25.46,0.12c0-.19-0.82-1.37-3.51-5.09-1.32-1.82-2.25-3-2.3-2.79a36,36,0,0,0,2.18,5.47,3.52,3.52,0,0,0,2.22,2.18C154.42,79.77,154.75,79.82,154.75,79.5Zm-31.5-.12a1.84,1.84,0,0,0,.74-0.61,0.8,0.8,0,0,0,.07-1,1.37,1.37,0,0,0-2.25-.49,1.1,1.1,0,0,0,.14,1.79A0.94,0.94,0,0,0,123.24,79.37Zm-38.86-.59a20.1,20.1,0,0,0,1.37-4.38c0-.56.06-0.53-2.82-1.67-2-.78-2.41-0.9-2.59-0.71a25.92,25.92,0,0,0-1.87,4.66,0.65,0.65,0,0,0,.22.51,43.6,43.6,0,0,0,5,2A0.85,0.85,0,0,0,84.38,78.79Zm58.54,0a1.21,1.21,0,0,0,.43-2,1.25,1.25,0,0,0-1.88-.13A1.31,1.31,0,0,0,142.92,78.81Zm-53.81-.43a1.74,1.74,0,0,0,.37-0.88,1.42,1.42,0,0,0-1.18-1.21,2.08,2.08,0,0,1-.61.1,1.26,1.26,0,0,0-1,1.19A1.41,1.41,0,0,0,89.11,78.38Zm57.49-.77a0.62,0.62,0,0,0,.34-0.34A4.45,4.45,0,0,0,145.09,76c-0.35,0-.35.06,0,0.75C145.64,77.84,145.9,78,146.6,77.61ZM113,77.17a0.57,0.57,0,0,0,.44-0.48,27.16,27.16,0,0,0-.35-4L113,71.92,111,72a10.64,10.64,0,0,0-2.39.27c-0.44.2-.44,0.24-0.39,2,0.07,2.36.18,3,.52,3.1A34.75,34.75,0,0,0,113,77.17ZM150,77.34c0-.06-0.47-1.26-1-2.67s-1.25-3.39-1.52-4.4a7,7,0,0,0-1.32-2.93c-1.29-1.73-1.35-1.57-.55,1.57a52.66,52.66,0,0,0,2.12,6.81A3.23,3.23,0,0,0,148.77,77C149.48,77.41,150,77.56,150,77.34Zm-47.31-1.83c0.19-2,.11-3.17-0.23-3.34a15.27,15.27,0,0,0-4.22-.5c-0.48.18-.44,0.08-0.83,2.5-0.22,1.4-.25,2-0.11,2.1a14.5,14.5,0,0,0,4.35.75l0.89,0Zm19.46,0a12.36,12.36,0,0,0,2.27-.76c0.19-.17.13-0.58-0.33-2.21a11.11,11.11,0,0,0-.79-2.24c-0.2-.2-0.53-0.17-2.16.22a7.33,7.33,0,0,0-2.12.72,1.5,1.5,0,0,0,0,1.1c0.09,0.46.24,1.41,0.33,2.11,0.18,1.39.26,1.61,0.58,1.61C120,76,121,75.79,122.11,75.49Zm18.1-.43a5.11,5.11,0,0,0,1.9-1.21,15.57,15.57,0,0,0-2-1.91c-1.44-1.26-2-1.65-2.22-1.55a7.87,7.87,0,0,0-1.91,1.1,1.38,1.38,0,0,0,.15.84C137.27,75,137.81,76,138,76A16,16,0,0,0,140.22,75.06Zm-5.15.41a1.15,1.15,0,0,0-.21-1.76,1.23,1.23,0,0,0-1.71,1.75A1.35,1.35,0,0,0,135.06,75.47Zm-28.56-.34c1.18-1.25-.82-2.85-2-1.64a1,1,0,0,0,0,1.66A1.55,1.55,0,0,0,106.5,75.13Zm-15.12-.19a14.09,14.09,0,0,0,.77-4.41c-0.17-.2-0.66-0.38-3-1.09-1.14-.35-1.59-0.31-1.78.16a20,20,0,0,0-1,4.06,2.44,2.44,0,0,0,1.13.55l2,0.61C90.66,75.2,91.15,75.23,91.38,74.94Zm26.09-.27a1.25,1.25,0,0,0-1-2.11,1,1,0,0,0-1.09.42,1.27,1.27,0,0,0,1.31,2.08A1.36,1.36,0,0,0,117.46,74.67ZM146.23,75c0-.07-0.36-1.32-0.8-2.76-0.86-2.84-1.46-5.11-2-7.42-0.33-1.53-1.3-3.36-1.77-3.36-0.32,0-.32,0,0.09,1.85l0.55,2.53c0.11,0.53.51,2,.88,3.33s0.73,2.64.8,3a4.74,4.74,0,0,0,1.44,2.7C146,75.18,146.24,75.22,146.23,75Zm-50.58-.75a1.32,1.32,0,0,0,.28-1.48,2,2,0,0,0-1.48-.8,1.25,1.25,0,0,0-1.07,1.3A1.37,1.37,0,0,0,95.65,74.28Zm39-2.95a3.34,3.34,0,0,0,.85-0.55,4,4,0,0,0-.49-1.45c-0.33-.7-0.73-1.57-0.89-1.94a1.69,1.69,0,0,0-.58-0.77c-0.64-.24-4.68,1.37-4.68,1.87a18.46,18.46,0,0,0,1.47,4.25A19.93,19.93,0,0,0,134.65,71.33Zm-6.92.82a1.2,1.2,0,0,0-1-2.07,1.44,1.44,0,0,0-1.44,1.09A1.46,1.46,0,0,0,127.73,72.15ZM143,72.46s-0.32-1.28-.71-2.76a43.3,43.3,0,0,1-1.71-8.32c-0.1-1.67-.15-1.83-0.75-2.69a2.2,2.2,0,0,0-.82-0.86c-0.32.11,0.13,4.78,0.62,6.46,0.1,0.34.27,1.09,0.37,1.67,0.35,1.89,1.73,5.75,2.22,6.18S143,72.65,143,72.46Zm-31.13-1.33c0.59-.09,1.74-0.21,2.57-0.27a16.42,16.42,0,0,0,2-.25c0.29-.08,1.13-0.24,1.86-0.36a60.5,60.5,0,0,0,8.63-2.2c3.22-1.07,6.26-2.35,6.52-2.75a0.85,0.85,0,0,0-.33-0.9c-0.53-.68-0.87-0.78-1.43-0.4A43.17,43.17,0,0,1,126,66.31a58.51,58.51,0,0,1-29.35,2,41,41,0,0,1-8.31-2.05l-2.46-.81-0.6.65c-0.68.73-.74,1-0.29,1.13l1,0.41A55.53,55.53,0,0,0,96.67,70.5C101.58,71.33,108.69,71.63,111.91,71.13ZM85,70.7a1.08,1.08,0,0,0-.56-2,0.76,0.76,0,0,0-.93.37,1.72,1.72,0,0,0-.38.81,1.74,1.74,0,0,0,1.15,1.2A1.45,1.45,0,0,0,85,70.7ZM140,69.61a41.48,41.48,0,0,1-2.13-11.29,14.23,14.23,0,0,0-.15-2.06c-0.17-.85-0.87-2-1.24-2-0.21,0-.23.47-0.14,2.85a38.38,38.38,0,0,0,1.18,8.5c0.65,2.65.85,3.13,1.65,4s1.11,0.74.82,0h0Zm-27.13-3.49A56.59,56.59,0,0,0,122,64.56c3.5-.9,8.82-2.83,8.82-3.21a1.38,1.38,0,0,0-.83-0.92,29.77,29.77,0,0,0-2.87.89,65.88,65.88,0,0,1-12.8,3.23,16.58,16.58,0,0,0-4.15,1c-1.56.59-1.85,0.75-1.51,0.84a3.19,3.19,0,0,0,1,0Zm23.77,0.21a3.29,3.29,0,0,0-.17-0.75,61.48,61.48,0,0,1-1.14-10.35c0-3,0-3-.5-3.59-0.75-.94-0.91-0.57-1,2.32-0.11,3.36.57,9.38,1.22,10.83C135.6,66,136.66,67,136.66,66.33ZM104.39,66a22.4,22.4,0,0,0,9.47-3.81c4.66-3.07,8.87-7.4,10.5-10.78L125,50.11l-0.44-1.46a48.37,48.37,0,0,1-1.79-6.72,46.9,46.9,0,0,1-.78-6.15l-0.13-2.11L121,32.54c-1.26-1.75-1.43-1.86-3.78-2.44a30.77,30.77,0,0,1-16.12-9.51,9.19,9.19,0,0,0-1.35-1.36,5.87,5.87,0,0,0-1,1.25,38,38,0,0,1-7.72,8l-1.55,1.14V30.9a3.26,3.26,0,0,0,.18,1.4,2.5,2.5,0,0,0,1.11-.21,7.44,7.44,0,0,1,2.43-.31,4.68,4.68,0,0,1,2.52.49,5.16,5.16,0,0,1,2.56,2.65c1.5,3.25,1.24,6.59-.92,11.6-0.71,1.66-.75,2.09-0.22,2.64s1,0.54,1,.07a1.58,1.58,0,0,1,1.4-1.06,7.05,7.05,0,0,1,2,.88c1.63,0.95,1.89,1,2.65.62,0.95-.48.8-1.74-0.26-2.3-0.64-.34-0.81-0.88-0.33-1.06,0.77-.29,1.75.93,2,2.45a2.24,2.24,0,0,1-1.35,2.46,2.77,2.77,0,0,1-2.64-.15c-1.13-.52-2-0.58-2-0.14a2.55,2.55,0,0,0,.46,1c0.71,1,.09,1.49-0.72.54a9.65,9.65,0,0,0-1.92-1.32A12.27,12.27,0,0,1,95.7,50a3.19,3.19,0,0,1,.12-2.58A10.26,10.26,0,0,0,97,44.27a2.22,2.22,0,0,0-1.08.47c-0.9.56-1.45,0.64-1.44,0.2a4.12,4.12,0,0,1,1-1,3.57,3.57,0,0,0,1-1.1c0-.32-0.13-0.31-1,0A8.35,8.35,0,0,1,91,43a3.62,3.62,0,0,0-1.27-.2c-0.31.12-.35,5-0.06,7.29a55.91,55.91,0,0,0,1,6c1.05,3.91,4.3,8,7.26,9.09A10.12,10.12,0,0,0,104.39,66Zm-5-6c-2.05-.72-2.11-1.85-0.06-1.24a6.19,6.19,0,0,0,3.8-.09c1-.43,1.27-0.44,1.27,0C104.38,59.87,101.33,60.7,99.37,60ZM95,58.24a1,1,0,0,1,0-1,16.93,16.93,0,0,0,.34-1.71l0.14-1,0.72,0.05a2.48,2.48,0,0,0,1.5-.39A2.56,2.56,0,0,1,100,54a0.84,0.84,0,0,0,1-.09c0.67-.39.95-0.38,2.6,0.14s2,0.55,2.59,0,0.84-.43,1.14,1.43c0.35,2.15.06,2.54-1.42,1.93a4.68,4.68,0,0,0-3.27.1l-1.32.37-1.74-.39c-2-.45-2.44-0.39-3.32.45C95.57,58.56,95.31,58.63,95,58.24Zm14-12.6a13.93,13.93,0,0,1-3.63-3.22A9.14,9.14,0,0,0,104,41a1.47,1.47,0,0,1-.37-1.32,4.7,4.7,0,0,0-.51-1.71,3.31,3.31,0,0,1-.43-1.37,1.08,1.08,0,0,1,.86-0.08c0.65,0.1,1,0,2.36-.68,2.56-1.25,3.64-1.56,5.1-1.45A8.48,8.48,0,0,1,115.48,36c1.39,1,3.61,3.33,3.61,3.83s-0.62.93-2.24,1.26c-0.86.18-2.21,0.52-3,.76a12,12,0,0,1-5.5.65,3.9,3.9,0,0,0-1.26-.12,16.87,16.87,0,0,0,2.65,2.88C110.61,46.06,110,46.33,109,45.64Zm3.15-4.55c0.64-.63.95-1.44,0.65-1.72-0.13-.12-0.32.09-0.61,0.67-0.54,1.08-1.51,1.64-2.21,1.27a1.89,1.89,0,0,1-.94-1.56c-0.12-.69-0.62-0.93-0.8-0.38a2.77,2.77,0,0,0,.85,2,3,3,0,0,0,1.42.26A1.69,1.69,0,0,0,112.1,41.08ZM107.75,41a5.6,5.6,0,0,0-.31-0.88c-0.26-.63-0.38-0.75-0.75-0.7-0.71.08-.68,0.83,0,1.32S107.75,41.26,107.75,41Zm7.32-.51c0.59-.3.5-0.51-0.26-0.68a0.79,0.79,0,0,0-1,.84C113.78,41,114.11,41,115.07,40.5Zm0.57-3.32A7.72,7.72,0,0,0,107.55,36c-1.94.87-1.72,1.18,0.46,0.65a11.15,11.15,0,0,1,6.82.62C116.17,38,116.5,37.93,115.64,37.18Zm3.37-.71A19.14,19.14,0,0,0,113.69,34a11.14,11.14,0,0,0-8,.5c-1.75.74-2.22,0.76-2.56,0.13-0.46-.85,1-2.44,2.9-3.15a7.39,7.39,0,0,1,3.24-.41,10.81,10.81,0,0,1,4.08.59,12.79,12.79,0,0,1,5.35,2.85c1.62,1.33,2.19,2,2.19,2.45S120.35,37.35,119,36.48ZM95,65.08c0-.27-1.59-1-3.31-1.58-1.88-.61-3-0.74-3-0.35,0,0.22,1.74.84,4.17,1.49C94.94,65.19,95,65.2,95,65.08Zm20.58-1.67a0.36,0.36,0,0,0-.12-0.7,1.78,1.78,0,0,0-1.13.72A1.24,1.24,0,0,0,115.55,63.41Zm2.29-.52c0.23-.14.22-0.24,0-0.79a1.28,1.28,0,0,0-.47-0.62,0.77,0.77,0,0,0-.6.84C117,63,117.34,63.21,117.85,62.89Zm15.63-1.13a56.32,56.32,0,0,1-.38-10.08c0.22-2.2.17-2.46-.5-3.07-0.29-.26-0.38-0.28-0.45-0.09l-0.31.94c-0.51,1.53-.18,10.56.43,11.75a5.49,5.49,0,0,0,1.32,1.6A3.49,3.49,0,0,0,133.48,61.76Zm-41,.58a2.43,2.43,0,0,0-.61-0.8c-0.55-.54-0.66-0.58-1-0.39a1.07,1.07,0,0,0-.67.72,5.4,5.4,0,0,0,2,.65A0.26,0.26,0,0,0,92.49,62.34Zm28-.08a3,3,0,0,0-.46-1.09c-0.58-1-1.06-1.31-1.46-.84-0.18.22-.14,0.45,0.24,1.26s0.48,1,1,.88A2.19,2.19,0,0,0,120.5,62.26Zm2.11-.81A9.66,9.66,0,0,0,120.93,58a1.17,1.17,0,0,0-.59.35c-0.41.41-.34,0.68,0.64,2.42,0.55,1,.68,1.1,1.1,1.05A0.57,0.57,0,0,0,122.61,61.45Zm1.9-.35c0.54-.24.57-0.08-0.59-2.86-0.95-2.27-1.25-2.57-1.72-1.67-0.27.52-.26,0.59,0.44,2.24s1.16,2.5,1.33,2.5A3.34,3.34,0,0,0,124.51,61.1Zm2.25-.89c0.25-.2.23-0.33-0.26-1.36-0.3-.63-0.88-1.89-1.28-2.81-0.56-1.27-.82-1.67-1.08-1.67-0.55,0-.5.64,0.2,2.49,0.9,2.38,1.54,3.56,1.93,3.56A1,1,0,0,0,126.76,60.21Zm2.45-1.06c0-.27-3.27-6.91-3.55-7.2s-0.76.72-.66,1.16c0,0.22.51,1.3,1,2.41s1.1,2.41,1.3,2.89c0.48,1.15.72,1.34,1.38,1.11A0.77,0.77,0,0,0,129.21,59.16Zm1.49-2.23a22,22,0,0,1,.22-6.87c0.49-3,.49-3.33,0-3.9a0.77,0.77,0,0,0-.62-0.39c-0.53.33-1.17,5.37-1.08,8.53,0.06,2.17.07,2.2,0.75,3.39a2.2,2.2,0,0,0,.83,1.05A5.62,5.62,0,0,0,130.69,56.92Zm-2.37-4.26a44.63,44.63,0,0,1,.78-6.32c0.14-.59.28-1.28,0.31-1.53,0.06-.58-0.38-1.41-0.71-1.34s-1.09,2.67-1.39,5.57L127,51.75l0.46,1a1.51,1.51,0,0,0,.64.91A1.91,1.91,0,0,0,128.32,52.66Zm22.22-2.81a2.85,2.85,0,0,0-.89-1.18,15.77,15.77,0,0,1-4.12-7.58,7.2,7.2,0,0,0-.61-1.85,11.71,11.71,0,0,0-1.17-.57A18.71,18.71,0,0,1,140,36.46c-1.17-.88-1.58-1-1.11-0.27,0.26,0.39,5.3,7,8.92,11.59Q150.17,50.82,150.54,49.86Zm-24.17-1a27.63,27.63,0,0,1,1-5l0.55-1.54a1.66,1.66,0,0,0-.81-1.22c-0.33,0-1.78,4.27-1.78,5.26a6.55,6.55,0,0,0,.9,2.63A0.15,0.15,0,0,0,126.37,48.9Zm31.56-.3c0.17-.21.06-0.64-0.58-2.24a54.11,54.11,0,0,1-2.53-7.5c-0.53-2.22-.69-2.63-1.05-2.63s-0.52.49-.24,1a3.78,3.78,0,0,1-.1,2.77,2.54,2.54,0,0,1-3.51.69,2.35,2.35,0,0,1-1.19-1.93c-0.13-.9-0.6-1-0.69-0.1a5.44,5.44,0,0,0,3.25,4.94,6.49,6.49,0,0,0,1.29.5,0.43,0.43,0,0,1,.33.31c0.85,2.47,2.7,4.4,4.25,4.42a1.14,1.14,0,0,0,.77-0.25h0Zm-32.41-6.38a15.44,15.44,0,0,0,.67-2.25,2,2,0,0,0-.89-1.27,10.89,10.89,0,0,0-1.06,3.53,3.57,3.57,0,0,0,.5,1.9A9.53,9.53,0,0,0,125.53,42.22Zm-31-.78c0.87-.65,1.33-2.23.57-1.94a1.47,1.47,0,0,0-.44.78A1.54,1.54,0,0,1,93,41.49a1.33,1.33,0,0,1-1.47-1.13c-0.27-.79-0.57-1-0.74-0.46a2.15,2.15,0,0,0,.95,1.86A2.89,2.89,0,0,0,94.51,41.44Zm-4,.05a1.55,1.55,0,0,0-.82-1c-0.36,0-.31.82,0.06,1S90.54,41.72,90.54,41.49ZM97.18,41c0.89-.38,1-0.6.46-0.88a1,1,0,0,0-1.4.46C95.84,41.42,96,41.49,97.18,41Zm27-2.36c0.29-1.13.25-1.42-.24-2l-0.44-.49v1.34C123.53,39.5,123.86,40,124.22,38.61Zm-32.79-1.8A4.94,4.94,0,0,1,94,36.48a10.68,10.68,0,0,1,2.22.48,13.15,13.15,0,0,0,1.45.45l0.44,0.08-0.44-.36a9.1,9.1,0,0,0-7.09-1c-0.85.29-1,.4-1,0.84s0,0.49.27,0.38Zm58.79-.16a2,2,0,0,0,.81-1.43,1.57,1.57,0,0,0-1.57-1.15A1.21,1.21,0,0,0,148,35.31,1.57,1.57,0,0,0,150.22,36.65Zm-52.94-.9a9.22,9.22,0,0,0-2.09-1.44,7.44,7.44,0,0,0-3.52-.51c-1.39.25-2.19,0.67-2.19,1.15s0.33,0.53,1.42.15a7.66,7.66,0,0,1,4.52.17,10.08,10.08,0,0,1,1.3.53C96.86,35.93,97.28,35.9,97.28,35.75Zm-6.47-8.53a31.9,31.9,0,0,0,6.66-7.17c1.25-1.86,1.34-2.12,1-2.68s-0.55-.54-0.92.05A34,34,0,0,1,90.14,26a1.61,1.61,0,0,0-.84,1.33C89.3,28.36,89.4,28.35,90.81,27.23Zm49.87-3.7a1.25,1.25,0,0,0-.27-2.19,1.53,1.53,0,0,0-1.86.56,0.76,0.76,0,0,0-.12,1,1.72,1.72,0,0,0,.51.71A2,2,0,0,0,140.68,23.53Z"/><path id="path2991" class="cls-2" d="M114.76,95.48m21.63-8.06c-0.1-.3-0.22-0.35-0.68-0.29M80.53,91.3c-1.2-.45-1.25-0.5-1.23-1a5.49,5.49,0,0,1,.48-1.53l0.46-1-0.54-.33a6.25,6.25,0,0,0-1.37-.54,15.45,15.45,0,0,1-2.07-.79c-5.71-2.64-1.1-2.43-1.1-3A2.89,2.89,0,0,1,76,82c0.44-.43-5.44-2.35-5.2-2.75,0.43-.71.43-0.78,0.52-6a55.89,55.89,0,0,1,1.1-11.73,68.63,68.63,0,0,1,3.08-10.52l0.9-2.19a72.36,72.36,0,0,1,3.73-7.21A64.94,64.94,0,0,1,87,32.12a11.26,11.26,0,0,0,1.51-2,1,1,0,0,1,.35-0.56c0.26-.07.53,3.08,0.45,5.39,0,0.39,0,.88,0,1.1,0,1.28,0,1.67,0,2.1,0,0.27,0,1.11,0,1.88s0,1.68,0,2,0,2.15,0,4a34,34,0,0,0,1.76,12.1,10.63,10.63,0,0,1,.54,1.78,1.48,1.48,0,0,1-.72.76,3.81,3.81,0,0,0-1.07,1,2.19,2.19,0,0,1-.86.8c-0.53.22-.83,0.67-0.59,0.88,0.58,0.5,6.51,2.1,7.76,2.1a14.61,14.61,0,0,1,2.79.48,13,13,0,0,0,4.75.44,17.92,17.92,0,0,1,3.59.16c0.63,0.19,1.94.13,6.61-.29A64,64,0,0,0,121.33,65c4.56-1.17,9.53-3,9.88-3.59a0.49,0.49,0,0,1,.36-0.25,4.92,4.92,0,0,1,1.65,2,5,5,0,0,0,.92,1.29c0.36,0.36,1,1,1.33,1.47a7,7,0,0,0,1.35,1.24,5.92,5.92,0,0,1,1.49,1.72,10.91,10.91,0,0,0,2.56,2.75,21.38,21.38,0,0,0,2.36,1.77,3.57,3.57,0,0,1,1,.88,11.65,11.65,0,0,0,3.49,2.37,2.77,2.77,0,0,1,1,.69,1.68,1.68,0,0,0,.69.55,4,4,0,0,1,1.92,1.65,0.93,0.93,0,0,1-.61.6,2.51,2.51,0,0,0-.71.44A17.08,17.08,0,0,1,148,81.73l-2.26,1.14c-0.15.08-.39,0.2-0.53,0.26a4.81,4.81,0,0,0-2,1.35c0,0.36-.35,0,10.53,10.74m-50.39-2.72-6.7-.29c0-.41-0.57-0.54-1.5-0.32m17.7-.69a103.77,103.77,0,0,0,11.38-1.66c0.29-.09,1.17-0.29,2-0.45,1.53-.31,5.85-1.57,8.16-2.38,5.18-1.81,12.77-5.5,15.25-7.43,0.35-.27.35-0.28-0.18-0.72-0.84-.7-1.27-0.73-2.38-0.16-0.54.28-1.38,0.77-1.85,1.1a12.75,12.75,0,0,1-1.51.88,9.47,9.47,0,0,0-1.08.58,81.06,81.06,0,0,1-10.2,4.26,83,83,0,0,1-17.41,3.52,104.72,104.72,0,0,1-15.85,0,78.08,78.08,0,0,1-21.2-5.23c-0.93-.37-4.64-2.22-6.27-3.11l-0.94-.52,5.72,2c-0.83.87-.79,1,0.49,1.77C82.51,87,85.53,88.91,94,90.31a64.65,64.65,0,0,0,10.73,1A67.35,67.35,0,0,0,112.77,91.2Zm1.61-3.28c0.31-.16.33-0.32,0.21-2.39a18.84,18.84,0,0,0-.2-2.29,22.89,22.89,0,0,0-4.42.17,11.53,11.53,0,0,1-1.24.21l-0.53,0-0.05,2c-0.07,2.87-.25,2.73,3.12,2.58A19,19,0,0,0,114.38,87.92Zm-12.66-.41a10.68,10.68,0,0,0,.17-2.27V83.42l-1-.11c-0.56-.06-1.8-0.22-2.76-0.35-1.92-.27-2.21-0.23-2.33.32a15.57,15.57,0,0,0-.32,3.81,32.62,32.62,0,0,0,5.33.84C101.45,88,101.57,87.9,101.72,87.51Zm3.85-.25a1,1,0,0,0,.58-1.23c-0.13-.9-1.85-1.25-2.39-0.49a1.36,1.36,0,0,0,.08,1.71A1.28,1.28,0,0,0,105.57,87.26Zm19.82-1a12.46,12.46,0,0,0,2.19-.64c0.28-.22.17-1.43-0.23-2.55a9.69,9.69,0,0,1-.37-1.49c-0.16-1-.42-1.11-2.35-0.58l-2.74.73a2.8,2.8,0,0,0-1.29.56,2.48,2.48,0,0,0,.06,1c0.09,0.4.26,1.25,0.38,1.87,0.33,1.75.39,1.81,1.47,1.68C123,86.77,124.32,86.51,125.39,86.26Zm-6.94.12a1.84,1.84,0,0,0,.74-0.61,0.8,0.8,0,0,0,.09-0.95,1.6,1.6,0,0,0-1.41-.9,1.42,1.42,0,0,0-1.26,1.32,1.07,1.07,0,0,0,.47,1A1.1,1.1,0,0,0,118.46,86.39Zm-25.1-.58a1.17,1.17,0,0,0-.16-2c-1.12-.57-2.11-0.12-2.11,1A1.36,1.36,0,0,0,93.35,85.8Zm-4.22-.65a18.47,18.47,0,0,0,.67-3.42c0-.21-0.45-0.4-1.39-0.63-0.73-.18-1.95-0.55-2.71-0.81A2.63,2.63,0,0,0,84.05,80a7.22,7.22,0,0,0-.88,2c-0.47,1.44-.56,1.88-0.39,2a12.34,12.34,0,0,0,2.08.77l2.31,0.72a3.93,3.93,0,0,0,1.14.11C88.89,85.6,89,85.52,89.13,85.15Zm41.74-1.43a1.24,1.24,0,0,0,.07-2.24,2.1,2.1,0,0,0-1.87.45,1.33,1.33,0,0,0,.75,1.82A1,1,0,0,0,130.87,83.73Zm5.95-1.22a19.27,19.27,0,0,0,2.71-1.21l0.39-.31-0.46-1.12c-0.25-.61-0.64-1.57-0.85-2.11a2.61,2.61,0,0,0-.66-1.1,6.9,6.9,0,0,0-2.07.75c-1,.47-2.1,1-2.47,1.07a1.47,1.47,0,0,0-.78.47c-0.19.48,1,4.17,1.42,4.33S134.44,83.42,136.82,82.51Zm-28.89.54c0.21-.13.28-0.67,0.33-2.57,0.06-2.15,0-2.43-.26-2.64a19.67,19.67,0,0,0-5.46-.09,21.3,21.3,0,0,0-.29,2.39c-0.14,1.62-.14,2.3,0,2.44a8.52,8.52,0,0,0,2.18.39C107.09,83.24,107.61,83.25,107.92,83.05ZM118,82.23a10.53,10.53,0,0,0,2.25-.48c0.23-.17.23-0.4,0-1.77-0.32-2.07-.61-3.19-0.9-3.42a1.15,1.15,0,0,0-1,0,18.53,18.53,0,0,1-2.4.34,10.78,10.78,0,0,0-1.81.25,5.16,5.16,0,0,0-.09,2c0.11,2.37.2,2.95,0.5,3.25S114.93,82.66,118,82.23ZM81,82a1.15,1.15,0,0,0-.16-1.7,1.41,1.41,0,0,0-2,.08,1.13,1.13,0,0,0,0,1.63A1.45,1.45,0,0,0,81,82Zm15.51-2.42c0.29-1.81.34-2.41,0.18-2.57a6.23,6.23,0,0,0-1.63-.5c-0.78-.16-1.84-0.42-2.35-0.58-1.23-.37-1.3-0.29-1.88,2.2-0.63,2.68-.62,2.79.2,3a25.37,25.37,0,0,0,4.48.84l0.62,0Zm-19.43.39a9,9,0,0,0,.75-2.06c0-.48-0.08-0.57-1.34-1.21s-1.38-.67-1.77-0.41a16.61,16.61,0,0,0-3.13,3.11,12.54,12.54,0,0,0,3.16,1.75C76.18,81.71,76.28,81.66,77.09,79.94Zm35,1.15a1.37,1.37,0,0,0,0-2,1.64,1.64,0,0,0-2,.16,1,1,0,0,0,0,1.66A1.29,1.29,0,0,0,112.12,81.09Zm-11.69-.43a1,1,0,0,0,0-1.56A1.3,1.3,0,0,0,98.56,79,1.25,1.25,0,0,0,99,81.09,1.17,1.17,0,0,0,100.43,80.66Zm28.85-1.28c2.86-.92,2.76-0.87,2.77-1.3,0-1.1-1.48-4.54-2-4.64a18.66,18.66,0,0,0-4.87,1.5,26.48,26.48,0,0,0,1.22,4.82C126.62,80.19,126.85,80.16,129.28,79.38Zm-6,0a1.84,1.84,0,0,0,.74-0.61,0.8,0.8,0,0,0,.07-1,1.37,1.37,0,0,0-2.25-.49,1.1,1.1,0,0,0,.14,1.79A0.94,0.94,0,0,0,123.24,79.37Zm-38.86-.59a20.1,20.1,0,0,0,1.37-4.38c0-.56.06-0.53-2.82-1.67-2-.78-2.41-0.9-2.59-0.71a25.92,25.92,0,0,0-1.87,4.66,0.65,0.65,0,0,0,.22.51,43.6,43.6,0,0,0,5,2A0.85,0.85,0,0,0,84.38,78.79Zm58.54,0a1.21,1.21,0,0,0,.43-2,1.25,1.25,0,0,0-1.88-.13A1.31,1.31,0,0,0,142.92,78.81Zm-53.81-.43a1.74,1.74,0,0,0,.37-0.88,1.42,1.42,0,0,0-1.18-1.21,2.08,2.08,0,0,1-.61.1,1.26,1.26,0,0,0-1,1.19A1.41,1.41,0,0,0,89.11,78.38Zm57.49-.77a0.62,0.62,0,0,0,.34-0.34A4.45,4.45,0,0,0,145.09,76c-0.35,0-.35.06,0,0.75C145.64,77.84,145.9,78,146.6,77.61ZM113,77.17a0.57,0.57,0,0,0,.44-0.48,27.16,27.16,0,0,0-.35-4L113,71.92,111,72a10.64,10.64,0,0,0-2.39.27c-0.44.2-.44,0.24-0.39,2,0.07,2.36.18,3,.52,3.1A34.75,34.75,0,0,0,113,77.17Zm-10.36-1.66c0.19-2,.11-3.17-0.23-3.34a15.27,15.27,0,0,0-4.22-.5c-0.48.18-.44,0.08-0.83,2.5-0.22,1.4-.25,2-0.11,2.1a14.5,14.5,0,0,0,4.35.75l0.89,0Zm19.46,0a12.36,12.36,0,0,0,2.27-.76c0.19-.17.13-0.58-0.33-2.21a11.11,11.11,0,0,0-.79-2.24c-0.2-.2-0.53-0.17-2.16.22a7.33,7.33,0,0,0-2.12.72,1.5,1.5,0,0,0,0,1.1c0.09,0.46.24,1.41,0.33,2.11,0.18,1.39.26,1.61,0.58,1.61C120,76,121,75.79,122.11,75.49Zm18.1-.43a5.11,5.11,0,0,0,1.9-1.21,15.57,15.57,0,0,0-2-1.91c-1.44-1.26-2-1.65-2.22-1.55a7.87,7.87,0,0,0-1.91,1.1,1.38,1.38,0,0,0,.15.84C137.27,75,137.81,76,138,76A16,16,0,0,0,140.22,75.06Zm-5.15.41a1.15,1.15,0,0,0-.21-1.76,1.23,1.23,0,0,0-1.71,1.75A1.35,1.35,0,0,0,135.06,75.47Zm-28.56-.34c1.18-1.25-.82-2.85-2-1.64a1,1,0,0,0,0,1.66A1.55,1.55,0,0,0,106.5,75.13Zm-15.12-.19a14.09,14.09,0,0,0,.77-4.41c-0.17-.2-0.66-0.38-3-1.09-1.14-.35-1.59-0.31-1.78.16a20,20,0,0,0-1,4.06,2.44,2.44,0,0,0,1.13.55l2,0.61C90.66,75.2,91.15,75.23,91.38,74.94Zm26.09-.27a1.25,1.25,0,0,0-1-2.11,1,1,0,0,0-1.09.42,1.27,1.27,0,0,0,1.31,2.08A1.36,1.36,0,0,0,117.46,74.67Zm-21.81-.4a1.32,1.32,0,0,0,.28-1.48,2,2,0,0,0-1.48-.8,1.25,1.25,0,0,0-1.07,1.3A1.37,1.37,0,0,0,95.65,74.28Zm39-2.95a3.34,3.34,0,0,0,.85-0.55,4,4,0,0,0-.49-1.45c-0.33-.7-0.73-1.57-0.89-1.94a1.69,1.69,0,0,0-.58-0.77c-0.64-.24-4.68,1.37-4.68,1.87a18.46,18.46,0,0,0,1.47,4.25A19.93,19.93,0,0,0,134.65,71.33Zm-6.92.82a1.2,1.2,0,0,0-1-2.07,1.44,1.44,0,0,0-1.44,1.09A1.46,1.46,0,0,0,127.73,72.15Zm-15.82-1c0.59-.09,1.74-0.21,2.57-0.27a16.42,16.42,0,0,0,2-.25c0.29-.08,1.13-0.24,1.86-0.36a60.5,60.5,0,0,0,8.63-2.2c3.22-1.07,6.26-2.35,6.52-2.75a0.85,0.85,0,0,0-.33-0.9c-0.53-.68-0.87-0.78-1.43-0.4A43.17,43.17,0,0,1,126,66.31a58.51,58.51,0,0,1-29.35,2,41,41,0,0,1-8.31-2.05l-2.46-.81-0.6.65c-0.68.73-.74,1-0.29,1.13l1,0.41A55.53,55.53,0,0,0,96.67,70.5C101.58,71.33,108.69,71.63,111.91,71.13ZM85,70.7a1.08,1.08,0,0,0-.56-2,0.76,0.76,0,0,0-.93.37,1.72,1.72,0,0,0-.38.81,1.74,1.74,0,0,0,1.15,1.2A1.45,1.45,0,0,0,85,70.7ZM158.7,87.6c-0.16-.18-0.82-1.1-1.48-2.06s-1.58-2.24-2.06-2.86a17.32,17.32,0,0,1-1.08-1.51,14.89,14.89,0,0,0-1-1.44c-0.46-.58,2.75.36,2.26-0.37s-1.22-1.75-1.61-2.28-1.15-1.6-1.69-2.37c-1.79-2.57-2-2.8-2.77-3.86-0.45-.58-1.28-1.72-1.85-2.54s-1.62-2.26-2.33-3.2-1.41-1.93-1.55-2.19a14.64,14.64,0,0,0-1-1.48c-0.42-.55-1.17-1.56-1.66-2.25s-1.13-1.55-1.42-1.92-1.05-1.44-1.68-2.37-1.75-2.5-2.48-3.5c-2.22-3-5.26-7.24-6.87-9.53a8.56,8.56,0,0,0-.93-1.18,9.22,9.22,0,0,1-1-1.28c-1.34-2-2.25-3.26-2.64-3.68-0.2-.22-1-1.37-1.88-2.56s-1.89-2.67-2.35-3.28l-1.47-2c-2.09-2.9-2.89-4-3.28-4.53-1.94-2.58-3.81-5.16-4.9-6.78a7.28,7.28,0,0,0-.93-1.18c-0.23-.17,1.13-0.22,6.57-0.22h6.85l0.51,0.59c0.28,0.32,1.06,1.32,1.75,2.21s2.17,2.79,3.3,4.21,3.3,4.2,4.82,6.16,3,3.77,3.24,4l0.47,0.44-0.13-.53a18,18,0,0,0-.64-1.75,10,10,0,0,1-.62-2.28c-0.15-1.41-.26-1.58-1.44-2.14A19.71,19.71,0,0,1,129,22.46a15.6,15.6,0,0,1-2.93-5.3c-0.53-1.68-.56-2-0.19-2a0.31,0.31,0,0,1,.27.33A18.24,18.24,0,0,0,128,20.32a12.34,12.34,0,0,0,5.81,5.11c0.91,0.34,1.14.5,1.18,0.83s0.25,1.18.49,2.13a14.24,14.24,0,0,0,4.14,7.1,16.48,16.48,0,0,0,4.26,2.59c1.64,0.57,1.57.51,1.79,1.6,0.11,0.56.32,1.45,0.47,2,1,3.41,4.32,7.89,5.93,7.89a0.91,0.91,0,0,0,.58-0.14,5.26,5.26,0,0,0-1.16-1.36,13.69,13.69,0,0,1-3.15-4.24A11.52,11.52,0,0,1,147.12,39a1.19,1.19,0,0,0-1.19-1.48,15.91,15.91,0,0,1-4.88-2.5,13.11,13.11,0,0,1-4.49-8.42l-0.12-.91-1.89-.91a9.93,9.93,0,0,1-3.5-2.51,9.42,9.42,0,0,1-2.34-3.09,19.14,19.14,0,0,1-1.07-2.76l-0.34-1.27h3.61L131.46,16a1.67,1.67,0,0,1,.46,1.45,7.74,7.74,0,0,0,.92,3.67,6.46,6.46,0,0,0,2.52,2.29c0.84,0.35.91,0.19,0.26-.54a2.78,2.78,0,0,1,.1-4,1.59,1.59,0,0,1,1.48-.66,2.28,2.28,0,0,1,1.67.63l0.84,0.63,0.43-.55a3.3,3.3,0,0,1,4-.89,2.93,2.93,0,0,1,1.47,2.82,2.15,2.15,0,0,1-.55,1.85,4.7,4.7,0,0,1-1.06,1,0.65,0.65,0,0,0-.46.71c0.3,2.28-.42,3.65-2.09,3.93a2.55,2.55,0,0,1-2.77-1.82l-0.18-.85a0.44,0.44,0,0,0-.43-0.39c-0.91,0,0,2.54,1.39,4.06a4.63,4.63,0,0,0,1.18,1c0.36,0,.74.56,1.07,1.58a13.88,13.88,0,0,0,.65,1.63c0.64,1.26,2.35,2.58,3.36,2.58,0.48,0,.41-0.32-0.11-0.56a3.44,3.44,0,0,1-1.5-2.47c0-1.9,1.84-3.38,3.42-2.74a4.34,4.34,0,0,1,1.21.91l0.64,0.68,0.58-.32,1-.54a3.23,3.23,0,0,1,1.24-.22H153l-0.12-1.36a74.16,74.16,0,0,1-.13-10c0.24-4.12.26-4.21,0.92-4.21,0.45,0,.49,0,0.36.39a50.84,50.84,0,0,0-.5,8.72,36.43,36.43,0,0,0,.84,7.1,10.77,10.77,0,0,1,.7,3.55,6.47,6.47,0,0,0,.45,2.26,40.13,40.13,0,0,1,1.5,5.55,20.57,20.57,0,0,0,1.81,4.41,8.7,8.7,0,0,1,.81,2c-0.05.28-.12,0.3-3,0.87L154,50.6l-3.34.7a26,26,0,0,0-2.88.72c-0.61.32-.47,0.59,1.34,2.79,0.59,0.71,1.57,1.92,2.19,2.71s1.28,1.61,1.48,1.84,0.61,0.74.92,1.14l1.89,2.38c1.4,1.75-.76,2.09,1.12,4.52,0.62,0.81,1.4,1.74,1.73,2.09l0.6,0.62L159,79C159,87.31,159,87.9,158.7,87.6Zm-8.16-37.74a2.85,2.85,0,0,0-.89-1.18,15.77,15.77,0,0,1-4.12-7.58,7.2,7.2,0,0,0-.61-1.85,11.71,11.71,0,0,0-1.17-.57A18.71,18.71,0,0,1,140,36.46c-1.17-.88-1.58-1-1.11-0.27,0.26,0.39,5.3,7,8.92,11.59Q150.17,50.82,150.54,49.86Zm7.39-1.26c0.17-.21.06-0.64-0.58-2.24a54.11,54.11,0,0,1-2.53-7.5c-0.53-2.22-.69-2.63-1.05-2.63s-0.52.49-.24,1a3.78,3.78,0,0,1-.1,2.77,2.54,2.54,0,0,1-3.51.69,2.35,2.35,0,0,1-1.19-1.93c-0.13-.9-0.6-1-0.69-0.1a5.44,5.44,0,0,0,3.25,4.94,6.49,6.49,0,0,0,1.29.5,0.43,0.43,0,0,1,.33.31c0.85,2.47,2.7,4.4,4.25,4.42a1.14,1.14,0,0,0,.77-0.25h0Zm-7.72-11.95a2,2,0,0,0,.81-1.43,1.57,1.57,0,0,0-1.57-1.15A1.21,1.21,0,0,0,148,35.31,1.57,1.57,0,0,0,150.22,36.65Zm-9.54-13.12a1.25,1.25,0,0,0-.27-2.19,1.53,1.53,0,0,0-1.86.56,0.76,0.76,0,0,0-.12,1,1.72,1.72,0,0,0,.51.71A2,2,0,0,0,140.68,23.53Z"/><path id="path2989" d="M114.76,95.48m21.63-8.06c-0.1-.3-0.22-0.35-0.68-0.29M80.53,91.3c-1.2-.45-1.25-0.5-1.23-1a5.49,5.49,0,0,1,.48-1.53l0.46-1-0.54-.33a6.25,6.25,0,0,0-1.37-.54,15.45,15.45,0,0,1-2.07-.79c-5.71-2.64-1.1-2.43-1.1-3A2.89,2.89,0,0,1,76,82c0.44-.43-5.44-2.35-5.2-2.75,0.43-.71.43-0.78,0.52-6a55.89,55.89,0,0,1,1.1-11.73,68.63,68.63,0,0,1,3.08-10.52l0.9-2.19a72.36,72.36,0,0,1,3.73-7.21A64.94,64.94,0,0,1,87,32.12a11.26,11.26,0,0,0,1.51-2,1,1,0,0,1,.35-0.56c0.26-.07.53,3.08,0.45,5.39,0,0.39,0,.88,0,1.1,0,1.28,0,1.67,0,2.1,0,0.27,0,1.11,0,1.88s0,1.68,0,2,0,2.15,0,4a34,34,0,0,0,1.76,12.1,10.63,10.63,0,0,1,.54,1.78,1.48,1.48,0,0,1-.72.76,3.81,3.81,0,0,0-1.07,1,2.19,2.19,0,0,1-.86.8c-0.53.22-.83,0.67-0.59,0.88,0.58,0.5,6.51,2.1,7.76,2.1a14.61,14.61,0,0,1,2.79.48,13,13,0,0,0,4.75.44,17.92,17.92,0,0,1,3.59.16c0.63,0.19,1.94.13,6.61-.29A64,64,0,0,0,121.33,65c4.56-1.17,9.53-3,9.88-3.59a0.49,0.49,0,0,1,.36-0.25,4.92,4.92,0,0,1,1.65,2,5,5,0,0,0,.92,1.29c0.36,0.36,1,1,1.33,1.47a7,7,0,0,0,1.35,1.24,5.92,5.92,0,0,1,1.49,1.72,10.91,10.91,0,0,0,2.56,2.75,21.38,21.38,0,0,0,2.36,1.77,3.57,3.57,0,0,1,1,.88,11.65,11.65,0,0,0,3.49,2.37,2.77,2.77,0,0,1,1,.69,1.68,1.68,0,0,0,.69.55,4,4,0,0,1,1.92,1.65,0.93,0.93,0,0,1-.61.6,2.51,2.51,0,0,0-.71.44A17.08,17.08,0,0,1,148,81.73l-2.26,1.14c-0.15.08-.39,0.2-0.53,0.26a4.81,4.81,0,0,0-2,1.35c0,0.36-.35,0,10.53,10.74m-50.39-2.72-6.7-.29c0-.41-0.57-0.54-1.5-0.32m17.7-.69a103.77,103.77,0,0,0,11.38-1.66c0.29-.09,1.17-0.29,2-0.45,1.53-.31,5.85-1.57,8.16-2.38,5.18-1.81,12.77-5.5,15.25-7.43,0.35-.27.35-0.28-0.18-0.72-0.84-.7-1.27-0.73-2.38-0.16-0.54.28-1.38,0.77-1.85,1.1a12.75,12.75,0,0,1-1.51.88,9.47,9.47,0,0,0-1.08.58,81.06,81.06,0,0,1-10.2,4.26,83,83,0,0,1-17.41,3.52,104.72,104.72,0,0,1-15.85,0,78.08,78.08,0,0,1-21.2-5.23c-0.93-.37-4.64-2.22-6.27-3.11l-0.94-.52,5.72,2c-0.83.87-.79,1,0.49,1.77C82.51,87,85.53,88.91,94,90.31a64.65,64.65,0,0,0,10.73,1A67.35,67.35,0,0,0,112.77,91.2Zm1.61-3.28c0.31-.16.33-0.32,0.21-2.39a18.84,18.84,0,0,0-.2-2.29,22.89,22.89,0,0,0-4.42.17,11.53,11.53,0,0,1-1.24.21l-0.53,0-0.05,2c-0.07,2.87-.25,2.73,3.12,2.58A19,19,0,0,0,114.38,87.92Zm-12.66-.41a10.68,10.68,0,0,0,.17-2.27V83.42l-1-.11c-0.56-.06-1.8-0.22-2.76-0.35-1.92-.27-2.21-0.23-2.33.32a15.57,15.57,0,0,0-.32,3.81,32.62,32.62,0,0,0,5.33.84C101.45,88,101.57,87.9,101.72,87.51Zm3.85-.25a1,1,0,0,0,.58-1.23c-0.13-.9-1.85-1.25-2.39-0.49a1.36,1.36,0,0,0,.08,1.71A1.28,1.28,0,0,0,105.57,87.26Zm19.82-1a12.46,12.46,0,0,0,2.19-.64c0.28-.22.17-1.43-0.23-2.55a9.69,9.69,0,0,1-.37-1.49c-0.16-1-.42-1.11-2.35-0.58l-2.74.73a2.8,2.8,0,0,0-1.29.56,2.48,2.48,0,0,0,.06,1c0.09,0.4.26,1.25,0.38,1.87,0.33,1.75.39,1.81,1.47,1.68C123,86.77,124.32,86.51,125.39,86.26Zm-6.94.12a1.84,1.84,0,0,0,.74-0.61,0.8,0.8,0,0,0,.09-0.95,1.6,1.6,0,0,0-1.41-.9,1.42,1.42,0,0,0-1.26,1.32,1.07,1.07,0,0,0,.47,1A1.1,1.1,0,0,0,118.46,86.39Zm-25.1-.58a1.17,1.17,0,0,0-.16-2c-1.12-.57-2.11-0.12-2.11,1A1.36,1.36,0,0,0,93.35,85.8Zm-4.22-.65a18.47,18.47,0,0,0,.67-3.42c0-.21-0.45-0.4-1.39-0.63-0.73-.18-1.95-0.55-2.71-0.81A2.63,2.63,0,0,0,84.05,80a7.22,7.22,0,0,0-.88,2c-0.47,1.44-.56,1.88-0.39,2a12.34,12.34,0,0,0,2.08.77l2.31,0.72a3.93,3.93,0,0,0,1.14.11C88.89,85.6,89,85.52,89.13,85.15Zm41.74-1.43a1.24,1.24,0,0,0,.07-2.24,2.1,2.1,0,0,0-1.87.45,1.33,1.33,0,0,0,.75,1.82A1,1,0,0,0,130.87,83.73Zm5.95-1.22a19.27,19.27,0,0,0,2.71-1.21l0.39-.31-0.46-1.12c-0.25-.61-0.64-1.57-0.85-2.11a2.61,2.61,0,0,0-.66-1.1,6.9,6.9,0,0,0-2.07.75c-1,.47-2.1,1-2.47,1.07a1.47,1.47,0,0,0-.78.47c-0.19.48,1,4.17,1.42,4.33S134.44,83.42,136.82,82.51Zm-28.89.54c0.21-.13.28-0.67,0.33-2.57,0.06-2.15,0-2.43-.26-2.64a19.67,19.67,0,0,0-5.46-.09,21.3,21.3,0,0,0-.29,2.39c-0.14,1.62-.14,2.3,0,2.44a8.52,8.52,0,0,0,2.18.39C107.09,83.24,107.61,83.25,107.92,83.05ZM118,82.23a10.53,10.53,0,0,0,2.25-.48c0.23-.17.23-0.4,0-1.77-0.32-2.07-.61-3.19-0.9-3.42a1.15,1.15,0,0,0-1,0,18.53,18.53,0,0,1-2.4.34,10.78,10.78,0,0,0-1.81.25,5.16,5.16,0,0,0-.09,2c0.11,2.37.2,2.95,0.5,3.25S114.93,82.66,118,82.23ZM81,82a1.15,1.15,0,0,0-.16-1.7,1.41,1.41,0,0,0-2,.08,1.13,1.13,0,0,0,0,1.63A1.45,1.45,0,0,0,81,82Zm15.51-2.42c0.29-1.81.34-2.41,0.18-2.57a6.23,6.23,0,0,0-1.63-.5c-0.78-.16-1.84-0.42-2.35-0.58-1.23-.37-1.3-0.29-1.88,2.2-0.63,2.68-.62,2.79.2,3a25.37,25.37,0,0,0,4.48.84l0.62,0Zm-19.43.39a9,9,0,0,0,.75-2.06c0-.48-0.08-0.57-1.34-1.21s-1.38-.67-1.77-0.41a16.61,16.61,0,0,0-3.13,3.11,12.54,12.54,0,0,0,3.16,1.75C76.18,81.71,76.28,81.66,77.09,79.94Zm35,1.15a1.37,1.37,0,0,0,0-2,1.64,1.64,0,0,0-2,.16,1,1,0,0,0,0,1.66A1.29,1.29,0,0,0,112.12,81.09Zm-11.69-.43a1,1,0,0,0,0-1.56A1.3,1.3,0,0,0,98.56,79,1.25,1.25,0,0,0,99,81.09,1.17,1.17,0,0,0,100.43,80.66Zm28.85-1.28c2.86-.92,2.76-0.87,2.77-1.3,0-1.1-1.48-4.54-2-4.64a18.66,18.66,0,0,0-4.87,1.5,26.48,26.48,0,0,0,1.22,4.82C126.62,80.19,126.85,80.16,129.28,79.38Zm-6,0a1.84,1.84,0,0,0,.74-0.61,0.8,0.8,0,0,0,.07-1,1.37,1.37,0,0,0-2.25-.49,1.1,1.1,0,0,0,.14,1.79A0.94,0.94,0,0,0,123.24,79.37Zm-38.86-.59a20.1,20.1,0,0,0,1.37-4.38c0-.56.06-0.53-2.82-1.67-2-.78-2.41-0.9-2.59-0.71a25.92,25.92,0,0,0-1.87,4.66,0.65,0.65,0,0,0,.22.51,43.6,43.6,0,0,0,5,2A0.85,0.85,0,0,0,84.38,78.79Zm58.54,0a1.21,1.21,0,0,0,.43-2,1.25,1.25,0,0,0-1.88-.13A1.31,1.31,0,0,0,142.92,78.81Zm-53.81-.43a1.74,1.74,0,0,0,.37-0.88,1.42,1.42,0,0,0-1.18-1.21,2.08,2.08,0,0,1-.61.1,1.26,1.26,0,0,0-1,1.19A1.41,1.41,0,0,0,89.11,78.38Zm57.49-.77a0.62,0.62,0,0,0,.34-0.34A4.45,4.45,0,0,0,145.09,76c-0.35,0-.35.06,0,0.75C145.64,77.84,145.9,78,146.6,77.61ZM113,77.17a0.57,0.57,0,0,0,.44-0.48,27.16,27.16,0,0,0-.35-4L113,71.92,111,72a10.64,10.64,0,0,0-2.39.27c-0.44.2-.44,0.24-0.39,2,0.07,2.36.18,3,.52,3.1A34.75,34.75,0,0,0,113,77.17Zm-10.36-1.66c0.19-2,.11-3.17-0.23-3.34a15.27,15.27,0,0,0-4.22-.5c-0.48.18-.44,0.08-0.83,2.5-0.22,1.4-.25,2-0.11,2.1a14.5,14.5,0,0,0,4.35.75l0.89,0Zm19.46,0a12.36,12.36,0,0,0,2.27-.76c0.19-.17.13-0.58-0.33-2.21a11.11,11.11,0,0,0-.79-2.24c-0.2-.2-0.53-0.17-2.16.22a7.33,7.33,0,0,0-2.12.72,1.5,1.5,0,0,0,0,1.1c0.09,0.46.24,1.41,0.33,2.11,0.18,1.39.26,1.61,0.58,1.61C120,76,121,75.79,122.11,75.49Zm18.1-.43a5.11,5.11,0,0,0,1.9-1.21,15.57,15.57,0,0,0-2-1.91c-1.44-1.26-2-1.65-2.22-1.55a7.87,7.87,0,0,0-1.91,1.1,1.38,1.38,0,0,0,.15.84C137.27,75,137.81,76,138,76A16,16,0,0,0,140.22,75.06Zm-5.15.41a1.15,1.15,0,0,0-.21-1.76,1.23,1.23,0,0,0-1.71,1.75A1.35,1.35,0,0,0,135.06,75.47Zm-28.56-.34c1.18-1.25-.82-2.85-2-1.64a1,1,0,0,0,0,1.66A1.55,1.55,0,0,0,106.5,75.13Zm-15.12-.19a14.09,14.09,0,0,0,.77-4.41c-0.17-.2-0.66-0.38-3-1.09-1.14-.35-1.59-0.31-1.78.16a20,20,0,0,0-1,4.06,2.44,2.44,0,0,0,1.13.55l2,0.61C90.66,75.2,91.15,75.23,91.38,74.94Zm26.09-.27a1.25,1.25,0,0,0-1-2.11,1,1,0,0,0-1.09.42,1.27,1.27,0,0,0,1.31,2.08A1.36,1.36,0,0,0,117.46,74.67Zm-21.81-.4a1.32,1.32,0,0,0,.28-1.48,2,2,0,0,0-1.48-.8,1.25,1.25,0,0,0-1.07,1.3A1.37,1.37,0,0,0,95.65,74.28Zm39-2.95a3.34,3.34,0,0,0,.85-0.55,4,4,0,0,0-.49-1.45c-0.33-.7-0.73-1.57-0.89-1.94a1.69,1.69,0,0,0-.58-0.77c-0.64-.24-4.68,1.37-4.68,1.87a18.46,18.46,0,0,0,1.47,4.25A19.93,19.93,0,0,0,134.65,71.33Zm-6.92.82a1.2,1.2,0,0,0-1-2.07,1.44,1.44,0,0,0-1.44,1.09A1.46,1.46,0,0,0,127.73,72.15Zm-15.82-1c0.59-.09,1.74-0.21,2.57-0.27a16.42,16.42,0,0,0,2-.25c0.29-.08,1.13-0.24,1.86-0.36a60.5,60.5,0,0,0,8.63-2.2c3.22-1.07,6.26-2.35,6.52-2.75a0.85,0.85,0,0,0-.33-0.9c-0.53-.68-0.87-0.78-1.43-0.4A43.17,43.17,0,0,1,126,66.31a58.51,58.51,0,0,1-29.35,2,41,41,0,0,1-8.31-2.05l-2.46-.81-0.6.65c-0.68.73-.74,1-0.29,1.13l1,0.41A55.53,55.53,0,0,0,96.67,70.5C101.58,71.33,108.69,71.63,111.91,71.13ZM85,70.7a1.08,1.08,0,0,0-.56-2,0.76,0.76,0,0,0-.93.37,1.72,1.72,0,0,0-.38.81,1.74,1.74,0,0,0,1.15,1.2A1.45,1.45,0,0,0,85,70.7Zm2.48-7.77c0.78-.77,1.85-1.84,2.38-2.38l1-1-0.46-1.81C89.65,55.18,89,52,88.77,50.36a9.64,9.64,0,0,0-.26-1.46c-0.21-.21-0.61.42-1.7,2.66a44.44,44.44,0,0,0-3.27,9.31c-1.22,5.45-1.33,6.17-1,6.45A37.1,37.1,0,0,0,87.44,62.93ZM158.7,87.6c-0.16-.18-0.82-1.11-1.48-2.06s-1.58-2.24-2.06-2.86a17.32,17.32,0,0,1-1.08-1.51,14.89,14.89,0,0,0-1-1.44c-0.46-.58,2.75.36,2.26-0.37s-1.22-1.75-1.61-2.28-1.15-1.6-1.69-2.37c-1.79-2.57-2-2.8-2.77-3.86-0.45-.58-1.28-1.72-1.85-2.54s-1.62-2.26-2.33-3.2-1.41-1.93-1.55-2.19a14.64,14.64,0,0,0-1-1.48c-0.42-.55-1.17-1.56-1.66-2.25s-1.13-1.55-1.42-1.92-1.05-1.44-1.68-2.37-1.75-2.5-2.48-3.5c-2.22-3-5.26-7.24-6.87-9.53a8.56,8.56,0,0,0-.93-1.18,9.22,9.22,0,0,1-1-1.28c-1.34-2-2.25-3.26-2.64-3.68-0.2-.22-1-1.37-1.88-2.56s-1.89-2.67-2.35-3.28l-1.47-2c-2.09-2.9-2.89-4-3.28-4.53-1.94-2.58-3.81-5.16-4.9-6.78a7.28,7.28,0,0,0-.93-1.18c-0.25-.19-0.23-0.21.16-0.22s0.61,0.24,1.24,1.15c0.44,0.63,1.08,1.52,1.43,2,0.76,1,4.23,5.73,4.64,6.34,0.16,0.24,1,1.39,1.84,2.54,2.56,3.49,4.88,6.69,6.1,8.4,1.55,2.18,5,6.88,7.33,10.05,1.05,1.42,2.36,3.22,2.9,4,1,1.38,1.52,2.14,4.14,5.73,2.18,3,2.35,3.21,3.63,5,1.4,2,4.52,6.25,6.16,8.47,0.6,0.82,1.54,2.13,2.09,2.91s1.82,2.56,2.83,3.95,2.21,3,2.65,3.66-2.87-.43-2.46.1c0.69,0.9,1.24,1.65,3.31,4.54s2.12,3,2.07,3.45S159,87.92,158.7,87.6ZM158.2,70.79c-0.44-.58-1.6-2.07-2.57-3.31s2.07-.47,1.87-0.74-2.76-3.5-5.94-7.46l-1.42-1.79q-2.46-3.12-3.9-4.78c-0.54-.63-1.2-1.46-1.46-1.84s-1.76-2.32-3.32-4.3-4.05-5.13-5.52-7-3.27-4.15-4-5-1.87-2.29-2.51-3.11c-3.66-4.67-5.17-6.57-6-7.52s-1.57-1.94-4.69-6l-1.28-1.64-0.84-1.07h5.81l0.51,0.59c0.28,0.32,1.06,1.32,1.75,2.21s2.17,2.79,3.3,4.21,3.3,4.2,4.82,6.16,3,3.77,3.24,4l0.47,0.44-0.13-.53a18,18,0,0,0-.64-1.75,10,10,0,0,1-.62-2.28c-0.15-1.41-.26-1.58-1.44-2.14A19.71,19.71,0,0,1,129,22.46a15.6,15.6,0,0,1-2.93-5.3c-0.53-1.68-.56-2-0.19-2a0.31,0.31,0,0,1,.27.33A18.24,18.24,0,0,0,128,20.32a12.34,12.34,0,0,0,5.81,5.11c0.91,0.34,1.14.5,1.18,0.83s0.25,1.18.49,2.13a14.24,14.24,0,0,0,4.14,7.1,16.48,16.48,0,0,0,4.26,2.59c1.64,0.57,1.57.51,1.79,1.6,0.11,0.56.32,1.45,0.47,2,1,3.41,4.32,7.89,5.93,7.89a0.91,0.91,0,0,0,.58-0.14,5.26,5.26,0,0,0-1.16-1.36,13.69,13.69,0,0,1-3.15-4.24A11.52,11.52,0,0,1,147.12,39a1.19,1.19,0,0,0-1.19-1.48,15.91,15.91,0,0,1-4.88-2.5,13.11,13.11,0,0,1-4.49-8.42l-0.12-.91-1.89-.91a9.93,9.93,0,0,1-3.5-2.51,9.42,9.42,0,0,1-2.34-3.09,19.14,19.14,0,0,1-1.07-2.76l-0.34-1.27h3.61L131.46,16a1.67,1.67,0,0,1,.46,1.45,7.74,7.74,0,0,0,.92,3.67,6.46,6.46,0,0,0,2.52,2.29c0.84,0.35.91,0.19,0.26-.54a2.78,2.78,0,0,1,.1-4,1.59,1.59,0,0,1,1.48-.66,2.28,2.28,0,0,1,1.67.63l0.84,0.63,0.43-.55a3.3,3.3,0,0,1,4-.89,2.93,2.93,0,0,1,1.47,2.82,2.15,2.15,0,0,1-.55,1.85,4.7,4.7,0,0,1-1.06,1,0.65,0.65,0,0,0-.46.71c0.3,2.28-.42,3.65-2.09,3.93a2.57,2.57,0,0,1-2.75-1.74c-0.25-1.25-.29-1.33-0.63-1.33-0.91,0,0,2.54,1.39,4.06a4.63,4.63,0,0,0,1.18,1c0.36,0,.74.56,1.07,1.58a13.88,13.88,0,0,0,.65,1.63c0.64,1.26,2.35,2.58,3.36,2.58,0.48,0,.41-0.32-0.11-0.56a3.44,3.44,0,0,1-1.5-2.47c0-1.9,1.84-3.38,3.42-2.74a4.34,4.34,0,0,1,1.21.91l0.64,0.68,0.58-.32,1-.54a3.23,3.23,0,0,1,1.24-.22H153l-0.12-1.36a74.16,74.16,0,0,1-.13-10c0.24-4.12.26-4.21,0.92-4.21,0.45,0,.49,0,0.36.39a50.84,50.84,0,0,0-.5,8.72,36.43,36.43,0,0,0,.84,7.1,10.77,10.77,0,0,1,.7,3.55,6.47,6.47,0,0,0,.45,2.26,40.13,40.13,0,0,1,1.5,5.55,20.57,20.57,0,0,0,1.81,4.41,8.7,8.7,0,0,1,.81,2c-0.05.28-.12,0.3-3,0.87L154,50.6l-3.34.7a26,26,0,0,0-2.88.72c-0.61.32-.47,0.59,1.34,2.79,0.59,0.71,1.57,1.92,2.19,2.71s1.28,1.61,1.48,1.84,0.61,0.74.92,1.14l1.89,2.38c1.4,1.75-.76,2.09,1.12,4.52,0.62,0.81,1.41,1.75,1.74,2.1a1.45,1.45,0,0,1,.55,1.49l-0.06.86Zm-7.65-20.93a2.85,2.85,0,0,0-.89-1.18,15.77,15.77,0,0,1-4.12-7.58,7.2,7.2,0,0,0-.61-1.85,11.71,11.71,0,0,0-1.17-.57A18.71,18.71,0,0,1,140,36.46c-1.17-.88-1.58-1-1.11-0.27,0.26,0.39,5.3,7,8.92,11.59Q150.17,50.82,150.54,49.86Zm7.39-1.26c0.17-.21.06-0.64-0.58-2.24a54.11,54.11,0,0,1-2.53-7.5c-0.53-2.22-.69-2.63-1.05-2.63s-0.52.49-.24,1a3.78,3.78,0,0,1-.1,2.77,2.54,2.54,0,0,1-3.51.69,2.35,2.35,0,0,1-1.19-1.93c-0.13-.9-0.6-1-0.69-0.1a5.44,5.44,0,0,0,3.25,4.94,6.49,6.49,0,0,0,1.29.5,0.43,0.43,0,0,1,.33.31c0.85,2.47,2.7,4.4,4.25,4.42a1.14,1.14,0,0,0,.77-0.25h0Zm-7.72-11.95a2,2,0,0,0,.81-1.43,1.57,1.57,0,0,0-1.57-1.15A1.21,1.21,0,0,0,148,35.31,1.57,1.57,0,0,0,150.22,36.65Zm-9.54-13.12a1.25,1.25,0,0,0-.27-2.19,1.53,1.53,0,0,0-1.86.56,0.76,0.76,0,0,0-.12,1,1.72,1.72,0,0,0,.51.71A2,2,0,0,0,140.68,23.53Z"/></g></svg>