<svg id="_100" data-name="100" xmlns="http://www.w3.org/2000/svg" viewBox="0 0 182.34 114.09"><defs><style>.cls-1{fill:#2d3344;stroke-width:2.83px;}.cls-1,.cls-2,.cls-3,.cls-5,.cls-6,.cls-7{stroke:#fff;stroke-miterlimit:22.93;}.cls-1,.cls-2,.cls-3,.cls-4,.cls-5,.cls-6,.cls-7{fill-rule:evenodd;}.cls-2,.cls-8{fill:#fff;}.cls-2,.cls-3,.cls-5,.cls-6,.cls-7{stroke-width:0.22px;}.cls-3{fill:#0f0f10;}.cls-4{fill:#050606;}.cls-5{fill:#e2e2e2;}.cls-6{fill:#d8d8d8;}.cls-7{fill:#e5e3e3;}</style></defs><title>$100</title><path class="cls-1" d="M181.33,513.48c49.43,0,89.75-19.91,89.75-44.31s-40.32-44.31-89.75-44.31-89.75,19.91-89.75,44.31S131.9,513.48,181.33,513.48Z" transform="translate(-90.16 -423.44)"/><path class="cls-2" d="M181.33,503.24c38,0,69-15.31,69-34.07s-31-34.07-69-34.07-69,15.31-69,34.07S143.32,503.24,181.33,503.24Z" transform="translate(-90.16 -423.44)"/><path class="cls-3" d="M181.33,500.58c35,0,63.63-14.11,63.63-31.42s-28.58-31.42-63.63-31.42-63.63,14.11-63.63,31.42S146.29,500.58,181.33,500.58Z" transform="translate(-90.16 -423.44)"/><path class="cls-2" d="M181.33,512.84c-5.85,0-11.56-.28-17.09-0.82V508.3c0-1.32,2.19-2.4,4.87-2.4h24.44c2.68,0,4.87,1.08,4.87,2.4V512c-5.53.53-11.24,0.82-17.09,0.82h0ZM257.94,491a63.43,63.43,0,0,1-10,6.9L241.44,496c-2.32-.66-3.12-2.14-1.78-3.28l12.22-10.45c1.34-1.15,4.33-1.54,6.65-.88l6.53,1.86a41,41,0,0,1-7.11,7.72h0Zm0-43.68a41.07,41.07,0,0,1,7.11,7.72l-6.53,1.86c-2.32.66-5.31,0.27-6.65-.88l-12.22-10.45c-1.34-1.15-.54-2.62,1.78-3.28l6.53-1.86a63.46,63.46,0,0,1,10,6.9h0Zm-76.61-21.84c5.85,0,11.56.28,17.09,0.82V430c0,1.32-2.19,2.4-4.87,2.4H169.11c-2.68,0-4.87-1.08-4.87-2.4v-3.72c5.53-.53,11.24-0.82,17.09-0.82h0Zm-76.61,21.84a63.44,63.44,0,0,1,10-6.9l6.53,1.86c2.32,0.66,3.12,2.14,1.78,3.28L110.79,456c-1.34,1.15-4.33,1.54-6.65.88L97.61,455a41.06,41.06,0,0,1,7.11-7.72h0Zm0,43.68a41.06,41.06,0,0,1-7.11-7.72l6.53-1.86c2.32-.66,5.31-0.27,6.65.88L123,492.76c1.34,1.15.54,2.62-1.78,3.28l-6.53,1.86A63.43,63.43,0,0,1,104.72,491Z" transform="translate(-90.16 -423.44)"/><path class="cls-4" d="M271.35,471.71c1.74,3.44,0,17.8,0,21.51,0,24.47-40.19,44.31-89.75,44.31s-89.75-19.84-89.75-44.31c0-3.71-1.74-18.06,0-21.51C91.84,496.18,132,516,181.59,516S271.35,496.18,271.35,471.71Z" transform="translate(-90.16 -423.44)"/><path class="cls-5" d="M265.05,506.67c-4,5.08-9.82,9.71-17.09,13.69V498.85c7.27-4,13.1-8.61,17.09-13.69v21.51Z" transform="translate(-90.16 -423.44)"/><path class="cls-6" d="M198.42,534.18V512.68c-5.53.53-11.24,0.81-17.09,0.81s-11.56-.28-17.09-0.81v21.51c5.53,0.53,11.24.81,17.09,0.81S192.89,534.71,198.42,534.18Z" transform="translate(-90.16 -423.44)"/><path class="cls-7" d="M114.7,498.85v21.51c-7.27-4-13.1-8.61-17.09-13.69V485.16C101.6,490.25,107.43,494.88,114.7,498.85Z" transform="translate(-90.16 -423.44)"/><path d="M140.74,474.6l-4.19.6a4,4,0,0,0-.57-1,2.8,2.8,0,0,0-.84-0.57v3a12.87,12.87,0,0,1,4.57,1.75,3.88,3.88,0,0,1,1.52,3.14,4,4,0,0,1-.55,2,5.11,5.11,0,0,1-1.4,1.55,5.83,5.83,0,0,1-1.81.9,9.7,9.7,0,0,1-2.34.33v1.93H133.5v-1.93a11.36,11.36,0,0,1-2.69-.49,5.57,5.57,0,0,1-1.78-1,4.87,4.87,0,0,1-1.15-1.34,5.88,5.88,0,0,1-.61-1.74l4.55-.48a3.66,3.66,0,0,0,.55,1.46,2.83,2.83,0,0,0,1.13.8v-3.61a22.58,22.58,0,0,1-3.23-1,4.17,4.17,0,0,1-1.65-1.34,3.64,3.64,0,0,1-.7-2.25,3.87,3.87,0,0,1,1.4-3,6.71,6.71,0,0,1,4.17-1.35v-1h1.64v1A7.42,7.42,0,0,1,139,472,4.31,4.31,0,0,1,140.74,474.6Zm-7.24-1a2.17,2.17,0,0,0-1,.53,1.1,1.1,0,0,0-.28.75,1.17,1.17,0,0,0,.29.79,2.15,2.15,0,0,0,1,.56v-2.63Zm1.64,10.06a2.72,2.72,0,0,0,1.4-.64,1.39,1.39,0,0,0,.45-1,1.27,1.27,0,0,0-.38-0.89,3.52,3.52,0,0,0-1.47-.75v3.28Z" transform="translate(-90.16 -423.44)"/><path d="M164.74,455.58V486h-9.28v-20a28.69,28.69,0,0,1-4.36,2.51,36.13,36.13,0,0,1-5.28,1.84v-6.83a23.26,23.26,0,0,0,7.28-3.29,13.7,13.7,0,0,0,4.06-4.74h7.59Z" transform="translate(-90.16 -423.44)"/><path d="M174.72,470.95q0-8.54,3.39-12t10.33-3.41a16.91,16.91,0,0,1,5.47.75,10.35,10.35,0,0,1,3.49,1.94,10.54,10.54,0,0,1,2.13,2.51,12.36,12.36,0,0,1,1.25,3.08,26.18,26.18,0,0,1,.92,7q0,8.15-3,11.93t-10.48,3.78a16,16,0,0,1-6.74-1.21,10.58,10.58,0,0,1-4.21-3.54,12.58,12.58,0,0,1-1.86-4.53A28.14,28.14,0,0,1,174.72,470.95Zm9.1,0q0,5.72,1.12,7.82a3.5,3.5,0,0,0,3.23,2.09,3.58,3.58,0,0,0,2.42-.89,5.34,5.34,0,0,0,1.51-2.81,26.74,26.74,0,0,0,.48-6q0-6-1.12-8a3.59,3.59,0,0,0-3.35-2.05,3.42,3.42,0,0,0-3.29,2.09Q183.82,465.31,183.82,471Z" transform="translate(-90.16 -423.44)"/><path d="M205.49,470.95q0-8.54,3.39-12t10.33-3.41a16.91,16.91,0,0,1,5.47.75,10.35,10.35,0,0,1,3.49,1.94,10.54,10.54,0,0,1,2.13,2.51,12.36,12.36,0,0,1,1.25,3.08,26.18,26.18,0,0,1,.92,7q0,8.15-3,11.93T219,486.56a16,16,0,0,1-6.74-1.21,10.58,10.58,0,0,1-4.21-3.54,12.58,12.58,0,0,1-1.86-4.53A28.14,28.14,0,0,1,205.49,470.95Zm9.1,0q0,5.72,1.12,7.82a3.5,3.5,0,0,0,3.23,2.09,3.58,3.58,0,0,0,2.42-.89,5.34,5.34,0,0,0,1.51-2.81,26.74,26.74,0,0,0,.48-6q0-6-1.12-8a3.59,3.59,0,0,0-3.35-2.05,3.42,3.42,0,0,0-3.29,2.09Q214.6,465.31,214.6,471Z" transform="translate(-90.16 -423.44)"/><path class="cls-8" d="M139.74,471.6l-4.19.6a4,4,0,0,0-.57-1,2.8,2.8,0,0,0-.84-0.57v3a12.87,12.87,0,0,1,4.57,1.75,3.88,3.88,0,0,1,1.52,3.14,4,4,0,0,1-.55,2,5.11,5.11,0,0,1-1.4,1.55,5.83,5.83,0,0,1-1.81.9,9.7,9.7,0,0,1-2.34.33v1.93H132.5v-1.93a11.36,11.36,0,0,1-2.69-.49,5.57,5.57,0,0,1-1.78-1,4.87,4.87,0,0,1-1.15-1.34,5.88,5.88,0,0,1-.61-1.74l4.55-.48a3.66,3.66,0,0,0,.55,1.46,2.83,2.83,0,0,0,1.13.8v-3.61a22.58,22.58,0,0,1-3.23-1,4.17,4.17,0,0,1-1.65-1.34,3.64,3.64,0,0,1-.7-2.25,3.87,3.87,0,0,1,1.4-3,6.71,6.71,0,0,1,4.17-1.35v-1h1.64v1A7.42,7.42,0,0,1,138,469,4.31,4.31,0,0,1,139.74,471.6Zm-7.24-1a2.17,2.17,0,0,0-1,.53,1.1,1.1,0,0,0-.28.75,1.17,1.17,0,0,0,.29.79,2.15,2.15,0,0,0,1,.56v-2.63Zm1.64,10.06a2.72,2.72,0,0,0,1.4-.64,1.39,1.39,0,0,0,.45-1,1.27,1.27,0,0,0-.38-0.89,3.52,3.52,0,0,0-1.47-.75v3.28Z" transform="translate(-90.16 -423.44)"/><path class="cls-8" d="M163.74,452.58V483h-9.28v-20a28.69,28.69,0,0,1-4.36,2.51,36.13,36.13,0,0,1-5.28,1.84v-6.83a23.26,23.26,0,0,0,7.28-3.29,13.7,13.7,0,0,0,4.06-4.74h7.59Z" transform="translate(-90.16 -423.44)"/><path class="cls-8" d="M173.72,467.95q0-8.54,3.39-12t10.33-3.41a16.91,16.91,0,0,1,5.47.75,10.35,10.35,0,0,1,3.49,1.94,10.54,10.54,0,0,1,2.13,2.51,12.36,12.36,0,0,1,1.25,3.08,26.18,26.18,0,0,1,.92,7q0,8.15-3,11.93t-10.48,3.78a16,16,0,0,1-6.74-1.21,10.58,10.58,0,0,1-4.21-3.54,12.58,12.58,0,0,1-1.86-4.53A28.14,28.14,0,0,1,173.72,467.95Zm9.1,0q0,5.72,1.12,7.82a3.5,3.5,0,0,0,3.23,2.09,3.58,3.58,0,0,0,2.42-.89,5.34,5.34,0,0,0,1.51-2.81,26.74,26.74,0,0,0,.48-6q0-6-1.12-8a3.59,3.59,0,0,0-3.35-2.05,3.42,3.42,0,0,0-3.29,2.09Q182.82,462.31,182.82,468Z" transform="translate(-90.16 -423.44)"/><path class="cls-8" d="M204.49,467.95q0-8.54,3.39-12t10.33-3.41a16.91,16.91,0,0,1,5.47.75,10.35,10.35,0,0,1,3.49,1.94,10.54,10.54,0,0,1,2.13,2.51,12.36,12.36,0,0,1,1.25,3.08,26.18,26.18,0,0,1,.92,7q0,8.15-3,11.93T218,483.56a16,16,0,0,1-6.74-1.21,10.58,10.58,0,0,1-4.21-3.54,12.58,12.58,0,0,1-1.86-4.53A28.14,28.14,0,0,1,204.49,467.95Zm9.1,0q0,5.72,1.12,7.82a3.5,3.5,0,0,0,3.23,2.09,3.58,3.58,0,0,0,2.42-.89,5.34,5.34,0,0,0,1.51-2.81,26.74,26.74,0,0,0,.48-6q0-6-1.12-8a3.59,3.59,0,0,0-3.35-2.05,3.42,3.42,0,0,0-3.29,2.09Q213.6,462.31,213.6,468Z" transform="translate(-90.16 -423.44)"/></svg>