<svg id="_1000" data-name="1000" xmlns="http://www.w3.org/2000/svg" viewBox="0 0 182.34 114.09"><defs><style>.cls-1{fill:#55469c;stroke-width:2.83px;}.cls-1,.cls-2,.cls-3,.cls-5,.cls-6,.cls-7{stroke:#fff;stroke-miterlimit:22.93;}.cls-1,.cls-2,.cls-3,.cls-4,.cls-5,.cls-6,.cls-7{fill-rule:evenodd;}.cls-2{fill:#f6ec13;}.cls-2,.cls-3,.cls-5,.cls-6,.cls-7{stroke-width:0.22px;}.cls-4{fill:#5c3d97;}.cls-5{fill:#d6d625;}.cls-6{fill:#d6df24;}.cls-7{fill:#dccc23;}.cls-8{fill:#fff;}</style></defs><title>$1000</title><path class="cls-1" d="M181.33,668.48c49.43,0,89.75-19.91,89.75-44.31s-40.32-44.31-89.75-44.31-89.75,19.91-89.75,44.31S131.9,668.48,181.33,668.48Z" transform="translate(-90.16 -578.44)"/><path class="cls-2" d="M181.33,658.24c38,0,69-15.31,69-34.07s-31-34.07-69-34.07-69,15.31-69,34.07S143.32,658.24,181.33,658.24Z" transform="translate(-90.16 -578.44)"/><path class="cls-3" d="M181.33,655.58c35,0,63.63-14.11,63.63-31.42s-28.58-31.42-63.63-31.42-63.63,14.11-63.63,31.42S146.29,655.58,181.33,655.58Z" transform="translate(-90.16 -578.44)"/><path class="cls-2" d="M181.33,667.84c-5.85,0-11.56-.28-17.09-0.82V663.3c0-1.32,2.19-2.4,4.87-2.4h24.44c2.68,0,4.87,1.08,4.87,2.4V667c-5.53.53-11.24,0.82-17.09,0.82h0ZM257.94,646a63.43,63.43,0,0,1-10,6.9L241.44,651c-2.32-.66-3.12-2.14-1.78-3.28l12.22-10.45c1.34-1.15,4.33-1.54,6.65-.88l6.53,1.86a41,41,0,0,1-7.11,7.72h0Zm0-43.68a41.07,41.07,0,0,1,7.11,7.72l-6.53,1.86c-2.32.66-5.31,0.27-6.65-.88l-12.22-10.45c-1.34-1.15-.54-2.62,1.78-3.28l6.53-1.86a63.46,63.46,0,0,1,10,6.9h0Zm-76.61-21.84c5.85,0,11.56.28,17.09,0.82V585c0,1.32-2.19,2.4-4.87,2.4H169.11c-2.68,0-4.87-1.08-4.87-2.4v-3.72c5.53-.53,11.24-0.82,17.09-0.82h0Zm-76.61,21.84a63.44,63.44,0,0,1,10-6.9l6.53,1.86c2.32,0.66,3.12,2.14,1.78,3.28L110.79,611c-1.34,1.15-4.33,1.54-6.65.88L97.61,610a41.06,41.06,0,0,1,7.11-7.72h0Zm0,43.68a41.06,41.06,0,0,1-7.11-7.72l6.53-1.86c2.32-.66,5.31-0.27,6.65.88L123,647.76c1.34,1.15.54,2.62-1.78,3.28l-6.53,1.86A63.43,63.43,0,0,1,104.72,646Z" transform="translate(-90.16 -578.44)"/><path class="cls-4" d="M271.35,626.71c1.74,3.44,0,17.8,0,21.51,0,24.47-40.19,44.31-89.75,44.31s-89.75-19.84-89.75-44.31c0-3.71-1.74-18.06,0-21.51C91.84,651.18,132,671,181.59,671S271.35,651.18,271.35,626.71Z" transform="translate(-90.16 -578.44)"/><path class="cls-5" d="M265.05,661.67c-4,5.08-9.82,9.71-17.09,13.69V653.85c7.27-4,13.1-8.61,17.09-13.69v21.51Z" transform="translate(-90.16 -578.44)"/><path class="cls-6" d="M198.42,689.18V667.68c-5.53.53-11.24,0.81-17.09,0.81s-11.56-.28-17.09-0.81v21.51c5.53,0.53,11.24.81,17.09,0.81S192.89,689.71,198.42,689.18Z" transform="translate(-90.16 -578.44)"/><path class="cls-7" d="M114.7,653.85v21.51c-7.27-4-13.1-8.61-17.09-13.69V640.16C101.6,645.25,107.43,649.88,114.7,653.85Z" transform="translate(-90.16 -578.44)"/><path d="M135.75,628.6l-3.6.6a4.17,4.17,0,0,0-.49-1,2.43,2.43,0,0,0-.72-0.57v3a10.21,10.21,0,0,1,3.93,1.75,4.14,4.14,0,0,1,1.31,3.14,4.48,4.48,0,0,1-.47,2,4.94,4.94,0,0,1-1.2,1.55,4.77,4.77,0,0,1-1.55.9,7.24,7.24,0,0,1-2,.33v1.93h-1.41v-1.93a8.52,8.52,0,0,1-2.31-.49,4.63,4.63,0,0,1-1.53-1,4.76,4.76,0,0,1-1-1.34,6.54,6.54,0,0,1-.52-1.74l3.91-.48a4,4,0,0,0,.47,1.46,2.48,2.48,0,0,0,1,.8v-3.61a17.42,17.42,0,0,1-2.77-1,3.75,3.75,0,0,1-1.42-1.34,4.06,4.06,0,0,1-.6-2.25,4.16,4.16,0,0,1,1.2-3,5.26,5.26,0,0,1,3.58-1.35v-1h1.41v1a5.73,5.73,0,0,1,3.31,1.08A4.39,4.39,0,0,1,135.75,628.6Zm-6.22-1a1.81,1.81,0,0,0-.86.53,1.2,1.2,0,0,0-.24.75,1.29,1.29,0,0,0,.25.79,1.81,1.81,0,0,0,.86.56v-2.63Zm1.41,10.06a2.21,2.21,0,0,0,1.2-.64,1.5,1.5,0,0,0,.38-1,1.39,1.39,0,0,0-.32-0.89,2.92,2.92,0,0,0-1.26-.75v3.28Z" transform="translate(-90.16 -578.44)"/><path d="M156.35,609.58V640h-8v-20a24,24,0,0,1-3.74,2.51,28.21,28.21,0,0,1-4.54,1.84v-6.83a18.8,18.8,0,0,0,6.25-3.29,13.37,13.37,0,0,0,3.48-4.74h6.52Z" transform="translate(-90.16 -578.44)"/><path d="M164.92,624.95q0-8.54,2.91-12t8.87-3.41a12.63,12.63,0,0,1,4.7.75,8.64,8.64,0,0,1,3,1.94,10.32,10.32,0,0,1,1.83,2.51,13.54,13.54,0,0,1,1.07,3.08,30.25,30.25,0,0,1,.79,7q0,8.15-2.61,11.93t-9,3.78a12,12,0,0,1-5.78-1.21,9.59,9.59,0,0,1-3.62-3.54,13.77,13.77,0,0,1-1.6-4.53A32.59,32.59,0,0,1,164.92,624.95Zm7.81,0q0,5.72,1,7.82a3,3,0,0,0,2.78,2.09,2.83,2.83,0,0,0,2.08-.89,5.64,5.64,0,0,0,1.3-2.81,31.08,31.08,0,0,0,.42-6q0-6-1-8a3.07,3.07,0,0,0-2.87-2.05,2.94,2.94,0,0,0-2.82,2.09Q172.74,619.31,172.74,625Z" transform="translate(-90.16 -578.44)"/><path d="M191.35,624.95q0-8.54,2.91-12t8.87-3.41a12.63,12.63,0,0,1,4.7.75,8.64,8.64,0,0,1,3,1.94,10.32,10.32,0,0,1,1.83,2.51,13.54,13.54,0,0,1,1.07,3.08,30.25,30.25,0,0,1,.79,7q0,8.15-2.61,11.93t-9,3.78a12,12,0,0,1-5.78-1.21,9.59,9.59,0,0,1-3.62-3.54,13.77,13.77,0,0,1-1.6-4.53A32.59,32.59,0,0,1,191.35,624.95Zm7.81,0q0,5.72,1,7.82a3,3,0,0,0,2.78,2.09A2.83,2.83,0,0,0,205,634a5.64,5.64,0,0,0,1.3-2.81,31.08,31.08,0,0,0,.42-6q0-6-1-8a3.07,3.07,0,0,0-2.87-2.05,2.94,2.94,0,0,0-2.82,2.09Q199.16,619.31,199.16,625Z" transform="translate(-90.16 -578.44)"/><path d="M217.77,624.95q0-8.54,2.91-12t8.87-3.41a12.63,12.63,0,0,1,4.7.75,8.64,8.64,0,0,1,3,1.94,10.32,10.32,0,0,1,1.83,2.51,13.54,13.54,0,0,1,1.07,3.08,30.25,30.25,0,0,1,.79,7q0,8.15-2.61,11.93t-9,3.78a12,12,0,0,1-5.78-1.21,9.59,9.59,0,0,1-3.62-3.54,13.77,13.77,0,0,1-1.6-4.53A32.59,32.59,0,0,1,217.77,624.95Zm7.81,0q0,5.72,1,7.82a3,3,0,0,0,2.78,2.09,2.83,2.83,0,0,0,2.08-.89,5.64,5.64,0,0,0,1.3-2.81,31.08,31.08,0,0,0,.42-6q0-6-1-8a3.07,3.07,0,0,0-2.87-2.05,2.94,2.94,0,0,0-2.82,2.09Q225.59,619.31,225.59,625Z" transform="translate(-90.16 -578.44)"/><path class="cls-8" d="M134.44,625.6l-3.5.6a4.21,4.21,0,0,0-.48-1,2.38,2.38,0,0,0-.7-0.57v3a9.83,9.83,0,0,1,3.83,1.75,4.19,4.19,0,0,1,1.27,3.14,4.58,4.58,0,0,1-.46,2,4.93,4.93,0,0,1-1.17,1.55,4.62,4.62,0,0,1-1.51.9,6.88,6.88,0,0,1-2,.33v1.93h-1.38v-1.93a8.12,8.12,0,0,1-2.25-.49,4.49,4.49,0,0,1-1.49-1,4.75,4.75,0,0,1-1-1.34,6.68,6.68,0,0,1-.51-1.74l3.81-.48a4.11,4.11,0,0,0,.46,1.46,2.43,2.43,0,0,0,.95.8v-3.61a16.72,16.72,0,0,1-2.7-1,3.69,3.69,0,0,1-1.38-1.34,4.15,4.15,0,0,1-.58-2.25,4.22,4.22,0,0,1,1.17-3,5,5,0,0,1,3.49-1.35v-1h1.38v1A5.49,5.49,0,0,1,133,623,4.42,4.42,0,0,1,134.44,625.6Zm-6.06-1a1.75,1.75,0,0,0-.84.53,1.22,1.22,0,0,0-.24.75,1.31,1.31,0,0,0,.24.79,1.76,1.76,0,0,0,.83.56v-2.63Zm1.38,10.06a2.14,2.14,0,0,0,1.17-.64,1.52,1.52,0,0,0,.37-1,1.41,1.41,0,0,0-.31-0.89,2.83,2.83,0,0,0-1.23-.75v3.28Z" transform="translate(-90.16 -578.44)"/><path class="cls-8" d="M154.51,606.58V637h-7.76v-20a23.33,23.33,0,0,1-3.65,2.51,27.09,27.09,0,0,1-4.42,1.84v-6.83a18.16,18.16,0,0,0,6.09-3.29,13.35,13.35,0,0,0,3.39-4.74h6.35Z" transform="translate(-90.16 -578.44)"/><path class="cls-8" d="M162.85,621.95q0-8.54,2.84-12t8.64-3.41a12,12,0,0,1,4.58.75,8.4,8.4,0,0,1,2.92,1.94,10.32,10.32,0,0,1,1.78,2.51,13.83,13.83,0,0,1,1,3.08,31,31,0,0,1,.77,7q0,8.15-2.54,11.93t-8.76,3.78a11.48,11.48,0,0,1-5.63-1.21,9.45,9.45,0,0,1-3.52-3.54,14,14,0,0,1-1.55-4.53A33.46,33.46,0,0,1,162.85,621.95Zm7.61,0q0,5.72.93,7.82a3,3,0,0,0,2.7,2.09,2.72,2.72,0,0,0,2-.89,5.71,5.71,0,0,0,1.26-2.81,31.86,31.86,0,0,0,.4-6q0-6-.93-8a3,3,0,0,0-2.8-2.05,2.87,2.87,0,0,0-2.75,2.09Q170.47,616.31,170.47,622Z" transform="translate(-90.16 -578.44)"/><path class="cls-8" d="M188.59,621.95q0-8.54,2.84-12t8.64-3.41a12,12,0,0,1,4.58.75,8.4,8.4,0,0,1,2.92,1.94,10.32,10.32,0,0,1,1.78,2.51,13.83,13.83,0,0,1,1,3.08,31,31,0,0,1,.77,7q0,8.15-2.54,11.93t-8.76,3.78a11.48,11.48,0,0,1-5.63-1.21,9.45,9.45,0,0,1-3.52-3.54,14,14,0,0,1-1.55-4.53A33.46,33.46,0,0,1,188.59,621.95Zm7.61,0q0,5.72.93,7.82a3,3,0,0,0,2.7,2.09,2.72,2.72,0,0,0,2-.89,5.71,5.71,0,0,0,1.26-2.81,31.86,31.86,0,0,0,.4-6q0-6-.93-8a3,3,0,0,0-2.8-2.05,2.87,2.87,0,0,0-2.75,2.09Q196.21,616.31,196.21,622Z" transform="translate(-90.16 -578.44)"/><path class="cls-8" d="M214.33,621.95q0-8.54,2.84-12t8.64-3.41a12,12,0,0,1,4.58.75,8.4,8.4,0,0,1,2.92,1.94,10.32,10.32,0,0,1,1.78,2.51,13.83,13.83,0,0,1,1,3.08,31,31,0,0,1,.77,7q0,8.15-2.54,11.93t-8.76,3.78a11.48,11.48,0,0,1-5.63-1.21,9.45,9.45,0,0,1-3.52-3.54,14,14,0,0,1-1.55-4.53A33.46,33.46,0,0,1,214.33,621.95Zm7.61,0q0,5.72.93,7.82a3,3,0,0,0,2.7,2.09,2.72,2.72,0,0,0,2-.89,5.71,5.71,0,0,0,1.26-2.81,31.86,31.86,0,0,0,.4-6q0-6-.93-8a3,3,0,0,0-2.8-2.05,2.87,2.87,0,0,0-2.75,2.09Q221.95,616.31,221.95,622Z" transform="translate(-90.16 -578.44)"/></svg>