<svg id="_25" data-name="25" xmlns="http://www.w3.org/2000/svg" viewBox="0 0 182.34 114.09"><defs><style>.cls-1{fill:#269746;stroke-width:2.83px;}.cls-1,.cls-2,.cls-3,.cls-5,.cls-6,.cls-7{stroke:#fff;stroke-miterlimit:22.93;}.cls-1,.cls-2,.cls-3,.cls-4,.cls-5,.cls-6,.cls-7{fill-rule:evenodd;}.cls-2,.cls-8{fill:#fff;}.cls-2,.cls-3,.cls-5,.cls-6,.cls-7{stroke-width:0.22px;}.cls-3{fill:#0c9948;}.cls-4{fill:#19783c;}.cls-5{fill:#e2e2e2;}.cls-6{fill:#d8d8d8;}.cls-7{fill:#e5e3e3;}</style></defs><title>$25</title><path class="cls-1" d="M181.33,373.48c49.43,0,89.75-19.91,89.75-44.31s-40.32-44.31-89.75-44.31-89.75,19.91-89.75,44.31S131.9,373.48,181.33,373.48Z" transform="translate(-90.16 -283.44)"/><path class="cls-2" d="M181.33,363.24c38,0,69-15.31,69-34.07s-31-34.07-69-34.07-69,15.31-69,34.07S143.32,363.24,181.33,363.24Z" transform="translate(-90.16 -283.44)"/><path class="cls-3" d="M181.33,360.58c35,0,63.63-14.11,63.63-31.42s-28.58-31.42-63.63-31.42-63.63,14.11-63.63,31.42S146.29,360.58,181.33,360.58Z" transform="translate(-90.16 -283.44)"/><path class="cls-2" d="M181.33,372.84c-5.85,0-11.56-.28-17.09-0.82V368.3c0-1.32,2.19-2.4,4.87-2.4h24.44c2.68,0,4.87,1.08,4.87,2.4V372c-5.53.53-11.24,0.82-17.09,0.82h0ZM257.94,351a63.43,63.43,0,0,1-10,6.9L241.44,356c-2.32-.66-3.12-2.14-1.78-3.28l12.22-10.45c1.34-1.15,4.33-1.54,6.65-.88l6.53,1.86a41,41,0,0,1-7.11,7.72h0Zm0-43.68a41.07,41.07,0,0,1,7.11,7.72l-6.53,1.86c-2.32.66-5.31,0.27-6.65-.88l-12.22-10.45c-1.34-1.15-.54-2.62,1.78-3.28l6.53-1.86a63.46,63.46,0,0,1,10,6.9h0Zm-76.61-21.84c5.85,0,11.56.28,17.09,0.82V290c0,1.32-2.19,2.4-4.87,2.4H169.11c-2.68,0-4.87-1.08-4.87-2.4v-3.72c5.53-.53,11.24-0.82,17.09-0.82h0Zm-76.61,21.84a63.44,63.44,0,0,1,10-6.9l6.53,1.86c2.32,0.66,3.12,2.14,1.78,3.28L110.79,316c-1.34,1.15-4.33,1.54-6.65.88L97.61,315a41.06,41.06,0,0,1,7.11-7.72h0Zm0,43.68a41.06,41.06,0,0,1-7.11-7.72l6.53-1.86c2.32-.66,5.31-0.27,6.65.88L123,352.76c1.34,1.15.54,2.62-1.78,3.28l-6.53,1.86A63.43,63.43,0,0,1,104.72,351Z" transform="translate(-90.16 -283.44)"/><path class="cls-4" d="M271.35,331.71c1.74,3.44,0,17.8,0,21.51,0,24.47-40.19,44.31-89.75,44.31s-89.75-19.84-89.75-44.31c0-3.71-1.74-18.06,0-21.51C91.84,356.18,132,376,181.59,376S271.35,356.18,271.35,331.71Z" transform="translate(-90.16 -283.44)"/><path class="cls-5" d="M265.05,366.67c-4,5.08-9.82,9.71-17.09,13.69V358.85c7.27-4,13.1-8.61,17.09-13.69v21.51Z" transform="translate(-90.16 -283.44)"/><path class="cls-6" d="M198.42,394.18V372.68c-5.53.53-11.24,0.81-17.09,0.81s-11.56-.28-17.09-0.81v21.51c5.53,0.53,11.24.81,17.09,0.81S192.89,394.71,198.42,394.18Z" transform="translate(-90.16 -283.44)"/><path class="cls-7" d="M114.7,358.85v21.51c-7.27-4-13.1-8.61-17.09-13.69V345.16C101.6,350.25,107.43,354.88,114.7,358.85Z" transform="translate(-90.16 -283.44)"/><path d="M152.12,333.14l-5.17.78a5.2,5.2,0,0,0-.7-1.31,3.45,3.45,0,0,0-1-.74v3.84q4.22,1.08,5.64,2.27a5.13,5.13,0,0,1,1.88,4.08,5.36,5.36,0,0,1-.67,2.66,6.54,6.54,0,0,1-1.72,2,7,7,0,0,1-2.23,1.18,11.41,11.41,0,0,1-2.89.43v2.51h-2v-2.51a13.29,13.29,0,0,1-3.31-.63,6.78,6.78,0,0,1-2.2-1.27,6.26,6.26,0,0,1-1.42-1.75,7.88,7.88,0,0,1-.75-2.26l5.61-.62a4.9,4.9,0,0,0,.67,1.9,3.5,3.5,0,0,0,1.4,1v-4.69a27,27,0,0,1-4-1.29,5.21,5.21,0,0,1-2-1.75,4.89,4.89,0,0,1-.86-2.93,5.14,5.14,0,0,1,1.73-4,8,8,0,0,1,5.15-1.76v-1.31h2v1.31A8.82,8.82,0,0,1,150,329.8,5.62,5.62,0,0,1,152.12,333.14Zm-8.94-1.33a2.63,2.63,0,0,0-1.24.69,1.47,1.47,0,0,0-.35,1,1.56,1.56,0,0,0,.35,1,2.62,2.62,0,0,0,1.23.73v-3.41Zm2,13.07a3.28,3.28,0,0,0,1.73-.83,1.84,1.84,0,0,0,.55-1.3,1.7,1.7,0,0,0-.46-1.15,4.29,4.29,0,0,0-1.81-1v4.26Z" transform="translate(-90.16 -283.44)"/><path d="M187.6,348H155.17a18.87,18.87,0,0,1,3.38-8.63q2.83-4,10.6-9.54a31.13,31.13,0,0,0,6.08-5.12,5.58,5.58,0,0,0,1.33-3.32,3.8,3.8,0,0,0-1.31-2.9,5.19,5.19,0,0,0-6.69,0,7.42,7.42,0,0,0-1.77,4.38L156,322.09a16,16,0,0,1,2.34-6.81,10.75,10.75,0,0,1,4.79-3.75,22.6,22.6,0,0,1,8.56-1.31,25.19,25.19,0,0,1,8.88,1.24,10.73,10.73,0,0,1,5,3.81,9.76,9.76,0,0,1,1.82,5.77,11.44,11.44,0,0,1-2.08,6.49q-2.08,3.09-7.58,6.79-3.27,2.15-4.37,3t-2.59,2.26H187.6V348Z" transform="translate(-90.16 -283.44)"/><path d="M196.6,310.87h25.67v8.24H204.88l-0.93,5.58a19.2,19.2,0,0,1,3.57-1.22,15.56,15.56,0,0,1,3.49-.41,13.39,13.39,0,0,1,9.48,3.37,11.09,11.09,0,0,1,3.64,8.49,13.9,13.9,0,0,1-1.87,6.92,12.42,12.42,0,0,1-5.31,5.07,19.37,19.37,0,0,1-8.8,1.75,27.12,27.12,0,0,1-6.6-.7,13.7,13.7,0,0,1-4.67-2.08,12.65,12.65,0,0,1-3.12-3.13,16,16,0,0,1-2-4.36l10.94-1.14a6.23,6.23,0,0,0,1.86,3.81,5,5,0,0,0,3.48,1.31,4.8,4.8,0,0,0,3.73-1.63,7.08,7.08,0,0,0,1.47-4.88q0-3.32-1.49-4.87a5.23,5.23,0,0,0-4-1.55,6.65,6.65,0,0,0-3,.73,8.69,8.69,0,0,0-2.39,1.93l-9.21-1.27Z" transform="translate(-90.16 -283.44)"/><path class="cls-8" d="M149.69,330.14l-5.25.79a5.3,5.3,0,0,0-.71-1.33,3.5,3.5,0,0,0-1.05-.75v3.9q4.29,1.09,5.73,2.31a5.21,5.21,0,0,1,1.9,4.14,5.44,5.44,0,0,1-.68,2.7,6.63,6.63,0,0,1-1.75,2,7.14,7.14,0,0,1-2.26,1.19,11.61,11.61,0,0,1-2.93.44v2.55h-2.06v-2.55a13.51,13.51,0,0,1-3.37-.64,6.88,6.88,0,0,1-2.23-1.29,6.34,6.34,0,0,1-1.45-1.77,8,8,0,0,1-.76-2.3l5.7-.63a5,5,0,0,0,.68,1.93,3.55,3.55,0,0,0,1.42,1.05v-4.76a27.35,27.35,0,0,1-4-1.31,5.28,5.28,0,0,1-2.07-1.77,5,5,0,0,1-.87-3,5.22,5.22,0,0,1,1.76-4,8.13,8.13,0,0,1,5.23-1.79V324h2.06v1.33a9,9,0,0,1,4.83,1.43A5.7,5.7,0,0,1,149.69,330.14Zm-9.07-1.35a2.67,2.67,0,0,0-1.26.7,1.49,1.49,0,0,0-.35,1,1.59,1.59,0,0,0,.36,1,2.68,2.68,0,0,0,1.25.74v-3.46Zm2.06,13.27a3.33,3.33,0,0,0,1.76-.84,1.87,1.87,0,0,0,.56-1.32,1.73,1.73,0,0,0-.47-1.17,4.36,4.36,0,0,0-1.84-1v4.32Z" transform="translate(-90.16 -283.44)"/><path class="cls-8" d="M185.71,345.24H152.78a19.16,19.16,0,0,1,3.44-8.76q2.87-4.1,10.76-9.69a31.6,31.6,0,0,0,6.17-5.2,5.67,5.67,0,0,0,1.35-3.37,3.86,3.86,0,0,0-1.33-2.95,5.26,5.26,0,0,0-6.79,0,7.53,7.53,0,0,0-1.79,4.45l-11-.85A16.21,16.21,0,0,1,156,312a10.91,10.91,0,0,1,4.86-3.81,23,23,0,0,1,8.69-1.33,25.58,25.58,0,0,1,9,1.26,10.9,10.9,0,0,1,5.07,3.87,9.9,9.9,0,0,1,1.85,5.85,11.61,11.61,0,0,1-2.11,6.59q-2.12,3.14-7.69,6.9-3.31,2.19-4.43,3.06t-2.63,2.29h17.14v8.54Z" transform="translate(-90.16 -283.44)"/><path class="cls-8" d="M194.84,307.52H220.9v8.36H203.25l-0.94,5.66a19.5,19.5,0,0,1,3.62-1.23,15.79,15.79,0,0,1,3.54-.41,13.59,13.59,0,0,1,9.62,3.42,11.25,11.25,0,0,1,3.69,8.62,14.12,14.12,0,0,1-1.9,7,12.61,12.61,0,0,1-5.39,5.15,19.67,19.67,0,0,1-8.93,1.77,27.55,27.55,0,0,1-6.7-.71,13.89,13.89,0,0,1-4.74-2.11,12.83,12.83,0,0,1-3.17-3.18,16.21,16.21,0,0,1-2-4.43L201,334.3a6.32,6.32,0,0,0,1.89,3.87,5.11,5.11,0,0,0,3.53,1.33,4.87,4.87,0,0,0,3.79-1.66,7.19,7.19,0,0,0,1.5-5q0-3.37-1.51-4.94a5.31,5.31,0,0,0-4-1.57,6.75,6.75,0,0,0-3.07.75,8.85,8.85,0,0,0-2.42,2l-9.35-1.29Z" transform="translate(-90.16 -283.44)"/></svg>