<svg id="Layer_28" data-name="Layer 28" xmlns="http://www.w3.org/2000/svg" viewBox="0 0 182.33 207.09"><defs><style>.cls-1{fill:#56479d;stroke-width:2.83px;}.cls-1,.cls-2,.cls-4,.cls-5,.cls-6,.cls-7{stroke:#fff;stroke-miterlimit:22.93;}.cls-2{fill:#f5eb16;}.cls-2,.cls-4,.cls-5,.cls-6,.cls-7{stroke-width:0.22px;}.cls-3{fill:#5d3e98;}.cls-4{fill:#d7d725;}.cls-5{fill:#d6df29;}.cls-6{fill:#dccc24;}.cls-7,.cls-8{fill:#010101;}.cls-9{fill:#fff;}</style></defs><title>$4000</title><path class="cls-1" d="M269.78,202.42c49.43,0,89.75-19.91,89.75-44.31s-40.32-44.31-89.75-44.31S180,133.71,180,158.11,220.35,202.42,269.78,202.42Z" transform="translate(-178.62 -19.39)"/><path class="cls-2" d="M269.78,192.18c38,0,69-15.31,69-34.07s-31-34.07-69-34.07-69,15.31-69,34.07S231.77,192.18,269.78,192.18Z" transform="translate(-178.62 -19.39)"/><path class="cls-2" d="M269.78,201.79c-5.85,0-11.56-.28-17.09-0.82v-3.72c0-1.32,2.19-2.4,4.87-2.4H282c2.68,0,4.87,1.08,4.87,2.4v3.7c-5.53.53-11.24,0.82-17.09,0.82h0v0Zm76.61-21.84a63.43,63.43,0,0,1-10,6.9l-6.5-1.9c-2.32-.66-3.12-2.14-1.78-3.28l12.22-10.45c1.34-1.15,4.33-1.54,6.65-.88l6.53,1.86a41,41,0,0,1-7.11,7.72h0v0Zm0-43.68A41.07,41.07,0,0,1,353.5,144L347,145.84c-2.32.66-5.31,0.27-6.65-.88L328.1,134.51c-1.34-1.15-.54-2.62,1.78-3.28l6.53-1.86a63.46,63.46,0,0,1,10,6.9h0Zm-76.61-21.84c5.85,0,11.56.28,17.09,0.82v3.7c0,1.32-2.19,2.4-4.87,2.4H257.56c-2.68,0-4.87-1.08-4.87-2.4v-3.72c5.53-.53,11.24-0.82,17.09-0.82h0v0Zm-76.61,21.84a63.44,63.44,0,0,1,10-6.9l6.53,1.86c2.32,0.66,3.12,2.14,1.78,3.28l-12.24,10.44c-1.34,1.15-4.33,1.54-6.65.88l-6.53-1.88a41.06,41.06,0,0,1,7.11-7.72h0v0Zm0,43.68a41.06,41.06,0,0,1-7.11-7.72l6.53-1.86c2.32-.66,5.31-0.27,6.65.88l12.21,10.46c1.34,1.15.54,2.62-1.78,3.28l-6.53,1.86A63.43,63.43,0,0,1,193.17,179.95Z" transform="translate(-178.62 -19.39)"/><path class="cls-3" d="M359.8,160.66c1.74,3.44,0,17.8,0,21.51,0,24.47-40.19,44.31-89.75,44.31s-89.75-19.84-89.75-44.31c0-3.71-1.74-18.06,0-21.51,0,24.47,40.15,44.29,89.74,44.29S359.8,185.13,359.8,160.66Z" transform="translate(-178.62 -19.39)"/><path class="cls-4" d="M353.5,195.61c-4,5.08-9.82,9.71-17.09,13.69V187.79c7.27-4,13.1-8.61,17.09-13.69v21.51Z" transform="translate(-178.62 -19.39)"/><path class="cls-5" d="M286.87,223.13v-21.5c-5.53.53-11.24,0.81-17.09,0.81s-11.56-.28-17.09-0.81v21.51c5.53,0.53,11.24.81,17.09,0.81S281.34,223.66,286.87,223.13Z" transform="translate(-178.62 -19.39)"/><path class="cls-6" d="M203.15,187.79V209.3c-7.27-4-13.1-8.61-17.09-13.69V174.1C190.05,179.2,195.88,183.83,203.15,187.79Z" transform="translate(-178.62 -19.39)"/><path class="cls-1" d="M269.78,170.42c49.43,0,89.75-19.91,89.75-44.31S319.21,81.8,269.78,81.8,180,101.71,180,126.11,220.35,170.42,269.78,170.42Z" transform="translate(-178.62 -19.39)"/><path class="cls-2" d="M269.78,160.18c38,0,69-15.31,69-34.07s-31-34.07-69-34.07-69,15.31-69,34.07S231.77,160.18,269.78,160.18Z" transform="translate(-178.62 -19.39)"/><path class="cls-2" d="M269.78,169.79c-5.85,0-11.56-.28-17.09-0.82v-3.72c0-1.32,2.19-2.4,4.87-2.4H282c2.68,0,4.87,1.08,4.87,2.4v3.7c-5.53.53-11.24,0.82-17.09,0.82h0v0Zm76.61-21.84a63.43,63.43,0,0,1-10,6.9l-6.5-1.9c-2.32-.66-3.12-2.14-1.78-3.28l12.22-10.45c1.34-1.15,4.33-1.54,6.65-.88l6.53,1.86a41,41,0,0,1-7.11,7.72h0v0Zm0-43.68A41.07,41.07,0,0,1,353.5,112L347,113.84c-2.32.66-5.31,0.27-6.65-.88L328.1,102.51c-1.34-1.15-.54-2.62,1.78-3.28l6.53-1.86a63.46,63.46,0,0,1,10,6.9h0ZM269.78,82.42c5.85,0,11.56.28,17.09,0.82v3.7c0,1.32-2.19,2.4-4.87,2.4H257.56c-2.68,0-4.87-1.08-4.87-2.4V83.23c5.53-.53,11.24-0.82,17.09-0.82h0v0Zm-76.61,21.84a63.44,63.44,0,0,1,10-6.9l6.53,1.86c2.32,0.66,3.12,2.14,1.78,3.28l-12.24,10.44c-1.34,1.15-4.33,1.54-6.65.88l-6.53-1.88a41.06,41.06,0,0,1,7.11-7.72h0v0Zm0,43.68a41.06,41.06,0,0,1-7.11-7.72l6.53-1.86c2.32-.66,5.31-0.27,6.65.88l12.21,10.46c1.34,1.15.54,2.62-1.78,3.28l-6.53,1.86A63.43,63.43,0,0,1,193.17,147.95Z" transform="translate(-178.62 -19.39)"/><path class="cls-3" d="M359.8,128.66c1.74,3.44,0,17.8,0,21.51,0,24.47-40.19,44.31-89.75,44.31s-89.75-19.84-89.75-44.31c0-3.71-1.74-18.06,0-21.51,0,24.47,40.15,44.29,89.74,44.29S359.8,153.13,359.8,128.66Z" transform="translate(-178.62 -19.39)"/><path class="cls-4" d="M353.5,163.61c-4,5.08-9.82,9.71-17.09,13.69V155.79c7.27-4,13.1-8.61,17.09-13.69v21.51Z" transform="translate(-178.62 -19.39)"/><path class="cls-5" d="M286.87,191.13v-21.5c-5.53.53-11.24,0.81-17.09,0.81s-11.56-.28-17.09-0.81v21.51c5.53,0.53,11.24.81,17.09,0.81S281.34,191.66,286.87,191.13Z" transform="translate(-178.62 -19.39)"/><path class="cls-6" d="M203.15,155.79V177.3c-7.27-4-13.1-8.61-17.09-13.69V142.1C190.05,147.2,195.88,151.83,203.15,155.79Z" transform="translate(-178.62 -19.39)"/><path class="cls-1" d="M269.78,139.42c49.43,0,89.75-19.91,89.75-44.31S319.21,50.8,269.78,50.8,180,70.71,180,95.11,220.35,139.42,269.78,139.42Z" transform="translate(-178.62 -19.39)"/><path class="cls-2" d="M269.78,129.18c38,0,69-15.31,69-34.07s-31-34.07-69-34.07-69,15.31-69,34.07S231.77,129.18,269.78,129.18Z" transform="translate(-178.62 -19.39)"/><path class="cls-2" d="M269.78,138.79c-5.85,0-11.56-.28-17.09-0.82v-3.72c0-1.32,2.19-2.4,4.87-2.4H282c2.68,0,4.87,1.08,4.87,2.4v3.7c-5.53.53-11.24,0.82-17.09,0.82h0v0Zm76.61-21.84a63.43,63.43,0,0,1-10,6.9l-6.5-1.9c-2.32-.66-3.12-2.14-1.78-3.28l12.22-10.45c1.34-1.15,4.33-1.54,6.65-.88l6.53,1.86a41,41,0,0,1-7.11,7.72h0v0Zm0-43.68A41.07,41.07,0,0,1,353.5,81L347,82.84c-2.32.66-5.31,0.27-6.65-.88L328.1,71.51c-1.34-1.15-.54-2.62,1.78-3.28l6.53-1.86a63.46,63.46,0,0,1,10,6.9h0ZM269.78,51.42c5.85,0,11.56.28,17.09,0.82v3.7c0,1.32-2.19,2.4-4.87,2.4H257.56c-2.68,0-4.87-1.08-4.87-2.4V52.23c5.53-.53,11.24-0.82,17.09-0.82h0v0ZM193.17,73.27a63.44,63.44,0,0,1,10-6.9l6.53,1.86c2.32,0.66,3.12,2.14,1.78,3.28L199.24,81.95c-1.34,1.15-4.33,1.54-6.65.88l-6.53-1.88a41.06,41.06,0,0,1,7.11-7.72h0v0Zm0,43.68a41.06,41.06,0,0,1-7.11-7.72l6.53-1.86c2.32-.66,5.31-0.27,6.65.88l12.21,10.46c1.34,1.15.54,2.62-1.78,3.28l-6.53,1.86A63.43,63.43,0,0,1,193.17,116.95Z" transform="translate(-178.62 -19.39)"/><path class="cls-3" d="M359.8,97.66c1.74,3.44,0,17.8,0,21.51,0,24.47-40.19,44.31-89.75,44.31s-89.75-19.84-89.75-44.31c0-3.71-1.74-18.06,0-21.51,0,24.47,40.15,44.29,89.74,44.29S359.8,122.13,359.8,97.66Z" transform="translate(-178.62 -19.39)"/><path class="cls-4" d="M353.5,132.61c-4,5.08-9.82,9.71-17.09,13.69V124.79c7.27-4,13.1-8.61,17.09-13.69v21.51Z" transform="translate(-178.62 -19.39)"/><path class="cls-5" d="M286.87,160.13v-21.5c-5.53.53-11.24,0.81-17.09,0.81s-11.56-.28-17.09-0.81v21.51c5.53,0.53,11.24.81,17.09,0.81S281.34,160.66,286.87,160.13Z" transform="translate(-178.62 -19.39)"/><path class="cls-6" d="M203.15,124.79V146.3c-7.27-4-13.1-8.61-17.09-13.69V111.1C190.05,116.2,195.88,120.83,203.15,124.79Z" transform="translate(-178.62 -19.39)"/><path class="cls-1" d="M269.78,109.42c49.43,0,89.75-19.91,89.75-44.31S319.21,20.8,269.78,20.8,180,40.71,180,65.11,220.35,109.42,269.78,109.42Z" transform="translate(-178.62 -19.39)"/><path class="cls-2" d="M269.78,99.18c38,0,69-15.31,69-34.07s-31-34.07-69-34.07-69,15.31-69,34.07S231.77,99.18,269.78,99.18Z" transform="translate(-178.62 -19.39)"/><path class="cls-7" d="M269.78,96.53c35,0,63.63-14.11,63.63-31.42s-28.58-31.42-63.63-31.42S206.15,47.8,206.15,65.11,234.74,96.53,269.78,96.53Z" transform="translate(-178.62 -19.39)"/><path class="cls-2" d="M269.78,108.79c-5.85,0-11.56-.28-17.09-0.82v-3.72c0-1.32,2.19-2.4,4.87-2.4H282c2.68,0,4.87,1.08,4.87,2.4v3.7c-5.53.53-11.24,0.82-17.09,0.82h0v0Zm76.61-21.84a63.43,63.43,0,0,1-10,6.9l-6.5-1.9c-2.32-.66-3.12-2.14-1.78-3.28l12.22-10.45c1.34-1.15,4.33-1.54,6.65-.88l6.53,1.86a41,41,0,0,1-7.11,7.72h0v0Zm0-43.68A41.07,41.07,0,0,1,353.5,51L347,52.84c-2.32.66-5.31,0.27-6.65-.88L328.1,41.51c-1.34-1.15-.54-2.62,1.78-3.28l6.53-1.86a63.46,63.46,0,0,1,10,6.9h0ZM269.78,21.42c5.85,0,11.56.28,17.09,0.82v3.7c0,1.32-2.19,2.4-4.87,2.4H257.56c-2.68,0-4.87-1.08-4.87-2.4V22.23c5.53-.53,11.24-0.82,17.09-0.82h0v0ZM193.17,43.27a63.44,63.44,0,0,1,10-6.9l6.53,1.86c2.32,0.66,3.12,2.14,1.78,3.28L199.24,51.95c-1.34,1.15-4.33,1.54-6.65.88l-6.53-1.88a41.06,41.06,0,0,1,7.11-7.72h0v0Zm0,43.68a41.06,41.06,0,0,1-7.11-7.72l6.53-1.86c2.32-.66,5.31-0.27,6.65.88l12.21,10.46c1.34,1.15.54,2.62-1.78,3.28l-6.53,1.86A63.43,63.43,0,0,1,193.17,86.95Z" transform="translate(-178.62 -19.39)"/><path class="cls-3" d="M359.8,67.66c1.74,3.44,0,17.8,0,21.51,0,24.47-40.19,44.31-89.75,44.31S180.3,113.64,180.3,89.17c0-3.71-1.74-18.06,0-21.51,0,24.47,40.15,44.29,89.74,44.29S359.8,92.13,359.8,67.66Z" transform="translate(-178.62 -19.39)"/><path class="cls-4" d="M353.5,102.61c-4,5.08-9.82,9.71-17.09,13.69V94.79c7.27-4,13.1-8.61,17.09-13.69v21.51Z" transform="translate(-178.62 -19.39)"/><path class="cls-5" d="M286.87,130.13v-21.5c-5.53.53-11.24,0.81-17.09,0.81s-11.56-.28-17.09-0.81v21.51c5.53,0.53,11.24.81,17.09,0.81S281.34,130.66,286.87,130.13Z" transform="translate(-178.62 -19.39)"/><path class="cls-6" d="M203.15,94.79V116.3c-7.27-4-13.1-8.61-17.09-13.69V81.1C190.05,86.2,195.88,90.83,203.15,94.79Z" transform="translate(-178.62 -19.39)"/><path class="cls-8" d="M224.2,69.54l-3.6.6a4.17,4.17,0,0,0-.49-1,2.43,2.43,0,0,0-.72-0.57v3a10.21,10.21,0,0,1,3.93,1.75,4.14,4.14,0,0,1,1.31,3.14,4.48,4.48,0,0,1-.47,2A4.94,4.94,0,0,1,223,80a4.77,4.77,0,0,1-1.55.9,7.24,7.24,0,0,1-2,.33v1.93H218V81.24a8.52,8.52,0,0,1-2.31-.49,4.63,4.63,0,0,1-1.53-1,4.76,4.76,0,0,1-1-1.34,6.54,6.54,0,0,1-.52-1.74l3.91-.48a4,4,0,0,0,.47,1.46,2.48,2.48,0,0,0,1,.8V74.85a17.42,17.42,0,0,1-2.77-1,3.75,3.75,0,0,1-1.42-1.34,4.06,4.06,0,0,1-.6-2.25,4.16,4.16,0,0,1,1.2-3A5.26,5.26,0,0,1,218,65.91v-1h1.41v1A5.73,5.73,0,0,1,222.73,67,4.39,4.39,0,0,1,224.2,69.54Zm-6.22-1a1.81,1.81,0,0,0-.86.53,1.2,1.2,0,0,0-.24.75,1.29,1.29,0,0,0,.25.79,1.81,1.81,0,0,0,.86.56V68.54h0Zm1.41,10.06a2.21,2.21,0,0,0,1.2-.64,1.5,1.5,0,0,0,.38-1,1.39,1.39,0,0,0-.32-0.89,2.92,2.92,0,0,0-1.26-.75V78.6Z" transform="translate(-178.62 -19.39)"/><path class="cls-8" d="M244.8,50.53V80.95h-8v-20a24,24,0,0,1-3.74,2.51,28.21,28.21,0,0,1-4.54,1.84V58.47a18.8,18.8,0,0,0,6.25-3.29,13.37,13.37,0,0,0,3.48-4.74h6.52Z" transform="translate(-178.62 -19.39)"/><path class="cls-8" d="M253.37,65.9q0-8.54,2.91-12t8.87-3.41a12.63,12.63,0,0,1,4.7.75,8.64,8.64,0,0,1,3,1.94,10.32,10.32,0,0,1,1.83,2.51,13.54,13.54,0,0,1,1.07,3.08,30.25,30.25,0,0,1,.79,7q0,8.15-2.61,11.93t-9,3.78a12,12,0,0,1-5.78-1.21,9.59,9.59,0,0,1-3.62-3.54,13.77,13.77,0,0,1-1.6-4.53A32.59,32.59,0,0,1,253.37,65.9Zm7.81,0q0,5.72,1,7.82A3,3,0,0,0,265,75.81a2.83,2.83,0,0,0,2.08-.89,5.64,5.64,0,0,0,1.3-2.81,31.08,31.08,0,0,0,.42-6q0-6-1-8a3.07,3.07,0,0,0-2.87-2,2.94,2.94,0,0,0-2.82,2.09q-0.88,2.11-.88,7.8v0Z" transform="translate(-178.62 -19.39)"/><path class="cls-8" d="M279.8,65.9q0-8.54,2.91-12t8.87-3.41a12.63,12.63,0,0,1,4.7.75,8.64,8.64,0,0,1,3,1.94,10.32,10.32,0,0,1,1.83,2.51,13.54,13.54,0,0,1,1.07,3.08,30.25,30.25,0,0,1,.79,7q0,8.15-2.61,11.93t-9,3.78a12,12,0,0,1-5.78-1.21A9.59,9.59,0,0,1,282,76.73a13.77,13.77,0,0,1-1.6-4.53A32.59,32.59,0,0,1,279.8,65.9Zm7.81,0q0,5.72,1,7.82a3,3,0,0,0,2.78,2.09,2.83,2.83,0,0,0,2.06-.86,5.64,5.64,0,0,0,1.3-2.81,31.08,31.08,0,0,0,.42-6q0-6-1-8a3.07,3.07,0,0,0-2.87-2,2.94,2.94,0,0,0-2.82,2.09q-0.87,2.08-.87,7.77v0Z" transform="translate(-178.62 -19.39)"/><path class="cls-8" d="M306.22,65.9q0-8.54,2.91-12T318,50.49a12.63,12.63,0,0,1,4.7.75,8.64,8.64,0,0,1,3,1.94,10.32,10.32,0,0,1,1.83,2.51,13.54,13.54,0,0,1,1.07,3.08,30.25,30.25,0,0,1,.79,7q0,8.15-2.61,11.93t-9,3.78A12,12,0,0,1,312,80.27a9.59,9.59,0,0,1-3.62-3.54,13.77,13.77,0,0,1-1.6-4.53A32.59,32.59,0,0,1,306.22,65.9Zm7.81,0q0,5.72,1,7.82a3,3,0,0,0,2.78,2.09,2.83,2.83,0,0,0,2.08-.89,5.64,5.64,0,0,0,1.3-2.81,31.08,31.08,0,0,0,.42-6q0-6-1-8a3.07,3.07,0,0,0-2.87-2,2.94,2.94,0,0,0-2.82,2.09q-0.88,2.11-.88,7.8v0Z" transform="translate(-178.62 -19.39)"/><path class="cls-9" d="M222.89,66.54l-3.5.6a4.21,4.21,0,0,0-.48-1,2.38,2.38,0,0,0-.7-0.57v3A9.83,9.83,0,0,1,222,70.32a4.19,4.19,0,0,1,1.27,3.14,4.58,4.58,0,0,1-.46,2A4.93,4.93,0,0,1,221.68,77a4.62,4.62,0,0,1-1.51.9,6.88,6.88,0,0,1-2,.33v1.93h-1.38V78.24a8.12,8.12,0,0,1-2.25-.49,4.49,4.49,0,0,1-1.49-1,4.75,4.75,0,0,1-1-1.34,6.68,6.68,0,0,1-.51-1.74l3.81-.48a4.11,4.11,0,0,0,.46,1.46,2.43,2.43,0,0,0,1,.8V71.85a16.72,16.72,0,0,1-2.7-1,3.69,3.69,0,0,1-1.38-1.34,4.15,4.15,0,0,1-.58-2.25,4.22,4.22,0,0,1,1.17-3,5,5,0,0,1,3.49-1.35v-1h1.38v1a5.49,5.49,0,0,1,3.31,1A4.42,4.42,0,0,1,222.89,66.54Zm-6.06-1a1.75,1.75,0,0,0-.84.53,1.22,1.22,0,0,0-.24.75,1.31,1.31,0,0,0,.24.79,1.76,1.76,0,0,0,.83.56V65.54h0Zm1.38,10.06a2.14,2.14,0,0,0,1.17-.64,1.52,1.52,0,0,0,.37-1,1.41,1.41,0,0,0-.31-0.89,2.83,2.83,0,0,0-1.23-.75V75.6Z" transform="translate(-178.62 -19.39)"/><path class="cls-9" d="M243,47.53V77.95H235.2v-20a23.33,23.33,0,0,1-3.65,2.51,27.09,27.09,0,0,1-4.42,1.84V55.47a18.16,18.16,0,0,0,6.09-3.29,13.35,13.35,0,0,0,3.39-4.74H243v0.09Z" transform="translate(-178.62 -19.39)"/><path class="cls-9" d="M251.3,62.9q0-8.54,2.84-12t8.64-3.41a12,12,0,0,1,4.58.75,8.4,8.4,0,0,1,2.92,1.94,10.32,10.32,0,0,1,1.78,2.51,13.83,13.83,0,0,1,1,3.08,31,31,0,0,1,.77,7q0,8.15-2.54,11.93t-8.76,3.78a11.48,11.48,0,0,1-5.63-1.21,9.45,9.45,0,0,1-3.52-3.54,14,14,0,0,1-1.55-4.53A33.46,33.46,0,0,1,251.3,62.9Zm7.61,0q0,5.72.93,7.82a3,3,0,0,0,2.7,2.09,2.72,2.72,0,0,0,2-.89,5.71,5.71,0,0,0,1.26-2.81,31.86,31.86,0,0,0,.4-6q0-6-.93-8a3,3,0,0,0-2.8-2,2.87,2.87,0,0,0-2.75,2.09q-0.8,2.11-.8,7.8v0Z" transform="translate(-178.62 -19.39)"/><path class="cls-9" d="M277,62.9q0-8.54,2.84-12t8.64-3.41a12,12,0,0,1,4.58.75A8.4,8.4,0,0,1,296,50.18a10.32,10.32,0,0,1,1.78,2.51,13.83,13.83,0,0,1,1,3.08,31,31,0,0,1,.77,7q0,8.15-2.54,11.93t-8.76,3.78a11.48,11.48,0,0,1-5.63-1.21,9.45,9.45,0,0,1-3.52-3.54,14,14,0,0,1-1.55-4.53A33.46,33.46,0,0,1,277,62.9Zm7.61,0q0,5.72.93,7.82a3,3,0,0,0,2.7,2.09,2.72,2.72,0,0,0,2-.89,5.71,5.71,0,0,0,1.26-2.81,31.86,31.86,0,0,0,.4-6q0-6-.93-8a3,3,0,0,0-2.8-2,2.87,2.87,0,0,0-2.75,2.09q-0.8,2.11-.8,7.8v0Z" transform="translate(-178.62 -19.39)"/><path class="cls-9" d="M302.78,62.9q0-8.54,2.84-12t8.64-3.41a12,12,0,0,1,4.58.75,8.4,8.4,0,0,1,2.92,1.94,10.32,10.32,0,0,1,1.78,2.51,13.83,13.83,0,0,1,1,3.08,31,31,0,0,1,.77,7q0,8.15-2.54,11.93T314,78.48a11.48,11.48,0,0,1-5.63-1.21,9.45,9.45,0,0,1-3.52-3.54,14,14,0,0,1-1.55-4.53A33.46,33.46,0,0,1,302.78,62.9Zm7.61,0q0,5.72.93,7.82a3,3,0,0,0,2.7,2.09,2.72,2.72,0,0,0,2-.89,5.71,5.71,0,0,0,1.26-2.81,31.86,31.86,0,0,0,.4-6q0-6-.93-8a3,3,0,0,0-2.8-2,2.87,2.87,0,0,0-2.75,2.09q-0.8,2.11-.8,7.8v0Z" transform="translate(-178.62 -19.39)"/></svg>