<svg id="_5" data-name="5" xmlns="http://www.w3.org/2000/svg" viewBox="0 0 182.34 114.09"><defs><style>.cls-1{fill:#f8f7f7;}.cls-1,.cls-2,.cls-3,.cls-4,.cls-6,.cls-7,.cls-8{stroke:#fff;stroke-miterlimit:22.93;}.cls-1,.cls-2{stroke-width:2.83px;}.cls-1,.cls-2,.cls-3,.cls-4,.cls-5,.cls-6,.cls-7,.cls-8{fill-rule:evenodd;}.cls-2,.cls-4{fill:#ed1f24;}.cls-3,.cls-9{fill:#fff;}.cls-3,.cls-4,.cls-6,.cls-7,.cls-8{stroke-width:0.22px;}.cls-5{fill:#ef4142;}.cls-6{fill:#e2e2e2;}.cls-7{fill:#d8d8d8;}.cls-8{fill:#e5e3e3;}</style></defs><title>$5</title><path class="cls-1" d="M405.33,380.9c49.43,0,89.75-19.91,89.75-44.31s-40.32-44.31-89.75-44.31-89.75,19.91-89.75,44.31S355.9,380.9,405.33,380.9Z" transform="translate(-314.16 -225.85)"/><path class="cls-2" d="M405.33,376.9c49.43,0,89.75-19.91,89.75-44.31s-40.32-44.31-89.75-44.31-89.75,19.91-89.75,44.31S355.9,376.9,405.33,376.9Z" transform="translate(-314.16 -225.85)"/><path class="cls-3" d="M405.33,366.66c38,0,69-15.31,69-34.07s-31-34.07-69-34.07-69,15.31-69,34.07S367.32,366.66,405.33,366.66Z" transform="translate(-314.16 -225.85)"/><path class="cls-4" d="M405.33,364c35,0,63.63-14.11,63.63-31.42s-28.58-31.42-63.63-31.42-63.63,14.11-63.63,31.42S370.29,364,405.33,364Z" transform="translate(-314.16 -225.85)"/><path class="cls-3" d="M405.33,376.26c-5.85,0-11.56-.28-17.09-0.82v-3.72c0-1.32,2.19-2.4,4.87-2.4h24.44c2.68,0,4.87,1.08,4.87,2.4v3.72c-5.53.53-11.24,0.82-17.09,0.82h0Zm76.61-21.84a63.43,63.43,0,0,1-10,6.9l-6.53-1.86c-2.32-.66-3.12-2.14-1.78-3.28l12.22-10.45c1.34-1.15,4.33-1.54,6.65-.88l6.53,1.86a41,41,0,0,1-7.11,7.72h0Zm0-43.68a41.07,41.07,0,0,1,7.11,7.72l-6.53,1.86c-2.32.66-5.31,0.27-6.65-.88L463.65,309c-1.34-1.15-.54-2.62,1.78-3.28l6.53-1.86a63.46,63.46,0,0,1,10,6.9h0Zm-76.61-21.84c5.85,0,11.56.28,17.09,0.82v3.72c0,1.32-2.19,2.4-4.87,2.4H393.11c-2.68,0-4.87-1.08-4.87-2.4v-3.72c5.53-.53,11.24-0.82,17.09-0.82h0Zm-76.61,21.84a63.44,63.44,0,0,1,10-6.9l6.53,1.86c2.32,0.66,3.12,2.14,1.78,3.28l-12.22,10.45c-1.34,1.15-4.33,1.54-6.65.88l-6.53-1.86a41.06,41.06,0,0,1,7.11-7.72h0Zm0,43.68a41.06,41.06,0,0,1-7.11-7.72l6.53-1.86c2.32-.66,5.31-0.27,6.65.88L347,356.18c1.34,1.15.54,2.62-1.78,3.28l-6.53,1.86A63.43,63.43,0,0,1,328.72,354.42Z" transform="translate(-314.16 -225.85)"/><path class="cls-5" d="M495.35,335.12c1.74,3.44,0,17.8,0,21.51,0,24.47-40.19,44.31-89.75,44.31s-89.75-19.84-89.75-44.31c0-3.71-1.74-18.06,0-21.51,0,24.47,40.19,44.31,89.75,44.31S495.35,359.6,495.35,335.12Z" transform="translate(-314.16 -225.85)"/><path class="cls-6" d="M489.05,370.09c-4,5.08-9.82,9.71-17.09,13.69V362.27c7.27-4,13.1-8.61,17.09-13.69v21.51Z" transform="translate(-314.16 -225.85)"/><path class="cls-7" d="M422.42,397.6V376.09c-5.53.53-11.24,0.81-17.09,0.81s-11.56-.28-17.09-0.81V397.6c5.53,0.53,11.24.81,17.09,0.81S416.89,398.13,422.42,397.6Z" transform="translate(-314.16 -225.85)"/><path class="cls-8" d="M338.7,362.27v21.51c-7.27-4-13.1-8.61-17.09-13.69V348.58C325.6,353.66,331.43,358.29,338.7,362.27Z" transform="translate(-314.16 -225.85)"/><path d="M388,333.94l-6.54,1a6.58,6.58,0,0,0-.89-1.65,4.36,4.36,0,0,0-1.31-.93v4.86q5.34,1.36,7.14,2.87a6.5,6.5,0,0,1,2.37,5.16,6.78,6.78,0,0,1-.85,3.36,8.27,8.27,0,0,1-2.18,2.55,8.91,8.91,0,0,1-2.82,1.49,14.45,14.45,0,0,1-3.66.55v3.17h-2.57v-3.17a16.87,16.87,0,0,1-4.19-.8,8.57,8.57,0,0,1-2.78-1.6,7.92,7.92,0,0,1-1.8-2.21,10,10,0,0,1-.95-2.86l7.1-.79a6.2,6.2,0,0,0,.85,2.4,4.42,4.42,0,0,0,1.77,1.31v-5.93a34.09,34.09,0,0,1-5-1.63,6.58,6.58,0,0,1-2.58-2.21,6.19,6.19,0,0,1-1.09-3.7,6.5,6.5,0,0,1,2.19-5q2.19-2,6.51-2.23v-1.66h2.57v1.66a11.16,11.16,0,0,1,6,1.78A7.11,7.11,0,0,1,388,333.94Zm-11.3-1.68a3.33,3.33,0,0,0-1.56.88,1.85,1.85,0,0,0-.44,1.23,2,2,0,0,0,.45,1.29,3.33,3.33,0,0,0,1.56.92v-4.32Zm2.57,16.53a4.15,4.15,0,0,0,2.19-1.05,2.33,2.33,0,0,0,.69-1.64,2.16,2.16,0,0,0-.59-1.46,5.43,5.43,0,0,0-2.29-1.24v5.39Z" transform="translate(-314.16 -225.85)"/><path d="M397.31,311.74h28.33v9.09H406.45l-1,6.15a21.24,21.24,0,0,1,3.94-1.34,17.2,17.2,0,0,1,3.85-.45,14.77,14.77,0,0,1,10.46,3.72,12.24,12.24,0,0,1,4,9.37,15.34,15.34,0,0,1-2.07,7.64,13.71,13.71,0,0,1-5.86,5.6,21.38,21.38,0,0,1-9.71,1.93,30,30,0,0,1-7.28-.77,15.13,15.13,0,0,1-5.16-2.29,14,14,0,0,1-3.44-3.46,17.63,17.63,0,0,1-2.2-4.81L404,340.86a6.88,6.88,0,0,0,2.05,4.21,5.56,5.56,0,0,0,3.84,1.44,5.3,5.3,0,0,0,4.12-1.8,7.82,7.82,0,0,0,1.63-5.39q0-3.66-1.64-5.37a5.78,5.78,0,0,0-4.37-1.71,7.34,7.34,0,0,0-3.34.81,9.62,9.62,0,0,0-2.64,2.13l-10.17-1.4Z" transform="translate(-314.16 -225.85)"/><path class="cls-9" d="M388,331.79l-6.54,1a6.3,6.3,0,0,0-.89-1.6,4.35,4.35,0,0,0-1.31-.9v4.7q5.34,1.32,7.14,2.78a6.2,6.2,0,0,1,2.37,5,6.39,6.39,0,0,1-.85,3.25,8.07,8.07,0,0,1-2.18,2.47,9,9,0,0,1-2.82,1.44,14.88,14.88,0,0,1-3.66.53v3.07h-2.57v-3.07a17.34,17.34,0,0,1-4.19-.77,8.65,8.65,0,0,1-2.78-1.55,7.71,7.71,0,0,1-1.8-2.14,9.44,9.44,0,0,1-.95-2.77l7.1-.76a5.87,5.87,0,0,0,.85,2.32,4.42,4.42,0,0,0,1.77,1.27v-5.74a34.87,34.87,0,0,1-5-1.58,6.53,6.53,0,0,1-2.58-2.14A5.85,5.85,0,0,1,368,333a6.2,6.2,0,0,1,2.19-4.83q2.19-1.94,6.51-2.15v-1.61h2.57V326a11.42,11.42,0,0,1,6,1.72A6.86,6.86,0,0,1,388,331.79Zm-11.3-1.62a3.35,3.35,0,0,0-1.56.85,1.76,1.76,0,0,0-.44,1.19,1.88,1.88,0,0,0,.45,1.25,3.35,3.35,0,0,0,1.56.89v-4.17Zm2.57,16a4.2,4.2,0,0,0,2.19-1,2.22,2.22,0,0,0,.69-1.59,2.05,2.05,0,0,0-.59-1.41,5.49,5.49,0,0,0-2.29-1.2v5.21Z" transform="translate(-314.16 -225.85)"/><path class="cls-9" d="M397.31,310.32h28.33v8.79H406.45l-1,6a21.7,21.7,0,0,1,3.94-1.3,17.72,17.72,0,0,1,3.85-.43,15.07,15.07,0,0,1,10.46,3.6,11.66,11.66,0,0,1,4,9.06,14.47,14.47,0,0,1-2.07,7.39,13.52,13.52,0,0,1-5.86,5.41,22,22,0,0,1-9.71,1.87,30.92,30.92,0,0,1-7.28-.74,15.37,15.37,0,0,1-5.16-2.22,13.74,13.74,0,0,1-3.44-3.34,16.79,16.79,0,0,1-2.2-4.65L404,338.49a6.57,6.57,0,0,0,2.05,4.07,5.67,5.67,0,0,0,3.84,1.39,5.38,5.38,0,0,0,4.12-1.75,7.4,7.4,0,0,0,1.63-5.21q0-3.54-1.64-5.2a5.88,5.88,0,0,0-4.37-1.65,7.54,7.54,0,0,0-3.34.78,9.57,9.57,0,0,0-2.64,2.06l-10.17-1.35Z" transform="translate(-314.16 -225.85)"/></svg>