<svg id="Layer_25" data-name="Layer 25" xmlns="http://www.w3.org/2000/svg" viewBox="0 0 182.33 142.08"><defs><style>.cls-1{fill:#299747;stroke-width:2.83px;}.cls-1,.cls-2,.cls-4,.cls-5,.cls-6,.cls-7{stroke:#fff;stroke-miterlimit:22.93;}.cls-2,.cls-9{fill:#fff;}.cls-2,.cls-4,.cls-5,.cls-6,.cls-7{stroke-width:0.22px;}.cls-3{fill:#1d793d;}.cls-4{fill:#e2e2e2;}.cls-5{fill:#d8d9d8;}.cls-6{fill:#e5e3e3;}.cls-7{fill:#119948;}.cls-8{fill:#010101;}</style></defs><title>$50</title><path class="cls-1" d="M111.17,128c49.43,0,89.75-19.91,89.75-44.31S160.6,39.42,111.17,39.42,21.42,59.33,21.42,83.73,61.74,128,111.17,128Z" transform="translate(-20.01 -10.01)"/><path class="cls-2" d="M111.17,127.4c-5.85,0-11.56-.28-17.09-0.82v-3.72c0-1.32,2.19-2.4,4.87-2.4h24.44c2.68,0,4.87,1.08,4.87,2.4v3.7c-5.53.53-11.24,0.82-17.09,0.82h0v0Zm76.61-21.84a63.43,63.43,0,0,1-10,6.9l-6.5-1.9c-2.32-.66-3.12-2.14-1.78-3.28l12.22-10.45c1.34-1.15,4.33-1.54,6.65-.88l6.53,1.86a41,41,0,0,1-7.11,7.72h0v0Zm0-43.68a41.07,41.07,0,0,1,7.11,7.72l-6.53,1.86c-2.32.66-5.31,0.27-6.65-.88L169.49,60.13c-1.34-1.15-.54-2.62,1.78-3.28L177.8,55a63.46,63.46,0,0,1,10,6.9h0ZM111.17,40c5.85,0,11.56.28,17.09,0.82v3.7c0,1.32-2.19,2.4-4.87,2.4H98.95c-2.68,0-4.87-1.08-4.87-2.4V40.84c5.53-.53,11.24-0.82,17.09-0.82h0v0ZM34.56,61.88a63.44,63.44,0,0,1,10-6.9l6.53,1.86c2.32,0.66,3.12,2.14,1.78,3.28L40.63,70.56c-1.34,1.15-4.33,1.54-6.65.88l-6.53-1.88a41.06,41.06,0,0,1,7.11-7.72h0v0Zm0,43.68a41.06,41.06,0,0,1-7.11-7.72L34,96c2.32-.66,5.31-0.27,6.65.88l12.21,10.46c1.34,1.15.54,2.62-1.78,3.28l-6.53,1.86A63.43,63.43,0,0,1,34.56,105.56Z" transform="translate(-20.01 -10.01)"/><path class="cls-3" d="M201.19,86.27c1.74,3.44,0,17.8,0,21.51,0,24.47-40.19,44.31-89.75,44.31s-89.75-19.84-89.75-44.31c0-3.71-1.74-18.06,0-21.51,0,24.47,40.15,44.29,89.74,44.29S201.19,110.74,201.19,86.27Z" transform="translate(-20.01 -10.01)"/><path class="cls-4" d="M194.89,121.23c-4,5.08-9.82,9.71-17.09,13.69V113.41c7.27-4,13.1-8.61,17.09-13.69v21.51Z" transform="translate(-20.01 -10.01)"/><path class="cls-5" d="M128.26,148.74v-21.5c-5.53.53-11.24,0.81-17.09,0.81s-11.56-.28-17.09-0.81v21.51c5.53,0.53,11.24.81,17.09,0.81S122.73,149.27,128.26,148.74Z" transform="translate(-20.01 -10.01)"/><path class="cls-6" d="M44.54,113.41v21.51c-7.27-4-13.1-8.61-17.09-13.69V99.72C31.44,104.81,37.27,109.44,44.54,113.41Z" transform="translate(-20.01 -10.01)"/><path class="cls-1" d="M111.17,100c49.43,0,89.75-19.91,89.75-44.31S160.6,11.42,111.17,11.42,21.42,31.33,21.42,55.73,61.74,100,111.17,100Z" transform="translate(-20.01 -10.01)"/><path class="cls-2" d="M111.17,89.8c38,0,69-15.31,69-34.07s-31-34.07-69-34.07-69,15.31-69,34.07S73.16,89.8,111.17,89.8Z" transform="translate(-20.01 -10.01)"/><path class="cls-7" d="M111.17,87.14c35,0,63.63-14.11,63.63-31.42S146.22,24.3,111.17,24.3,47.54,38.41,47.54,55.72,76.13,87.14,111.17,87.14Z" transform="translate(-20.01 -10.01)"/><path class="cls-2" d="M111.17,99.4c-5.85,0-11.56-.28-17.09-0.82V94.86c0-1.32,2.19-2.4,4.87-2.4h24.44c2.68,0,4.87,1.08,4.87,2.4v3.7c-5.53.53-11.24,0.82-17.09,0.82h0v0Zm76.61-21.84a63.43,63.43,0,0,1-10,6.9l-6.5-1.9c-2.32-.66-3.12-2.14-1.78-3.28l12.22-10.45c1.34-1.15,4.33-1.54,6.65-.88l6.53,1.86a41,41,0,0,1-7.11,7.72h0v0Zm0-43.68a41.07,41.07,0,0,1,7.11,7.72l-6.53,1.86c-2.32.66-5.31,0.27-6.65-.88L169.49,32.13c-1.34-1.15-.54-2.62,1.78-3.28L177.8,27a63.46,63.46,0,0,1,10,6.9h0ZM111.17,12c5.85,0,11.56.28,17.09,0.82v3.7c0,1.32-2.19,2.4-4.87,2.4H98.95c-2.68,0-4.87-1.08-4.87-2.4V12.84c5.53-.53,11.24-0.82,17.09-0.82h0v0ZM34.56,33.88a63.44,63.44,0,0,1,10-6.9l6.53,1.86c2.32,0.66,3.12,2.14,1.78,3.28L40.63,42.56c-1.34,1.15-4.33,1.54-6.65.88l-6.53-1.88a41.06,41.06,0,0,1,7.11-7.72h0v0Zm0,43.68a41.06,41.06,0,0,1-7.11-7.72L34,68c2.32-.66,5.31-0.27,6.65.88L52.84,79.32c1.34,1.15.54,2.62-1.78,3.28l-6.53,1.86A63.43,63.43,0,0,1,34.56,77.56Z" transform="translate(-20.01 -10.01)"/><path class="cls-3" d="M201.19,58.27c1.74,3.44,0,17.8,0,21.51,0,24.47-40.19,44.31-89.75,44.31S21.69,104.25,21.69,79.78c0-3.71-1.74-18.06,0-21.51,0,24.47,40.15,44.29,89.74,44.29S201.19,82.74,201.19,58.27Z" transform="translate(-20.01 -10.01)"/><path class="cls-4" d="M194.89,93.23c-4,5.08-9.82,9.71-17.09,13.69V85.41c7.27-4,13.1-8.61,17.09-13.69V93.23Z" transform="translate(-20.01 -10.01)"/><path class="cls-5" d="M128.26,120.74V99.24c-5.53.53-11.24,0.81-17.09,0.81s-11.56-.28-17.09-0.81v21.51c5.53,0.53,11.24.81,17.09,0.81S122.73,121.27,128.26,120.74Z" transform="translate(-20.01 -10.01)"/><path class="cls-6" d="M44.54,85.41v21.51c-7.27-4-13.1-8.61-17.09-13.69V71.72C31.44,76.81,37.27,81.44,44.54,85.41Z" transform="translate(-20.01 -10.01)"/><path class="cls-8" d="M82,59.7l-5.17.78a5.2,5.2,0,0,0-.7-1.31,3.45,3.45,0,0,0-1-.74v3.84q4.22,1.08,5.64,2.27a5.13,5.13,0,0,1,1.88,4.08,5.36,5.36,0,0,1-.67,2.66,6.54,6.54,0,0,1-1.72,2A7,7,0,0,1,78,74.46a11.41,11.41,0,0,1-2.89.43V77.4h-2V74.89a13.29,13.29,0,0,1-3.31-.63A6.78,6.78,0,0,1,67.59,73a6.26,6.26,0,0,1-1.42-1.75A7.88,7.88,0,0,1,65.42,69L71,68.36a4.9,4.9,0,0,0,.67,1.9,3.5,3.5,0,0,0,1.4,1V66.57a27,27,0,0,1-4-1.29,5.21,5.21,0,0,1-2-1.75,4.89,4.89,0,0,1-.86-2.93,5.14,5.14,0,0,1,1.73-4,8,8,0,0,1,5.15-1.76V53.53h2v1.31a8.82,8.82,0,0,1,4.72,1.52A5.62,5.62,0,0,1,82,59.7ZM73,58.37a2.63,2.63,0,0,0-1.24.69,1.47,1.47,0,0,0-.35,1,1.56,1.56,0,0,0,.35,1,2.62,2.62,0,0,0,1.23.73V58.38h0Zm2,13.07a3.28,3.28,0,0,0,1.73-.83,1.84,1.84,0,0,0,.55-1.3,1.7,1.7,0,0,0-.46-1.15,4.29,4.29,0,0,0-1.81-1v4.28Z" transform="translate(-20.01 -10.01)"/><path class="cls-8" d="M117.44,74.56H85a18.87,18.87,0,0,1,3.38-8.63q2.83-4,10.6-9.54a31.13,31.13,0,0,0,6.08-5.12,5.58,5.58,0,0,0,1.33-3.32,3.8,3.8,0,0,0-1.31-2.9,5.19,5.19,0,0,0-6.69,0,7.42,7.42,0,0,0-1.77,4.38l-10.79-.78a16,16,0,0,1,2.34-6.81A10.75,10.75,0,0,1,93,38.09a22.6,22.6,0,0,1,8.56-1.31A25.19,25.19,0,0,1,110.41,38a10.73,10.73,0,0,1,5,3.81,9.76,9.76,0,0,1,1.82,5.77,11.44,11.44,0,0,1-2.08,6.49q-2.08,3.09-7.58,6.79-3.27,2.15-4.37,3t-2.59,2.26h16.83v8.42Z" transform="translate(-20.01 -10.01)"/><path class="cls-8" d="M126.44,37.43h25.67v8.24H134.72l-0.93,5.58A19.2,19.2,0,0,1,137.36,50a15.56,15.56,0,0,1,3.49-.41A13.39,13.39,0,0,1,150.33,53,11.09,11.09,0,0,1,154,61.48a13.9,13.9,0,0,1-1.87,6.92,12.42,12.42,0,0,1-5.31,5.07,19.37,19.37,0,0,1-8.8,1.75,27.12,27.12,0,0,1-6.6-.7,13.7,13.7,0,0,1-4.67-2.08,12.65,12.65,0,0,1-3.12-3.13,16,16,0,0,1-2-4.36l10.94-1.14a6.23,6.23,0,0,0,1.86,3.81,5,5,0,0,0,3.48,1.31,4.8,4.8,0,0,0,3.73-1.63,7.08,7.08,0,0,0,1.47-4.88q0-3.32-1.49-4.87a5.23,5.23,0,0,0-4-1.55,6.65,6.65,0,0,0-3,.73,8.69,8.69,0,0,0-2.39,1.93L123,57.39Z" transform="translate(-20.01 -10.01)"/><path class="cls-9" d="M79.53,56.7l-5.25.79a5.3,5.3,0,0,0-.71-1.33,3.5,3.5,0,0,0-1.05-.75v3.9q4.29,1.09,5.73,2.31a5.21,5.21,0,0,1,1.9,4.14,5.44,5.44,0,0,1-.68,2.7,6.63,6.63,0,0,1-1.75,2,7.14,7.14,0,0,1-2.26,1.19,11.61,11.61,0,0,1-2.93.44v2.55H70.47V72.09a13.51,13.51,0,0,1-3.37-.64,6.88,6.88,0,0,1-2.23-1.29,6.34,6.34,0,0,1-1.45-1.77,8,8,0,0,1-.76-2.3l5.7-.63A5,5,0,0,0,69,67.39a3.55,3.55,0,0,0,1.42,1V63.68a27.35,27.35,0,0,1-4-1.31,5.28,5.28,0,0,1-2.07-1.77,5,5,0,0,1-.87-3,5.22,5.22,0,0,1,1.76-4,8.13,8.13,0,0,1,5.23-1.79V50.56h2.06v1.33a9,9,0,0,1,4.83,1.43A5.7,5.7,0,0,1,79.53,56.7Zm-9.07-1.35a2.67,2.67,0,0,0-1.26.7,1.49,1.49,0,0,0-.35,1,1.59,1.59,0,0,0,.36,1,2.68,2.68,0,0,0,1.25.74V55.35Zm2.06,13.27a3.33,3.33,0,0,0,1.76-.84,1.87,1.87,0,0,0,.56-1.32,1.73,1.73,0,0,0-.47-1.17,4.36,4.36,0,0,0-1.84-1v4.32h0Z" transform="translate(-20.01 -10.01)"/><path class="cls-9" d="M115.55,71.8H82.62A19.16,19.16,0,0,1,86.06,63q2.87-4.1,10.76-9.69a31.6,31.6,0,0,0,6.17-5.2,5.67,5.67,0,0,0,1.35-3.37,3.86,3.86,0,0,0-1.33-3,5.26,5.26,0,0,0-6.79,0,7.53,7.53,0,0,0-1.79,4.45l-11-.85a16.21,16.21,0,0,1,2.41-6.87,10.91,10.91,0,0,1,4.86-3.81,23,23,0,0,1,8.69-1.33,25.58,25.58,0,0,1,9,1.26,10.9,10.9,0,0,1,5.07,3.87,9.9,9.9,0,0,1,1.85,5.85A11.61,11.61,0,0,1,113.2,51q-2.12,3.14-7.69,6.9-3.31,2.19-4.43,3.06t-2.63,2.29h17.14v8.54Z" transform="translate(-20.01 -10.01)"/><path class="cls-9" d="M124.68,34.08h26.06v8.36H133.09l-0.94,5.66a19.5,19.5,0,0,1,3.62-1.23,15.79,15.79,0,0,1,3.54-.41,13.59,13.59,0,0,1,9.62,3.42,11.25,11.25,0,0,1,3.69,8.62,14.12,14.12,0,0,1-1.9,7,12.61,12.61,0,0,1-5.39,5.15,19.67,19.67,0,0,1-8.93,1.77,27.55,27.55,0,0,1-6.7-.71A13.89,13.89,0,0,1,125,69.6a12.83,12.83,0,0,1-3.17-3.18,16.21,16.21,0,0,1-2-4.43l11.05-1.13a6.32,6.32,0,0,0,1.89,3.87,5.11,5.11,0,0,0,3.53,1.33A4.87,4.87,0,0,0,140,64.4a7.19,7.19,0,0,0,1.5-5q0-3.37-1.51-4.94a5.31,5.31,0,0,0-4-1.57,6.75,6.75,0,0,0-3.07.75,8.85,8.85,0,0,0-2.42,2l-9.35-1.29Z" transform="translate(-20.01 -10.01)"/></svg>