<svg id="_500" data-name="500" xmlns="http://www.w3.org/2000/svg" viewBox="0 0 182.34 114.09"><defs><style>.cls-1{fill:#3a50a3;stroke-width:2.83px;}.cls-1,.cls-2,.cls-3,.cls-5,.cls-6,.cls-7{stroke:#fff;stroke-miterlimit:22.93;}.cls-1,.cls-2,.cls-3,.cls-4,.cls-5,.cls-6,.cls-7{fill-rule:evenodd;}.cls-2,.cls-8{fill:#fff;}.cls-2,.cls-3,.cls-5,.cls-6,.cls-7{stroke-width:0.22px;}.cls-3{fill:#31419a;}.cls-4{fill:#2b3385;}.cls-5{fill:#e2e2e2;}.cls-6{fill:#d8d8d8;}.cls-7{fill:#e5e3e3;}</style></defs><title>$500</title><path class="cls-1" d="M405.08,516.8c49.43,0,89.75-19.91,89.75-44.31s-40.32-44.31-89.75-44.31-89.75,19.91-89.75,44.31S355.64,516.8,405.08,516.8Z" transform="translate(-313.91 -426.75)"/><path class="cls-2" d="M405.08,506.56c38,0,69-15.31,69-34.07s-31-34.07-69-34.07-69,15.31-69,34.07S367.07,506.56,405.08,506.56Z" transform="translate(-313.91 -426.75)"/><path class="cls-3" d="M405.08,503.9c35,0,63.63-14.11,63.63-31.42s-28.58-31.42-63.63-31.42-63.63,14.11-63.63,31.42S370,503.9,405.08,503.9Z" transform="translate(-313.91 -426.75)"/><path class="cls-2" d="M405.08,516.16c-5.85,0-11.56-.28-17.09-0.82v-3.72c0-1.32,2.19-2.4,4.87-2.4H417.3c2.68,0,4.87,1.08,4.87,2.4v3.72c-5.53.53-11.24,0.82-17.09,0.82h0Zm76.61-21.84a63.43,63.43,0,0,1-10,6.9l-6.53-1.86c-2.32-.66-3.12-2.14-1.78-3.28l12.22-10.45c1.34-1.15,4.33-1.54,6.65-.88l6.53,1.86a41,41,0,0,1-7.11,7.72h0Zm0-43.68a41.07,41.07,0,0,1,7.11,7.72l-6.53,1.86c-2.32.66-5.31,0.27-6.65-.88L463.4,448.89c-1.34-1.15-.54-2.62,1.78-3.28l6.53-1.86a63.46,63.46,0,0,1,10,6.9h0Zm-76.61-21.84c5.85,0,11.56.28,17.09,0.82v3.72c0,1.32-2.19,2.4-4.87,2.4H392.86c-2.68,0-4.87-1.08-4.87-2.4v-3.72c5.53-.53,11.24-0.82,17.09-0.82h0Zm-76.61,21.84a63.44,63.44,0,0,1,10-6.9l6.53,1.86c2.32,0.66,3.12,2.14,1.78,3.28l-12.22,10.45c-1.34,1.15-4.33,1.54-6.65.88l-6.53-1.86a41.06,41.06,0,0,1,7.11-7.72h0Zm0,43.68a41.06,41.06,0,0,1-7.11-7.72l6.53-1.86c2.32-.66,5.31-0.27,6.65.88l12.22,10.45c1.34,1.15.54,2.62-1.78,3.28l-6.53,1.86A63.43,63.43,0,0,1,328.47,494.32Z" transform="translate(-313.91 -426.75)"/><path class="cls-4" d="M495.09,475c1.74,3.44,0,17.8,0,21.51,0,24.47-40.19,44.31-89.75,44.31S315.58,521,315.58,496.53c0-3.71-1.74-18.06,0-21.51,0,24.47,40.19,44.31,89.75,44.31S495.09,499.49,495.09,475Z" transform="translate(-313.91 -426.75)"/><path class="cls-5" d="M488.8,510c-4,5.08-9.82,9.71-17.09,13.69V502.17c7.27-4,13.1-8.61,17.09-13.69V510Z" transform="translate(-313.91 -426.75)"/><path class="cls-6" d="M422.16,537.5V516c-5.53.53-11.24,0.81-17.09,0.81S393.52,516.52,388,516V537.5c5.53,0.53,11.24.81,17.09,0.81S416.63,538,422.16,537.5Z" transform="translate(-313.91 -426.75)"/><path class="cls-7" d="M338.45,502.17v21.51c-7.27-4-13.1-8.61-17.09-13.69V488.48C325.35,493.56,331.17,498.19,338.45,502.17Z" transform="translate(-313.91 -426.75)"/><path d="M361.74,474.6l-4.19.6a4,4,0,0,0-.57-1,2.8,2.8,0,0,0-.84-0.57v3a12.88,12.88,0,0,1,4.57,1.75,3.88,3.88,0,0,1,1.52,3.14,4,4,0,0,1-.55,2,5.09,5.09,0,0,1-1.4,1.55,5.83,5.83,0,0,1-1.81.9,9.7,9.7,0,0,1-2.34.33v1.93H354.5v-1.93a11.35,11.35,0,0,1-2.69-.49,5.56,5.56,0,0,1-1.78-1,4.85,4.85,0,0,1-1.15-1.34,5.86,5.86,0,0,1-.61-1.74l4.55-.48a3.67,3.67,0,0,0,.55,1.46,2.82,2.82,0,0,0,1.13.8v-3.61a22.59,22.59,0,0,1-3.23-1,4.18,4.18,0,0,1-1.65-1.34,3.64,3.64,0,0,1-.7-2.25,3.87,3.87,0,0,1,1.4-3,6.71,6.71,0,0,1,4.17-1.35v-1h1.64v1A7.42,7.42,0,0,1,360,472,4.31,4.31,0,0,1,361.74,474.6Zm-7.24-1a2.18,2.18,0,0,0-1,.53,1.1,1.1,0,0,0-.28.75,1.17,1.17,0,0,0,.29.79,2.15,2.15,0,0,0,1,.56v-2.63Zm1.64,10.06a2.72,2.72,0,0,0,1.4-.64,1.39,1.39,0,0,0,.45-1,1.28,1.28,0,0,0-.38-0.89,3.53,3.53,0,0,0-1.47-.75v3.28Z" transform="translate(-313.91 -426.75)"/><path d="M368.66,456.09h21.79v6.64H375.69l-0.79,4.5a16.93,16.93,0,0,1,3-1,13.88,13.88,0,0,1,3-.33,11.72,11.72,0,0,1,8,2.72,8.73,8.73,0,0,1,3.09,6.85,10.77,10.77,0,0,1-1.59,5.58,10.32,10.32,0,0,1-4.51,4.09,17.18,17.18,0,0,1-7.47,1.41,24.22,24.22,0,0,1-5.6-.56,12,12,0,0,1-4-1.68,10.48,10.48,0,0,1-2.65-2.52,12.62,12.62,0,0,1-1.69-3.51l9.28-.92a4.93,4.93,0,0,0,1.58,3.08,4.41,4.41,0,0,0,3,1.05,4.18,4.18,0,0,0,3.17-1.32,5.52,5.52,0,0,0,1.25-3.93,5.32,5.32,0,0,0-1.26-3.92,4.57,4.57,0,0,0-3.36-1.25,5.88,5.88,0,0,0-2.57.59,7.36,7.36,0,0,0-2,1.55l-7.82-1Z" transform="translate(-313.91 -426.75)"/><path d="M395.72,470.95q0-8.54,3.39-12t10.33-3.41a16.91,16.91,0,0,1,5.47.75,10.33,10.33,0,0,1,3.49,1.94,10.52,10.52,0,0,1,2.13,2.51,12.35,12.35,0,0,1,1.25,3.08,26.16,26.16,0,0,1,.92,7q0,8.15-3,11.93t-10.48,3.78a16,16,0,0,1-6.74-1.21,10.58,10.58,0,0,1-4.21-3.54,12.58,12.58,0,0,1-1.86-4.53A28.14,28.14,0,0,1,395.72,470.95Zm9.1,0q0,5.72,1.12,7.82a3.51,3.51,0,0,0,3.23,2.09,3.58,3.58,0,0,0,2.42-.89,5.35,5.35,0,0,0,1.51-2.81,26.74,26.74,0,0,0,.48-6q0-6-1.12-8a3.59,3.59,0,0,0-3.34-2.05,3.42,3.42,0,0,0-3.29,2.09Q404.82,465.31,404.82,471Z" transform="translate(-313.91 -426.75)"/><path d="M426.49,470.95q0-8.54,3.39-12t10.33-3.41a16.91,16.91,0,0,1,5.47.75,10.35,10.35,0,0,1,3.49,1.94,10.54,10.54,0,0,1,2.13,2.51,12.38,12.38,0,0,1,1.25,3.08,26.2,26.2,0,0,1,.92,7q0,8.15-3,11.93T440,486.56a16,16,0,0,1-6.74-1.21,10.58,10.58,0,0,1-4.21-3.54,12.58,12.58,0,0,1-1.86-4.53A28.14,28.14,0,0,1,426.49,470.95Zm9.1,0q0,5.72,1.12,7.82a3.5,3.5,0,0,0,3.23,2.09,3.58,3.58,0,0,0,2.42-.89,5.34,5.34,0,0,0,1.51-2.81,26.79,26.79,0,0,0,.48-6q0-6-1.12-8a3.59,3.59,0,0,0-3.35-2.05,3.42,3.42,0,0,0-3.29,2.09Q435.6,465.31,435.6,471Z" transform="translate(-313.91 -426.75)"/><path class="cls-8" d="M360.74,471.6l-4.19.6a4,4,0,0,0-.57-1,2.8,2.8,0,0,0-.84-0.57v3a12.88,12.88,0,0,1,4.57,1.75,3.88,3.88,0,0,1,1.52,3.14,4,4,0,0,1-.55,2,5.09,5.09,0,0,1-1.4,1.55,5.83,5.83,0,0,1-1.81.9,9.7,9.7,0,0,1-2.34.33v1.93H353.5v-1.93a11.35,11.35,0,0,1-2.69-.49,5.56,5.56,0,0,1-1.78-1,4.85,4.85,0,0,1-1.15-1.34,5.86,5.86,0,0,1-.61-1.74l4.55-.48a3.67,3.67,0,0,0,.55,1.46,2.82,2.82,0,0,0,1.13.8v-3.61a22.59,22.59,0,0,1-3.23-1,4.18,4.18,0,0,1-1.65-1.34,3.64,3.64,0,0,1-.7-2.25,3.87,3.87,0,0,1,1.4-3,6.71,6.71,0,0,1,4.17-1.35v-1h1.64v1A7.42,7.42,0,0,1,359,469,4.31,4.31,0,0,1,360.74,471.6Zm-7.24-1a2.18,2.18,0,0,0-1,.53,1.1,1.1,0,0,0-.28.75,1.17,1.17,0,0,0,.29.79,2.15,2.15,0,0,0,1,.56v-2.63Zm1.64,10.06a2.72,2.72,0,0,0,1.4-.64,1.39,1.39,0,0,0,.45-1,1.28,1.28,0,0,0-.38-0.89,3.53,3.53,0,0,0-1.47-.75v3.28Z" transform="translate(-313.91 -426.75)"/><path class="cls-8" d="M367.66,453.09h21.79v6.64H374.69l-0.79,4.5a16.93,16.93,0,0,1,3-1,13.88,13.88,0,0,1,3-.33,11.72,11.72,0,0,1,8,2.72,8.73,8.73,0,0,1,3.09,6.85,10.77,10.77,0,0,1-1.59,5.58,10.32,10.32,0,0,1-4.51,4.09,17.18,17.18,0,0,1-7.47,1.41,24.22,24.22,0,0,1-5.6-.56,12,12,0,0,1-4-1.68,10.48,10.48,0,0,1-2.65-2.52,12.62,12.62,0,0,1-1.69-3.51l9.28-.92a4.93,4.93,0,0,0,1.58,3.08,4.41,4.41,0,0,0,3,1.05,4.18,4.18,0,0,0,3.17-1.32,5.52,5.52,0,0,0,1.25-3.93,5.32,5.32,0,0,0-1.26-3.92,4.57,4.57,0,0,0-3.36-1.25,5.88,5.88,0,0,0-2.57.59,7.36,7.36,0,0,0-2,1.55l-7.82-1Z" transform="translate(-313.91 -426.75)"/><path class="cls-8" d="M394.72,467.95q0-8.54,3.39-12t10.33-3.41a16.91,16.91,0,0,1,5.47.75,10.33,10.33,0,0,1,3.49,1.94,10.52,10.52,0,0,1,2.13,2.51,12.35,12.35,0,0,1,1.25,3.08,26.16,26.16,0,0,1,.92,7q0,8.15-3,11.93t-10.48,3.78a16,16,0,0,1-6.74-1.21,10.58,10.58,0,0,1-4.21-3.54,12.58,12.58,0,0,1-1.86-4.53A28.14,28.14,0,0,1,394.72,467.95Zm9.1,0q0,5.72,1.12,7.82a3.51,3.51,0,0,0,3.23,2.09,3.58,3.58,0,0,0,2.42-.89,5.35,5.35,0,0,0,1.51-2.81,26.74,26.74,0,0,0,.48-6q0-6-1.12-8a3.59,3.59,0,0,0-3.34-2.05,3.42,3.42,0,0,0-3.29,2.09Q403.82,462.31,403.82,468Z" transform="translate(-313.91 -426.75)"/><path class="cls-8" d="M425.49,467.95q0-8.54,3.39-12t10.33-3.41a16.91,16.91,0,0,1,5.47.75,10.35,10.35,0,0,1,3.49,1.94,10.54,10.54,0,0,1,2.13,2.51,12.38,12.38,0,0,1,1.25,3.08,26.2,26.2,0,0,1,.92,7q0,8.15-3,11.93T439,483.56a16,16,0,0,1-6.74-1.21,10.58,10.58,0,0,1-4.21-3.54,12.58,12.58,0,0,1-1.86-4.53A28.14,28.14,0,0,1,425.49,467.95Zm9.1,0q0,5.72,1.12,7.82a3.5,3.5,0,0,0,3.23,2.09,3.58,3.58,0,0,0,2.42-.89,5.34,5.34,0,0,0,1.51-2.81,26.79,26.79,0,0,0,.48-6q0-6-1.12-8a3.59,3.59,0,0,0-3.35-2.05,3.42,3.42,0,0,0-3.29,2.09Q434.6,462.31,434.6,468Z" transform="translate(-313.91 -426.75)"/></svg>